<?xml version="1.0" encoding="UTF-8" standalone="no"?>
<!-- Created with Inkscape (http://www.inkscape.org/) -->

<svg
   xmlns:dc="http://purl.org/dc/elements/1.1/"
   xmlns:cc="http://creativecommons.org/ns#"
   xmlns:rdf="http://www.w3.org/1999/02/22-rdf-syntax-ns#"
   xmlns:svg="http://www.w3.org/2000/svg"
   xmlns="http://www.w3.org/2000/svg"
   xmlns:sodipodi="http://sodipodi.sourceforge.net/DTD/sodipodi-0.dtd"
   xmlns:inkscape="http://www.inkscape.org/namespaces/inkscape"
   id="svg2"
   version="1.1"
   inkscape:version="0.91 r13725"
   xml:space="preserve"
   width="326.33453"
   height="102.49931"
   viewBox="0 0 326.33453 102.49931"
   sodipodi:docname="tr_model.pdf"><metadata
     id="metadata8"><rdf:RDF><cc:Work
         rdf:about=""><dc:format>image/svg+xml</dc:format><dc:type
           rdf:resource="http://purl.org/dc/dcmitype/StillImage" /><dc:title></dc:title></cc:Work></rdf:RDF></metadata><defs
     id="defs6" /><sodipodi:namedview
     pagecolor="#ffffff"
     bordercolor="#666666"
     borderopacity="1"
     objecttolerance="10"
     gridtolerance="10"
     guidetolerance="10"
     inkscape:pageopacity="0"
     inkscape:pageshadow="2"
     inkscape:window-width="640"
     inkscape:window-height="480"
     id="namedview4"
     showgrid="false" /><g
     id="g10"
     inkscape:groupmode="layer"
     inkscape:label="tr_model"
     transform="matrix(1.25,0,0,-1.25,0,102.49931)"><g
       id="g12"><g
         id="g14"
         transform="translate(0,81.999451)"><path
           d="m 64.59,-51.008 c 0,5.301 -4.297,9.598 -9.602,9.598 -5.3,0 -9.597,-4.297 -9.597,-9.598 0,-5.301 4.297,-9.601 9.597,-9.601 5.305,0 9.602,4.3 9.602,9.601"
           style="fill:none;stroke:#000000;stroke-width:0.77999997;stroke-linecap:round;stroke-linejoin:bevel;stroke-miterlimit:6;stroke-dasharray:none;stroke-opacity:1"
           id="path16"
           inkscape:connector-curvature="0" /></g><g
         id="g18"
         transform="translate(0,81.999451)"><path
           d="m 54.988,-31.809 0,-9.601"
           style="fill:none;stroke:#000000;stroke-width:0.77999997;stroke-linecap:round;stroke-linejoin:bevel;stroke-miterlimit:6;stroke-dasharray:none;stroke-opacity:1"
           id="path20"
           inkscape:connector-curvature="0" /></g><g
         id="g22"
         transform="translate(0,81.999451)"><path
           d="m 54.988,-70.211 0,9.602"
           style="fill:none;stroke:#000000;stroke-width:0.77999997;stroke-linecap:round;stroke-linejoin:bevel;stroke-miterlimit:6;stroke-dasharray:none;stroke-opacity:1"
           id="path24"
           inkscape:connector-curvature="0" /></g><g
         id="g26"
         transform="translate(0,81.999451)"><path
           d="m 31.59,-22.211 c 1.199,6 6,6 7.199,0"
           style="fill:none;stroke:#000000;stroke-width:0.77999997;stroke-linecap:round;stroke-linejoin:bevel;stroke-miterlimit:6;stroke-dasharray:none;stroke-opacity:1"
           id="path28"
           inkscape:connector-curvature="0" /></g><g
         id="g30"
         transform="translate(0,81.999451)"><path
           d="m 31.59,-22.211 c -1.199,-6 2.398,-6 1.199,0"
           style="fill:none;stroke:#000000;stroke-width:0.77999997;stroke-linecap:round;stroke-linejoin:bevel;stroke-miterlimit:6;stroke-dasharray:none;stroke-opacity:1"
           id="path32"
           inkscape:connector-curvature="0" /></g><g
         id="g34"
         transform="translate(0,81.999451)"><path
           d="m 13.59,-22.211 c 1.199,6 6,6 7.199,0"
           style="fill:none;stroke:#000000;stroke-width:0.77999997;stroke-linecap:round;stroke-linejoin:bevel;stroke-miterlimit:6;stroke-dasharray:none;stroke-opacity:1"
           id="path36"
           inkscape:connector-curvature="0" /></g><g
         id="g38"
         transform="translate(0,81.999451)"><path
           d="m 19.59,-22.211 c 1.199,6 6,6 7.199,0"
           style="fill:none;stroke:#000000;stroke-width:0.77999997;stroke-linecap:round;stroke-linejoin:bevel;stroke-miterlimit:6;stroke-dasharray:none;stroke-opacity:1"
           id="path40"
           inkscape:connector-curvature="0" /></g><g
         id="g42"
         transform="translate(0,81.999451)"><path
           d="m 25.59,-22.211 c 1.199,6 6,6 7.199,0"
           style="fill:none;stroke:#000000;stroke-width:0.77999997;stroke-linecap:round;stroke-linejoin:bevel;stroke-miterlimit:6;stroke-dasharray:none;stroke-opacity:1"
           id="path44"
           inkscape:connector-curvature="0" /></g><g
         id="g46"
         transform="translate(0,81.999451)"><path
           d="m 19.59,-22.211 c -1.199,-6 2.398,-6 1.199,0"
           style="fill:none;stroke:#000000;stroke-width:0.77999997;stroke-linecap:round;stroke-linejoin:bevel;stroke-miterlimit:6;stroke-dasharray:none;stroke-opacity:1"
           id="path48"
           inkscape:connector-curvature="0" /></g><g
         id="g50"
         transform="translate(0,81.999451)"><path
           d="m 25.59,-22.211 c -1.199,-6 2.398,-6 1.199,0"
           style="fill:none;stroke:#000000;stroke-width:0.77999997;stroke-linecap:round;stroke-linejoin:bevel;stroke-miterlimit:6;stroke-dasharray:none;stroke-opacity:1"
           id="path52"
           inkscape:connector-curvature="0" /></g><g
         id="g54"
         transform="translate(0,81.999451)"><path
           d="m 45.391,-22.211 -6.602,0"
           style="fill:none;stroke:#000000;stroke-width:0.77999997;stroke-linecap:round;stroke-linejoin:bevel;stroke-miterlimit:6;stroke-dasharray:none;stroke-opacity:1"
           id="path56"
           inkscape:connector-curvature="0" /></g><g
         id="g58"
         transform="translate(0,81.999451)"><path
           d="m 6.988,-22.211 6.602,0"
           style="fill:none;stroke:#000000;stroke-width:0.77999997;stroke-linecap:round;stroke-linejoin:bevel;stroke-miterlimit:6;stroke-dasharray:none;stroke-opacity:1"
           id="path60"
           inkscape:connector-curvature="0" /></g><g
         id="g62"
         transform="translate(0,81.999451)"><path
           d="m 0.391,-22.211 c 0,-0.992 0.804,-1.797 1.8,-1.797 0.993,0 1.797,0.805 1.797,1.797 0,0.996 -0.804,1.801 -1.797,1.801 -0.996,0 -1.8,-0.805 -1.8,-1.801"
           style="fill:none;stroke:#000000;stroke-width:0.77999997;stroke-linecap:round;stroke-linejoin:bevel;stroke-miterlimit:6;stroke-dasharray:none;stroke-opacity:1"
           id="path64"
           inkscape:connector-curvature="0" /></g><g
         id="g66"
         transform="translate(0,81.999451)"><path
           d="m 3.988,-22.211 3,0"
           style="fill:none;stroke:#000000;stroke-width:0.77999997;stroke-linecap:round;stroke-linejoin:bevel;stroke-miterlimit:6;stroke-dasharray:none;stroke-opacity:1"
           id="path68"
           inkscape:connector-curvature="0" /></g><g
         id="g70"
         transform="translate(0,81.999451)"><path
           d="m 0.391,-79.809 c 0,-0.996 0.804,-1.8 1.8,-1.8 0.993,0 1.797,0.804 1.797,1.8 0,0.993 -0.804,1.801 -1.797,1.801 -0.996,0 -1.8,-0.808 -1.8,-1.801"
           style="fill:none;stroke:#000000;stroke-width:0.77999997;stroke-linecap:round;stroke-linejoin:bevel;stroke-miterlimit:6;stroke-dasharray:none;stroke-opacity:1"
           id="path72"
           inkscape:connector-curvature="0" /></g><g
         id="g74"
         transform="translate(0,81.999451)"><path
           d="m 3.988,-79.809 3,0"
           style="fill:none;stroke:#000000;stroke-width:0.77999997;stroke-linecap:round;stroke-linejoin:bevel;stroke-miterlimit:6;stroke-dasharray:none;stroke-opacity:1"
           id="path76"
           inkscape:connector-curvature="0" /></g><g
         id="g78"
         transform="translate(0,81.999451)"><path
           d="m 54.988,-31.809 0,9.598 -9.597,0"
           style="fill:none;stroke:#000000;stroke-width:0.77999997;stroke-linecap:round;stroke-linejoin:bevel;stroke-miterlimit:6;stroke-dasharray:none;stroke-opacity:1"
           id="path80"
           inkscape:connector-curvature="0" /></g><g
         id="g82"
         transform="translate(0,81.999451)"><path
           d="m 6.988,-79.809 48,0 0,9.598"
           style="fill:none;stroke:#000000;stroke-width:0.77999997;stroke-linecap:round;stroke-linejoin:bevel;stroke-miterlimit:6;stroke-dasharray:none;stroke-opacity:1"
           id="path84"
           inkscape:connector-curvature="0" /></g><path
         d="m 48.227,41.148 c -3.184,1.058 -3.821,1.695 -7.637,4.242 2.547,-3.816 3.183,-4.453 4.242,-7.637 0.848,1.696 1.699,2.547 3.395,3.395"
         style="fill:#000000;fill-opacity:1;fill-rule:evenodd;stroke:none"
         id="path86"
         inkscape:connector-curvature="0" /><g
         id="g88"
         transform="translate(0,81.999451)"><path
           d="m 74.191,-60.609 -9.601,0 -19.199,19.199"
           style="fill:none;stroke:#000000;stroke-width:0.77999997;stroke-linecap:round;stroke-linejoin:bevel;stroke-miterlimit:6;stroke-dasharray:none;stroke-opacity:1"
           id="path90"
           inkscape:connector-curvature="0" /></g><g
         id="g92"
         transform="translate(0,81.999451)"><path
           d="m 84.078,-53.336 c 1.067,-4.273 4.906,-7.273 9.313,-7.273 4.402,0 8.246,3 9.312,7.273"
           style="fill:none;stroke:#000000;stroke-width:0.77999997;stroke-linecap:round;stroke-linejoin:bevel;stroke-miterlimit:6;stroke-dasharray:none;stroke-opacity:1"
           id="path94"
           inkscape:connector-curvature="0" /></g><g
         id="g96"
         transform="translate(0,81.999451)"><path
           d="m 102.703,-48.68 c -1.066,4.274 -4.91,7.27 -9.312,7.27 -4.407,0 -8.246,-2.996 -9.313,-7.27"
           style="fill:none;stroke:#000000;stroke-width:0.77999997;stroke-linecap:round;stroke-linejoin:bevel;stroke-miterlimit:6;stroke-dasharray:none;stroke-opacity:1"
           id="path98"
           inkscape:connector-curvature="0" /></g><path
         d="m 100.152,20.831 c 3.184,-1.058 3.821,-1.695 7.637,-4.242 -2.547,3.821 -3.18,4.457 -4.242,7.637 -0.848,-1.695 -1.695,-2.547 -3.395,-3.395"
         style="fill:#000000;fill-opacity:1;fill-rule:evenodd;stroke:none"
         id="path100"
         inkscape:connector-curvature="0" /><g
         id="g102"
         transform="translate(0,81.999451)"><path
           d="m 74.191,-41.41 9.598,0 19.199,-19.199"
           style="fill:none;stroke:#000000;stroke-width:0.77999997;stroke-linecap:round;stroke-linejoin:bevel;stroke-miterlimit:6;stroke-dasharray:none;stroke-opacity:1"
           id="path104"
           inkscape:connector-curvature="0" /></g><g
         id="g106"
         transform="translate(0,81.999451)"><path
           d="m 131.789,-56.41 c 6,-1.199 6,-6 0,-7.199"
           style="fill:none;stroke:#000000;stroke-width:0.77999997;stroke-linecap:round;stroke-linejoin:bevel;stroke-miterlimit:6;stroke-dasharray:none;stroke-opacity:1"
           id="path108"
           inkscape:connector-curvature="0" /></g><g
         id="g110"
         transform="translate(0,81.999451)"><path
           d="m 131.789,-56.41 c -6,1.199 -6,-2.399 0,-1.199"
           style="fill:none;stroke:#000000;stroke-width:0.77999997;stroke-linecap:round;stroke-linejoin:bevel;stroke-miterlimit:6;stroke-dasharray:none;stroke-opacity:1"
           id="path112"
           inkscape:connector-curvature="0" /></g><g
         id="g114"
         transform="translate(0,81.999451)"><path
           d="m 131.789,-38.41 c 6,-1.199 6,-6 0,-7.199"
           style="fill:none;stroke:#000000;stroke-width:0.77999997;stroke-linecap:round;stroke-linejoin:bevel;stroke-miterlimit:6;stroke-dasharray:none;stroke-opacity:1"
           id="path116"
           inkscape:connector-curvature="0" /></g><g
         id="g118"
         transform="translate(0,81.999451)"><path
           d="m 131.789,-44.41 c 6,-1.199 6,-6 0,-7.199"
           style="fill:none;stroke:#000000;stroke-width:0.77999997;stroke-linecap:round;stroke-linejoin:bevel;stroke-miterlimit:6;stroke-dasharray:none;stroke-opacity:1"
           id="path120"
           inkscape:connector-curvature="0" /></g><g
         id="g122"
         transform="translate(0,81.999451)"><path
           d="m 131.789,-50.41 c 6,-1.199 6,-6 0,-7.199"
           style="fill:none;stroke:#000000;stroke-width:0.77999997;stroke-linecap:round;stroke-linejoin:bevel;stroke-miterlimit:6;stroke-dasharray:none;stroke-opacity:1"
           id="path124"
           inkscape:connector-curvature="0" /></g><g
         id="g126"
         transform="translate(0,81.999451)"><path
           d="m 131.789,-44.41 c -6,1.199 -6,-2.399 0,-1.199"
           style="fill:none;stroke:#000000;stroke-width:0.77999997;stroke-linecap:round;stroke-linejoin:bevel;stroke-miterlimit:6;stroke-dasharray:none;stroke-opacity:1"
           id="path128"
           inkscape:connector-curvature="0" /></g><g
         id="g130"
         transform="translate(0,81.999451)"><path
           d="m 131.789,-50.41 c -6,1.199 -6,-2.399 0,-1.199"
           style="fill:none;stroke:#000000;stroke-width:0.77999997;stroke-linecap:round;stroke-linejoin:bevel;stroke-miterlimit:6;stroke-dasharray:none;stroke-opacity:1"
           id="path132"
           inkscape:connector-curvature="0" /></g><g
         id="g134"
         transform="translate(0,81.999451)"><path
           d="m 131.789,-70.211 0,6.602"
           style="fill:none;stroke:#000000;stroke-width:0.77999997;stroke-linecap:round;stroke-linejoin:bevel;stroke-miterlimit:6;stroke-dasharray:none;stroke-opacity:1"
           id="path136"
           inkscape:connector-curvature="0" /></g><g
         id="g138"
         transform="translate(0,81.999451)"><path
           d="m 131.789,-31.809 0,-6.601"
           style="fill:none;stroke:#000000;stroke-width:0.77999997;stroke-linecap:round;stroke-linejoin:bevel;stroke-miterlimit:6;stroke-dasharray:none;stroke-opacity:1"
           id="path140"
           inkscape:connector-curvature="0" /></g><g
         id="g142"
         transform="translate(0,81.999451)"><path
           d="m 200.191,-22.211 8.399,0"
           style="fill:none;stroke:#000000;stroke-width:0.77999997;stroke-linecap:round;stroke-linejoin:bevel;stroke-miterlimit:6;stroke-dasharray:none;stroke-opacity:1"
           id="path144"
           inkscape:connector-curvature="0" /></g><g
         id="g146"
         transform="translate(0,81.999451)"><path
           d="m 178.59,-22.211 -8.399,0"
           style="fill:none;stroke:#000000;stroke-width:0.77999997;stroke-linecap:round;stroke-linejoin:bevel;stroke-miterlimit:6;stroke-dasharray:none;stroke-opacity:1"
           id="path148"
           inkscape:connector-curvature="0" /></g><g
         id="g150"
         transform="translate(0,81.999451)"><path
           d="m 200.191,-22.211 -1.8,4.203 -3.602,-8.402 -3.598,8.402 -3.601,-8.402 -3.602,8.402 -3.597,-8.402 -1.801,4.199"
           style="fill:none;stroke:#000000;stroke-width:0.77999997;stroke-linecap:round;stroke-linejoin:bevel;stroke-miterlimit:6;stroke-dasharray:none;stroke-opacity:1"
           id="path152"
           inkscape:connector-curvature="0" /></g><g
         id="g154"
         transform="translate(0,81.999451)"><path
           d="m 227.789,-40.211 0,8.402"
           style="fill:none;stroke:#000000;stroke-width:0.77999997;stroke-linecap:round;stroke-linejoin:bevel;stroke-miterlimit:6;stroke-dasharray:none;stroke-opacity:1"
           id="path156"
           inkscape:connector-curvature="0" /></g><g
         id="g158"
         transform="translate(0,81.999451)"><path
           d="m 227.789,-61.809 0,-8.402"
           style="fill:none;stroke:#000000;stroke-width:0.77999997;stroke-linecap:round;stroke-linejoin:bevel;stroke-miterlimit:6;stroke-dasharray:none;stroke-opacity:1"
           id="path160"
           inkscape:connector-curvature="0" /></g><g
         id="g162"
         transform="translate(0,81.999451)"><path
           d="m 227.789,-40.211 -4.199,-1.797 8.398,-3.601 -8.398,-3.602 8.398,-3.598 -8.398,-3.601 8.398,-3.598 -4.199,-1.801"
           style="fill:none;stroke:#000000;stroke-width:0.77999997;stroke-linecap:round;stroke-linejoin:bevel;stroke-miterlimit:6;stroke-dasharray:none;stroke-opacity:1"
           id="path164"
           inkscape:connector-curvature="0" /></g><g
         id="g166"
         transform="translate(0,81.999451)"><path
           d="m 170.191,-22.211 -76.8,0 0,-19.199"
           style="fill:none;stroke:#000000;stroke-width:0.77999997;stroke-linecap:round;stroke-linejoin:bevel;stroke-miterlimit:6;stroke-dasharray:none;stroke-opacity:1"
           id="path168"
           inkscape:connector-curvature="0" /></g><g
         id="g170"
         transform="translate(0,81.999451)"><path
           d="m 227.789,-31.809 0,9.598 -19.199,0"
           style="fill:none;stroke:#000000;stroke-width:0.77999997;stroke-linecap:round;stroke-linejoin:bevel;stroke-miterlimit:6;stroke-dasharray:none;stroke-opacity:1"
           id="path172"
           inkscape:connector-curvature="0" /></g><g
         id="g174"
         transform="translate(0,81.999451)"><path
           d="m 93.391,-60.609 0,-19.2 134.398,0 0,9.598"
           style="fill:none;stroke:#000000;stroke-width:0.77999997;stroke-linecap:round;stroke-linejoin:bevel;stroke-miterlimit:6;stroke-dasharray:none;stroke-opacity:1"
           id="path176"
           inkscape:connector-curvature="0" /></g><g
         id="g178"
         transform="translate(0,81.999451)"><path
           d="m 131.789,-79.809 0,9.598"
           style="fill:none;stroke:#000000;stroke-width:0.77999997;stroke-linecap:round;stroke-linejoin:bevel;stroke-miterlimit:6;stroke-dasharray:none;stroke-opacity:1"
           id="path180"
           inkscape:connector-curvature="0" /></g><path
         d="m 133.59,2.191 c 0,0.992 -0.805,1.801 -1.801,1.801 -0.992,0 -1.801,-0.809 -1.801,-1.801 0,-0.996 0.809,-1.801 1.801,-1.801 0.996,0 1.801,0.805 1.801,1.801"
         style="fill:#000000;fill-opacity:1;fill-rule:evenodd;stroke:none"
         id="path182"
         inkscape:connector-curvature="0" /><g
         id="g184"
         transform="translate(0,81.999451)"><path
           d="m 131.789,-22.211 0,-9.598"
           style="fill:none;stroke:#000000;stroke-width:0.77999997;stroke-linecap:round;stroke-linejoin:bevel;stroke-miterlimit:6;stroke-dasharray:none;stroke-opacity:1"
           id="path186"
           inkscape:connector-curvature="0" /></g><path
         d="m 133.59,59.789 c 0,0.996 -0.805,1.8 -1.801,1.8 -0.992,0 -1.801,-0.804 -1.801,-1.8 0,-0.993 0.809,-1.797 1.801,-1.797 0.996,0 1.801,0.804 1.801,1.797"
         style="fill:#000000;fill-opacity:1;fill-rule:evenodd;stroke:none"
         id="path188"
         inkscape:connector-curvature="0" /><g
         id="g190"
         transform="translate(0,81.999451)"><path
           d="m 160.59,-27.008 0,-48"
           style="fill:none;stroke:#000000;stroke-width:0.46799999;stroke-linecap:round;stroke-linejoin:bevel;stroke-miterlimit:6;stroke-dasharray:none;stroke-opacity:1"
           id="path192"
           inkscape:connector-curvature="0" /></g><g
         id="g194"
         transform="translate(0,81.999451)"><path
           d="m 162.988,-70.211 c -2.398,0 -2.398,-4.797 -2.398,-4.797 0,0 0,4.797 -2.399,4.797"
           style="fill:none;stroke:#000000;stroke-width:0.46799999;stroke-linecap:round;stroke-linejoin:bevel;stroke-miterlimit:6;stroke-dasharray:none;stroke-opacity:1"
           id="path196"
           inkscape:connector-curvature="0" /></g><g
         id="g198"
         transform="translate(0,81.999451)"><path
           d="m 42.988,-58.211 c -2.398,0 -2.398,-4.797 -2.398,-4.797 0,0 0,4.797 -2.399,4.797"
           style="fill:none;stroke:#000000;stroke-width:0.46799999;stroke-linecap:round;stroke-linejoin:bevel;stroke-miterlimit:6;stroke-dasharray:none;stroke-opacity:1"
           id="path200"
           inkscape:connector-curvature="0" /></g><g
         id="g202"
         transform="translate(0,81.999451)"><path
           d="m 40.59,-43.809 0,-19.199"
           style="fill:none;stroke:#000000;stroke-width:0.46799999;stroke-linecap:round;stroke-linejoin:bevel;stroke-miterlimit:6;stroke-dasharray:none;stroke-opacity:1"
           id="path204"
           inkscape:connector-curvature="0" /></g><path
         d="m 10.59,66.992 c 3,1.5 3.898,1.5 8.398,2.398 -4.5,0.899 -5.398,0.899 -8.398,2.399 0.601,-1.797 0.601,-3 0,-4.797"
         style="fill:#000000;fill-opacity:1;fill-rule:evenodd;stroke:none"
         id="path206"
         inkscape:connector-curvature="0" /><g
         id="g208"
         transform="translate(0,81.999451)"><path
           d="m 2.191,-12.609 9.598,0"
           style="fill:none;stroke:#000000;stroke-width:0.77999997;stroke-linecap:round;stroke-linejoin:bevel;stroke-miterlimit:6;stroke-dasharray:none;stroke-opacity:1"
           id="path210"
           inkscape:connector-curvature="0" /></g><path
         d="m 111.391,66.992 c 3,1.5 3.898,1.5 8.398,2.398 -4.5,0.899 -5.398,0.899 -8.398,2.399 0.597,-1.797 0.597,-3 0,-4.797"
         style="fill:#000000;fill-opacity:1;fill-rule:evenodd;stroke:none"
         id="path212"
         inkscape:connector-curvature="0" /><g
         id="g214"
         transform="translate(0,81.999451)"><path
           d="m 102.988,-12.609 9.602,0"
           style="fill:none;stroke:#000000;stroke-width:0.77999997;stroke-linecap:round;stroke-linejoin:bevel;stroke-miterlimit:6;stroke-dasharray:none;stroke-opacity:1"
           id="path216"
           inkscape:connector-curvature="0" /></g><path
         d="m 138.988,44.191 c 1.5,-3 1.5,-3.902 2.403,-8.402 0.898,4.5 0.898,5.402 2.398,8.402 -1.801,-0.602 -3,-0.602 -4.801,0"
         style="fill:#000000;fill-opacity:1;fill-rule:evenodd;stroke:none"
         id="path218"
         inkscape:connector-curvature="0" /><g
         id="g220"
         transform="translate(0,81.999451)"><path
           d="m 141.391,-41.41 0,14.402"
           style="fill:none;stroke:#000000;stroke-width:0.77999997;stroke-linecap:round;stroke-linejoin:bevel;stroke-miterlimit:6;stroke-dasharray:none;stroke-opacity:1"
           id="path222"
           inkscape:connector-curvature="0" /></g><text
         transform="matrix(1,0,0,-1,64.63404,11.666011)"
         style="font-style:italic;font-variant:normal;font-size:10.55879974px;font-family:Utopia;-inkscape-font-specification:Utopia-Italic;writing-mode:lr-tb;fill:#000000;fill-opacity:1;fill-rule:nonzero;stroke:none"
         id="text224"><tspan
           x="0"
           y="0"
           id="tspan226">v</tspan></text>
<text
         transform="matrix(1,0,0,-1,71.50279,9.946481)"
         style="font-variant:normal;font-weight:normal;font-size:7.91909981px;font-family:Utopia;-inkscape-font-specification:Utopia-Regular;writing-mode:lr-tb;fill:#000000;fill-opacity:1;fill-rule:nonzero;stroke:none"
         id="text228"><tspan
           x="0"
           y="0"
           id="tspan230">2</tspan></text>
<text
         transform="matrix(1,0,0,-1,74.42584,45.649981)"
         style="font-style:italic;font-variant:normal;font-size:10.55879974px;font-family:Utopia;-inkscape-font-specification:Utopia-Italic;writing-mode:lr-tb;fill:#000000;fill-opacity:1;fill-rule:nonzero;stroke:none"
         id="text232"><tspan
           x="0"
           y="0"
           id="tspan234">i</tspan></text>
<text
         transform="matrix(1,0,0,-1,78.40045,43.930451)"
         style="font-variant:normal;font-weight:normal;font-size:7.91909981px;font-family:Utopia;-inkscape-font-specification:Utopia-Regular;writing-mode:lr-tb;fill:#000000;fill-opacity:1;fill-rule:nonzero;stroke:none"
         id="text236"><tspan
           x="0"
           y="0"
           id="tspan238">1</tspan></text>
<text
         transform="matrix(1,0,0,-1,26.04185,26.065951)"
         style="font-style:italic;font-variant:normal;font-size:10.55879974px;font-family:Utopia;-inkscape-font-specification:Utopia-Italic;writing-mode:lr-tb;fill:#000000;fill-opacity:1;fill-rule:nonzero;stroke:none"
         id="text240"><tspan
           x="0"
           y="0"
           id="tspan242">v</tspan></text>
<text
         transform="matrix(1,0,0,-1,33.1438,31.223761)"
         style="font-variant:normal;font-weight:normal;font-size:7.91909981px;font-family:Utopia;-inkscape-font-specification:Utopia-Regular;writing-mode:lr-tb;fill:#000000;fill-opacity:1;fill-rule:nonzero;stroke:none"
         id="text244"><tspan
           x="0"
           y="0"
           id="tspan246">,</tspan><tspan
           x="-0.23320325"
           y="8.8644505"
           id="tspan248">2</tspan></text>
<text
         transform="matrix(1,0,0,-1,2.4258,74.449911)"
         style="font-style:italic;font-variant:normal;font-size:10.55879974px;font-family:Utopia;-inkscape-font-specification:Utopia-Italic;writing-mode:lr-tb;fill:#000000;fill-opacity:1;fill-rule:nonzero;stroke:none"
         id="text250"><tspan
           x="0"
           y="0"
           id="tspan252">i</tspan></text>
<text
         transform="matrix(1,0,0,-1,6.40041,72.730381)"
         style="font-variant:normal;font-weight:normal;font-size:7.91909981px;font-family:Utopia;-inkscape-font-specification:Utopia-Regular;writing-mode:lr-tb;fill:#000000;fill-opacity:1;fill-rule:nonzero;stroke:none"
         id="text254"><tspan
           x="0"
           y="0"
           id="tspan256">1</tspan></text>
<text
         transform="matrix(1,0,0,-1,103.22581,74.449911)"
         style="font-style:italic;font-variant:normal;font-size:10.55879974px;font-family:Utopia;-inkscape-font-specification:Utopia-Italic;writing-mode:lr-tb;fill:#000000;fill-opacity:1;fill-rule:nonzero;stroke:none"
         id="text258"><tspan
           x="0"
           y="0"
           id="tspan260">i</tspan></text>
<text
         transform="matrix(1,0,0,-1,107.20042,72.730381)"
         style="font-variant:normal;font-weight:normal;font-size:7.91909981px;font-family:Utopia;-inkscape-font-specification:Utopia-Regular;writing-mode:lr-tb;fill:#000000;fill-opacity:1;fill-rule:nonzero;stroke:none"
         id="text262"><tspan
           x="0 4.1971231"
           y="0"
           sodipodi:role="line"
           id="tspan264">2,</tspan></text>
<text
         transform="matrix(1,0,0,-1,113.4961,72.730381)"
         style="font-style:italic;font-variant:normal;font-size:7.91909981px;font-family:Utopia;-inkscape-font-specification:Utopia-Italic;writing-mode:lr-tb;fill:#000000;fill-opacity:1;fill-rule:nonzero;stroke:none"
         id="text266"><tspan
           x="0"
           y="0"
           id="tspan268" /><tspan
           x="0"
           y="0"
           id="tspan4428" /></text>
<text
         transform="matrix(1,0,0,-1,141.24186,45.649881)"
         style="font-style:italic;font-variant:normal;font-size:10.55879974px;font-family:Utopia;-inkscape-font-specification:Utopia-Italic;writing-mode:lr-tb;fill:#000000;fill-opacity:1;fill-rule:nonzero;stroke:none"
         id="text270"><tspan
           x="0"
           y="0"
           id="tspan272">i</tspan></text>
<text
         transform="matrix(1,0,0,-1,145.21647,43.930351)"
         style="font-style:oblique;font-variant:normal;font-size:7.91909981px;font-family:'DejaVu Sans';-inkscape-font-specification:DejaVuSans-Oblique;writing-mode:lr-tb;fill:#000000;fill-opacity:1;fill-rule:nonzero;stroke:none"
         id="text274"><tspan
           x="0"
           y="0"
           id="tspan276">µ</tspan></text>
<text
         transform="matrix(1,0,0,-1,163.12977,26.065851)"
         style="font-style:italic;font-variant:normal;font-size:10.55879974px;font-family:Utopia;-inkscape-font-specification:Utopia-Italic;writing-mode:lr-tb;fill:#000000;fill-opacity:1;fill-rule:nonzero;stroke:none"
         id="text278"><tspan
           x="0"
           y="0"
           id="tspan280">v</tspan></text>
<text
         transform="matrix(1,0,0,-1,169.99891,24.346321)"
         style="font-variant:normal;font-weight:normal;font-size:7.91909981px;font-family:Utopia;-inkscape-font-specification:Utopia-Regular;writing-mode:lr-tb;fill:#000000;fill-opacity:1;fill-rule:nonzero;stroke:none"
         id="text282"><tspan
           x="0"
           y="0"
           id="tspan284">2</tspan></text>
<text
         transform="matrix(1,0,0,-1,184.44191,69.265821)"
         style="font-style:italic;font-variant:normal;font-size:10.55879974px;font-family:Utopia;-inkscape-font-specification:Utopia-Italic;writing-mode:lr-tb;fill:#000000;fill-opacity:1;fill-rule:nonzero;stroke:none"
         id="text286"><tspan
           x="0"
           y="0"
           id="tspan288">R</tspan></text>
<text
         transform="matrix(1,0,0,-1,191.28488,67.546291)"
         style="font-style:italic;font-variant:normal;font-size:7.91909981px;font-family:Utopia;-inkscape-font-specification:Utopia-Italic;writing-mode:lr-tb;fill:#000000;fill-opacity:1;fill-rule:nonzero;stroke:none"
         id="text290"><tspan
           x="0 6.0105968"
           y="0"
           sodipodi:role="line"
           id="tspan292">Cu</tspan></text>
<text
         transform="matrix(1,0,0,-1,232.82588,26.065791)"
         style="font-style:italic;font-variant:normal;font-size:10.55879974px;font-family:Utopia;-inkscape-font-specification:Utopia-Italic;writing-mode:lr-tb;fill:#000000;fill-opacity:1;fill-rule:nonzero;stroke:none"
         id="text294"><tspan
           x="0"
           y="0"
           id="tspan296">R</tspan></text>
<text
         transform="matrix(1,0,0,-1,239.92783,24.190791)"
         style="font-style:italic;font-variant:normal;font-size:7.91909981px;font-family:Utopia;-inkscape-font-specification:Utopia-Italic;writing-mode:lr-tb;fill:#000000;fill-opacity:1;fill-rule:nonzero;stroke:none"
         id="text298"><tspan
           x="0 3.0805299 7.8874235 12.781427 17.67543"
           y="0"
           sodipodi:role="line"
           id="tspan300">shunt</tspan></text>
</g></g></svg>