G04 start of page 8 for group -4062 idx -4062 *
G04 Title: (unknown), soldermask *
G04 Creator: pcb 4.0.2 *
G04 CreationDate: Mon Dec  4 09:33:05 2017 UTC *
G04 For: janik *
G04 Format: Gerber/RS-274X *
G04 PCB-Dimensions (mm): 63.50 63.50 *
G04 PCB-Coordinate-Origin: lower left *
%MOMM*%
%FSLAX43Y43*%
%LNGBS*%
%ADD103C,2.692*%
%ADD102C,1.930*%
%ADD101C,2.235*%
%ADD100C,2.946*%
%ADD99C,3.454*%
%ADD98C,2.540*%
%ADD97C,1.676*%
%ADD96C,1.524*%
%ADD95C,0.002*%
%ADD94C,2.184*%
%ADD93C,2.794*%
%ADD92C,0.152*%
G54D92*X0Y63500D02*Y0D01*
X63500D01*
Y63500D01*
X0D01*
G54D93*X52324Y30988D03*
Y36068D03*
G54D94*X49911Y30988D03*
Y33528D03*
Y36068D03*
Y38608D03*
G54D93*X50673Y43815D03*
G54D94*X49911Y41148D03*
G54D93*X45212Y43815D03*
G54D95*G36*
X41326Y42113D02*Y40183D01*
X43256D01*
Y42113D01*
X41326D01*
G37*
G54D94*X42291Y38608D03*
Y36068D03*
Y33528D03*
Y30988D03*
G54D93*X39497Y37211D03*
G54D96*Y22606D03*
G54D97*X37719Y24384D03*
G54D96*X34671D03*
G54D95*G36*
X31039Y28270D02*Y26594D01*
X32715D01*
Y28270D01*
X31039D01*
G37*
G54D98*X32639Y33528D03*
G54D93*X35179Y30226D03*
G54D95*G36*
X25578Y51003D02*Y49073D01*
X27508D01*
Y51003D01*
X25578D01*
G37*
G54D94*X29083Y50038D03*
X31623D03*
X34163D03*
X36703D03*
X39243D03*
G54D96*X56134Y29337D03*
Y21717D03*
G54D93*X45974Y21209D03*
Y16129D03*
G54D99*X53467Y4318D03*
X48387D03*
X43307D03*
X53467Y14478D03*
G54D100*X43307D03*
G54D94*X42291Y28448D03*
Y25908D03*
X49911D03*
Y28448D03*
G54D95*G36*
X53772Y51003D02*Y49073D01*
X55702D01*
Y51003D01*
X53772D01*
G37*
G54D101*X49657Y50038D03*
X52197D03*
G54D102*X54737Y47498D03*
G54D95*G36*
X46126Y56109D02*Y54127D01*
X48108D01*
Y56109D01*
X46126D01*
G37*
G54D101*X49657Y55118D03*
X52197D03*
G54D95*G36*
X45999Y51156D02*Y48920D01*
X48235D01*
Y51156D01*
X45999D01*
G37*
G54D93*X44577Y55118D03*
Y50038D03*
G54D94*X41783D03*
Y57658D03*
X39243D03*
X36703D03*
X34163D03*
X31623D03*
X29083D03*
X26543D03*
X24003Y43942D03*
X21463D03*
X18923D03*
X16383D03*
G54D95*G36*
X7925Y48590D02*Y46914D01*
X9601D01*
Y48590D01*
X7925D01*
G37*
G54D97*X11303Y47752D03*
G54D96*X8001Y45212D03*
X10033D03*
X14224Y46990D03*
G54D95*G36*
X15291Y60782D02*Y58090D01*
X17983D01*
Y60782D01*
X15291D01*
G37*
G54D100*X16637Y51816D03*
G54D93*X12319Y43815D03*
G54D96*X21844Y46990D03*
G54D97*X24003Y36322D03*
X26543D03*
G54D102*X29083D03*
G54D94*X31623D03*
Y43942D03*
G54D97*X29083D03*
G54D93*X29718Y46990D03*
G54D97*X26543Y43942D03*
G54D93*X24638Y46990D03*
X34290Y42672D03*
Y37592D03*
G54D95*G36*
X15418Y37287D02*Y35357D01*
X17348D01*
Y37287D01*
X15418D01*
G37*
G54D94*X18923Y36322D03*
X21463D03*
G54D93*X12700Y22352D03*
Y27432D03*
G54D94*X12319Y32512D03*
Y35052D03*
G54D96*X8001Y37592D03*
X10033D03*
G54D94*X7239Y35052D03*
Y32512D03*
Y29972D03*
G54D93*X12319Y38735D03*
G54D95*G36*
X37008Y17475D02*Y16053D01*
X38430D01*
Y17475D01*
X37008D01*
G37*
G54D96*X34671Y16764D03*
G54D103*X36703Y14478D03*
G54D99*Y4318D03*
X31623D03*
X19939D03*
X14859D03*
X9779D03*
X26543D03*
G54D100*Y14478D03*
G54D103*X19939D03*
G54D99*X9779D03*
G54D96*X23114Y13208D03*
Y5588D03*
G54D93*X22225Y17272D03*
X27305D03*
X39497Y32131D03*
G54D96*Y30226D03*
G54D93*X30099D03*
G54D94*X29337Y27432D03*
G54D97*X24257Y19812D03*
X26797D03*
G54D94*X29337D03*
X31877D03*
G54D96*X28194Y30099D03*
G54D97*X26797Y27432D03*
G54D98*X27559Y33528D03*
G54D97*X24257Y27432D03*
X21717D03*
X19177D03*
X16637D03*
G54D94*Y19812D03*
X19177D03*
X21717D03*
X12319Y29972D03*
G54D96*X18288Y33528D03*
X25908D03*
X19939Y30099D03*
M02*
