G04 start of page 4 for group 5 idx 5 *
G04 Title: (unknown), bottom *
G04 Creator: pcb 4.0.2 *
G04 CreationDate: Mon Dec  4 09:33:05 2017 UTC *
G04 For: janik *
G04 Format: Gerber/RS-274X *
G04 PCB-Dimensions (mm): 63.50 63.50 *
G04 PCB-Coordinate-Origin: lower left *
%MOMM*%
%FSLAX43Y43*%
%LNGBL*%
%ADD70C,1.067*%
%ADD69C,0.965*%
%ADD68C,1.397*%
%ADD67C,0.508*%
%ADD66C,0.711*%
%ADD65C,0.889*%
%ADD64C,3.000*%
%ADD63C,2.286*%
%ADD62C,5.000*%
%ADD61C,2.540*%
%ADD60C,2.083*%
%ADD59C,2.794*%
%ADD58C,3.302*%
%ADD57C,1.778*%
%ADD56C,1.524*%
%ADD55C,2.032*%
%ADD54C,1.270*%
%ADD53C,0.635*%
%ADD52C,0.002*%
%ADD51C,0.152*%
G54D51*X0Y63500D02*Y0D01*
X63500D01*
Y63500D01*
X0D01*
G54D52*G36*
X31496Y20320D02*X34798D01*
X37719Y17399D01*
Y16637D01*
X31496D01*
Y20320D01*
G37*
G36*
X31623Y37211D02*X32639Y38227D01*
X35179D01*
X36195Y37211D01*
Y27559D01*
X34925D01*
X32385Y30099D01*
Y34417D01*
X30988Y35814D01*
Y36703D01*
X31496Y37211D01*
X31623D01*
G37*
G36*
X45034Y12065D02*X45339D01*
Y16764D01*
X48387Y14605D01*
Y4318D01*
X45034Y965D01*
Y3170D01*
X45034Y3170D01*
X45059Y3194D01*
X45078Y3222D01*
X45174Y3389D01*
X45251Y3565D01*
X45313Y3748D01*
X45357Y3935D01*
X45383Y4126D01*
X45392Y4318D01*
X45383Y4510D01*
X45357Y4701D01*
X45313Y4888D01*
X45251Y5071D01*
X45174Y5247D01*
X45080Y5415D01*
X45060Y5443D01*
X45036Y5467D01*
X45034Y5468D01*
Y12065D01*
G37*
G36*
X43308D02*X45034D01*
Y5468D01*
X45008Y5487D01*
X44977Y5502D01*
X44945Y5513D01*
X44911Y5518D01*
X44876Y5518D01*
X44843Y5512D01*
X44810Y5502D01*
X44780Y5486D01*
X44752Y5466D01*
X44728Y5441D01*
X44708Y5414D01*
X44692Y5383D01*
X44682Y5350D01*
X44677Y5317D01*
X44677Y5282D01*
X44682Y5248D01*
X44693Y5216D01*
X44709Y5186D01*
X44785Y5054D01*
X44847Y4914D01*
X44895Y4770D01*
X44930Y4621D01*
X44951Y4470D01*
X44958Y4318D01*
X44951Y4166D01*
X44930Y4015D01*
X44895Y3866D01*
X44847Y3722D01*
X44785Y3582D01*
X44711Y3449D01*
X44695Y3419D01*
X44684Y3387D01*
X44679Y3354D01*
X44679Y3320D01*
X44684Y3286D01*
X44694Y3254D01*
X44709Y3223D01*
X44729Y3196D01*
X44753Y3172D01*
X44781Y3152D01*
X44811Y3136D01*
X44843Y3125D01*
X44877Y3120D01*
X44911Y3120D01*
X44944Y3125D01*
X44977Y3135D01*
X45007Y3151D01*
X45034Y3170D01*
Y965D01*
X44958Y889D01*
X43308D01*
Y2233D01*
X43499Y2242D01*
X43690Y2268D01*
X43877Y2312D01*
X44060Y2374D01*
X44236Y2451D01*
X44404Y2545D01*
X44432Y2565D01*
X44456Y2589D01*
X44476Y2617D01*
X44491Y2648D01*
X44502Y2680D01*
X44507Y2714D01*
X44507Y2749D01*
X44501Y2782D01*
X44491Y2815D01*
X44475Y2845D01*
X44455Y2873D01*
X44430Y2897D01*
X44403Y2917D01*
X44372Y2933D01*
X44339Y2943D01*
X44306Y2948D01*
X44271Y2948D01*
X44237Y2943D01*
X44205Y2932D01*
X44175Y2916D01*
X44043Y2840D01*
X43903Y2778D01*
X43759Y2730D01*
X43610Y2695D01*
X43459Y2674D01*
X43308Y2667D01*
Y5969D01*
X43459Y5962D01*
X43610Y5941D01*
X43759Y5906D01*
X43903Y5858D01*
X44043Y5796D01*
X44176Y5722D01*
X44206Y5706D01*
X44238Y5695D01*
X44271Y5690D01*
X44305Y5690D01*
X44339Y5695D01*
X44371Y5705D01*
X44402Y5720D01*
X44429Y5740D01*
X44453Y5764D01*
X44473Y5792D01*
X44489Y5822D01*
X44500Y5854D01*
X44505Y5888D01*
X44505Y5922D01*
X44500Y5955D01*
X44490Y5988D01*
X44474Y6018D01*
X44455Y6045D01*
X44431Y6070D01*
X44403Y6089D01*
X44236Y6185D01*
X44060Y6262D01*
X43877Y6324D01*
X43690Y6368D01*
X43499Y6394D01*
X43308Y6403D01*
Y12065D01*
G37*
G36*
X41580D02*X43308D01*
Y6403D01*
X43307Y6403D01*
X43115Y6394D01*
X42924Y6368D01*
X42737Y6324D01*
X42554Y6262D01*
X42378Y6185D01*
X42210Y6091D01*
X42182Y6071D01*
X42158Y6047D01*
X42138Y6019D01*
X42123Y5988D01*
X42112Y5956D01*
X42107Y5922D01*
X42107Y5887D01*
X42113Y5854D01*
X42123Y5821D01*
X42139Y5791D01*
X42159Y5763D01*
X42184Y5739D01*
X42211Y5719D01*
X42242Y5703D01*
X42275Y5693D01*
X42308Y5688D01*
X42343Y5688D01*
X42377Y5693D01*
X42409Y5704D01*
X42439Y5720D01*
X42571Y5796D01*
X42711Y5858D01*
X42855Y5906D01*
X43004Y5941D01*
X43155Y5962D01*
X43307Y5969D01*
X43308Y5969D01*
Y2667D01*
X43307Y2667D01*
X43155Y2674D01*
X43004Y2695D01*
X42855Y2730D01*
X42711Y2778D01*
X42571Y2840D01*
X42438Y2914D01*
X42408Y2930D01*
X42376Y2941D01*
X42343Y2946D01*
X42309Y2946D01*
X42275Y2941D01*
X42243Y2931D01*
X42212Y2916D01*
X42185Y2896D01*
X42161Y2872D01*
X42141Y2844D01*
X42125Y2814D01*
X42114Y2782D01*
X42109Y2748D01*
X42109Y2714D01*
X42114Y2681D01*
X42124Y2648D01*
X42140Y2618D01*
X42159Y2591D01*
X42183Y2566D01*
X42211Y2547D01*
X42378Y2451D01*
X42554Y2374D01*
X42737Y2312D01*
X42924Y2268D01*
X43115Y2242D01*
X43307Y2233D01*
X43308Y2233D01*
Y889D01*
X41580D01*
Y3168D01*
X41606Y3149D01*
X41637Y3134D01*
X41669Y3123D01*
X41703Y3118D01*
X41738Y3118D01*
X41771Y3124D01*
X41804Y3134D01*
X41834Y3150D01*
X41862Y3170D01*
X41886Y3195D01*
X41906Y3222D01*
X41922Y3253D01*
X41932Y3286D01*
X41937Y3319D01*
X41937Y3354D01*
X41932Y3388D01*
X41921Y3420D01*
X41905Y3450D01*
X41829Y3582D01*
X41767Y3722D01*
X41719Y3866D01*
X41684Y4015D01*
X41663Y4166D01*
X41656Y4318D01*
X41663Y4470D01*
X41684Y4621D01*
X41719Y4770D01*
X41767Y4914D01*
X41829Y5054D01*
X41903Y5187D01*
X41919Y5217D01*
X41930Y5249D01*
X41935Y5282D01*
X41935Y5316D01*
X41930Y5350D01*
X41920Y5382D01*
X41905Y5413D01*
X41885Y5440D01*
X41861Y5464D01*
X41833Y5484D01*
X41803Y5500D01*
X41771Y5511D01*
X41737Y5516D01*
X41703Y5516D01*
X41670Y5511D01*
X41637Y5501D01*
X41607Y5485D01*
X41580Y5466D01*
Y12065D01*
G37*
G36*
X33368D02*X38926D01*
Y7708D01*
X37530Y6312D01*
X37372Y6378D01*
X37042Y6457D01*
X36703Y6484D01*
X36364Y6457D01*
X36034Y6378D01*
X35720Y6248D01*
X35430Y6070D01*
X35172Y5849D01*
X34951Y5591D01*
X34773Y5301D01*
X34643Y4987D01*
X34564Y4657D01*
X34537Y4318D01*
X34564Y3979D01*
X34643Y3649D01*
X34773Y3335D01*
X34951Y3045D01*
X35172Y2787D01*
X35430Y2566D01*
X35720Y2388D01*
X36034Y2258D01*
X36364Y2179D01*
X36703Y2152D01*
X37042Y2179D01*
X37372Y2258D01*
X37686Y2388D01*
X37976Y2566D01*
X38234Y2787D01*
X38455Y3045D01*
X38633Y3335D01*
X38763Y3649D01*
X38842Y3979D01*
X38862Y4318D01*
X38842Y4657D01*
X38763Y4987D01*
X38697Y5145D01*
X40312Y6759D01*
X40337Y6780D01*
X40421Y6879D01*
X40421Y6879D01*
X40489Y6990D01*
X40539Y7110D01*
X40569Y7236D01*
X40579Y7366D01*
X40576Y7398D01*
Y12065D01*
X41580D01*
Y5466D01*
X41580Y5466D01*
X41555Y5442D01*
X41536Y5414D01*
X41440Y5247D01*
X41363Y5071D01*
X41301Y4888D01*
X41257Y4701D01*
X41231Y4510D01*
X41222Y4318D01*
X41231Y4126D01*
X41257Y3935D01*
X41301Y3748D01*
X41363Y3565D01*
X41440Y3389D01*
X41534Y3221D01*
X41554Y3193D01*
X41578Y3169D01*
X41580Y3168D01*
Y889D01*
X33368D01*
Y3164D01*
X33383Y3175D01*
X33409Y3201D01*
X33429Y3230D01*
X33522Y3397D01*
X33597Y3572D01*
X33656Y3753D01*
X33699Y3939D01*
X33725Y4128D01*
X33733Y4318D01*
X33725Y4508D01*
X33699Y4697D01*
X33656Y4883D01*
X33597Y5064D01*
X33522Y5239D01*
X33431Y5407D01*
X33410Y5437D01*
X33384Y5462D01*
X33368Y5474D01*
Y12065D01*
G37*
G36*
X31624D02*X33368D01*
Y5474D01*
X33355Y5484D01*
X33323Y5501D01*
X33289Y5512D01*
X33253Y5518D01*
X33217Y5518D01*
X33181Y5513D01*
X33146Y5502D01*
X33114Y5486D01*
X33084Y5465D01*
X33059Y5439D01*
X33037Y5410D01*
X33020Y5378D01*
X33009Y5343D01*
X33003Y5308D01*
X33003Y5271D01*
X33008Y5236D01*
X33019Y5201D01*
X33036Y5169D01*
X33108Y5039D01*
X33167Y4902D01*
X33214Y4760D01*
X33247Y4615D01*
X33267Y4467D01*
X33274Y4318D01*
X33267Y4169D01*
X33247Y4021D01*
X33214Y3876D01*
X33167Y3734D01*
X33108Y3597D01*
X33037Y3466D01*
X33021Y3434D01*
X33010Y3400D01*
X33004Y3364D01*
X33005Y3328D01*
X33011Y3293D01*
X33022Y3259D01*
X33038Y3227D01*
X33060Y3198D01*
X33085Y3173D01*
X33115Y3152D01*
X33147Y3136D01*
X33181Y3125D01*
X33217Y3119D01*
X33253Y3120D01*
X33288Y3126D01*
X33322Y3137D01*
X33354Y3154D01*
X33368Y3164D01*
Y889D01*
X31624D01*
Y2208D01*
X31813Y2216D01*
X32002Y2242D01*
X32188Y2285D01*
X32369Y2344D01*
X32544Y2419D01*
X32712Y2510D01*
X32742Y2531D01*
X32767Y2557D01*
X32789Y2586D01*
X32806Y2618D01*
X32817Y2652D01*
X32823Y2688D01*
X32823Y2724D01*
X32818Y2760D01*
X32807Y2795D01*
X32791Y2827D01*
X32770Y2857D01*
X32744Y2882D01*
X32715Y2904D01*
X32683Y2921D01*
X32648Y2932D01*
X32613Y2938D01*
X32576Y2938D01*
X32541Y2933D01*
X32506Y2922D01*
X32474Y2905D01*
X32344Y2833D01*
X32207Y2774D01*
X32065Y2727D01*
X31920Y2694D01*
X31772Y2674D01*
X31624Y2667D01*
Y5969D01*
X31772Y5962D01*
X31920Y5942D01*
X32065Y5909D01*
X32207Y5862D01*
X32344Y5803D01*
X32475Y5732D01*
X32507Y5716D01*
X32541Y5705D01*
X32577Y5699D01*
X32613Y5700D01*
X32648Y5706D01*
X32682Y5717D01*
X32714Y5733D01*
X32743Y5755D01*
X32768Y5780D01*
X32789Y5810D01*
X32805Y5842D01*
X32816Y5876D01*
X32822Y5912D01*
X32821Y5948D01*
X32815Y5983D01*
X32804Y6017D01*
X32787Y6049D01*
X32766Y6078D01*
X32740Y6104D01*
X32711Y6124D01*
X32544Y6217D01*
X32369Y6292D01*
X32188Y6351D01*
X32002Y6394D01*
X31813Y6420D01*
X31624Y6428D01*
Y12065D01*
G37*
G36*
X29878D02*X31624D01*
Y6428D01*
X31623Y6428D01*
X31433Y6420D01*
X31244Y6394D01*
X31058Y6351D01*
X30877Y6292D01*
X30702Y6217D01*
X30534Y6126D01*
X30504Y6105D01*
X30479Y6079D01*
X30457Y6050D01*
X30440Y6018D01*
X30429Y5984D01*
X30423Y5948D01*
X30423Y5912D01*
X30428Y5876D01*
X30439Y5841D01*
X30455Y5809D01*
X30476Y5779D01*
X30502Y5754D01*
X30531Y5732D01*
X30563Y5715D01*
X30598Y5704D01*
X30633Y5698D01*
X30670Y5698D01*
X30705Y5703D01*
X30740Y5714D01*
X30772Y5731D01*
X30902Y5803D01*
X31039Y5862D01*
X31181Y5909D01*
X31326Y5942D01*
X31474Y5962D01*
X31623Y5969D01*
X31624Y5969D01*
Y2667D01*
X31623Y2667D01*
X31474Y2674D01*
X31326Y2694D01*
X31181Y2727D01*
X31039Y2774D01*
X30902Y2833D01*
X30771Y2904D01*
X30739Y2920D01*
X30705Y2931D01*
X30669Y2937D01*
X30633Y2936D01*
X30598Y2930D01*
X30564Y2919D01*
X30532Y2903D01*
X30503Y2881D01*
X30478Y2856D01*
X30457Y2826D01*
X30441Y2794D01*
X30430Y2760D01*
X30424Y2724D01*
X30425Y2688D01*
X30431Y2653D01*
X30442Y2619D01*
X30459Y2587D01*
X30480Y2558D01*
X30506Y2532D01*
X30535Y2512D01*
X30702Y2419D01*
X30877Y2344D01*
X31058Y2285D01*
X31244Y2242D01*
X31433Y2216D01*
X31623Y2208D01*
X31624Y2208D01*
Y889D01*
X29878D01*
Y3162D01*
X29891Y3152D01*
X29923Y3135D01*
X29957Y3124D01*
X29993Y3118D01*
X30029Y3118D01*
X30065Y3123D01*
X30100Y3134D01*
X30132Y3150D01*
X30162Y3171D01*
X30187Y3197D01*
X30209Y3226D01*
X30226Y3258D01*
X30237Y3293D01*
X30243Y3328D01*
X30243Y3365D01*
X30238Y3400D01*
X30227Y3435D01*
X30210Y3467D01*
X30138Y3597D01*
X30079Y3734D01*
X30032Y3876D01*
X29999Y4021D01*
X29979Y4169D01*
X29972Y4318D01*
X29979Y4467D01*
X29999Y4615D01*
X30032Y4760D01*
X30079Y4902D01*
X30138Y5039D01*
X30209Y5170D01*
X30225Y5202D01*
X30236Y5236D01*
X30242Y5272D01*
X30241Y5308D01*
X30235Y5343D01*
X30224Y5377D01*
X30208Y5409D01*
X30186Y5438D01*
X30161Y5463D01*
X30131Y5484D01*
X30099Y5500D01*
X30065Y5511D01*
X30029Y5517D01*
X29993Y5516D01*
X29958Y5510D01*
X29924Y5499D01*
X29892Y5482D01*
X29878Y5472D01*
Y12065D01*
G37*
G36*
X28288D02*X29878D01*
Y5472D01*
X29863Y5461D01*
X29837Y5435D01*
X29817Y5406D01*
X29724Y5239D01*
X29649Y5064D01*
X29590Y4883D01*
X29547Y4697D01*
X29521Y4508D01*
X29513Y4318D01*
X29521Y4128D01*
X29547Y3939D01*
X29590Y3753D01*
X29649Y3572D01*
X29724Y3397D01*
X29815Y3229D01*
X29836Y3199D01*
X29862Y3174D01*
X29878Y3162D01*
Y889D01*
X28288D01*
Y3164D01*
X28303Y3175D01*
X28329Y3201D01*
X28349Y3230D01*
X28442Y3397D01*
X28517Y3572D01*
X28576Y3753D01*
X28619Y3939D01*
X28645Y4128D01*
X28653Y4318D01*
X28645Y4508D01*
X28619Y4697D01*
X28576Y4883D01*
X28517Y5064D01*
X28442Y5239D01*
X28351Y5407D01*
X28330Y5437D01*
X28304Y5462D01*
X28288Y5474D01*
Y12065D01*
G37*
G36*
X26544D02*X28288D01*
Y5474D01*
X28275Y5484D01*
X28243Y5501D01*
X28209Y5512D01*
X28173Y5518D01*
X28137Y5518D01*
X28101Y5513D01*
X28066Y5502D01*
X28034Y5486D01*
X28004Y5465D01*
X27979Y5439D01*
X27957Y5410D01*
X27940Y5378D01*
X27929Y5343D01*
X27923Y5308D01*
X27923Y5271D01*
X27928Y5236D01*
X27939Y5201D01*
X27956Y5169D01*
X28028Y5039D01*
X28087Y4902D01*
X28134Y4760D01*
X28167Y4615D01*
X28187Y4467D01*
X28194Y4318D01*
X28187Y4169D01*
X28167Y4021D01*
X28134Y3876D01*
X28087Y3734D01*
X28028Y3597D01*
X27957Y3466D01*
X27941Y3434D01*
X27930Y3400D01*
X27924Y3364D01*
X27925Y3328D01*
X27931Y3293D01*
X27942Y3259D01*
X27958Y3227D01*
X27980Y3198D01*
X28005Y3173D01*
X28035Y3152D01*
X28067Y3136D01*
X28101Y3125D01*
X28137Y3119D01*
X28173Y3120D01*
X28208Y3126D01*
X28242Y3137D01*
X28274Y3154D01*
X28288Y3164D01*
Y889D01*
X26544D01*
Y2208D01*
X26733Y2216D01*
X26922Y2242D01*
X27108Y2285D01*
X27289Y2344D01*
X27464Y2419D01*
X27632Y2510D01*
X27662Y2531D01*
X27687Y2557D01*
X27709Y2586D01*
X27726Y2618D01*
X27737Y2652D01*
X27743Y2688D01*
X27743Y2724D01*
X27738Y2760D01*
X27727Y2795D01*
X27711Y2827D01*
X27690Y2857D01*
X27664Y2882D01*
X27635Y2904D01*
X27603Y2921D01*
X27568Y2932D01*
X27533Y2938D01*
X27496Y2938D01*
X27461Y2933D01*
X27426Y2922D01*
X27394Y2905D01*
X27264Y2833D01*
X27127Y2774D01*
X26985Y2727D01*
X26840Y2694D01*
X26692Y2674D01*
X26544Y2667D01*
Y5969D01*
X26692Y5962D01*
X26840Y5942D01*
X26985Y5909D01*
X27127Y5862D01*
X27264Y5803D01*
X27395Y5732D01*
X27427Y5716D01*
X27461Y5705D01*
X27497Y5699D01*
X27533Y5700D01*
X27568Y5706D01*
X27602Y5717D01*
X27634Y5733D01*
X27663Y5755D01*
X27688Y5780D01*
X27709Y5810D01*
X27725Y5842D01*
X27736Y5876D01*
X27742Y5912D01*
X27741Y5948D01*
X27735Y5983D01*
X27724Y6017D01*
X27707Y6049D01*
X27686Y6078D01*
X27660Y6104D01*
X27631Y6124D01*
X27464Y6217D01*
X27289Y6292D01*
X27108Y6351D01*
X26922Y6394D01*
X26733Y6420D01*
X26544Y6428D01*
Y12065D01*
G37*
G36*
X24798D02*X26544D01*
Y6428D01*
X26543Y6428D01*
X26353Y6420D01*
X26164Y6394D01*
X25978Y6351D01*
X25797Y6292D01*
X25622Y6217D01*
X25454Y6126D01*
X25424Y6105D01*
X25399Y6079D01*
X25377Y6050D01*
X25360Y6018D01*
X25349Y5984D01*
X25343Y5948D01*
X25343Y5912D01*
X25348Y5876D01*
X25359Y5841D01*
X25375Y5809D01*
X25396Y5779D01*
X25422Y5754D01*
X25451Y5732D01*
X25483Y5715D01*
X25518Y5704D01*
X25553Y5698D01*
X25590Y5698D01*
X25625Y5703D01*
X25660Y5714D01*
X25692Y5731D01*
X25822Y5803D01*
X25959Y5862D01*
X26101Y5909D01*
X26246Y5942D01*
X26394Y5962D01*
X26543Y5969D01*
X26544Y5969D01*
Y2667D01*
X26543Y2667D01*
X26394Y2674D01*
X26246Y2694D01*
X26101Y2727D01*
X25959Y2774D01*
X25822Y2833D01*
X25691Y2904D01*
X25659Y2920D01*
X25625Y2931D01*
X25589Y2937D01*
X25553Y2936D01*
X25518Y2930D01*
X25484Y2919D01*
X25452Y2903D01*
X25423Y2881D01*
X25398Y2856D01*
X25377Y2826D01*
X25361Y2794D01*
X25350Y2760D01*
X25344Y2724D01*
X25345Y2688D01*
X25351Y2653D01*
X25362Y2619D01*
X25379Y2587D01*
X25400Y2558D01*
X25426Y2532D01*
X25455Y2512D01*
X25622Y2419D01*
X25797Y2344D01*
X25978Y2285D01*
X26164Y2242D01*
X26353Y2216D01*
X26543Y2208D01*
X26544Y2208D01*
Y889D01*
X24798D01*
Y3162D01*
X24811Y3152D01*
X24843Y3135D01*
X24877Y3124D01*
X24913Y3118D01*
X24949Y3118D01*
X24985Y3123D01*
X25020Y3134D01*
X25052Y3150D01*
X25082Y3171D01*
X25107Y3197D01*
X25129Y3226D01*
X25146Y3258D01*
X25157Y3293D01*
X25163Y3328D01*
X25163Y3365D01*
X25158Y3400D01*
X25147Y3435D01*
X25130Y3467D01*
X25058Y3597D01*
X24999Y3734D01*
X24952Y3876D01*
X24919Y4021D01*
X24899Y4169D01*
X24892Y4318D01*
X24899Y4467D01*
X24919Y4615D01*
X24952Y4760D01*
X24999Y4902D01*
X25058Y5039D01*
X25129Y5170D01*
X25145Y5202D01*
X25156Y5236D01*
X25162Y5272D01*
X25161Y5308D01*
X25155Y5343D01*
X25144Y5377D01*
X25128Y5409D01*
X25106Y5438D01*
X25081Y5463D01*
X25051Y5484D01*
X25019Y5500D01*
X24985Y5511D01*
X24949Y5517D01*
X24913Y5516D01*
X24878Y5510D01*
X24844Y5499D01*
X24812Y5482D01*
X24798Y5472D01*
Y12065D01*
G37*
G36*
X21142D02*X23069D01*
X23114Y12061D01*
X23159Y12065D01*
X24798D01*
Y5472D01*
X24783Y5461D01*
X24757Y5435D01*
X24737Y5406D01*
X24644Y5239D01*
X24569Y5064D01*
X24510Y4883D01*
X24467Y4697D01*
X24441Y4508D01*
X24433Y4318D01*
X24441Y4128D01*
X24467Y3939D01*
X24510Y3753D01*
X24569Y3572D01*
X24644Y3397D01*
X24735Y3229D01*
X24756Y3199D01*
X24782Y3174D01*
X24798Y3162D01*
Y889D01*
X21142D01*
Y2674D01*
X21380Y2877D01*
X21588Y3120D01*
X21755Y3393D01*
X21797Y3494D01*
X21844Y3490D01*
X21974Y3500D01*
X22100Y3530D01*
X22220Y3580D01*
X22331Y3648D01*
X22428Y3734D01*
X23015Y4322D01*
X23114Y4314D01*
X23313Y4330D01*
X23508Y4376D01*
X23692Y4453D01*
X23863Y4557D01*
X24015Y4687D01*
X24145Y4839D01*
X24249Y5010D01*
X24326Y5194D01*
X24372Y5389D01*
X24384Y5588D01*
X24372Y5787D01*
X24326Y5982D01*
X24249Y6166D01*
X24145Y6337D01*
X24015Y6489D01*
X23863Y6619D01*
X23692Y6723D01*
X23508Y6800D01*
X23313Y6846D01*
X23114Y6862D01*
X22915Y6846D01*
X22720Y6800D01*
X22536Y6723D01*
X22365Y6619D01*
X22213Y6489D01*
X22083Y6337D01*
X21979Y6166D01*
X21902Y5982D01*
X21856Y5787D01*
X21840Y5588D01*
X21848Y5489D01*
X21697Y5338D01*
X21588Y5516D01*
X21380Y5759D01*
X21142Y5962D01*
Y12065D01*
G37*
G36*
X16621Y18335D02*X16637Y18334D01*
Y15113D01*
X19685Y12065D01*
X21142D01*
Y5962D01*
X21137Y5967D01*
X20864Y6134D01*
X20569Y6257D01*
X20258Y6331D01*
X19939Y6356D01*
X19620Y6331D01*
X19309Y6257D01*
X19014Y6134D01*
X18741Y5967D01*
X18498Y5759D01*
X18290Y5516D01*
X18123Y5243D01*
X18000Y4948D01*
X17926Y4637D01*
X17901Y4318D01*
X17926Y3999D01*
X18000Y3688D01*
X18123Y3393D01*
X18290Y3120D01*
X18498Y2877D01*
X18741Y2669D01*
X19014Y2502D01*
X19309Y2379D01*
X19620Y2305D01*
X19939Y2280D01*
X20258Y2305D01*
X20569Y2379D01*
X20864Y2502D01*
X21137Y2669D01*
X21142Y2674D01*
Y889D01*
X16621D01*
Y3157D01*
X16622Y3157D01*
X16652Y3180D01*
X16678Y3207D01*
X16699Y3239D01*
X16789Y3405D01*
X16863Y3579D01*
X16920Y3758D01*
X16961Y3942D01*
X16986Y4129D01*
X16995Y4318D01*
X16986Y4507D01*
X16961Y4694D01*
X16920Y4878D01*
X16863Y5057D01*
X16789Y5231D01*
X16701Y5398D01*
X16680Y5430D01*
X16653Y5457D01*
X16623Y5480D01*
X16621Y5481D01*
Y18335D01*
G37*
G36*
Y31893D02*X16637Y31877D01*
Y22087D01*
X16621Y22071D01*
Y31893D01*
G37*
G36*
X14860Y32512D02*X16002D01*
X16621Y31893D01*
Y22071D01*
X16071Y21521D01*
X15988Y21427D01*
X15922Y21319D01*
X15874Y21203D01*
X15844Y21081D01*
X15842Y21053D01*
X15768Y21008D01*
X15592Y20857D01*
X15441Y20681D01*
X15320Y20483D01*
X15232Y20269D01*
X15177Y20043D01*
X15159Y19812D01*
X15177Y19581D01*
X15232Y19355D01*
X15320Y19141D01*
X15441Y18943D01*
X15592Y18767D01*
X15768Y18616D01*
X15966Y18495D01*
X16180Y18407D01*
X16406Y18352D01*
X16621Y18335D01*
Y5481D01*
X16589Y5498D01*
X16553Y5511D01*
X16515Y5518D01*
X16477Y5518D01*
X16439Y5513D01*
X16402Y5502D01*
X16368Y5485D01*
X16337Y5464D01*
X16309Y5437D01*
X16286Y5407D01*
X16268Y5373D01*
X16256Y5337D01*
X16249Y5299D01*
X16248Y5261D01*
X16253Y5223D01*
X16264Y5186D01*
X16282Y5152D01*
X16351Y5024D01*
X16408Y4890D01*
X16452Y4751D01*
X16484Y4608D01*
X16504Y4464D01*
X16510Y4318D01*
X16504Y4172D01*
X16484Y4028D01*
X16452Y3885D01*
X16408Y3746D01*
X16351Y3612D01*
X16283Y3483D01*
X16266Y3449D01*
X16255Y3413D01*
X16250Y3375D01*
X16250Y3337D01*
X16257Y3300D01*
X16270Y3264D01*
X16287Y3230D01*
X16310Y3200D01*
X16338Y3174D01*
X16369Y3152D01*
X16403Y3135D01*
X16439Y3124D01*
X16477Y3119D01*
X16515Y3120D01*
X16552Y3127D01*
X16588Y3139D01*
X16621Y3157D01*
Y889D01*
X14860D01*
Y2182D01*
X15048Y2191D01*
X15235Y2216D01*
X15419Y2257D01*
X15598Y2314D01*
X15772Y2388D01*
X15939Y2476D01*
X15971Y2497D01*
X15998Y2524D01*
X16021Y2554D01*
X16039Y2588D01*
X16052Y2624D01*
X16059Y2662D01*
X16059Y2700D01*
X16054Y2738D01*
X16043Y2775D01*
X16026Y2809D01*
X16005Y2840D01*
X15978Y2868D01*
X15948Y2891D01*
X15914Y2909D01*
X15878Y2921D01*
X15840Y2928D01*
X15802Y2929D01*
X15764Y2924D01*
X15727Y2913D01*
X15693Y2895D01*
X15565Y2826D01*
X15431Y2769D01*
X15292Y2725D01*
X15149Y2693D01*
X15005Y2673D01*
X14860Y2667D01*
Y5969D01*
X15005Y5963D01*
X15149Y5943D01*
X15292Y5911D01*
X15431Y5867D01*
X15565Y5810D01*
X15694Y5742D01*
X15728Y5725D01*
X15764Y5714D01*
X15802Y5709D01*
X15840Y5709D01*
X15877Y5716D01*
X15913Y5729D01*
X15947Y5746D01*
X15977Y5769D01*
X16003Y5797D01*
X16025Y5828D01*
X16042Y5862D01*
X16053Y5898D01*
X16058Y5936D01*
X16057Y5974D01*
X16050Y6011D01*
X16038Y6047D01*
X16020Y6081D01*
X15997Y6111D01*
X15970Y6137D01*
X15938Y6158D01*
X15772Y6248D01*
X15598Y6322D01*
X15419Y6379D01*
X15235Y6420D01*
X15048Y6445D01*
X14860Y6454D01*
Y32512D01*
G37*
G36*
X13097Y18685D02*X14224Y19812D01*
Y23241D01*
X13097Y24368D01*
Y28870D01*
X13113Y28880D01*
X13274Y29017D01*
X13411Y29178D01*
X13522Y29359D01*
X13603Y29555D01*
X13653Y29761D01*
X13665Y29972D01*
X13653Y30183D01*
X13603Y30389D01*
X13522Y30585D01*
X13411Y30766D01*
X13274Y30927D01*
X13113Y31064D01*
X13097Y31074D01*
Y32512D01*
X14860D01*
Y6454D01*
X14859Y6454D01*
X14670Y6445D01*
X14483Y6420D01*
X14299Y6379D01*
X14120Y6322D01*
X13946Y6248D01*
X13779Y6160D01*
X13747Y6139D01*
X13720Y6112D01*
X13697Y6082D01*
X13679Y6048D01*
X13666Y6012D01*
X13659Y5974D01*
X13659Y5936D01*
X13664Y5898D01*
X13675Y5861D01*
X13692Y5827D01*
X13713Y5796D01*
X13740Y5768D01*
X13770Y5745D01*
X13804Y5727D01*
X13840Y5715D01*
X13878Y5708D01*
X13916Y5707D01*
X13954Y5712D01*
X13991Y5723D01*
X14025Y5741D01*
X14153Y5810D01*
X14287Y5867D01*
X14426Y5911D01*
X14569Y5943D01*
X14713Y5963D01*
X14859Y5969D01*
X14860Y5969D01*
Y2667D01*
X14859Y2667D01*
X14713Y2673D01*
X14569Y2693D01*
X14426Y2725D01*
X14287Y2769D01*
X14153Y2826D01*
X14024Y2894D01*
X13990Y2911D01*
X13954Y2922D01*
X13916Y2927D01*
X13878Y2927D01*
X13841Y2920D01*
X13805Y2907D01*
X13771Y2890D01*
X13741Y2867D01*
X13715Y2839D01*
X13693Y2808D01*
X13676Y2774D01*
X13665Y2738D01*
X13660Y2700D01*
X13661Y2662D01*
X13668Y2625D01*
X13680Y2589D01*
X13698Y2555D01*
X13721Y2525D01*
X13748Y2499D01*
X13780Y2478D01*
X13946Y2388D01*
X14120Y2314D01*
X14299Y2257D01*
X14483Y2216D01*
X14670Y2191D01*
X14859Y2182D01*
X14860Y2182D01*
Y889D01*
X13208D01*
X13097Y1000D01*
Y3155D01*
X13129Y3138D01*
X13165Y3125D01*
X13203Y3118D01*
X13241Y3118D01*
X13279Y3123D01*
X13316Y3134D01*
X13350Y3151D01*
X13381Y3172D01*
X13409Y3199D01*
X13432Y3229D01*
X13450Y3263D01*
X13462Y3299D01*
X13469Y3337D01*
X13470Y3375D01*
X13465Y3413D01*
X13454Y3450D01*
X13436Y3484D01*
X13367Y3612D01*
X13310Y3746D01*
X13266Y3885D01*
X13234Y4028D01*
X13214Y4172D01*
X13208Y4318D01*
X13214Y4464D01*
X13234Y4608D01*
X13266Y4751D01*
X13310Y4890D01*
X13367Y5024D01*
X13435Y5153D01*
X13452Y5187D01*
X13463Y5223D01*
X13468Y5261D01*
X13468Y5299D01*
X13461Y5336D01*
X13448Y5372D01*
X13431Y5406D01*
X13408Y5436D01*
X13380Y5462D01*
X13349Y5484D01*
X13315Y5501D01*
X13279Y5512D01*
X13241Y5517D01*
X13203Y5516D01*
X13166Y5509D01*
X13130Y5497D01*
X13097Y5479D01*
Y18685D01*
G37*
G36*
Y31074D02*X12932Y31175D01*
X12736Y31256D01*
X12530Y31306D01*
X12319Y31322D01*
Y32512D01*
X13097D01*
Y31074D01*
G37*
G36*
Y24368D02*X12319Y25146D01*
Y28622D01*
X12530Y28638D01*
X12736Y28688D01*
X12932Y28769D01*
X13097Y28870D01*
Y24368D01*
G37*
G36*
X9779Y4318D02*Y12236D01*
X10130Y12264D01*
X10472Y12346D01*
X10797Y12480D01*
X11097Y12664D01*
X11364Y12893D01*
X11593Y13160D01*
X11777Y13460D01*
X11911Y13785D01*
X11993Y14127D01*
X12014Y14478D01*
X11993Y14829D01*
X11911Y15171D01*
X11777Y15496D01*
X11593Y15796D01*
X11364Y16063D01*
X11097Y16292D01*
X10853Y16441D01*
X13097Y18685D01*
Y5479D01*
X13096Y5479D01*
X13066Y5456D01*
X13040Y5429D01*
X13019Y5397D01*
X12929Y5231D01*
X12855Y5057D01*
X12798Y4878D01*
X12757Y4694D01*
X12732Y4507D01*
X12723Y4318D01*
X12732Y4129D01*
X12757Y3942D01*
X12798Y3758D01*
X12855Y3579D01*
X12929Y3405D01*
X13017Y3238D01*
X13038Y3206D01*
X13065Y3179D01*
X13095Y3156D01*
X13097Y3155D01*
Y1000D01*
X9779Y4318D01*
G37*
G36*
X12319Y32512D02*Y33147D01*
X15875D01*
Y32512D01*
X12319D01*
G37*
G36*
X14224Y21717D02*Y19812D01*
X13335Y18923D01*
Y20574D01*
X14224Y21463D01*
Y21717D01*
G37*
G36*
X14605Y49276D02*X22225D01*
Y48069D01*
X22198Y48080D01*
X22023Y48122D01*
X21844Y48137D01*
X21665Y48122D01*
X21490Y48080D01*
X21323Y48012D01*
X21170Y47918D01*
X21033Y47801D01*
X20916Y47664D01*
X20822Y47511D01*
X20754Y47344D01*
X20712Y47169D01*
X20697Y46990D01*
X20712Y46811D01*
X20754Y46636D01*
X20822Y46469D01*
X20916Y46316D01*
X21033Y46179D01*
X21170Y46062D01*
X21323Y45968D01*
X21490Y45900D01*
X21665Y45858D01*
X21844Y45843D01*
X22023Y45858D01*
X22198Y45900D01*
X22225Y45911D01*
Y45720D01*
X14605D01*
Y45911D01*
X14745Y45968D01*
X14898Y46062D01*
X15035Y46179D01*
X15152Y46316D01*
X15246Y46469D01*
X15314Y46636D01*
X15356Y46811D01*
X15367Y46990D01*
X15356Y47169D01*
X15314Y47344D01*
X15246Y47511D01*
X15152Y47664D01*
X15035Y47801D01*
X14898Y47918D01*
X14745Y48012D01*
X14605Y48069D01*
Y49276D01*
G37*
G36*
X16637Y51816D02*X21463D01*
X22987Y50292D01*
X16637D01*
Y51816D01*
G37*
G36*
X15367Y59436D02*Y53594D01*
X9398Y47625D01*
X9384D01*
X9287Y47711D01*
X9168Y47785D01*
X9039Y47838D01*
X8902Y47871D01*
X8763Y47882D01*
X8624Y47871D01*
X8487Y47838D01*
X8358Y47785D01*
X8239Y47711D01*
X8138Y47625D01*
X7493D01*
X5334Y45466D01*
Y28956D01*
X11408Y22882D01*
X11367Y22785D01*
X11316Y22571D01*
X11299Y22352D01*
X11316Y22133D01*
X11367Y21919D01*
X11451Y21716D01*
X11557Y21544D01*
Y20447D01*
X6731D01*
X2286Y24892D01*
Y46355D01*
X15367Y59436D01*
G37*
G36*
X16764Y56769D02*X14986D01*
Y58420D01*
X16764D01*
Y56769D01*
G37*
G36*
X53518Y51380D02*Y54259D01*
X53604Y54401D01*
X53699Y54630D01*
X53757Y54871D01*
X53772Y55118D01*
X53757Y55365D01*
X53699Y55606D01*
X53604Y55835D01*
X53475Y56046D01*
X53314Y56235D01*
X53125Y56396D01*
X52914Y56525D01*
X52685Y56620D01*
X52444Y56678D01*
X52197Y56698D01*
X51950Y56678D01*
X51779Y56637D01*
Y58293D01*
X53086D01*
X57785Y53594D01*
Y43307D01*
X54737Y40259D01*
X51779D01*
Y43094D01*
X51799Y43105D01*
X51819Y43122D01*
X51837Y43141D01*
X51851Y43163D01*
X51907Y43273D01*
X51951Y43389D01*
X51985Y43508D01*
X52008Y43630D01*
X52019Y43753D01*
Y43877D01*
X52008Y44000D01*
X51985Y44122D01*
X51951Y44241D01*
X51907Y44357D01*
X51852Y44468D01*
X51838Y44490D01*
X51820Y44509D01*
X51799Y44525D01*
X51779Y44537D01*
Y45718D01*
X51872Y45869D01*
X51970Y46105D01*
X52030Y46354D01*
X52030Y46355D01*
X53807D01*
X53868Y46302D01*
X54066Y46181D01*
X54280Y46093D01*
X54506Y46038D01*
X54737Y46020D01*
X54968Y46038D01*
X55194Y46093D01*
X55408Y46181D01*
X55606Y46302D01*
X55782Y46453D01*
X55933Y46629D01*
X56054Y46827D01*
X56142Y47041D01*
X56197Y47267D01*
X56210Y47498D01*
X56197Y47729D01*
X56142Y47955D01*
X56054Y48169D01*
X55933Y48367D01*
X55782Y48543D01*
X55719Y48597D01*
X55799Y48616D01*
X55880Y48650D01*
X55955Y48696D01*
X56022Y48753D01*
X56079Y48820D01*
X56125Y48895D01*
X56159Y48976D01*
X56180Y49061D01*
X56185Y49149D01*
X56180Y51015D01*
X56159Y51100D01*
X56125Y51181D01*
X56079Y51256D01*
X56022Y51323D01*
X55955Y51380D01*
X55880Y51426D01*
X55799Y51460D01*
X55714Y51481D01*
X55626Y51486D01*
X53760Y51481D01*
X53675Y51460D01*
X53594Y51426D01*
X53519Y51380D01*
X53518Y51380D01*
G37*
G36*
X51779Y40259D02*X51017D01*
Y40427D01*
X51037Y40438D01*
X51057Y40455D01*
X51075Y40474D01*
X51089Y40496D01*
X51145Y40606D01*
X51189Y40722D01*
X51223Y40841D01*
X51246Y40963D01*
X51257Y41086D01*
Y41210D01*
X51246Y41333D01*
X51223Y41455D01*
X51189Y41574D01*
X51145Y41690D01*
X51090Y41801D01*
X51076Y41823D01*
X51058Y41842D01*
X51037Y41858D01*
X51017Y41870D01*
Y42513D01*
X51099Y42537D01*
X51215Y42581D01*
X51326Y42636D01*
X51348Y42650D01*
X51367Y42668D01*
X51383Y42689D01*
X51396Y42711D01*
X51405Y42736D01*
X51411Y42761D01*
X51412Y42788D01*
X51409Y42814D01*
X51402Y42839D01*
X51391Y42863D01*
X51377Y42884D01*
X51359Y42904D01*
X51339Y42920D01*
X51316Y42933D01*
X51291Y42942D01*
X51266Y42947D01*
X51240Y42948D01*
X51214Y42945D01*
X51188Y42938D01*
X51165Y42927D01*
X51082Y42885D01*
X51017Y42860D01*
Y44770D01*
X51082Y44745D01*
X51165Y44704D01*
X51189Y44693D01*
X51214Y44686D01*
X51240Y44683D01*
X51266Y44684D01*
X51291Y44689D01*
X51315Y44698D01*
X51338Y44711D01*
X51358Y44727D01*
X51376Y44746D01*
X51390Y44768D01*
X51401Y44792D01*
X51408Y44817D01*
X51411Y44842D01*
X51410Y44868D01*
X51404Y44894D01*
X51395Y44918D01*
X51383Y44941D01*
X51366Y44961D01*
X51347Y44979D01*
X51325Y44993D01*
X51215Y45049D01*
X51099Y45093D01*
X51045Y45109D01*
X51159Y45156D01*
X51377Y45290D01*
X51572Y45456D01*
X51738Y45651D01*
X51779Y45718D01*
Y44537D01*
X51777Y44538D01*
X51752Y44547D01*
X51727Y44553D01*
X51700Y44554D01*
X51674Y44551D01*
X51649Y44544D01*
X51625Y44533D01*
X51604Y44519D01*
X51584Y44501D01*
X51568Y44481D01*
X51555Y44458D01*
X51546Y44433D01*
X51541Y44408D01*
X51540Y44382D01*
X51543Y44356D01*
X51550Y44330D01*
X51561Y44307D01*
X51603Y44224D01*
X51637Y44136D01*
X51662Y44047D01*
X51679Y43955D01*
X51688Y43862D01*
Y43768D01*
X51679Y43675D01*
X51662Y43583D01*
X51637Y43494D01*
X51603Y43406D01*
X51562Y43323D01*
X51551Y43299D01*
X51544Y43274D01*
X51541Y43248D01*
X51542Y43222D01*
X51547Y43197D01*
X51556Y43173D01*
X51569Y43150D01*
X51585Y43130D01*
X51604Y43112D01*
X51626Y43098D01*
X51650Y43087D01*
X51675Y43080D01*
X51700Y43077D01*
X51726Y43078D01*
X51752Y43084D01*
X51776Y43093D01*
X51779Y43094D01*
Y40259D01*
G37*
G36*
X51017Y42860D02*X50994Y42851D01*
X50905Y42826D01*
X50813Y42809D01*
X50720Y42800D01*
X50626D01*
X50533Y42809D01*
X50441Y42826D01*
X50352Y42851D01*
X50264Y42885D01*
X50181Y42926D01*
X50157Y42937D01*
X50132Y42944D01*
X50106Y42947D01*
X50080Y42946D01*
X50055Y42941D01*
X50031Y42932D01*
X50013Y42922D01*
X49996Y44720D01*
X50007Y44710D01*
X50030Y44697D01*
X50055Y44688D01*
X50080Y44683D01*
X50106Y44682D01*
X50132Y44685D01*
X50158Y44692D01*
X50181Y44703D01*
X50264Y44745D01*
X50352Y44779D01*
X50441Y44804D01*
X50533Y44821D01*
X50626Y44830D01*
X50720D01*
X50813Y44821D01*
X50905Y44804D01*
X50994Y44779D01*
X51017Y44770D01*
Y42860D01*
G37*
G36*
Y40259D02*X50566D01*
X50554Y40266D01*
X50529Y40275D01*
X50504Y40280D01*
X50478Y40281D01*
X50452Y40278D01*
X50426Y40271D01*
X50403Y40260D01*
X50400Y40259D01*
X50038D01*
X50020Y42157D01*
X50051Y42154D01*
X50143Y42137D01*
X50232Y42112D01*
X50320Y42078D01*
X50403Y42037D01*
X50427Y42026D01*
X50452Y42019D01*
X50478Y42016D01*
X50504Y42017D01*
X50529Y42022D01*
X50553Y42031D01*
X50576Y42044D01*
X50596Y42060D01*
X50614Y42079D01*
X50628Y42101D01*
X50639Y42125D01*
X50646Y42150D01*
X50649Y42175D01*
X50648Y42201D01*
X50642Y42227D01*
X50633Y42251D01*
X50621Y42274D01*
X50604Y42294D01*
X50585Y42312D01*
X50563Y42326D01*
X50453Y42382D01*
X50337Y42426D01*
X50218Y42460D01*
X50096Y42483D01*
X50017Y42490D01*
X50015Y42641D01*
X50021Y42637D01*
X50131Y42581D01*
X50247Y42537D01*
X50366Y42503D01*
X50488Y42480D01*
X50611Y42469D01*
X50735D01*
X50858Y42480D01*
X50980Y42503D01*
X51017Y42513D01*
Y41870D01*
X51015Y41871D01*
X50990Y41880D01*
X50965Y41886D01*
X50938Y41887D01*
X50912Y41884D01*
X50887Y41877D01*
X50863Y41866D01*
X50842Y41852D01*
X50822Y41834D01*
X50806Y41814D01*
X50793Y41791D01*
X50784Y41766D01*
X50779Y41741D01*
X50778Y41715D01*
X50781Y41689D01*
X50788Y41663D01*
X50799Y41640D01*
X50841Y41557D01*
X50875Y41469D01*
X50900Y41380D01*
X50917Y41288D01*
X50926Y41195D01*
Y41101D01*
X50917Y41008D01*
X50900Y40916D01*
X50875Y40827D01*
X50841Y40739D01*
X50800Y40656D01*
X50789Y40632D01*
X50782Y40607D01*
X50779Y40581D01*
X50780Y40555D01*
X50785Y40530D01*
X50794Y40506D01*
X50807Y40483D01*
X50823Y40463D01*
X50842Y40445D01*
X50864Y40431D01*
X50888Y40420D01*
X50913Y40413D01*
X50938Y40410D01*
X50964Y40411D01*
X50990Y40417D01*
X51014Y40426D01*
X51017Y40427D01*
Y40259D01*
G37*
G36*
X51779Y56637D02*X51709Y56620D01*
X51480Y56525D01*
X51269Y56396D01*
X51080Y56235D01*
X50927Y56056D01*
X50774Y56235D01*
X50585Y56396D01*
X50374Y56525D01*
X50145Y56620D01*
X49904Y56678D01*
X49657Y56698D01*
X49410Y56678D01*
X49169Y56620D01*
X48940Y56525D01*
X48729Y56396D01*
X48540Y56235D01*
X48379Y56046D01*
X48252Y55840D01*
X48252Y55840D01*
X48222Y55842D01*
X48192Y55840D01*
X48163Y55833D01*
X48135Y55822D01*
X48110Y55806D01*
X48087Y55787D01*
X48067Y55764D01*
X48052Y55738D01*
X48040Y55710D01*
X48033Y55681D01*
X48031Y55651D01*
Y54585D01*
X48033Y54555D01*
X48040Y54526D01*
X48052Y54498D01*
X48067Y54472D01*
X48087Y54449D01*
X48110Y54430D01*
X48135Y54414D01*
X48163Y54403D01*
X48192Y54396D01*
X48222Y54394D01*
X48252Y54396D01*
X48252Y54396D01*
X48379Y54190D01*
X48540Y54001D01*
X48729Y53840D01*
X48832Y53777D01*
Y53594D01*
X47117D01*
Y53823D01*
X47650D01*
X47680Y53824D01*
X47709Y53831D01*
X47737Y53843D01*
X47763Y53859D01*
X47786Y53878D01*
X47805Y53901D01*
X47821Y53926D01*
X47832Y53954D01*
X47839Y53983D01*
X47841Y54013D01*
X47839Y54043D01*
X47832Y54072D01*
X47821Y54100D01*
X47805Y54125D01*
X47786Y54148D01*
X47763Y54168D01*
X47737Y54183D01*
X47709Y54195D01*
X47680Y54202D01*
X47650Y54204D01*
X47117D01*
Y56032D01*
X47650D01*
X47680Y56034D01*
X47709Y56041D01*
X47737Y56053D01*
X47763Y56068D01*
X47786Y56088D01*
X47805Y56111D01*
X47821Y56136D01*
X47832Y56164D01*
X47839Y56193D01*
X47841Y56223D01*
X47839Y56253D01*
X47832Y56282D01*
X47821Y56310D01*
X47805Y56335D01*
X47786Y56358D01*
X47763Y56377D01*
X47737Y56393D01*
X47709Y56405D01*
X47680Y56412D01*
X47650Y56413D01*
X47117D01*
Y58293D01*
X51779D01*
Y56637D01*
G37*
G36*
X47117Y53594D02*X45832D01*
Y54505D01*
X45835Y54513D01*
X45842Y54498D01*
X45858Y54472D01*
X45877Y54449D01*
X45900Y54430D01*
X45925Y54414D01*
X45953Y54403D01*
X45982Y54396D01*
X46012Y54394D01*
X46042Y54396D01*
X46071Y54403D01*
X46099Y54414D01*
X46124Y54430D01*
X46147Y54449D01*
X46167Y54472D01*
X46182Y54498D01*
X46194Y54526D01*
X46201Y54555D01*
X46203Y54585D01*
Y55651D01*
X46201Y55681D01*
X46194Y55710D01*
X46182Y55738D01*
X46167Y55764D01*
X46147Y55787D01*
X46124Y55806D01*
X46099Y55822D01*
X46071Y55833D01*
X46042Y55840D01*
X46012Y55842D01*
X45982Y55840D01*
X45953Y55833D01*
X45925Y55822D01*
X45900Y55806D01*
X45877Y55787D01*
X45858Y55764D01*
X45842Y55738D01*
X45836Y55724D01*
X45832Y55734D01*
Y58293D01*
X47117D01*
Y56413D01*
X46584D01*
X46554Y56412D01*
X46525Y56405D01*
X46497Y56393D01*
X46471Y56377D01*
X46448Y56358D01*
X46429Y56335D01*
X46413Y56310D01*
X46402Y56282D01*
X46395Y56253D01*
X46393Y56223D01*
X46395Y56193D01*
X46402Y56164D01*
X46413Y56136D01*
X46429Y56111D01*
X46448Y56088D01*
X46471Y56068D01*
X46497Y56053D01*
X46525Y56041D01*
X46554Y56034D01*
X46584Y56032D01*
X47117D01*
Y54204D01*
X46584D01*
X46554Y54202D01*
X46525Y54195D01*
X46497Y54183D01*
X46471Y54168D01*
X46448Y54148D01*
X46429Y54125D01*
X46413Y54100D01*
X46402Y54072D01*
X46395Y54043D01*
X46393Y54013D01*
X46395Y53983D01*
X46402Y53954D01*
X46413Y53926D01*
X46429Y53901D01*
X46448Y53878D01*
X46471Y53859D01*
X46497Y53843D01*
X46525Y53831D01*
X46554Y53824D01*
X46584Y53823D01*
X47117D01*
Y53594D01*
G37*
G36*
X45832D02*X44578D01*
Y53719D01*
X44708Y53726D01*
X44838Y53744D01*
X44966Y53775D01*
X45090Y53817D01*
X45210Y53871D01*
X45236Y53886D01*
X45259Y53906D01*
X45278Y53929D01*
X45294Y53955D01*
X45306Y53982D01*
X45313Y54012D01*
X45315Y54042D01*
X45313Y54072D01*
X45306Y54101D01*
X45294Y54129D01*
X45279Y54155D01*
X45259Y54178D01*
X45236Y54197D01*
X45211Y54213D01*
X45183Y54225D01*
X45153Y54232D01*
X45123Y54234D01*
X45093Y54232D01*
X45064Y54225D01*
X45036Y54213D01*
X44950Y54173D01*
X44860Y54142D01*
X44767Y54120D01*
X44672Y54106D01*
X44578Y54102D01*
Y56134D01*
X44672Y56130D01*
X44767Y56116D01*
X44860Y56094D01*
X44950Y56063D01*
X45037Y56024D01*
X45064Y56012D01*
X45093Y56005D01*
X45123Y56003D01*
X45153Y56005D01*
X45182Y56012D01*
X45210Y56024D01*
X45236Y56039D01*
X45258Y56059D01*
X45278Y56082D01*
X45293Y56107D01*
X45305Y56135D01*
X45312Y56164D01*
X45314Y56194D01*
X45312Y56224D01*
X45305Y56253D01*
X45293Y56281D01*
X45277Y56306D01*
X45258Y56329D01*
X45235Y56349D01*
X45209Y56364D01*
X45090Y56419D01*
X44966Y56461D01*
X44838Y56492D01*
X44708Y56510D01*
X44578Y56517D01*
Y58293D01*
X45832D01*
Y55734D01*
X45824Y55751D01*
X45809Y55777D01*
X45789Y55800D01*
X45766Y55819D01*
X45740Y55835D01*
X45713Y55847D01*
X45683Y55854D01*
X45653Y55856D01*
X45623Y55854D01*
X45594Y55847D01*
X45566Y55835D01*
X45540Y55820D01*
X45517Y55800D01*
X45498Y55777D01*
X45482Y55752D01*
X45470Y55724D01*
X45463Y55694D01*
X45461Y55664D01*
X45463Y55634D01*
X45470Y55605D01*
X45482Y55577D01*
X45522Y55491D01*
X45553Y55401D01*
X45575Y55308D01*
X45589Y55213D01*
X45593Y55118D01*
X45589Y55023D01*
X45575Y54928D01*
X45553Y54836D01*
X45522Y54745D01*
X45483Y54658D01*
X45471Y54631D01*
X45464Y54602D01*
X45462Y54572D01*
X45464Y54542D01*
X45471Y54513D01*
X45483Y54485D01*
X45498Y54459D01*
X45518Y54437D01*
X45541Y54417D01*
X45566Y54402D01*
X45594Y54390D01*
X45623Y54383D01*
X45653Y54381D01*
X45683Y54383D01*
X45712Y54390D01*
X45740Y54402D01*
X45765Y54418D01*
X45788Y54437D01*
X45808Y54460D01*
X45823Y54486D01*
X45832Y54505D01*
Y53594D01*
G37*
G36*
X44578D02*X43436D01*
Y54392D01*
X43441Y54389D01*
X43471Y54382D01*
X43501Y54380D01*
X43531Y54382D01*
X43560Y54389D01*
X43588Y54401D01*
X43614Y54416D01*
X43637Y54436D01*
X43656Y54459D01*
X43672Y54484D01*
X43684Y54512D01*
X43691Y54542D01*
X43693Y54572D01*
X43691Y54602D01*
X43684Y54631D01*
X43672Y54659D01*
X43632Y54745D01*
X43601Y54836D01*
X43579Y54928D01*
X43565Y55023D01*
X43561Y55118D01*
X43565Y55213D01*
X43579Y55308D01*
X43601Y55401D01*
X43632Y55491D01*
X43671Y55578D01*
X43683Y55605D01*
X43690Y55634D01*
X43692Y55664D01*
X43690Y55694D01*
X43683Y55723D01*
X43671Y55751D01*
X43656Y55777D01*
X43636Y55799D01*
X43613Y55819D01*
X43588Y55834D01*
X43560Y55846D01*
X43531Y55853D01*
X43501Y55855D01*
X43471Y55853D01*
X43442Y55846D01*
X43436Y55843D01*
Y58293D01*
X44578D01*
Y56517D01*
X44577Y56517D01*
X44446Y56510D01*
X44316Y56492D01*
X44188Y56461D01*
X44064Y56419D01*
X43944Y56365D01*
X43918Y56350D01*
X43895Y56330D01*
X43876Y56307D01*
X43860Y56281D01*
X43848Y56254D01*
X43841Y56224D01*
X43839Y56194D01*
X43841Y56164D01*
X43848Y56135D01*
X43860Y56107D01*
X43875Y56081D01*
X43895Y56058D01*
X43918Y56039D01*
X43943Y56023D01*
X43971Y56011D01*
X44001Y56004D01*
X44031Y56002D01*
X44061Y56004D01*
X44090Y56011D01*
X44118Y56023D01*
X44204Y56063D01*
X44294Y56094D01*
X44387Y56116D01*
X44482Y56130D01*
X44577Y56134D01*
X44578Y56134D01*
Y54102D01*
X44577Y54102D01*
X44482Y54106D01*
X44387Y54120D01*
X44294Y54142D01*
X44204Y54173D01*
X44117Y54212D01*
X44090Y54224D01*
X44061Y54231D01*
X44031Y54233D01*
X44001Y54231D01*
X43972Y54224D01*
X43944Y54212D01*
X43918Y54197D01*
X43896Y54177D01*
X43876Y54154D01*
X43861Y54129D01*
X43849Y54101D01*
X43842Y54072D01*
X43840Y54042D01*
X43842Y54012D01*
X43849Y53983D01*
X43861Y53955D01*
X43877Y53930D01*
X43896Y53907D01*
X43919Y53887D01*
X43945Y53872D01*
X44064Y53817D01*
X44188Y53775D01*
X44316Y53744D01*
X44446Y53726D01*
X44577Y53719D01*
X44578Y53719D01*
Y53594D01*
G37*
G36*
X43436D02*X12827D01*
Y54356D01*
X15621Y57150D01*
X16383D01*
X17526Y58293D01*
X27669D01*
X27605Y58138D01*
X27548Y57901D01*
X27529Y57658D01*
X27548Y57415D01*
X27605Y57178D01*
X27698Y56952D01*
X27826Y56744D01*
X27984Y56559D01*
X28169Y56401D01*
X28377Y56273D01*
X28603Y56180D01*
X28840Y56123D01*
X29083Y56104D01*
X29326Y56123D01*
X29563Y56180D01*
X29789Y56273D01*
X29997Y56401D01*
X30182Y56559D01*
X30209Y56591D01*
X30497D01*
X30524Y56559D01*
X30709Y56401D01*
X30917Y56273D01*
X31143Y56180D01*
X31380Y56123D01*
X31623Y56104D01*
X31866Y56123D01*
X32103Y56180D01*
X32329Y56273D01*
X32537Y56401D01*
X32722Y56559D01*
X32880Y56744D01*
X32893Y56765D01*
X32906Y56744D01*
X33064Y56559D01*
X33249Y56401D01*
X33457Y56273D01*
X33683Y56180D01*
X33920Y56123D01*
X34163Y56104D01*
X34406Y56123D01*
X34643Y56180D01*
X34869Y56273D01*
X35077Y56401D01*
X35262Y56559D01*
X35420Y56744D01*
X35433Y56765D01*
X35446Y56744D01*
X35604Y56559D01*
X35789Y56401D01*
X35997Y56273D01*
X36223Y56180D01*
X36460Y56123D01*
X36703Y56104D01*
X36946Y56123D01*
X37183Y56180D01*
X37409Y56273D01*
X37617Y56401D01*
X37802Y56559D01*
X37960Y56744D01*
X37973Y56765D01*
X37986Y56744D01*
X38144Y56559D01*
X38329Y56401D01*
X38537Y56273D01*
X38763Y56180D01*
X39000Y56123D01*
X39243Y56104D01*
X39486Y56123D01*
X39723Y56180D01*
X39949Y56273D01*
X40157Y56401D01*
X40342Y56559D01*
X40348Y56566D01*
X40678D01*
X40684Y56559D01*
X40869Y56401D01*
X41077Y56273D01*
X41303Y56180D01*
X41540Y56123D01*
X41783Y56104D01*
X42026Y56123D01*
X42263Y56180D01*
X42489Y56273D01*
X42697Y56401D01*
X42882Y56559D01*
X43040Y56744D01*
X43168Y56952D01*
X43261Y57178D01*
X43318Y57415D01*
X43332Y57658D01*
X43318Y57901D01*
X43261Y58138D01*
X43197Y58293D01*
X43436D01*
Y55843D01*
X43414Y55834D01*
X43389Y55818D01*
X43366Y55799D01*
X43346Y55776D01*
X43331Y55750D01*
X43276Y55631D01*
X43234Y55507D01*
X43203Y55379D01*
X43185Y55249D01*
X43178Y55118D01*
X43185Y54987D01*
X43203Y54857D01*
X43234Y54729D01*
X43276Y54605D01*
X43330Y54485D01*
X43345Y54459D01*
X43365Y54436D01*
X43388Y54417D01*
X43414Y54401D01*
X43436Y54392D01*
Y53594D01*
G37*
G54D53*X19558Y27432D02*X24511Y32385D01*
X24257Y27432D02*Y26543D01*
X20193Y30226D02*X20320D01*
X25908Y31623D02*X21717Y27432D01*
X22987Y33147D02*X19939Y30099D01*
G54D54*X11176Y22352D02*X5080Y28448D01*
X12700Y22352D02*X11176D01*
X16637Y27432D02*X12700D01*
X15240Y31115D02*Y27432D01*
X11557Y20447D02*Y21971D01*
G54D53*X25527Y24765D02*Y29591D01*
X27940Y32004D01*
X25908Y33528D02*X27559D01*
X25908D02*Y31623D01*
X28321Y30226D02*X28194Y30099D01*
X27940Y32004D02*X28702D01*
G54D54*X12319Y32512D02*X13843D01*
X15240Y31115D01*
G54D53*X24257Y26543D02*X23368Y25654D01*
X18796D01*
X17907Y26416D01*
Y30353D01*
X24257Y22098D02*X17780D01*
G54D54*X17653Y1524D02*X23749D01*
G54D53*X23114Y5588D02*X21844Y4318D01*
X19939D01*
X22225Y17272D02*X21717Y18796D01*
Y19812D01*
X19177D02*Y17907D01*
X21590Y15494D01*
X16637Y19812D02*Y20955D01*
X17780Y22098D01*
X22860Y15494D02*X25527Y18161D01*
Y21971D01*
X26797Y19812D02*Y19177D01*
X27305Y18669D01*
Y17272D01*
X26416D01*
X25527Y21971D02*X26797Y23241D01*
Y27432D02*Y23241D01*
X24257Y19812D02*Y23495D01*
X25527Y24765D01*
X26416Y17272D02*X23114Y13970D01*
X23241Y13208D02*X23114D01*
X21590Y15494D02*X22860D01*
X23114Y13970D02*Y13208D01*
X45847Y45974D02*X47117Y44704D01*
G54D54*X45593Y43561D02*X45212Y43942D01*
Y43815D02*X43053D01*
X42926Y43688D01*
G54D53*X26543Y37719D02*Y36322D01*
X30353Y41148D02*X43307D01*
X31623Y43942D02*X33655Y45974D01*
X45847D02*X33655D01*
X41275Y38608D02*X40386Y39497D01*
X31115D01*
X29083Y37465D01*
Y36322D01*
X43307Y41148D02*X44069Y40386D01*
X39243Y50038D02*Y48768D01*
X40259Y47752D01*
X46482D02*X40259D01*
X49657Y52578D02*X35052D01*
G54D54*X41783Y50038D02*X47117D01*
X39243Y57658D02*X41783D01*
G54D53*X32385Y59309D02*X38608D01*
X39243Y58674D01*
Y57658D01*
G54D54*X45593Y43815D02*Y27940D01*
G54D53*X47117Y44704D02*Y29718D01*
X48260Y34036D02*Y45974D01*
X44069Y34417D02*Y40386D01*
X56134Y29337D02*Y33782D01*
X53848Y36068D01*
X57912Y35306D02*X54610Y38608D01*
X53848Y36068D02*X49911D01*
X54610Y38608D02*X49911D01*
X48768Y33528D02*X48260Y34036D01*
X57912Y27686D02*Y35306D01*
X39497Y37211D02*X40640Y36068D01*
X42291D01*
X43180Y33528D02*X44069Y34417D01*
X42291Y38608D02*X41275D01*
X29591Y46990D02*X30607D01*
X31623Y48006D01*
Y50038D01*
X33528Y47879D02*X30988Y45339D01*
X29083Y49403D02*X27813Y48133D01*
X34163Y50038D02*Y51689D01*
X35052Y52578D01*
X36703Y50038D02*Y48641D01*
X35941Y47879D01*
X33528D01*
X26543Y50038D02*Y43307D01*
X27813Y38989D02*X26543Y37719D01*
X29083Y43942D02*Y42418D01*
X30353Y41148D01*
X30988Y45339D02*X27813D01*
G54D54*X57150Y46863D02*X54229Y43942D01*
G54D53*X49657Y55118D02*Y50038D01*
G54D54*X52197Y55118D02*Y50038D01*
X54737D01*
G54D53*X48260Y45974D02*X46482Y47752D01*
G54D54*X47117Y50038D02*Y49403D01*
X49022Y47498D01*
X54737D01*
X48133Y57658D02*X53213D01*
X57150Y53721D02*Y46863D01*
X53213Y57658D02*X57150Y53721D01*
G54D53*X24511Y34290D02*Y32385D01*
X25273Y42037D02*Y35052D01*
X24511Y34290D01*
G54D54*X31623Y36322D02*X34163D01*
X34290Y37592D02*Y33655D01*
G54D53*X24003Y36068D02*X23876D01*
X22987Y35179D01*
X27686D02*X26543Y36322D01*
X28067Y35179D02*X27686D01*
X22987D02*Y33147D01*
G54D54*X32639Y33528D02*X34290D01*
Y33782D02*Y31115D01*
G54D53*X29337Y32639D02*Y33909D01*
X28067Y35179D01*
X16383Y36322D02*X14859Y37846D01*
X13081D01*
X12319Y35052D02*X11176D01*
X10033Y36195D02*Y37592D01*
X11176Y35052D02*X10033Y36195D01*
G54D54*X5080Y28448D02*Y45847D01*
X6985Y47752D01*
X8763Y46990D02*Y49784D01*
X6985Y47752D02*X8763D01*
G54D53*X13081Y37846D02*X8001Y42926D01*
Y45212D01*
X10033Y37592D02*X8001D01*
G54D54*X11811Y43942D02*X8763Y46990D01*
X16383Y43942D02*X11811D01*
X14224Y48260D02*Y46990D01*
G54D53*X18923Y45847D02*X17780Y46990D01*
X14224D01*
G54D54*X18923Y43942D02*Y46736D01*
G54D53*X17907Y30353D02*X21463Y33909D01*
Y36322D01*
X18923D02*Y34163D01*
X18288Y33528D01*
G54D54*X11303Y47752D02*X13589D01*
X16637Y51816D02*Y50800D01*
X13589Y47752D01*
X8763Y49784D02*X16637Y57658D01*
X26543D01*
X16637Y59436D02*Y57658D01*
G54D53*X21844Y46990D02*X24638D01*
G54D54*X26543Y57658D02*Y56134D01*
X27559Y55118D01*
X22987Y49657D02*X15494D01*
G54D53*X24638Y45466D02*Y46990D01*
X762Y62738D02*X2286D01*
X1524D02*Y61214D01*
G54D54*X29083Y57658D02*X31623D01*
G54D53*X31750D02*Y58674D01*
X32385Y59309D01*
G54D54*X29083Y60325D02*Y57658D01*
G54D53*X24003Y43942D02*Y44831D01*
X24638Y45466D01*
X26543Y43307D02*X25273Y42037D01*
X27813Y48133D02*Y38989D01*
X42291Y30988D02*Y30734D01*
G54D54*Y25908D02*X43561D01*
X45593Y27940D01*
G54D53*X49911Y28448D02*X48387D01*
X47117Y29718D01*
X53086Y33528D02*X48768D01*
X42291D02*X43180D01*
X28702Y32004D02*X29337Y32639D01*
X42291Y28448D02*X40894D01*
X40386Y27940D01*
Y24384D01*
X39497Y32131D02*Y30226D01*
X42291Y30988D02*X39497D01*
X30099Y30226D02*X28321D01*
G54D54*X35560Y27686D02*Y29845D01*
X34290Y31115D02*X35560Y29845D01*
X44069Y23749D02*Y26416D01*
X34671Y18796D02*Y16764D01*
X37719D01*
G54D53*X39751Y7366D02*X36703Y4318D01*
X39751Y7366D02*Y22352D01*
X56134Y21717D02*Y10668D01*
X53467Y8001D01*
Y4318D01*
X40386Y24384D02*X43561Y21209D01*
X45974D01*
X46101D02*X51435D01*
G54D54*X31877Y19812D02*X33655D01*
X34671Y18796D01*
G54D53*X39497Y22606D02*X39751Y22352D01*
X29464Y24384D02*X40386D01*
X29337Y19812D02*Y27432D01*
X29464Y24384D02*X29337Y24257D01*
X31877Y27432D02*Y28448D01*
X30099Y30226D01*
G54D54*X31877Y19812D02*Y17272D01*
G54D53*X49911Y25908D02*X51943D01*
X54356Y28321D01*
X53086Y33528D02*X54356Y32258D01*
Y28321D01*
X54292Y28258D01*
X49911Y30988D02*X52324D01*
X57912Y27686D02*X51435Y21209D01*
G54D55*X52324Y30988D03*
Y36068D03*
X49911Y30988D03*
Y33528D03*
Y36068D03*
Y38608D03*
X50673Y43815D03*
X49911Y41148D03*
X45212Y43815D03*
G54D52*G36*
X41402Y42037D02*Y40259D01*
X43180D01*
Y42037D01*
X41402D01*
G37*
G54D55*X42291Y38608D03*
Y36068D03*
Y33528D03*
Y30988D03*
X39497Y37211D03*
G54D56*Y22606D03*
X37719Y24384D03*
X34671D03*
G54D52*G36*
X31115Y28194D02*Y26670D01*
X32639D01*
Y28194D01*
X31115D01*
G37*
G54D57*X32639Y33528D03*
G54D55*X35179Y30226D03*
G54D52*G36*
X25654Y50927D02*Y49149D01*
X27432D01*
Y50927D01*
X25654D01*
G37*
G54D55*X29083Y50038D03*
X31623D03*
X34163D03*
X36703D03*
X39243D03*
G54D56*X56134Y29337D03*
Y21717D03*
G54D55*X45974Y21209D03*
Y16129D03*
G54D58*X53467Y4318D03*
X48387D03*
X43307D03*
X53467Y14478D03*
G54D59*X43307D03*
G54D55*X42291Y28448D03*
Y25908D03*
X49911D03*
Y28448D03*
G54D52*G36*
X53848Y50927D02*Y49149D01*
X55626D01*
Y50927D01*
X53848D01*
G37*
G54D60*X49657Y50038D03*
X52197D03*
G54D57*X54737Y47498D03*
G54D52*G36*
X46203Y56032D02*Y54204D01*
X48031D01*
Y56032D01*
X46203D01*
G37*
G54D60*X49657Y55118D03*
X52197D03*
G54D52*G36*
X46076Y51079D02*Y48997D01*
X48158D01*
Y51079D01*
X46076D01*
G37*
G54D55*X44577Y55118D03*
Y50038D03*
X41783D03*
Y57658D03*
X39243D03*
X36703D03*
X34163D03*
X31623D03*
X29083D03*
X26543D03*
X24003Y43942D03*
X21463D03*
X18923D03*
X16383D03*
G54D52*G36*
X8001Y48514D02*Y46990D01*
X9525D01*
Y48514D01*
X8001D01*
G37*
G54D56*X11303Y47752D03*
X8001Y45212D03*
X10033D03*
X14224Y46990D03*
G54D52*G36*
X15367Y60706D02*Y58166D01*
X17907D01*
Y60706D01*
X15367D01*
G37*
G54D59*X16637Y51816D03*
G54D55*X12319Y43815D03*
G54D56*X21844Y46990D03*
X24003Y36322D03*
X26543D03*
G54D57*X29083D03*
G54D55*X31623D03*
Y43942D03*
G54D56*X29083D03*
G54D55*X29718Y46990D03*
G54D56*X26543Y43942D03*
G54D55*X24638Y46990D03*
X34290Y42672D03*
Y37592D03*
G54D52*G36*
X15494Y37211D02*Y35433D01*
X17272D01*
Y37211D01*
X15494D01*
G37*
G54D55*X18923Y36322D03*
X21463D03*
X12700Y22352D03*
Y27432D03*
X12319Y32512D03*
Y35052D03*
G54D56*X8001Y37592D03*
X10033D03*
G54D55*X7239Y35052D03*
Y32512D03*
Y29972D03*
X12319Y38735D03*
G54D52*G36*
X37084Y17399D02*Y16129D01*
X38354D01*
Y17399D01*
X37084D01*
G37*
G54D56*X34671Y16764D03*
G54D61*X36703Y14478D03*
G54D58*Y4318D03*
X31623D03*
X19939D03*
X14859D03*
X9779D03*
X26543D03*
G54D59*Y14478D03*
G54D61*X19939D03*
G54D58*X9779D03*
G54D56*X23114Y13208D03*
Y5588D03*
G54D55*X22225Y17272D03*
X27305D03*
X39497Y32131D03*
G54D56*Y30226D03*
G54D55*X30099D03*
X29337Y27432D03*
G54D56*X24257Y19812D03*
X26797D03*
G54D55*X29337D03*
X31877D03*
G54D56*X28194Y30099D03*
X26797Y27432D03*
G54D57*X27559Y33528D03*
G54D56*X24257Y27432D03*
X21717D03*
X19177D03*
X16637D03*
G54D55*Y19812D03*
X19177D03*
X21717D03*
X12319Y29972D03*
G54D56*X18288Y33528D03*
X25908D03*
X19939Y30099D03*
G54D62*X5080Y5080D03*
X58420D03*
G54D63*X44069Y23749D03*
X35560Y27686D03*
X36068Y36576D03*
X16256Y31877D03*
X15367Y33655D03*
X31877Y17272D03*
G54D62*X58420Y58420D03*
G54D63*X36068Y43434D03*
X42926Y43688D03*
X50419Y46609D03*
X29083Y60325D03*
X22987Y49657D03*
G54D62*X5080Y58420D03*
G54D57*X11557Y45466D03*
X14224Y45974D03*
G54D63*X11557Y20447D03*
G54D64*G54D65*G54D64*G54D65*G54D64*G54D65*G54D66*G54D65*G54D66*G54D65*G54D66*G54D65*G54D66*G54D67*G54D66*G54D65*G54D66*G54D65*G54D68*G54D66*G54D69*G54D70*G54D69*G54D70*G54D65*G54D66*G54D69*G54D66*G54D54*G54D65*G54D66*G54D65*G54D66*G54D65*G54D66*G54D65*G54D69*G54D66*G54D65*G54D67*G54D66*G54D68*G54D66*G54D65*G54D66*G54D65*G54D66*G54D65*G54D66*G54D65*G54D66*M02*
