M48
METRIC,000.000
T79C3.000
T78C1.270
T77C1.067
T76C0.965
T75C1.397
T74C0.508
T73C0.711
T72C0.889
%
T74
X037719Y024384
X037719Y016764
T73
X008001Y045212
X008001Y037592
X010033Y045212
X010033Y037592
X014224Y046990
X016383Y043942
X016383Y036322
X016637Y027432
X016637Y019812
X018288Y033528
X018923Y043942
X018923Y036322
X019177Y027432
X019177Y019812
X019939Y030099
X021463Y043942
X021463Y036322
X021717Y027432
X021717Y019812
X021844Y046990
X023114Y013208
X023114Y005588
X024003Y043942
X024003Y036322
X024257Y027432
X024257Y019812
X025908Y033528
X026543Y057658
X026543Y050038
X026543Y043942
X026543Y036322
X026797Y027432
X026797Y019812
X028194Y030099
X029083Y057658
X029083Y050038
X029083Y043942
X029083Y036322
X029337Y027432
X029337Y019812
X031623Y057658
X031623Y050038
X031623Y043942
X031623Y036322
X031877Y027432
X031877Y019812
X034163Y057658
X034163Y050038
X034671Y024384
X034671Y016764
X036703Y057658
X036703Y050038
X039243Y057658
X039243Y050038
X039497Y030226
X039497Y022606
X041783Y057658
X041783Y050038
X042291Y041148
X042291Y038608
X042291Y036068
X042291Y033528
X042291Y030988
X042291Y028448
X042291Y025908
X049911Y041148
X049911Y038608
X049911Y036068
X049911Y033528
X049911Y030988
X049911Y028448
X049911Y025908
X056134Y029337
X056134Y021717
T72
X007239Y035052
X007239Y032512
X007239Y029972
X011557Y045466
X011557Y020447
X012319Y043815
X012319Y038735
X012319Y029972
X012700Y027432
X012700Y022352
X014224Y045974
X015367Y033655
X016256Y031877
X022225Y017272
X022987Y049657
X024638Y046990
X027305Y017272
X027559Y033528
X029083Y060325
X029718Y046990
X030099Y030226
X031877Y017272
X032639Y033528
X034290Y042672
X034290Y037592
X035179Y030226
X035560Y027686
X036068Y043434
X036068Y036576
X039497Y037211
X039497Y032131
X042926Y043688
X044069Y023749
X044577Y055118
X044577Y050038
X045212Y043815
X045974Y021209
X045974Y016129
X050419Y046609
X050673Y043815
X052324Y036068
X052324Y030988
T76
X008763Y047752
X011303Y047752
X012319Y035052
X012319Y032512
X054737Y050038
X054737Y047498
T77
X047117Y055118
X047117Y050038
X049657Y055118
X049657Y050038
X052197Y055118
X052197Y050038
T78
X016637Y059436
X016637Y051816
T75
X009779Y014478
X009779Y004318
X014859Y004318
X019939Y014478
X019939Y004318
X026543Y014478
X026543Y004318
X031623Y004318
X036703Y014478
X036703Y004318
X043307Y014478
X043307Y004318
X048387Y004318
X053467Y014478
X053467Y004318
T79
X005080Y058420
X005080Y005080
X058420Y058420
X058420Y005080
M30
