G04 start of page 9 for group -4078 idx -4078 *
G04 Title: (unknown), bottomsilk *
G04 Creator: pcb-gtk 20140316 *
G04 CreationDate: Tue 27 Oct 2015 12:33:52 PM GMT UTC *
G04 For: janik *
G04 Format: Gerber/RS-274X *
G04 PCB-Dimensions (mm): 45.72 38.10 *
G04 PCB-Coordinate-Origin: lower left *
%MOMM*%
%FSLAX43Y43*%
%LNGBO*%
%ADD94C,0.250*%
%ADD93C,0.254*%
%ADD92C,0.203*%
G54D92*X5012Y21143D02*X6212D01*
X5012Y19243D02*X6212D01*
X10068Y21021D02*X11268D01*
X10068Y22921D02*X11268D01*
X13401Y29278D02*Y28078D01*
X15301Y29278D02*Y28078D01*
X4826Y25654D02*Y23114D01*
Y25654D02*X10160D01*
Y23114D01*
X4826D02*X10160D01*
X5080Y25654D02*Y23114D01*
X3495Y28818D02*Y27618D01*
X5395Y28818D02*Y27618D01*
X8443Y29405D02*Y28205D01*
X6543Y29405D02*Y28205D01*
X508Y23368D02*X3048D01*
X508Y28702D02*Y23368D01*
Y28702D02*X3048D01*
Y23368D01*
X508Y23622D02*X3048D01*
X38801Y16729D02*Y15529D01*
X40701Y16729D02*Y15529D01*
X23815Y23103D02*Y21903D01*
X25715Y23103D02*Y21903D01*
X26101D02*Y23103D01*
X28001Y21903D02*Y23103D01*
X27062Y14158D02*X28262D01*
X27062Y12258D02*X28262D01*
G54D93*X34464Y8582D02*X31718D01*
X34464D02*Y1884D01*
X33702Y1122D01*
X31718D01*
X27004Y8582D02*X29750D01*
X27004D02*Y1884D01*
X27766Y1122D01*
X29750D01*
G54D92*X24572Y6466D02*Y5266D01*
X22672Y6466D02*Y5266D01*
X15934Y955D02*X17134D01*
X15934Y2855D02*X17134D01*
X17331Y10226D02*X18531D01*
X17331Y12126D02*X18531D01*
G54D93*X8858Y8569D02*X11604D01*
Y1871D01*
X10842Y1109D01*
X8858D02*X10842D01*
X4144Y8569D02*X6890D01*
X4144D02*Y1871D01*
X4906Y1109D01*
X6890D01*
G54D94*X5904Y20739D02*X6412D01*
X5904D02*X5777Y20612D01*
Y20358D02*Y20612D01*
X5904Y20231D02*X5777Y20358D01*
X5904Y20231D02*X6285D01*
Y19723D02*Y20739D01*
X6082Y20231D02*X5777Y19723D01*
X5472Y20536D02*X5269Y20739D01*
Y19723D02*Y20739D01*
X5091Y19723D02*X5472D01*
X3899Y28510D02*Y29018D01*
Y28510D02*X4026Y28383D01*
X4280D01*
X4407Y28510D02*X4280Y28383D01*
X4407Y28510D02*Y28891D01*
X3899D02*X4915D01*
X4407Y28688D02*X4915Y28383D01*
X4026Y28078D02*X3899Y27951D01*
Y27570D02*Y27951D01*
Y27570D02*X4026Y27443D01*
X4280D01*
X4915Y28078D02*X4280Y27443D01*
X4915D02*Y28078D01*
X9930Y21463D02*X10438D01*
X10565Y21590D01*
Y21844D01*
X10438Y21971D02*X10565Y21844D01*
X10057Y21971D02*X10438D01*
X10057Y21463D02*Y22479D01*
X10260Y21971D02*X10565Y22479D01*
X10870Y21590D02*X10997Y21463D01*
X11251D01*
X11378Y21590D01*
X11251Y22479D02*X11378Y22352D01*
X10997Y22479D02*X11251D01*
X10870Y22352D02*X10997Y22479D01*
Y21920D02*X11251D01*
X11378Y21590D02*Y21793D01*
Y22047D02*Y22352D01*
Y22047D02*X11251Y21920D01*
X11378Y21793D02*X11251Y21920D01*
X8039Y28005D02*Y28513D01*
X7912Y28640D01*
X7658D02*X7912D01*
X7531Y28513D02*X7658Y28640D01*
X7531Y28132D02*Y28513D01*
X7023Y28132D02*X8039D01*
X7531Y28335D02*X7023Y28640D01*
X7404Y28945D02*X8039Y29453D01*
X7404Y28945D02*Y29580D01*
X7023Y29453D02*X8039D01*
X1397Y21717D02*X2413D01*
Y22047D02*X2235Y22225D01*
X1575D02*X2235D01*
X1397Y22047D02*X1575Y22225D01*
X1397Y21590D02*Y22047D01*
X2413Y21590D02*Y22047D01*
X2210Y22530D02*X2413Y22733D01*
X1397D02*X2413D01*
X1397Y22530D02*Y22911D01*
X2794Y23495D02*Y24511D01*
X3124Y23495D02*X3302Y23673D01*
Y24333D01*
X3124Y24511D02*X3302Y24333D01*
X2667Y24511D02*X3124D01*
X2667Y23495D02*X3124D01*
X3607Y23622D02*X3734Y23495D01*
X4115D01*
X4242Y23622D01*
Y23876D01*
X3607Y24511D02*X4242Y23876D01*
X3607Y24511D02*X4242D01*
X13805Y28970D02*Y29478D01*
Y28970D02*X13932Y28843D01*
X14186D01*
X14313Y28970D02*X14186Y28843D01*
X14313Y28970D02*Y29351D01*
X13805D02*X14821D01*
X14313Y29148D02*X14821Y28843D01*
X13805Y28157D02*X13932Y28030D01*
X13805Y28157D02*Y28411D01*
X13932Y28538D02*X13805Y28411D01*
X13932Y28538D02*X14694D01*
X14821Y28411D01*
X14262Y28157D02*X14389Y28030D01*
X14262Y28157D02*Y28538D01*
X14821Y28157D02*Y28411D01*
Y28157D02*X14694Y28030D01*
X14389D02*X14694D01*
X8052Y6109D02*X8382D01*
X7874Y5931D02*X8052Y6109D01*
X7874Y5271D02*Y5931D01*
Y5271D02*X8052Y5093D01*
X8382D01*
X8687Y5220D02*X8814Y5093D01*
X9195D01*
X9322Y5220D01*
Y5474D01*
X8687Y6109D02*X9322Y5474D01*
X8687Y6109D02*X9322D01*
X15912Y2375D02*X16242D01*
X15734Y2197D02*X15912Y2375D01*
X15734Y1537D02*Y2197D01*
Y1537D02*X15912Y1359D01*
X16242D01*
X16547Y1994D02*X17055Y1359D01*
X16547Y1994D02*X17182D01*
X17055Y1359D02*Y2375D01*
X17131Y10630D02*X17639D01*
X17766Y10757D01*
Y11011D01*
X17639Y11138D02*X17766Y11011D01*
X17258Y11138D02*X17639D01*
X17258Y10630D02*Y11646D01*
X17461Y11138D02*X17766Y11646D01*
X18071Y11519D02*X18198Y11646D01*
X18071Y11316D02*Y11519D01*
Y11316D02*X18249Y11138D01*
X18401D01*
X18579Y11316D01*
Y11519D01*
X18452Y11646D02*X18579Y11519D01*
X18198Y11646D02*X18452D01*
X18071Y10960D02*X18249Y11138D01*
X18071Y10757D02*Y10960D01*
Y10757D02*X18198Y10630D01*
X18452D01*
X18579Y10757D01*
Y10960D01*
X18401Y11138D02*X18579Y10960D01*
X23152Y5371D02*Y5701D01*
X23330Y5193D02*X23152Y5371D01*
X23330Y5193D02*X23990D01*
X24168Y5371D01*
Y5701D01*
X24041Y6006D02*X24168Y6133D01*
Y6387D01*
X24041Y6514D01*
X23152Y6387D02*X23279Y6514D01*
X23152Y6133D02*Y6387D01*
X23279Y6006D02*X23152Y6133D01*
X23711D02*Y6387D01*
X23838Y6514D02*X24041D01*
X23279D02*X23584D01*
X23711Y6387D01*
X23838Y6514D02*X23711Y6387D01*
X27954Y12738D02*X28284D01*
X28462Y12916D02*X28284Y12738D01*
X28462Y12916D02*Y13576D01*
X28284Y13754D01*
X27954D02*X28284D01*
X27522Y12738D02*X27014Y13754D01*
X27649D01*
X25235Y22795D02*Y23125D01*
X25057Y23303D02*X25235Y23125D01*
X24397Y23303D02*X25057D01*
X24397D02*X24219Y23125D01*
Y22795D02*Y23125D01*
Y21982D02*Y22490D01*
X24727D01*
X24600Y22363D01*
Y22109D02*Y22363D01*
Y22109D02*X24727Y21982D01*
X25108D01*
X25235Y22109D02*X25108Y21982D01*
X25235Y22109D02*Y22363D01*
X25108Y22490D02*X25235Y22363D01*
X27521Y22795D02*Y23125D01*
X27343Y23303D02*X27521Y23125D01*
X26683Y23303D02*X27343D01*
X26683D02*X26505Y23125D01*
Y22795D02*Y23125D01*
Y22109D02*X26632Y21982D01*
X26505Y22109D02*Y22363D01*
X26632Y22490D02*X26505Y22363D01*
X26632Y22490D02*X27394D01*
X27521Y22363D01*
X26962Y22109D02*X27089Y21982D01*
X26962Y22109D02*Y22490D01*
X27521Y22109D02*Y22363D01*
Y22109D02*X27394Y21982D01*
X27089D02*X27394D01*
X39205Y17032D02*Y17540D01*
Y17032D02*X39332Y16905D01*
X39586D01*
X39713Y17032D02*X39586Y16905D01*
X39713Y17032D02*Y17413D01*
X39205D02*X40221D01*
X39713Y17210D02*X40221Y16905D01*
X39408Y16600D02*X39205Y16397D01*
X40221D01*
Y16219D02*Y16600D01*
X39332Y15914D02*X39205Y15787D01*
Y15406D02*Y15787D01*
Y15406D02*X39332Y15279D01*
X39586D01*
X40221Y15914D02*X39586Y15279D01*
X40221D02*Y15914D01*
X30912Y6122D02*X31242D01*
X30734Y5944D02*X30912Y6122D01*
X30734Y5284D02*Y5944D01*
Y5284D02*X30912Y5106D01*
X31242D01*
X31547Y5309D02*X31750Y5106D01*
Y6122D01*
X31547D02*X31928D01*
M02*
