G04 start of page 2 for group 0 idx 0 *
G04 Title: (unknown), top *
G04 Creator: pcb-gtk 20140316 *
G04 CreationDate: Tue 27 Oct 2015 12:33:52 PM GMT UTC *
G04 For: janik *
G04 Format: Gerber/RS-274X *
G04 PCB-Dimensions (mm): 45.72 38.10 *
G04 PCB-Coordinate-Origin: lower left *
%MOMM*%
%FSLAX43Y43*%
%LNGTL*%
%ADD28C,0.762*%
%ADD27C,1.194*%
%ADD26C,1.397*%
%ADD25C,0.889*%
%ADD24C,0.711*%
%ADD23C,1.016*%
%ADD22C,1.067*%
%ADD21C,0.965*%
%ADD20C,1.143*%
%ADD19C,1.270*%
%ADD18C,2.540*%
%ADD17C,1.651*%
%ADD16C,2.032*%
%ADD15C,2.413*%
%ADD14C,2.286*%
%ADD13C,1.829*%
%ADD12C,1.524*%
%ADD11C,0.002*%
G54D11*G36*
X16256Y29210D02*Y27686D01*
X17780D01*
Y29210D01*
X16256D01*
G37*
G54D12*X17018Y30988D03*
G54D11*G36*
X10389Y32156D02*Y30328D01*
X12217D01*
Y32156D01*
X10389D01*
G37*
G54D13*X11303Y28702D03*
Y26162D03*
G54D14*X19939Y31115D03*
G54D11*G36*
X23942Y34080D02*Y31667D01*
X26355D01*
Y34080D01*
X23942D01*
G37*
G54D15*X17964Y25690D03*
G54D14*X42545Y12827D03*
Y20955D03*
G54D12*X34925Y18542D03*
X42545D03*
X34925Y15875D03*
X42545D03*
G54D14*Y35560D03*
G54D11*G36*
X39243Y23241D02*Y21717D01*
X40767D01*
Y23241D01*
X39243D01*
G37*
G54D12*X37465Y22479D03*
G54D11*G36*
X28321Y27813D02*Y25781D01*
X30353D01*
Y27813D01*
X28321D01*
G37*
G54D16*X29337Y20447D03*
G54D14*X39370Y10668D03*
G54D11*G36*
X31496Y11684D02*Y9652D01*
X33528D01*
Y11684D01*
X31496D01*
G37*
G36*
X19558Y5334D02*Y3302D01*
X21590D01*
Y5334D01*
X19558D01*
G37*
G54D14*X18034Y4318D03*
X15494D03*
X25146Y2159D03*
G54D16*X26162Y10668D03*
X10287Y9398D03*
X2667D03*
G54D14*X21336Y11303D03*
G54D11*G36*
X14605Y23749D02*Y21971D01*
X16383D01*
Y23749D01*
X14605D01*
G37*
G54D13*X16764Y17907D03*
X14224D03*
G54D16*X17780Y22860D03*
X20066D03*
X10287Y17018D03*
X7747D03*
X5207D03*
X2667D03*
G54D11*G36*
X15875Y14859D02*Y13081D01*
X17653D01*
Y14859D01*
X15875D01*
G37*
G54D16*X19050Y13970D03*
X21336D03*
G54D11*G36*
X18390Y18821D02*Y16993D01*
X20218D01*
Y18821D01*
X18390D01*
G37*
G36*
X11366Y21018D02*Y19622D01*
X12764D01*
Y21018D01*
X11366D01*
G37*
G54D17*X22225Y20320D03*
G54D18*X33401Y35560D03*
X7493D03*
G54D19*G54D20*G54D21*G54D22*G54D23*G54D20*G54D23*G54D24*G54D23*G54D21*G54D25*G54D23*G54D25*G54D26*G54D19*G54D23*G54D25*G54D23*G54D27*G54D22*G54D23*G54D27*G54D22*G54D28*M02*
