M48
METRIC,000.000
T64C0.762
T63C1.194
T62C1.270
T61C1.397
T60C0.889
T59C0.711
T58C1.143
T57C1.016
T56C1.067
T55C0.965
%
T59
X034925Y018542
X034925Y015875
X042545Y018542
X042545Y015875
T64
X012065Y020320
X022225Y020320
T60
X026162Y010668
X029337Y026797
X029337Y020447
X032512Y010668
T55
X017018Y030988
X017018Y028448
X037465Y022479
X040005Y022479
T57
X002667Y017018
X002667Y009398
X005207Y017018
X007747Y017018
X010287Y017018
X010287Y009398
X017964Y025690
X019939Y031115
X021336Y011303
X025146Y002159
X039370Y010668
X042545Y035560
X042545Y020955
X042545Y012827
T56
X011303Y031242
X011303Y028702
X011303Y026162
X014224Y017907
X016764Y017907
X017780Y022860
X019050Y013970
X019304Y017907
X020066Y022860
X021336Y013970
T58
X007493Y035560
X025149Y032874
T63
X015494Y022860
X016764Y013970
T62
X015494Y004318
X018034Y004318
X033401Y035560
T61
X020574Y004318
M30
