G04 start of page 10 for group -4014 idx -4014 *
G04 Title: (unknown), bottompaste *
G04 Creator: pcb-gtk 20140316 *
G04 CreationDate: Tue 27 Oct 2015 12:33:52 PM GMT UTC *
G04 For: janik *
G04 Format: Gerber/RS-274X *
G04 PCB-Dimensions (mm): 45.72 38.10 *
G04 PCB-Coordinate-Origin: lower left *
%MOMM*%
%FSLAX43Y43*%
%LNGBP*%
%ADD99R,1.562X1.562*%
%ADD98R,1.270X1.270*%
%ADD97R,1.524X1.524*%
%ADD96R,1.300X1.300*%
%ADD95R,1.046X1.046*%
G54D95*X7112Y20493D02*Y19893D01*
X4112Y20493D02*Y19893D01*
G54D96*X23322Y4366D02*X23922D01*
X23322Y7366D02*X23922D01*
X39451Y17629D02*X40051D01*
X39451Y14629D02*X40051D01*
X4145Y29718D02*X4745D01*
X4145Y26718D02*X4745D01*
X9168Y22271D02*Y21671D01*
X12168Y22271D02*Y21671D01*
G54D95*X7193Y27305D02*X7793D01*
X7193Y30305D02*X7793D01*
G54D97*X1651Y24511D02*X1905D01*
X1651Y27559D02*X1905D01*
G54D98*X5969Y24511D02*Y24257D01*
X9017Y24511D02*Y24257D01*
G54D96*X14051Y30178D02*X14651D01*
X14051Y27178D02*X14651D01*
G54D95*X24465Y24003D02*X25065D01*
X24465Y21003D02*X25065D01*
X26751Y24003D02*X27351D01*
X26751Y21003D02*X27351D01*
G54D96*X29162Y13508D02*Y12908D01*
X26162Y13508D02*Y12908D01*
G54D99*X30734Y3352D02*Y1552D01*
Y8152D02*Y6352D01*
X7874Y3339D02*Y1539D01*
Y8139D02*Y6339D01*
G54D96*X15034Y2205D02*Y1605D01*
X18034Y2205D02*Y1605D01*
X16431Y11476D02*Y10876D01*
X19431Y11476D02*Y10876D01*
M02*
