G04 start of page 8 for group -4079 idx -4079 *
G04 Title: (unknown), topsilk *
G04 Creator: pcb-gtk 20140316 *
G04 CreationDate: Tue 27 Oct 2015 12:33:52 PM GMT UTC *
G04 For: janik *
G04 Format: Gerber/RS-274X *
G04 PCB-Dimensions (mm): 45.72 38.10 *
G04 PCB-Coordinate-Origin: lower left *
%MOMM*%
%FSLAX43Y43*%
%LNGTO*%
%ADD91C,0.250*%
%ADD90C,1.270*%
%ADD89C,0.508*%
%ADD88C,0.254*%
G54D88*X24638Y37973D02*Y33147D01*
X17780Y37973D02*X24613Y35560D01*
X17780Y37973D02*Y33274D01*
X24613Y35560D02*X17780Y33147D01*
X7620Y35560D02*X17805D01*
X24638D02*X33401D01*
X18288Y32258D02*Y27178D01*
X15748Y32258D02*X18288D01*
X15748D02*Y27178D01*
X18288D01*
X15748Y29718D02*X18288D01*
X15748D02*Y27178D01*
X9525Y30480D02*Y26924D01*
X9507Y26906D02*G75*G03X9507Y30498I1796J1796D01*G01*
X23352Y31078D02*X25149Y32874D01*
X17964Y25690D02*X19760Y27486D01*
X20353Y26893D02*X23945Y30485D01*
X19168Y28078D02*X20353Y26893D01*
X19168Y28078D02*X22760Y31670D01*
X23945Y30485D01*
G54D89*X13970Y24130D02*X21590D01*
Y21590D01*
X13970D01*
Y24130D01*
G54D88*X12065Y20320D02*X14605D01*
X19685D02*X22225D01*
X14605Y21158D02*X19685D01*
Y19482D01*
X14605D01*
Y21158D01*
X36195Y23749D02*X41275D01*
X36195D02*Y21209D01*
X41275D01*
Y23749D02*Y21209D01*
X38735Y23749D02*Y21209D01*
X41275D01*
X36195Y18542D02*X37211D01*
Y19558D02*Y17526D01*
Y19558D02*X40259D01*
Y17526D01*
X37211D02*X40259D01*
Y18542D02*X41275D01*
X36195Y15875D02*X37211D01*
Y16891D02*Y14859D01*
Y16891D02*X40259D01*
Y14859D01*
X37211D02*X40259D01*
Y15875D02*X41275D01*
X36195Y10668D02*X37211D01*
X36703Y11176D02*Y10160D01*
X21463Y10668D02*X22479D01*
X35687D02*G75*G03X35687Y10668I-6350J0D01*G01*
X29337Y31496D02*Y30480D01*
X28829Y30988D02*X29845D01*
X29337Y16764D02*Y15748D01*
Y29972D02*G75*G03X29337Y29972I0J-6350D01*G01*
G54D89*X12954Y1270D02*X23114D01*
X12954Y5842D02*Y1270D01*
Y5842D02*X23114D01*
Y1270D01*
X12954D02*X23114D01*
X12954Y2794D02*Y1270D01*
Y2794D02*X23114D01*
Y1270D01*
G54D88*X19812Y2794D02*Y1270D01*
X16256Y2794D02*Y1270D01*
G54D90*X10438Y18896D02*Y18896D01*
G54D88*X2921Y991D02*X1397Y7087D01*
X9906Y991D02*X11557Y7087D01*
Y19787D02*Y7087D01*
X3048Y991D02*X9906D01*
X1397Y19787D02*Y7087D01*
Y19787D02*X11557D01*
G54D89*X15240Y15240D02*X22860D01*
Y12700D01*
X15240D02*X22860D01*
X15240Y15240D02*Y12700D01*
G54D88*X14986Y19685D02*X18542D01*
X14968Y19703D02*G75*G03X18560Y19703I1796J-1796D01*G01*
G54D91*X14351Y32639D02*Y32436D01*
Y32639D02*X15240D01*
X15367Y32512D02*X15240Y32639D01*
X15367Y32512D02*Y32385D01*
X15240Y32258D02*X15367Y32385D01*
X15113Y32258D02*X15240D01*
X14554Y32944D02*X14351Y33147D01*
X15367D01*
Y33325D02*Y32944D01*
X21006Y32639D02*X21209D01*
Y31750D01*
X21082Y31623D02*X21209Y31750D01*
X20955Y31623D02*X21082D01*
X20828Y31750D02*X20955Y31623D01*
X20828Y31877D02*Y31750D01*
X21514Y32436D02*X21717Y32639D01*
Y31623D01*
X21514D02*X21895D01*
X22200Y31750D02*X22327Y31623D01*
X22200Y32512D02*Y31750D01*
Y32512D02*X22327Y32639D01*
X22581D01*
X22708Y32512D01*
Y31750D01*
X22581Y31623D02*X22708Y31750D01*
X22327Y31623D02*X22581D01*
X22200Y31877D02*X22708Y32385D01*
X20701Y29540D02*X21209D01*
X21336Y29413D01*
Y29159D01*
X21209Y29032D02*X21336Y29159D01*
X20828Y29032D02*X21209D01*
X20828Y29540D02*Y28524D01*
X21031Y29032D02*X21336Y28524D01*
X21641Y29540D02*X22149D01*
X21641D02*Y29032D01*
X21768Y29159D01*
X22022D01*
X22149Y29032D01*
Y28651D01*
X22022Y28524D02*X22149Y28651D01*
X21768Y28524D02*X22022D01*
X21641Y28651D02*X21768Y28524D01*
X12573Y27940D02*X13335D01*
X12573D02*X12446Y28067D01*
Y28321D02*Y28067D01*
Y28321D02*X12573Y28448D01*
X13208D01*
X13462Y28194D02*X13208Y28448D01*
X13462Y28194D02*Y28067D01*
X13335Y27940D02*X13462Y28067D01*
X13081Y28194D02*X13462Y28448D01*
X12573Y28753D02*X12446Y28880D01*
Y29261D02*Y28880D01*
Y29261D02*X12573Y29388D01*
X12827D01*
X13462Y28753D02*X12827Y29388D01*
X13462D02*Y28753D01*
X12319Y23320D02*Y22558D01*
Y23320D02*X12446Y23447D01*
X12700D01*
X12827Y23320D01*
Y22685D01*
X12573Y22431D02*X12827Y22685D01*
X12446Y22431D02*X12573D01*
X12319Y22558D02*X12446Y22431D01*
X12573Y22812D02*X12827Y22431D01*
X13132Y23244D02*X13335Y23447D01*
Y22431D01*
X13132D02*X13513D01*
X10287Y16764D02*Y15875D01*
X10414Y15748D01*
X10668D01*
X10795Y15875D01*
Y16764D02*Y15875D01*
X11100Y16637D02*X11227Y16764D01*
X11608D01*
X11735Y16637D01*
Y16383D01*
X11100Y15748D02*X11735Y16383D01*
X11100Y15748D02*X11735D01*
X13462Y14351D02*Y13589D01*
Y14351D02*X13589Y14478D01*
X13843D01*
X13970Y14351D01*
Y13716D01*
X13716Y13462D02*X13970Y13716D01*
X13589Y13462D02*X13716D01*
X13462Y13589D02*X13589Y13462D01*
X13716Y13843D02*X13970Y13462D01*
X14275Y13843D02*X14783Y14478D01*
X14275Y13843D02*X14910D01*
X14783Y14478D02*Y13462D01*
X16129Y16891D02*Y16129D01*
Y16891D02*X16256Y17018D01*
X16510D01*
X16637Y16891D01*
Y16256D01*
X16383Y16002D02*X16637Y16256D01*
X16256Y16002D02*X16383D01*
X16129Y16129D02*X16256Y16002D01*
X16383Y16383D02*X16637Y16002D01*
X16942Y16891D02*X17069Y17018D01*
X17323D01*
X17450Y16891D01*
X17323Y16002D02*X17450Y16129D01*
X17069Y16002D02*X17323D01*
X16942Y16129D02*X17069Y16002D01*
Y16561D02*X17323D01*
X17450Y16891D02*Y16688D01*
Y16434D02*Y16129D01*
Y16434D02*X17323Y16561D01*
X17450Y16688D02*X17323Y16561D01*
X12065Y20904D02*X12573D01*
X12700Y20777D01*
Y20523D01*
X12573Y20396D02*X12700Y20523D01*
X12192Y20396D02*X12573D01*
X12192Y20904D02*Y19888D01*
X12395Y20396D02*X12700Y19888D01*
X13132D02*X13640Y20904D01*
X13005D02*X13640D01*
X20625Y10160D02*X20828D01*
Y9271D01*
X20701Y9144D02*X20828Y9271D01*
X20574Y9144D02*X20701D01*
X20447Y9271D02*X20574Y9144D01*
X20447Y9398D02*Y9271D01*
X21133Y9957D02*X21336Y10160D01*
Y9144D01*
X21133D02*X21514D01*
X21819Y9957D02*X22022Y10160D01*
Y9144D01*
X21819D02*X22200D01*
X22733Y4318D02*Y3429D01*
Y4318D02*X22606Y4445D01*
X22352D02*X22606D01*
X22352D02*X22225Y4318D01*
Y3429D01*
X21920Y3632D02*X21717Y3429D01*
Y4445D02*Y3429D01*
X21539Y4445D02*X21920D01*
X24943Y4318D02*X25146D01*
Y3429D01*
X25019Y3302D02*X25146Y3429D01*
X24892Y3302D02*X25019D01*
X24765Y3429D02*X24892Y3302D01*
X24765Y3556D02*Y3429D01*
X25451Y3683D02*X25959Y4318D01*
X25451Y3683D02*X26086D01*
X25959Y4318D02*Y3302D01*
X29007Y10160D02*X29337D01*
X28829Y10338D02*X29007Y10160D01*
X28829Y10998D02*Y10338D01*
Y10998D02*X29007Y11176D01*
X29337D01*
X29769Y10160D02*X30150Y10668D01*
Y11049D02*Y10668D01*
X30023Y11176D02*X30150Y11049D01*
X29769Y11176D02*X30023D01*
X29642Y11049D02*X29769Y11176D01*
X29642Y11049D02*Y10795D01*
X29769Y10668D01*
X30150D01*
X28753Y23114D02*X29083D01*
X28575Y23292D02*X28753Y23114D01*
X28575Y23952D02*Y23292D01*
Y23952D02*X28753Y24130D01*
X29083D01*
X29388Y23241D02*X29515Y23114D01*
X29388Y23444D02*Y23241D01*
Y23444D02*X29566Y23622D01*
X29718D01*
X29896Y23444D01*
Y23241D01*
X29769Y23114D02*X29896Y23241D01*
X29515Y23114D02*X29769D01*
X29388Y23800D02*X29566Y23622D01*
X29388Y24003D02*Y23800D01*
Y24003D02*X29515Y24130D01*
X29769D01*
X29896Y24003D01*
Y23800D01*
X29718Y23622D02*X29896Y23800D01*
X42088Y15240D02*X42291D01*
Y14351D01*
X42164Y14224D02*X42291Y14351D01*
X42037Y14224D02*X42164D01*
X41910Y14351D02*X42037Y14224D01*
X41910Y14478D02*Y14351D01*
X42723Y14224D02*X43231Y15240D01*
X42596D02*X43231D01*
X37490Y18745D02*X37998D01*
X38125Y18618D01*
Y18364D01*
X37998Y18237D02*X38125Y18364D01*
X37617Y18237D02*X37998D01*
X37617Y18745D02*Y17729D01*
X37821Y18237D02*X38125Y17729D01*
X38430Y18542D02*X38633Y18745D01*
Y17729D01*
X38430D02*X38811D01*
X39116Y17856D02*X39243Y17729D01*
X39116Y18618D02*Y17856D01*
Y18618D02*X39243Y18745D01*
X39497D01*
X39624Y18618D01*
Y17856D01*
X39497Y17729D02*X39624Y17856D01*
X39243Y17729D02*X39497D01*
X39116Y17983D02*X39624Y18491D01*
X37490Y16078D02*X37998D01*
X38125Y15951D01*
Y15697D01*
X37998Y15570D02*X38125Y15697D01*
X37617Y15570D02*X37998D01*
X37617Y16078D02*Y15062D01*
X37821Y15570D02*X38125Y15062D01*
X38430Y15875D02*X38633Y16078D01*
Y15062D01*
X38430D02*X38811D01*
X39116Y15875D02*X39319Y16078D01*
Y15062D01*
X39116D02*X39497D01*
X42215Y23622D02*X42418D01*
Y22733D01*
X42291Y22606D02*X42418Y22733D01*
X42164Y22606D02*X42291D01*
X42037Y22733D02*X42164Y22606D01*
X42037Y22860D02*Y22733D01*
X42723D02*X42850Y22606D01*
X42723Y22936D02*Y22733D01*
Y22936D02*X42901Y23114D01*
X43053D01*
X43231Y22936D01*
Y22733D01*
X43104Y22606D02*X43231Y22733D01*
X42850Y22606D02*X43104D01*
X42723Y23292D02*X42901Y23114D01*
X42723Y23495D02*Y23292D01*
Y23495D02*X42850Y23622D01*
X43104D01*
X43231Y23495D01*
Y23292D01*
X43053Y23114D02*X43231Y23292D01*
X38532Y25146D02*X38735D01*
Y24257D01*
X38608Y24130D02*X38735Y24257D01*
X38481Y24130D02*X38608D01*
X38354Y24257D02*X38481Y24130D01*
X38354Y24384D02*Y24257D01*
X39040Y25019D02*X39167Y25146D01*
X39548D01*
X39675Y25019D01*
Y24765D01*
X39040Y24130D02*X39675Y24765D01*
X39040Y24130D02*X39675D01*
X43358Y35941D02*X43561D01*
Y35052D01*
X43434Y34925D02*X43561Y35052D01*
X43307Y34925D02*X43434D01*
X43180Y35052D02*X43307Y34925D01*
X43180Y35179D02*Y35052D01*
X43993Y34925D02*X44374Y35433D01*
Y35814D02*Y35433D01*
X44247Y35941D02*X44374Y35814D01*
X43993Y35941D02*X44247D01*
X43866Y35814D02*X43993Y35941D01*
X43866Y35814D02*Y35560D01*
X43993Y35433D01*
X44374D01*
X39167Y9144D02*X39370D01*
Y8255D01*
X39243Y8128D02*X39370Y8255D01*
X39116Y8128D02*X39243D01*
X38989Y8255D02*X39116Y8128D01*
X38989Y8382D02*Y8255D01*
X39675Y9017D02*X39802Y9144D01*
X40056D01*
X40183Y9017D01*
X40056Y8128D02*X40183Y8255D01*
X39802Y8128D02*X40056D01*
X39675Y8255D02*X39802Y8128D01*
Y8687D02*X40056D01*
X40183Y9017D02*Y8814D01*
Y8560D02*Y8255D01*
Y8560D02*X40056Y8687D01*
X40183Y8814D02*X40056Y8687D01*
M02*
