G04 start of page 2 for group 0 idx 0 *
G04 Title: (unknown), top *
G04 Creator: pcb 4.0.2 *
G04 CreationDate: Mon Dec  4 09:33:05 2017 UTC *
G04 For: janik *
G04 Format: Gerber/RS-274X *
G04 PCB-Dimensions (mm): 63.50 63.50 *
G04 PCB-Coordinate-Origin: lower left *
%MOMM*%
%FSLAX43Y43*%
%LNGTL*%
%ADD30C,1.067*%
%ADD29C,0.965*%
%ADD28C,1.397*%
%ADD27C,0.508*%
%ADD26C,0.711*%
%ADD25C,0.889*%
%ADD24C,3.000*%
%ADD23C,2.286*%
%ADD22C,5.000*%
%ADD21C,2.540*%
%ADD20C,2.083*%
%ADD19C,2.794*%
%ADD18C,3.302*%
%ADD17C,1.778*%
%ADD16C,1.524*%
%ADD15C,0.002*%
%ADD14C,2.032*%
%ADD13C,0.635*%
%ADD12C,1.270*%
%ADD11C,0.152*%
G54D11*X0Y63500D02*Y0D01*
X63500D01*
Y63500D01*
X0D01*
G54D12*X14605Y45974D02*Y34163D01*
X14224Y46990D02*X14605Y46609D01*
Y46101D01*
G54D13*X1524Y62738D02*Y61214D01*
G54D12*X12319Y32512D02*X12954D01*
G54D13*X762Y62738D02*X2286D01*
G54D12*X12954Y32512D02*X14605Y34163D01*
X12700Y22352D02*X30861D01*
X31877Y21336D01*
Y19812D01*
X31623Y36322D02*Y37846D01*
X35306Y30226D02*X39624Y25908D01*
X42291D01*
X35179Y30226D02*X35306D01*
X17399Y41402D02*X16383Y42418D01*
Y43942D01*
X33020Y41402D02*X17399D01*
X31623Y37846D02*X31115Y38354D01*
X14605D01*
X22987Y49657D02*Y58039D01*
X25273Y60325D01*
X29083D01*
X34290Y42672D02*X33020Y41402D01*
X45212Y43942D02*X44577Y44577D01*
Y50038D01*
G54D14*X52324Y30988D03*
Y36068D03*
X49911Y30988D03*
Y33528D03*
Y36068D03*
Y38608D03*
X50673Y43815D03*
X49911Y41148D03*
X45212Y43815D03*
G54D15*G36*
X41402Y42037D02*Y40259D01*
X43180D01*
Y42037D01*
X41402D01*
G37*
G54D14*X42291Y38608D03*
Y36068D03*
Y33528D03*
Y30988D03*
X39497Y37211D03*
G54D16*Y22606D03*
X37719Y24384D03*
X34671D03*
G54D15*G36*
X31115Y28194D02*Y26670D01*
X32639D01*
Y28194D01*
X31115D01*
G37*
G54D17*X32639Y33528D03*
G54D14*X35179Y30226D03*
G54D15*G36*
X25654Y50927D02*Y49149D01*
X27432D01*
Y50927D01*
X25654D01*
G37*
G54D14*X29083Y50038D03*
X31623D03*
X34163D03*
X36703D03*
X39243D03*
G54D16*X56134Y29337D03*
Y21717D03*
G54D14*X45974Y21209D03*
Y16129D03*
G54D18*X53467Y4318D03*
X48387D03*
X43307D03*
X53467Y14478D03*
G54D19*X43307D03*
G54D14*X42291Y28448D03*
Y25908D03*
X49911D03*
Y28448D03*
G54D15*G36*
X53848Y50927D02*Y49149D01*
X55626D01*
Y50927D01*
X53848D01*
G37*
G54D20*X49657Y50038D03*
X52197D03*
G54D17*X54737Y47498D03*
G54D15*G36*
X46203Y56032D02*Y54204D01*
X48031D01*
Y56032D01*
X46203D01*
G37*
G54D20*X49657Y55118D03*
X52197D03*
G54D15*G36*
X46076Y51079D02*Y48997D01*
X48158D01*
Y51079D01*
X46076D01*
G37*
G54D14*X44577Y55118D03*
Y50038D03*
X41783D03*
Y57658D03*
X39243D03*
X36703D03*
X34163D03*
X31623D03*
X29083D03*
X26543D03*
X24003Y43942D03*
X21463D03*
X18923D03*
X16383D03*
G54D15*G36*
X8001Y48514D02*Y46990D01*
X9525D01*
Y48514D01*
X8001D01*
G37*
G54D16*X11303Y47752D03*
X8001Y45212D03*
X10033D03*
X14224Y46990D03*
G54D15*G36*
X15367Y60706D02*Y58166D01*
X17907D01*
Y60706D01*
X15367D01*
G37*
G54D19*X16637Y51816D03*
G54D14*X12319Y43815D03*
G54D16*X21844Y46990D03*
X24003Y36322D03*
X26543D03*
G54D17*X29083D03*
G54D14*X31623D03*
Y43942D03*
G54D16*X29083D03*
G54D14*X29718Y46990D03*
G54D16*X26543Y43942D03*
G54D14*X24638Y46990D03*
X34290Y42672D03*
Y37592D03*
G54D15*G36*
X15494Y37211D02*Y35433D01*
X17272D01*
Y37211D01*
X15494D01*
G37*
G54D14*X18923Y36322D03*
X21463D03*
X12700Y22352D03*
Y27432D03*
X12319Y32512D03*
Y35052D03*
G54D16*X8001Y37592D03*
X10033D03*
G54D14*X7239Y35052D03*
Y32512D03*
Y29972D03*
X12319Y38735D03*
G54D15*G36*
X37084Y17399D02*Y16129D01*
X38354D01*
Y17399D01*
X37084D01*
G37*
G54D16*X34671Y16764D03*
G54D21*X36703Y14478D03*
G54D18*Y4318D03*
X31623D03*
X19939D03*
X14859D03*
X9779D03*
X26543D03*
G54D19*Y14478D03*
G54D21*X19939D03*
G54D18*X9779D03*
G54D16*X23114Y13208D03*
Y5588D03*
G54D14*X22225Y17272D03*
X27305D03*
X39497Y32131D03*
G54D16*Y30226D03*
G54D14*X30099D03*
X29337Y27432D03*
G54D16*X24257Y19812D03*
X26797D03*
G54D14*X29337D03*
X31877D03*
G54D16*X28194Y30099D03*
X26797Y27432D03*
G54D17*X27559Y33528D03*
G54D16*X24257Y27432D03*
X21717D03*
X19177D03*
X16637D03*
G54D14*Y19812D03*
X19177D03*
X21717D03*
X12319Y29972D03*
G54D16*X18288Y33528D03*
X25908D03*
X19939Y30099D03*
G54D22*X5080Y5080D03*
X58420D03*
G54D23*X44069Y23749D03*
X35560Y27686D03*
X36068Y36576D03*
X16256Y31877D03*
X15367Y33655D03*
X31877Y17272D03*
G54D22*X58420Y58420D03*
G54D23*X36068Y43434D03*
X42926Y43688D03*
X50419Y46609D03*
X29083Y60325D03*
X22987Y49657D03*
G54D22*X5080Y58420D03*
G54D17*X11557Y45466D03*
X14224Y45974D03*
G54D23*X11557Y20447D03*
G54D24*G54D25*G54D24*G54D25*G54D24*G54D25*G54D26*G54D25*G54D26*G54D25*G54D26*G54D25*G54D26*G54D27*G54D26*G54D25*G54D26*G54D25*G54D28*G54D26*G54D29*G54D30*G54D29*G54D30*G54D25*G54D26*G54D29*G54D26*G54D12*G54D25*G54D26*G54D25*G54D26*G54D25*G54D26*G54D25*G54D29*G54D26*G54D25*G54D27*G54D26*G54D28*G54D26*G54D25*G54D26*G54D25*G54D26*G54D25*G54D26*G54D25*G54D26*M02*
