G04 start of page 11 for group -3984 idx -3984 *
G04 Title: (unknown), fab *
G04 Creator: pcb 4.0.2 *
G04 CreationDate: Mon Dec  4 09:33:05 2017 UTC *
G04 For: janik *
G04 Format: Gerber/RS-274X *
G04 PCB-Dimensions (mm): 63.50 63.50 *
G04 PCB-Coordinate-Origin: lower left *
%MOMM*%
%FSLAX43Y43*%
%LNFAB*%
%ADD110C,0.254*%
%ADD109C,0.191*%
%ADD108C,0.203*%
%ADD107C,0.152*%
G54D107*X0Y63500D02*Y0D01*
X63500D01*
Y63500D01*
X0D01*
G54D108*X4470Y5690D02*X5690Y4470D01*
X4470D02*X5690Y5690D01*
X4674Y5486D02*X5486D01*
X4674D02*Y4674D01*
X5486D01*
Y5486D02*Y4674D01*
X4470Y59030D02*X5690Y57810D01*
X4470D02*X5690Y59030D01*
X4674Y58826D02*X5486D01*
X4674D02*Y58014D01*
X5486D01*
Y58826D02*Y58014D01*
X57810Y59030D02*X59030Y57810D01*
X57810D02*X59030Y59030D01*
X58014Y58826D02*X58826D01*
X58014D02*Y58014D01*
X58826D01*
Y58826D02*Y58014D01*
X57810Y5690D02*X59030Y4470D01*
X57810D02*X59030Y5690D01*
X58014Y5486D02*X58826D01*
X58014D02*Y4674D01*
X58826D01*
Y5486D02*Y4674D01*
X3200Y66967D02*X4420Y65748D01*
X3200D02*X4420Y66967D01*
X3404Y66764D02*X4216D01*
X3404D02*Y65951D01*
X4216D01*
Y66764D02*Y65951D01*
G54D107*X34290Y66929D02*X34671Y66167D01*
X35052Y66929D01*
X34671Y66167D02*Y65405D01*
X35509Y66243D02*X36081D01*
X35509Y65405D02*X36271D01*
X35509Y66929D02*Y65405D01*
Y66929D02*X36271D01*
X37490D02*X37681Y66738D01*
X36919Y66929D02*X37490D01*
X36728Y66738D02*X36919Y66929D01*
X36728Y66738D02*Y66358D01*
X36919Y66167D01*
X37490D01*
X37681Y65976D01*
Y65596D01*
X37490Y65405D02*X37681Y65596D01*
X36919Y65405D02*X37490D01*
X36728Y65596D02*X36919Y65405D01*
X24892Y65976D02*X25654Y66929D01*
X24892Y65976D02*X25844D01*
X25654Y66929D02*Y65405D01*
X11430Y65596D02*X11620Y65405D01*
X11430Y66738D02*Y65596D01*
Y66738D02*X11620Y66929D01*
X12002D01*
X12192Y66738D01*
Y65596D01*
X12002Y65405D02*X12192Y65596D01*
X11620Y65405D02*X12002D01*
X11430Y65786D02*X12192Y66548D01*
X12649Y65405D02*X12840D01*
X13297Y66624D02*X13602Y66929D01*
Y65405D01*
X13297D02*X13868D01*
X14326Y66624D02*X14630Y66929D01*
Y65405D01*
X14326D02*X14897D01*
X15354Y65596D02*X15545Y65405D01*
X15354Y65900D02*Y65596D01*
Y65900D02*X15621Y66167D01*
X15850D01*
X16116Y65900D01*
Y65596D01*
X15926Y65405D02*X16116Y65596D01*
X15545Y65405D02*X15926D01*
X15354Y66434D02*X15621Y66167D01*
X15354Y66738D02*Y66434D01*
Y66738D02*X15545Y66929D01*
X15926D01*
X16116Y66738D01*
Y66434D01*
X15850Y66167D02*X16116Y66434D01*
X36703Y5131D02*Y3505D01*
X35890Y4318D02*X37516D01*
X36297Y4724D02*X37109D01*
X36297D02*Y3912D01*
X37109D01*
Y4724D02*Y3912D01*
X31623Y5131D02*Y3505D01*
X30810Y4318D02*X32436D01*
X31217Y4724D02*X32029D01*
X31217D02*Y3912D01*
X32029D01*
Y4724D02*Y3912D01*
X26543Y5131D02*Y3505D01*
X25730Y4318D02*X27356D01*
X26137Y4724D02*X26949D01*
X26137D02*Y3912D01*
X26949D01*
Y4724D02*Y3912D01*
X36703Y15291D02*Y13665D01*
X35890Y14478D02*X37516D01*
X36297Y14884D02*X37109D01*
X36297D02*Y14072D01*
X37109D01*
Y14884D02*Y14072D01*
X26543Y15291D02*Y13665D01*
X25730Y14478D02*X27356D01*
X26137Y14884D02*X26949D01*
X26137D02*Y14072D01*
X26949D01*
Y14884D02*Y14072D01*
X19939Y5131D02*Y3505D01*
X19126Y4318D02*X20752D01*
X19533Y4724D02*X20345D01*
X19533D02*Y3912D01*
X20345D01*
Y4724D02*Y3912D01*
X14859Y5131D02*Y3505D01*
X14046Y4318D02*X15672D01*
X14453Y4724D02*X15265D01*
X14453D02*Y3912D01*
X15265D01*
Y4724D02*Y3912D01*
X9779Y5131D02*Y3505D01*
X8966Y4318D02*X10592D01*
X9373Y4724D02*X10185D01*
X9373D02*Y3912D01*
X10185D01*
Y4724D02*Y3912D01*
X19939Y15291D02*Y13665D01*
X19126Y14478D02*X20752D01*
X19533Y14884D02*X20345D01*
X19533D02*Y14072D01*
X20345D01*
Y14884D02*Y14072D01*
X9779Y15291D02*Y13665D01*
X8966Y14478D02*X10592D01*
X9373Y14884D02*X10185D01*
X9373D02*Y14072D01*
X10185D01*
Y14884D02*Y14072D01*
X53467Y5131D02*Y3505D01*
X52654Y4318D02*X54280D01*
X53061Y4724D02*X53873D01*
X53061D02*Y3912D01*
X53873D01*
Y4724D02*Y3912D01*
X48387Y5131D02*Y3505D01*
X47574Y4318D02*X49200D01*
X47981Y4724D02*X48793D01*
X47981D02*Y3912D01*
X48793D01*
Y4724D02*Y3912D01*
X43307Y5131D02*Y3505D01*
X42494Y4318D02*X44120D01*
X42901Y4724D02*X43713D01*
X42901D02*Y3912D01*
X43713D01*
Y4724D02*Y3912D01*
X53467Y15291D02*Y13665D01*
X52654Y14478D02*X54280D01*
X53061Y14884D02*X53873D01*
X53061D02*Y14072D01*
X53873D01*
Y14884D02*Y14072D01*
X43307Y15291D02*Y13665D01*
X42494Y14478D02*X44120D01*
X42901Y14884D02*X43713D01*
X42901D02*Y14072D01*
X43713D01*
Y14884D02*Y14072D01*
X3810Y70980D02*Y69355D01*
X2997Y70168D02*X4623D01*
X3404Y70574D02*X4216D01*
X3404D02*Y69761D01*
X4216D01*
Y70574D02*Y69761D01*
X34290Y70739D02*X34671Y69977D01*
X35052Y70739D01*
X34671Y69977D02*Y69215D01*
X35509Y70053D02*X36081D01*
X35509Y69215D02*X36271D01*
X35509Y70739D02*Y69215D01*
Y70739D02*X36271D01*
X37490D02*X37681Y70548D01*
X36919Y70739D02*X37490D01*
X36728Y70548D02*X36919Y70739D01*
X36728Y70548D02*Y70168D01*
X36919Y69977D01*
X37490D01*
X37681Y69786D01*
Y69406D01*
X37490Y69215D02*X37681Y69406D01*
X36919Y69215D02*X37490D01*
X36728Y69406D02*X36919Y69215D01*
X24892Y70434D02*X25197Y70739D01*
Y69215D01*
X24892D02*X25464D01*
X25921Y70739D02*X26683D01*
X25921D02*Y69977D01*
X26111Y70168D01*
X26492D01*
X26683Y69977D01*
Y69406D01*
X26492Y69215D02*X26683Y69406D01*
X26111Y69215D02*X26492D01*
X25921Y69406D02*X26111Y69215D01*
X11430Y69406D02*X11620Y69215D01*
X11430Y70548D02*Y69406D01*
Y70548D02*X11620Y70739D01*
X12002D01*
X12192Y70548D01*
Y69406D01*
X12002Y69215D02*X12192Y69406D01*
X11620Y69215D02*X12002D01*
X11430Y69596D02*X12192Y70358D01*
X12649Y69215D02*X12840D01*
X13297Y69406D02*X13487Y69215D01*
X13297Y70548D02*Y69406D01*
Y70548D02*X13487Y70739D01*
X13868D01*
X14059Y70548D01*
Y69406D01*
X13868Y69215D02*X14059Y69406D01*
X13487Y69215D02*X13868D01*
X13297Y69596D02*X14059Y70358D01*
X14516Y70739D02*X15278D01*
X14516D02*Y69977D01*
X14707Y70168D01*
X15088D01*
X15278Y69977D01*
Y69406D01*
X15088Y69215D02*X15278Y69406D01*
X14707Y69215D02*X15088D01*
X14516Y69406D02*X14707Y69215D01*
X15735Y70739D02*X16497D01*
X15735D02*Y69977D01*
X15926Y70168D01*
X16307D01*
X16497Y69977D01*
Y69406D01*
X16307Y69215D02*X16497Y69406D01*
X15926Y69215D02*X16307D01*
X15735Y69406D02*X15926Y69215D01*
X16637Y59436D02*Y58623D01*
Y59436D02*X17341Y59842D01*
X16637Y59436D02*X15933Y59842D01*
X16231Y59436D02*G75*G03X17043Y59436I406J0D01*G01*
G75*G03X16231Y59436I-406J0D01*G01*
X16637Y51816D02*Y51003D01*
Y51816D02*X17341Y52222D01*
X16637Y51816D02*X15933Y52222D01*
X16231Y51816D02*G75*G03X17043Y51816I406J0D01*G01*
G75*G03X16231Y51816I-406J0D01*G01*
X3810Y73978D02*Y73165D01*
Y73978D02*X4514Y74384D01*
X3810Y73978D02*X3106Y74384D01*
X3404Y73978D02*G75*G03X4216Y73978I406J0D01*G01*
G75*G03X3404Y73978I-406J0D01*G01*
X34290Y74549D02*X34671Y73787D01*
X35052Y74549D01*
X34671Y73787D02*Y73025D01*
X35509Y73863D02*X36081D01*
X35509Y73025D02*X36271D01*
X35509Y74549D02*Y73025D01*
Y74549D02*X36271D01*
X37490D02*X37681Y74358D01*
X36919Y74549D02*X37490D01*
X36728Y74358D02*X36919Y74549D01*
X36728Y74358D02*Y73978D01*
X36919Y73787D01*
X37490D01*
X37681Y73596D01*
Y73216D01*
X37490Y73025D02*X37681Y73216D01*
X36919Y73025D02*X37490D01*
X36728Y73216D02*X36919Y73025D01*
X24892Y74358D02*X25082Y74549D01*
X25654D01*
X25844Y74358D01*
Y73978D01*
X24892Y73025D02*X25844Y73978D01*
X24892Y73025D02*X25844D01*
X11430Y73216D02*X11620Y73025D01*
X11430Y74358D02*Y73216D01*
Y74358D02*X11620Y74549D01*
X12002D01*
X12192Y74358D01*
Y73216D01*
X12002Y73025D02*X12192Y73216D01*
X11620Y73025D02*X12002D01*
X11430Y73406D02*X12192Y74168D01*
X12649Y73025D02*X12840D01*
X13297Y73216D02*X13487Y73025D01*
X13297Y74358D02*Y73216D01*
Y74358D02*X13487Y74549D01*
X13868D01*
X14059Y74358D01*
Y73216D01*
X13868Y73025D02*X14059Y73216D01*
X13487Y73025D02*X13868D01*
X13297Y73406D02*X14059Y74168D01*
X14516Y74549D02*X15278D01*
X14516D02*Y73787D01*
X14707Y73978D01*
X15088D01*
X15278Y73787D01*
Y73216D01*
X15088Y73025D02*X15278Y73216D01*
X14707Y73025D02*X15088D01*
X14516Y73216D02*X14707Y73025D01*
X15735Y73216D02*X15926Y73025D01*
X15735Y74358D02*Y73216D01*
Y74358D02*X15926Y74549D01*
X16307D01*
X16497Y74358D01*
Y73216D01*
X16307Y73025D02*X16497Y73216D01*
X15926Y73025D02*X16307D01*
X15735Y73406D02*X16497Y74168D01*
X46711Y50444D02*X47523D01*
X46711D02*Y49632D01*
X47523D01*
Y50444D02*Y49632D01*
X49251Y50444D02*X50063D01*
X49251D02*Y49632D01*
X50063D01*
Y50444D02*Y49632D01*
X51791Y50444D02*X52603D01*
X51791D02*Y49632D01*
X52603D01*
Y50444D02*Y49632D01*
X46711Y55524D02*X47523D01*
X46711D02*Y54712D01*
X47523D01*
Y55524D02*Y54712D01*
X49251Y55524D02*X50063D01*
X49251D02*Y54712D01*
X50063D01*
Y55524D02*Y54712D01*
X51791Y55524D02*X52603D01*
X51791D02*Y54712D01*
X52603D01*
Y55524D02*Y54712D01*
X3404Y78194D02*X4216D01*
X3404D02*Y77381D01*
X4216D01*
Y78194D02*Y77381D01*
X34290Y78359D02*X34671Y77597D01*
X35052Y78359D01*
X34671Y77597D02*Y76835D01*
X35509Y77673D02*X36081D01*
X35509Y76835D02*X36271D01*
X35509Y78359D02*Y76835D01*
Y78359D02*X36271D01*
X37490D02*X37681Y78168D01*
X36919Y78359D02*X37490D01*
X36728Y78168D02*X36919Y78359D01*
X36728Y78168D02*Y77788D01*
X36919Y77597D01*
X37490D01*
X37681Y77406D01*
Y77026D01*
X37490Y76835D02*X37681Y77026D01*
X36919Y76835D02*X37490D01*
X36728Y77026D02*X36919Y76835D01*
X25464Y78359D02*X25654Y78168D01*
X25082Y78359D02*X25464D01*
X24892Y78168D02*X25082Y78359D01*
X24892Y78168D02*Y77026D01*
X25082Y76835D01*
X25464Y77673D02*X25654Y77483D01*
X24892Y77673D02*X25464D01*
X25082Y76835D02*X25464D01*
X25654Y77026D01*
Y77483D02*Y77026D01*
X11430D02*X11620Y76835D01*
X11430Y78168D02*Y77026D01*
Y78168D02*X11620Y78359D01*
X12002D01*
X12192Y78168D01*
Y77026D01*
X12002Y76835D02*X12192Y77026D01*
X11620Y76835D02*X12002D01*
X11430Y77216D02*X12192Y77978D01*
X12649Y76835D02*X12840D01*
X13297Y77026D02*X13487Y76835D01*
X13297Y78168D02*Y77026D01*
Y78168D02*X13487Y78359D01*
X13868D01*
X14059Y78168D01*
Y77026D01*
X13868Y76835D02*X14059Y77026D01*
X13487Y76835D02*X13868D01*
X13297Y77216D02*X14059Y77978D01*
X14516Y77406D02*X15278Y78359D01*
X14516Y77406D02*X15469D01*
X15278Y78359D02*Y76835D01*
X15926Y78168D02*X16116Y78359D01*
X16688D01*
X16878Y78168D01*
Y77788D01*
X15926Y76835D02*X16878Y77788D01*
X15926Y76835D02*X16878D01*
X8560Y47752D02*G75*G03X8966Y47752I203J0D01*G01*
G75*G03X8560Y47752I-203J0D01*G01*
X11100D02*G75*G03X11506Y47752I203J0D01*G01*
G75*G03X11100Y47752I-203J0D01*G01*
X54534Y50038D02*G75*G03X54940Y50038I203J0D01*G01*
G75*G03X54534Y50038I-203J0D01*G01*
Y47498D02*G75*G03X54940Y47498I203J0D01*G01*
G75*G03X54534Y47498I-203J0D01*G01*
X12116Y32512D02*G75*G03X12522Y32512I203J0D01*G01*
G75*G03X12116Y32512I-203J0D01*G01*
Y35052D02*G75*G03X12522Y35052I203J0D01*G01*
G75*G03X12116Y35052I-203J0D01*G01*
X3607Y81598D02*G75*G03X4013Y81598I203J0D01*G01*
G75*G03X3607Y81598I-203J0D01*G01*
X34290Y82169D02*X34671Y81407D01*
X35052Y82169D01*
X34671Y81407D02*Y80645D01*
X35509Y81483D02*X36081D01*
X35509Y80645D02*X36271D01*
X35509Y82169D02*Y80645D01*
Y82169D02*X36271D01*
X37490D02*X37681Y81978D01*
X36919Y82169D02*X37490D01*
X36728Y81978D02*X36919Y82169D01*
X36728Y81978D02*Y81598D01*
X36919Y81407D01*
X37490D01*
X37681Y81216D01*
Y80836D01*
X37490Y80645D02*X37681Y80836D01*
X36919Y80645D02*X37490D01*
X36728Y80836D02*X36919Y80645D01*
X25464Y82169D02*X25654Y81978D01*
X25082Y82169D02*X25464D01*
X24892Y81978D02*X25082Y82169D01*
X24892Y81978D02*Y80836D01*
X25082Y80645D01*
X25464Y81483D02*X25654Y81293D01*
X24892Y81483D02*X25464D01*
X25082Y80645D02*X25464D01*
X25654Y80836D01*
Y81293D02*Y80836D01*
X11430D02*X11620Y80645D01*
X11430Y81978D02*Y80836D01*
Y81978D02*X11620Y82169D01*
X12002D01*
X12192Y81978D01*
Y80836D01*
X12002Y80645D02*X12192Y80836D01*
X11620Y80645D02*X12002D01*
X11430Y81026D02*X12192Y81788D01*
X12649Y80645D02*X12840D01*
X13297Y80836D02*X13487Y80645D01*
X13297Y81978D02*Y80836D01*
Y81978D02*X13487Y82169D01*
X13868D01*
X14059Y81978D01*
Y80836D01*
X13868Y80645D02*X14059Y80836D01*
X13487Y80645D02*X13868D01*
X13297Y81026D02*X14059Y81788D01*
X14516Y81978D02*X14707Y82169D01*
X15088D01*
X15278Y81978D01*
X15088Y80645D02*X15278Y80836D01*
X14707Y80645D02*X15088D01*
X14516Y80836D02*X14707Y80645D01*
Y81483D02*X15088D01*
X15278Y81978D02*Y81674D01*
Y81293D02*Y80836D01*
Y81293D02*X15088Y81483D01*
X15278Y81674D02*X15088Y81483D01*
X15735Y80836D02*X15926Y80645D01*
X15735Y81140D02*Y80836D01*
Y81140D02*X16002Y81407D01*
X16231D01*
X16497Y81140D01*
Y80836D01*
X16307Y80645D02*X16497Y80836D01*
X15926Y80645D02*X16307D01*
X15735Y81674D02*X16002Y81407D01*
X15735Y81978D02*Y81674D01*
Y81978D02*X15926Y82169D01*
X16307D01*
X16497Y81978D01*
Y81674D01*
X16231Y81407D02*X16497Y81674D01*
X39192Y37516D02*X39802Y36906D01*
X39192D02*X39802Y37516D01*
X39192Y32436D02*X39802Y31826D01*
X39192D02*X39802Y32436D01*
X52019Y31293D02*X52629Y30683D01*
X52019D02*X52629Y31293D01*
X52019Y36373D02*X52629Y35763D01*
X52019D02*X52629Y36373D01*
X33985Y42977D02*X34595Y42367D01*
X33985D02*X34595Y42977D01*
X33985Y37897D02*X34595Y37287D01*
X33985D02*X34595Y37897D01*
X44272Y55423D02*X44882Y54813D01*
X44272D02*X44882Y55423D01*
X44272Y50343D02*X44882Y49733D01*
X44272D02*X44882Y50343D01*
X45669Y21514D02*X46279Y20904D01*
X45669D02*X46279Y21514D01*
X45669Y16434D02*X46279Y15824D01*
X45669D02*X46279Y16434D01*
X12395Y22657D02*X13005Y22047D01*
X12395D02*X13005Y22657D01*
X12395Y27737D02*X13005Y27127D01*
X12395D02*X13005Y27737D01*
X6934Y35357D02*X7544Y34747D01*
X6934D02*X7544Y35357D01*
X6934Y32817D02*X7544Y32207D01*
X6934D02*X7544Y32817D01*
X6934Y30277D02*X7544Y29667D01*
X6934D02*X7544Y30277D01*
X12014D02*X12624Y29667D01*
X12014D02*X12624Y30277D01*
X50368Y44120D02*X50978Y43510D01*
X50368D02*X50978Y44120D01*
X44907D02*X45517Y43510D01*
X44907D02*X45517Y44120D01*
X12014D02*X12624Y43510D01*
X12014D02*X12624Y44120D01*
X12014Y39040D02*X12624Y38430D01*
X12014D02*X12624Y39040D01*
X29413Y47295D02*X30023Y46685D01*
X29413D02*X30023Y47295D01*
X24333D02*X24943Y46685D01*
X24333D02*X24943Y47295D01*
X21920Y17577D02*X22530Y16967D01*
X21920D02*X22530Y17577D01*
X27000D02*X27610Y16967D01*
X27000D02*X27610Y17577D01*
X27254Y33833D02*X27864Y33223D01*
X27254D02*X27864Y33833D01*
X32334D02*X32944Y33223D01*
X32334D02*X32944Y33833D01*
X29794Y30531D02*X30404Y29921D01*
X29794D02*X30404Y30531D01*
X34874D02*X35484Y29921D01*
X34874D02*X35484Y30531D01*
X35763Y43739D02*X36373Y43129D01*
X35763D02*X36373Y43739D01*
X11252Y45771D02*X11862Y45161D01*
X11252D02*X11862Y45771D01*
X13919Y46279D02*X14529Y45669D01*
X13919D02*X14529Y46279D01*
X43764Y24054D02*X44374Y23444D01*
X43764D02*X44374Y24054D01*
X35255Y27991D02*X35865Y27381D01*
X35255D02*X35865Y27991D01*
X11252Y20752D02*X11862Y20142D01*
X11252D02*X11862Y20752D01*
X31572Y17577D02*X32182Y16967D01*
X31572D02*X32182Y17577D01*
X42621Y43993D02*X43231Y43383D01*
X42621D02*X43231Y43993D01*
X50114Y46914D02*X50724Y46304D01*
X50114D02*X50724Y46914D01*
X28778Y60630D02*X29388Y60020D01*
X28778D02*X29388Y60630D01*
X22682Y49962D02*X23292Y49352D01*
X22682D02*X23292Y49962D01*
X35763Y36881D02*X36373Y36271D01*
X35763D02*X36373Y36881D01*
X15951Y32182D02*X16561Y31572D01*
X15951D02*X16561Y32182D01*
X15062Y33960D02*X15672Y33350D01*
X15062D02*X15672Y33960D01*
X3505Y85712D02*X4115Y85103D01*
X3505D02*X4115Y85712D01*
X34290Y85979D02*X34671Y85217D01*
X35052Y85979D01*
X34671Y85217D02*Y84455D01*
X35509Y85293D02*X36081D01*
X35509Y84455D02*X36271D01*
X35509Y85979D02*Y84455D01*
Y85979D02*X36271D01*
X37490D02*X37681Y85788D01*
X36919Y85979D02*X37490D01*
X36728Y85788D02*X36919Y85979D01*
X36728Y85788D02*Y85408D01*
X36919Y85217D01*
X37490D01*
X37681Y85026D01*
Y84646D01*
X37490Y84455D02*X37681Y84646D01*
X36919Y84455D02*X37490D01*
X36728Y84646D02*X36919Y84455D01*
X24892Y85026D02*X25654Y85979D01*
X24892Y85026D02*X25844D01*
X25654Y85979D02*Y84455D01*
X26302Y85788D02*X26492Y85979D01*
X27064D01*
X27254Y85788D01*
Y85408D01*
X26302Y84455D02*X27254Y85408D01*
X26302Y84455D02*X27254D01*
X11430Y84646D02*X11620Y84455D01*
X11430Y85788D02*Y84646D01*
Y85788D02*X11620Y85979D01*
X12002D01*
X12192Y85788D01*
Y84646D01*
X12002Y84455D02*X12192Y84646D01*
X11620Y84455D02*X12002D01*
X11430Y84836D02*X12192Y85598D01*
X12649Y84455D02*X12840D01*
X13297Y84646D02*X13487Y84455D01*
X13297Y85788D02*Y84646D01*
Y85788D02*X13487Y85979D01*
X13868D01*
X14059Y85788D01*
Y84646D01*
X13868Y84455D02*X14059Y84646D01*
X13487Y84455D02*X13868D01*
X13297Y84836D02*X14059Y85598D01*
X14516Y85788D02*X14707Y85979D01*
X15088D01*
X15278Y85788D01*
X15088Y84455D02*X15278Y84646D01*
X14707Y84455D02*X15088D01*
X14516Y84646D02*X14707Y84455D01*
Y85293D02*X15088D01*
X15278Y85788D02*Y85484D01*
Y85103D02*Y84646D01*
Y85103D02*X15088Y85293D01*
X15278Y85484D02*X15088Y85293D01*
X15735Y85979D02*X16497D01*
X15735D02*Y85217D01*
X15926Y85408D01*
X16307D01*
X16497Y85217D01*
Y84646D01*
X16307Y84455D02*X16497Y84646D01*
X15926Y84455D02*X16307D01*
X15735Y84646D02*X15926Y84455D01*
X16383Y36728D02*Y35916D01*
X15977Y36322D02*X16789D01*
X18923Y36728D02*Y35916D01*
X18517Y36322D02*X19329D01*
X21463Y36728D02*Y35916D01*
X21057Y36322D02*X21869D01*
X24003Y36728D02*Y35916D01*
X23597Y36322D02*X24409D01*
X26543Y36728D02*Y35916D01*
X26137Y36322D02*X26949D01*
X29083Y36728D02*Y35916D01*
X28677Y36322D02*X29489D01*
X31623Y36728D02*Y35916D01*
X31217Y36322D02*X32029D01*
X31623Y44348D02*Y43536D01*
X31217Y43942D02*X32029D01*
X29083Y44348D02*Y43536D01*
X28677Y43942D02*X29489D01*
X26543Y44348D02*Y43536D01*
X26137Y43942D02*X26949D01*
X24003Y44348D02*Y43536D01*
X23597Y43942D02*X24409D01*
X21463Y44348D02*Y43536D01*
X21057Y43942D02*X21869D01*
X18923Y44348D02*Y43536D01*
X18517Y43942D02*X19329D01*
X16383Y44348D02*Y43536D01*
X15977Y43942D02*X16789D01*
X8001Y37998D02*Y37186D01*
X7595Y37592D02*X8407D01*
X8001Y45618D02*Y44806D01*
X7595Y45212D02*X8407D01*
X39497Y30632D02*Y29820D01*
X39091Y30226D02*X39903D01*
X39497Y23012D02*Y22200D01*
X39091Y22606D02*X39903D01*
X56134Y29743D02*Y28931D01*
X55728Y29337D02*X56540D01*
X56134Y22123D02*Y21311D01*
X55728Y21717D02*X56540D01*
X34671Y17170D02*Y16358D01*
X34265Y16764D02*X35077D01*
X34671Y24790D02*Y23978D01*
X34265Y24384D02*X35077D01*
X10033Y45618D02*Y44806D01*
X9627Y45212D02*X10439D01*
X10033Y37998D02*Y37186D01*
X9627Y37592D02*X10439D01*
X23114Y13614D02*Y12802D01*
X22708Y13208D02*X23520D01*
X23114Y5994D02*Y5182D01*
X22708Y5588D02*X23520D01*
X21844Y47396D02*Y46584D01*
X21438Y46990D02*X22250D01*
X14224Y47396D02*Y46584D01*
X13818Y46990D02*X14630D01*
X42291Y41554D02*Y40742D01*
X41885Y41148D02*X42697D01*
X42291Y39014D02*Y38202D01*
X41885Y38608D02*X42697D01*
X42291Y36474D02*Y35662D01*
X41885Y36068D02*X42697D01*
X42291Y33934D02*Y33122D01*
X41885Y33528D02*X42697D01*
X42291Y31394D02*Y30582D01*
X41885Y30988D02*X42697D01*
X42291Y28854D02*Y28042D01*
X41885Y28448D02*X42697D01*
X42291Y26314D02*Y25502D01*
X41885Y25908D02*X42697D01*
X49911Y26314D02*Y25502D01*
X49505Y25908D02*X50317D01*
X49911Y28854D02*Y28042D01*
X49505Y28448D02*X50317D01*
X49911Y31394D02*Y30582D01*
X49505Y30988D02*X50317D01*
X49911Y33934D02*Y33122D01*
X49505Y33528D02*X50317D01*
X49911Y36474D02*Y35662D01*
X49505Y36068D02*X50317D01*
X49911Y39014D02*Y38202D01*
X49505Y38608D02*X50317D01*
X49911Y41554D02*Y40742D01*
X49505Y41148D02*X50317D01*
X31877Y27838D02*Y27026D01*
X31471Y27432D02*X32283D01*
X29337Y27838D02*Y27026D01*
X28931Y27432D02*X29743D01*
X26797Y27838D02*Y27026D01*
X26391Y27432D02*X27203D01*
X24257Y27838D02*Y27026D01*
X23851Y27432D02*X24663D01*
X21717Y27838D02*Y27026D01*
X21311Y27432D02*X22123D01*
X19177Y27838D02*Y27026D01*
X18771Y27432D02*X19583D01*
X16637Y27838D02*Y27026D01*
X16231Y27432D02*X17043D01*
X16637Y20218D02*Y19406D01*
X16231Y19812D02*X17043D01*
X19177Y20218D02*Y19406D01*
X18771Y19812D02*X19583D01*
X21717Y20218D02*Y19406D01*
X21311Y19812D02*X22123D01*
X24257Y20218D02*Y19406D01*
X23851Y19812D02*X24663D01*
X26797Y20218D02*Y19406D01*
X26391Y19812D02*X27203D01*
X29337Y20218D02*Y19406D01*
X28931Y19812D02*X29743D01*
X31877Y20218D02*Y19406D01*
X31471Y19812D02*X32283D01*
X18288Y33934D02*Y33122D01*
X17882Y33528D02*X18694D01*
X25908Y33934D02*Y33122D01*
X25502Y33528D02*X26314D01*
X19939Y30505D02*Y29693D01*
X19533Y30099D02*X20345D01*
X28194Y30505D02*Y29693D01*
X27788Y30099D02*X28600D01*
X26543Y50444D02*Y49632D01*
X26137Y50038D02*X26949D01*
X29083Y50444D02*Y49632D01*
X28677Y50038D02*X29489D01*
X31623Y50444D02*Y49632D01*
X31217Y50038D02*X32029D01*
X34163Y50444D02*Y49632D01*
X33757Y50038D02*X34569D01*
X36703Y50444D02*Y49632D01*
X36297Y50038D02*X37109D01*
X39243Y50444D02*Y49632D01*
X38837Y50038D02*X39649D01*
X41783Y50444D02*Y49632D01*
X41377Y50038D02*X42189D01*
X41783Y58064D02*Y57252D01*
X41377Y57658D02*X42189D01*
X39243Y58064D02*Y57252D01*
X38837Y57658D02*X39649D01*
X36703Y58064D02*Y57252D01*
X36297Y57658D02*X37109D01*
X34163Y58064D02*Y57252D01*
X33757Y57658D02*X34569D01*
X31623Y58064D02*Y57252D01*
X31217Y57658D02*X32029D01*
X29083Y58064D02*Y57252D01*
X28677Y57658D02*X29489D01*
X26543Y58064D02*Y57252D01*
X26137Y57658D02*X26949D01*
X3810Y89624D02*Y88811D01*
X3404Y89218D02*X4216D01*
X34290Y89789D02*X34671Y89027D01*
X35052Y89789D01*
X34671Y89027D02*Y88265D01*
X35509Y89103D02*X36081D01*
X35509Y88265D02*X36271D01*
X35509Y89789D02*Y88265D01*
Y89789D02*X36271D01*
X37490D02*X37681Y89598D01*
X36919Y89789D02*X37490D01*
X36728Y89598D02*X36919Y89789D01*
X36728Y89598D02*Y89218D01*
X36919Y89027D01*
X37490D01*
X37681Y88836D01*
Y88456D01*
X37490Y88265D02*X37681Y88456D01*
X36919Y88265D02*X37490D01*
X36728Y88456D02*X36919Y88265D01*
X25082D02*X25844Y89789D01*
X24892D02*X25844D01*
X26302Y88836D02*X27064Y89789D01*
X26302Y88836D02*X27254D01*
X27064Y89789D02*Y88265D01*
X11430Y88456D02*X11620Y88265D01*
X11430Y89598D02*Y88456D01*
Y89598D02*X11620Y89789D01*
X12002D01*
X12192Y89598D01*
Y88456D01*
X12002Y88265D02*X12192Y88456D01*
X11620Y88265D02*X12002D01*
X11430Y88646D02*X12192Y89408D01*
X12649Y88265D02*X12840D01*
X13297Y88456D02*X13487Y88265D01*
X13297Y89598D02*Y88456D01*
Y89598D02*X13487Y89789D01*
X13868D01*
X14059Y89598D01*
Y88456D01*
X13868Y88265D02*X14059Y88456D01*
X13487Y88265D02*X13868D01*
X13297Y88646D02*X14059Y89408D01*
X14516Y89598D02*X14707Y89789D01*
X15278D01*
X15469Y89598D01*
Y89218D01*
X14516Y88265D02*X15469Y89218D01*
X14516Y88265D02*X15469D01*
X15926Y88456D02*X16116Y88265D01*
X15926Y88760D02*Y88456D01*
Y88760D02*X16193Y89027D01*
X16421D01*
X16688Y88760D01*
Y88456D01*
X16497Y88265D02*X16688Y88456D01*
X16116Y88265D02*X16497D01*
X15926Y89294D02*X16193Y89027D01*
X15926Y89598D02*Y89294D01*
Y89598D02*X16116Y89789D01*
X16497D01*
X16688Y89598D01*
Y89294D01*
X16421Y89027D02*X16688Y89294D01*
X37719Y16764D02*Y16358D01*
Y16764D02*X38071Y16967D01*
X37719Y16764D02*X37367Y16967D01*
X37719Y24384D02*Y23978D01*
Y24384D02*X38071Y24587D01*
X37719Y24384D02*X37367Y24587D01*
X3810Y93028D02*Y92621D01*
Y93028D02*X4162Y93231D01*
X3810Y93028D02*X3458Y93231D01*
X34290Y93599D02*X34671Y92837D01*
X35052Y93599D01*
X34671Y92837D02*Y92075D01*
X35509Y92913D02*X36081D01*
X35509Y92075D02*X36271D01*
X35509Y93599D02*Y92075D01*
Y93599D02*X36271D01*
X37490D02*X37681Y93408D01*
X36919Y93599D02*X37490D01*
X36728Y93408D02*X36919Y93599D01*
X36728Y93408D02*Y93028D01*
X36919Y92837D01*
X37490D01*
X37681Y92646D01*
Y92266D01*
X37490Y92075D02*X37681Y92266D01*
X36919Y92075D02*X37490D01*
X36728Y92266D02*X36919Y92075D01*
X24892Y93408D02*X25082Y93599D01*
X25654D01*
X25844Y93408D01*
Y93028D01*
X24892Y92075D02*X25844Y93028D01*
X24892Y92075D02*X25844D01*
X11430Y92266D02*X11620Y92075D01*
X11430Y93408D02*Y92266D01*
Y93408D02*X11620Y93599D01*
X12002D01*
X12192Y93408D01*
Y92266D01*
X12002Y92075D02*X12192Y92266D01*
X11620Y92075D02*X12002D01*
X11430Y92456D02*X12192Y93218D01*
X12649Y92075D02*X12840D01*
X13297Y92266D02*X13487Y92075D01*
X13297Y93408D02*Y92266D01*
Y93408D02*X13487Y93599D01*
X13868D01*
X14059Y93408D01*
Y92266D01*
X13868Y92075D02*X14059Y92266D01*
X13487Y92075D02*X13868D01*
X13297Y92456D02*X14059Y93218D01*
X14516Y93408D02*X14707Y93599D01*
X15278D01*
X15469Y93408D01*
Y93028D01*
X14516Y92075D02*X15469Y93028D01*
X14516Y92075D02*X15469D01*
X15926Y92266D02*X16116Y92075D01*
X15926Y93408D02*Y92266D01*
Y93408D02*X16116Y93599D01*
X16497D01*
X16688Y93408D01*
Y92266D01*
X16497Y92075D02*X16688Y92266D01*
X16116Y92075D02*X16497D01*
X15926Y92456D02*X16688Y93218D01*
X762Y97409D02*X952Y97218D01*
X190Y97409D02*X762D01*
X0Y97218D02*X190Y97409D01*
X0Y97218D02*Y96838D01*
X190Y96647D01*
X762D01*
X952Y96456D01*
Y96076D01*
X762Y95885D02*X952Y96076D01*
X190Y95885D02*X762D01*
X0Y96076D02*X190Y95885D01*
X1410Y96647D02*Y96076D01*
X1600Y95885D01*
X2172Y96647D02*Y95504D01*
X1981Y95314D02*X2172Y95504D01*
X1600Y95314D02*X1981D01*
X1410Y95504D02*X1600Y95314D01*
Y95885D02*X1981D01*
X2172Y96076D01*
X2819Y96456D02*Y95885D01*
Y96456D02*X3010Y96647D01*
X3200D01*
X3391Y96456D01*
Y95885D01*
Y96456D02*X3581Y96647D01*
X3772D01*
X3962Y96456D01*
Y95885D01*
X2629Y96647D02*X2819Y96456D01*
X4420Y97409D02*Y95885D01*
Y96076D02*X4610Y95885D01*
X4991D01*
X5182Y96076D01*
Y96456D02*Y96076D01*
X4991Y96647D02*X5182Y96456D01*
X4610Y96647D02*X4991D01*
X4420Y96456D02*X4610Y96647D01*
X5639Y96456D02*Y96076D01*
Y96456D02*X5829Y96647D01*
X6210D01*
X6401Y96456D01*
Y96076D01*
X6210Y95885D02*X6401Y96076D01*
X5829Y95885D02*X6210D01*
X5639Y96076D02*X5829Y95885D01*
X6858Y97409D02*Y96076D01*
X7049Y95885D01*
X0Y95059D02*X7430D01*
X10604Y97409D02*Y95885D01*
X11100Y97409D02*X11366Y97142D01*
Y96152D01*
X11100Y95885D02*X11366Y96152D01*
X10414Y95885D02*X11100D01*
X10414Y97409D02*X11100D01*
G54D109*X11824Y97028D02*Y96990D01*
G54D107*Y96456D02*Y95885D01*
X12776Y96647D02*X12967Y96456D01*
X12395Y96647D02*X12776D01*
X12205Y96456D02*X12395Y96647D01*
X12205Y96456D02*Y96076D01*
X12395Y95885D01*
X12967Y96647D02*Y96076D01*
X13157Y95885D01*
X12395D02*X12776D01*
X12967Y96076D01*
X13805Y96456D02*Y95885D01*
Y96456D02*X13995Y96647D01*
X14186D01*
X14376Y96456D01*
Y95885D01*
Y96456D02*X14567Y96647D01*
X14757D01*
X14948Y96456D01*
Y95885D01*
X13614Y96647D02*X13805Y96456D01*
X15405Y95885D02*X15596D01*
X16739Y96076D02*X16929Y95885D01*
X16739Y97218D02*X16929Y97409D01*
X16739Y97218D02*Y96076D01*
X17386Y97409D02*X17767D01*
X17577D02*Y95885D01*
X17386D02*X17767D01*
X18415Y96456D02*Y95885D01*
Y96456D02*X18606Y96647D01*
X18796D01*
X18987Y96456D01*
Y95885D01*
X18225Y96647D02*X18415Y96456D01*
X19634Y96647D02*X20206D01*
X19444Y96456D02*X19634Y96647D01*
X19444Y96456D02*Y96076D01*
X19634Y95885D01*
X20206D01*
X20663Y97409D02*Y95885D01*
Y96456D02*X20853Y96647D01*
X21234D01*
X21425Y96456D01*
Y95885D01*
X21882Y97409D02*X22073Y97218D01*
Y96076D01*
X21882Y95885D02*X22073Y96076D01*
X10414Y95059D02*X22530D01*
X24397Y95885D02*X24892D01*
X24130Y96152D02*X24397Y95885D01*
X24130Y97142D02*Y96152D01*
Y97142D02*X24397Y97409D01*
X24892D01*
X25349Y96456D02*Y96076D01*
Y96456D02*X25540Y96647D01*
X25921D01*
X26111Y96456D01*
Y96076D01*
X25921Y95885D02*X26111Y96076D01*
X25540Y95885D02*X25921D01*
X25349Y96076D02*X25540Y95885D01*
X26568Y96647D02*Y96076D01*
X26759Y95885D01*
X27140D01*
X27330Y96076D01*
Y96647D02*Y96076D01*
X27978Y96456D02*Y95885D01*
Y96456D02*X28169Y96647D01*
X28359D01*
X28550Y96456D01*
Y95885D01*
X27788Y96647D02*X27978Y96456D01*
X29197Y97409D02*Y96076D01*
X29388Y95885D01*
X29007Y96838D02*X29388D01*
X24130Y95059D02*X29769D01*
X33210Y97409D02*Y95885D01*
X33020Y97409D02*X33782D01*
X33972Y97218D01*
Y96838D01*
X33782Y96647D02*X33972Y96838D01*
X33210Y96647D02*X33782D01*
X34430Y97409D02*Y96076D01*
X34620Y95885D01*
X35573Y96647D02*X35763Y96456D01*
X35192Y96647D02*X35573D01*
X35001Y96456D02*X35192Y96647D01*
X35001Y96456D02*Y96076D01*
X35192Y95885D01*
X35763Y96647D02*Y96076D01*
X35954Y95885D01*
X35192D02*X35573D01*
X35763Y96076D01*
X36601Y97409D02*Y96076D01*
X36792Y95885D01*
X36411Y96838D02*X36792D01*
X37363Y95885D02*X37935D01*
X37173Y96076D02*X37363Y95885D01*
X37173Y96456D02*Y96076D01*
Y96456D02*X37363Y96647D01*
X37744D01*
X37935Y96456D01*
X37173Y96266D02*X37935D01*
Y96456D02*Y96266D01*
X39154Y97409D02*Y95885D01*
X38964D02*X39154Y96076D01*
X38583Y95885D02*X38964D01*
X38392Y96076D02*X38583Y95885D01*
X38392Y96456D02*Y96076D01*
Y96456D02*X38583Y96647D01*
X38964D01*
X39154Y96456D01*
X39992Y96647D02*Y96456D01*
Y96076D02*Y95885D01*
X39611Y97218D02*Y97028D01*
Y97218D02*X39802Y97409D01*
X40183D01*
X40373Y97218D01*
Y97028D01*
X39992Y96647D02*X40373Y97028D01*
X33020Y95059D02*X40831D01*
X0Y101219D02*X762D01*
X381D02*Y99695D01*
X1219Y101219D02*Y99695D01*
Y100266D02*X1410Y100457D01*
X1791D01*
X1981Y100266D01*
Y99695D01*
X2629D02*X3200D01*
X2438Y99886D02*X2629Y99695D01*
X2438Y100266D02*Y99886D01*
Y100266D02*X2629Y100457D01*
X3010D01*
X3200Y100266D01*
X2438Y100076D02*X3200D01*
Y100266D02*Y100076D01*
X3848Y100266D02*Y99695D01*
Y100266D02*X4039Y100457D01*
X4420D01*
X3658D02*X3848Y100266D01*
X5067Y99695D02*X5639D01*
X4877Y99886D02*X5067Y99695D01*
X4877Y100266D02*Y99886D01*
Y100266D02*X5067Y100457D01*
X5448D01*
X5639Y100266D01*
X4877Y100076D02*X5639D01*
Y100266D02*Y100076D01*
X7353Y100457D02*X7544Y100266D01*
X6972Y100457D02*X7353D01*
X6782Y100266D02*X6972Y100457D01*
X6782Y100266D02*Y99886D01*
X6972Y99695D01*
X7544Y100457D02*Y99886D01*
X7734Y99695D01*
X6972D02*X7353D01*
X7544Y99886D01*
X8382Y100266D02*Y99695D01*
Y100266D02*X8573Y100457D01*
X8954D01*
X8192D02*X8382Y100266D01*
X9601Y99695D02*X10173D01*
X9411Y99886D02*X9601Y99695D01*
X9411Y100266D02*Y99886D01*
Y100266D02*X9601Y100457D01*
X9982D01*
X10173Y100266D01*
X9411Y100076D02*X10173D01*
Y100266D02*Y100076D01*
X11316Y99886D02*X11506Y99695D01*
X11316Y100190D02*Y99886D01*
Y100190D02*X11582Y100457D01*
X11811D01*
X12078Y100190D01*
Y99886D01*
X11887Y99695D02*X12078Y99886D01*
X11506Y99695D02*X11887D01*
X11316Y100724D02*X11582Y100457D01*
X11316Y101028D02*Y100724D01*
Y101028D02*X11506Y101219D01*
X11887D01*
X12078Y101028D01*
Y100724D01*
X11811Y100457D02*X12078Y100724D01*
X13983Y101219D02*Y99695D01*
X13792D02*X13983Y99886D01*
X13411Y99695D02*X13792D01*
X13221Y99886D02*X13411Y99695D01*
X13221Y100266D02*Y99886D01*
Y100266D02*X13411Y100457D01*
X13792D01*
X13983Y100266D01*
G54D109*X14440Y100838D02*Y100800D01*
G54D107*Y100266D02*Y99695D01*
X15011Y101028D02*Y99695D01*
Y101028D02*X15202Y101219D01*
X15392D01*
X14821Y100457D02*X15202D01*
X15964Y101028D02*Y99695D01*
Y101028D02*X16154Y101219D01*
X16345D01*
X15773Y100457D02*X16154D01*
X16916Y99695D02*X17488D01*
X16726Y99886D02*X16916Y99695D01*
X16726Y100266D02*Y99886D01*
Y100266D02*X16916Y100457D01*
X17297D01*
X17488Y100266D01*
X16726Y100076D02*X17488D01*
Y100266D02*Y100076D01*
X18136Y100266D02*Y99695D01*
Y100266D02*X18326Y100457D01*
X18707D01*
X17945D02*X18136Y100266D01*
X19355Y99695D02*X19926D01*
X19164Y99886D02*X19355Y99695D01*
X19164Y100266D02*Y99886D01*
Y100266D02*X19355Y100457D01*
X19736D01*
X19926Y100266D01*
X19164Y100076D02*X19926D01*
Y100266D02*Y100076D01*
X20574Y100266D02*Y99695D01*
Y100266D02*X20765Y100457D01*
X20955D01*
X21146Y100266D01*
Y99695D01*
X20384Y100457D02*X20574Y100266D01*
X21793Y101219D02*Y99886D01*
X21984Y99695D01*
X21603Y100648D02*X21984D01*
X23813Y101219D02*Y99695D01*
X23622D02*X23813Y99886D01*
X23241Y99695D02*X23622D01*
X23051Y99886D02*X23241Y99695D01*
X23051Y100266D02*Y99886D01*
Y100266D02*X23241Y100457D01*
X23622D01*
X23813Y100266D01*
X24460D02*Y99695D01*
Y100266D02*X24651Y100457D01*
X25032D01*
X24270D02*X24460Y100266D01*
G54D109*X25489Y100838D02*Y100800D01*
G54D107*Y100266D02*Y99695D01*
X25870Y101219D02*Y99886D01*
X26060Y99695D01*
X26441Y101219D02*Y99886D01*
X26632Y99695D01*
X27889D02*X28461D01*
X28651Y99886D01*
X28461Y100076D02*X28651Y99886D01*
X27889Y100076D02*X28461D01*
X27699Y100266D02*X27889Y100076D01*
X27699Y100266D02*X27889Y100457D01*
X28461D01*
X28651Y100266D01*
X27699Y99886D02*X27889Y99695D01*
G54D109*X29108Y100838D02*Y100800D01*
G54D107*Y100266D02*Y99695D01*
X29489Y100457D02*X30251D01*
X29489Y99695D02*X30251Y100457D01*
X29489Y99695D02*X30251D01*
X30899D02*X31471D01*
X30709Y99886D02*X30899Y99695D01*
X30709Y100266D02*Y99886D01*
Y100266D02*X30899Y100457D01*
X31280D01*
X31471Y100266D01*
X30709Y100076D02*X31471D01*
Y100266D02*Y100076D01*
X32118Y99695D02*X32690D01*
X32880Y99886D01*
X32690Y100076D02*X32880Y99886D01*
X32118Y100076D02*X32690D01*
X31928Y100266D02*X32118Y100076D01*
X31928Y100266D02*X32118Y100457D01*
X32690D01*
X32880Y100266D01*
X31928Y99886D02*X32118Y99695D01*
X34023Y100457D02*Y99886D01*
X34214Y99695D01*
X34595D01*
X34785Y99886D01*
Y100457D02*Y99886D01*
X35433Y99695D02*X36005D01*
X36195Y99886D01*
X36005Y100076D02*X36195Y99886D01*
X35433Y100076D02*X36005D01*
X35243Y100266D02*X35433Y100076D01*
X35243Y100266D02*X35433Y100457D01*
X36005D01*
X36195Y100266D01*
X35243Y99886D02*X35433Y99695D01*
X36843D02*X37414D01*
X36652Y99886D02*X36843Y99695D01*
X36652Y100266D02*Y99886D01*
Y100266D02*X36843Y100457D01*
X37224D01*
X37414Y100266D01*
X36652Y100076D02*X37414D01*
Y100266D02*Y100076D01*
X38633Y101219D02*Y99695D01*
X38443D02*X38633Y99886D01*
X38062Y99695D02*X38443D01*
X37871Y99886D02*X38062Y99695D01*
X37871Y100266D02*Y99886D01*
Y100266D02*X38062Y100457D01*
X38443D01*
X38633Y100266D01*
G54D109*X39776Y100838D02*Y100800D01*
G54D107*Y100266D02*Y99695D01*
X40348Y100266D02*Y99695D01*
Y100266D02*X40538Y100457D01*
X40729D01*
X40919Y100266D01*
Y99695D01*
X40157Y100457D02*X40348Y100266D01*
X42253Y101219D02*Y99886D01*
X42443Y99695D01*
X42062Y100648D02*X42443D01*
X42824Y101219D02*Y99695D01*
Y100266D02*X43015Y100457D01*
X43396D01*
X43586Y100266D01*
Y99695D01*
G54D109*X44044Y100838D02*Y100800D01*
G54D107*Y100266D02*Y99695D01*
X44615D02*X45187D01*
X45377Y99886D01*
X45187Y100076D02*X45377Y99886D01*
X44615Y100076D02*X45187D01*
X44425Y100266D02*X44615Y100076D01*
X44425Y100266D02*X44615Y100457D01*
X45187D01*
X45377Y100266D01*
X44425Y99886D02*X44615Y99695D01*
X46520Y101219D02*Y99886D01*
X46711Y99695D01*
X47663Y100457D02*X47854Y100266D01*
X47282Y100457D02*X47663D01*
X47092Y100266D02*X47282Y100457D01*
X47092Y100266D02*Y99886D01*
X47282Y99695D01*
X47854Y100457D02*Y99886D01*
X48044Y99695D01*
X47282D02*X47663D01*
X47854Y99886D01*
X48501Y100457D02*Y99886D01*
X48692Y99695D01*
X49263Y100457D02*Y99314D01*
X49073Y99124D02*X49263Y99314D01*
X48692Y99124D02*X49073D01*
X48501Y99314D02*X48692Y99124D01*
Y99695D02*X49073D01*
X49263Y99886D01*
X49721Y100266D02*Y99886D01*
Y100266D02*X49911Y100457D01*
X50292D01*
X50483Y100266D01*
Y99886D01*
X50292Y99695D02*X50483Y99886D01*
X49911Y99695D02*X50292D01*
X49721Y99886D02*X49911Y99695D01*
X50940Y100457D02*Y99886D01*
X51130Y99695D01*
X51511D01*
X51702Y99886D01*
Y100457D02*Y99886D01*
X52349Y101219D02*Y99886D01*
X52540Y99695D01*
X52159Y100648D02*X52540D01*
X52921Y99314D02*X53302Y99695D01*
X54445Y100914D02*X54750Y101219D01*
Y99695D01*
X54445D02*X55016D01*
X55474Y101219D02*X56236D01*
X55474D02*Y100457D01*
X55664Y100648D01*
X56045D01*
X56236Y100457D01*
Y99886D01*
X56045Y99695D02*X56236Y99886D01*
X55664Y99695D02*X56045D01*
X55474Y99886D02*X55664Y99695D01*
X56693Y100914D02*X56998Y101219D01*
Y99695D01*
X56693D02*X57264D01*
X58407Y101219D02*Y99695D01*
Y100266D02*X58598Y100457D01*
X58979D01*
X59169Y100266D01*
Y99695D01*
X59627Y100266D02*Y99886D01*
Y100266D02*X59817Y100457D01*
X60198D01*
X60389Y100266D01*
Y99886D01*
X60198Y99695D02*X60389Y99886D01*
X59817Y99695D02*X60198D01*
X59627Y99886D02*X59817Y99695D01*
X60846Y101219D02*Y99886D01*
X61036Y99695D01*
X61608D02*X62179D01*
X61417Y99886D02*X61608Y99695D01*
X61417Y100266D02*Y99886D01*
Y100266D02*X61608Y100457D01*
X61989D01*
X62179Y100266D01*
X61417Y100076D02*X62179D01*
Y100266D02*Y100076D01*
X62827Y99695D02*X63398D01*
X63589Y99886D01*
X63398Y100076D02*X63589Y99886D01*
X62827Y100076D02*X63398D01*
X62636Y100266D02*X62827Y100076D01*
X62636Y100266D02*X62827Y100457D01*
X63398D01*
X63589Y100266D01*
X62636Y99886D02*X62827Y99695D01*
X64922Y101219D02*Y99886D01*
X65113Y99695D01*
X64732Y100648D02*X65113D01*
X65494Y100266D02*Y99886D01*
Y100266D02*X65684Y100457D01*
X66065D01*
X66256Y100266D01*
Y99886D01*
X66065Y99695D02*X66256Y99886D01*
X65684Y99695D02*X66065D01*
X65494Y99886D02*X65684Y99695D01*
X66904Y101219D02*Y99886D01*
X67094Y99695D01*
X66713Y100648D02*X67094D01*
X68047Y100457D02*X68237Y100266D01*
X67666Y100457D02*X68047D01*
X67475Y100266D02*X67666Y100457D01*
X67475Y100266D02*Y99886D01*
X67666Y99695D01*
X68237Y100457D02*Y99886D01*
X68428Y99695D01*
X67666D02*X68047D01*
X68237Y99886D01*
X68885Y101219D02*Y99886D01*
X69075Y99695D01*
G54D110*X0Y63500D02*Y0D01*
X63500D01*
Y63500D01*
X0D01*
G54D107*X9823Y-2413D02*X10585D01*
X10776Y-2222D01*
Y-1765D02*Y-2222D01*
X10585Y-1575D02*X10776Y-1765D01*
X10014Y-1575D02*X10585D01*
X10014Y-889D02*Y-2413D01*
X9823Y-889D02*X10585D01*
X10776Y-1080D01*
Y-1384D01*
X10585Y-1575D02*X10776Y-1384D01*
X11233Y-1842D02*Y-2222D01*
Y-1842D02*X11424Y-1651D01*
X11805D01*
X11995Y-1842D01*
Y-2222D01*
X11805Y-2413D02*X11995Y-2222D01*
X11424Y-2413D02*X11805D01*
X11233Y-2222D02*X11424Y-2413D01*
X13024Y-1651D02*X13214Y-1842D01*
X12643Y-1651D02*X13024D01*
X12452Y-1842D02*X12643Y-1651D01*
X12452Y-1842D02*Y-2222D01*
X12643Y-2413D01*
X13214Y-1651D02*Y-2222D01*
X13405Y-2413D01*
X12643D02*X13024D01*
X13214Y-2222D01*
X14053Y-1842D02*Y-2413D01*
Y-1842D02*X14243Y-1651D01*
X14624D01*
X13862D02*X14053Y-1842D01*
X15843Y-889D02*Y-2413D01*
X15653D02*X15843Y-2222D01*
X15272Y-2413D02*X15653D01*
X15081Y-2222D02*X15272Y-2413D01*
X15081Y-1842D02*Y-2222D01*
Y-1842D02*X15272Y-1651D01*
X15653D01*
X15843Y-1842D01*
X16986D02*Y-2222D01*
Y-1842D02*X17177Y-1651D01*
X17558D01*
X17748Y-1842D01*
Y-2222D01*
X17558Y-2413D02*X17748Y-2222D01*
X17177Y-2413D02*X17558D01*
X16986Y-2222D02*X17177Y-2413D01*
X18205Y-1651D02*Y-2222D01*
X18396Y-2413D01*
X18777D01*
X18967Y-2222D01*
Y-1651D02*Y-2222D01*
X19615Y-889D02*Y-2222D01*
X19806Y-2413D01*
X19425Y-1460D02*X19806D01*
X20187Y-889D02*Y-2222D01*
X20377Y-2413D01*
G54D109*X20758Y-1270D02*Y-1308D01*
G54D107*Y-1842D02*Y-2413D01*
X21330Y-1842D02*Y-2413D01*
Y-1842D02*X21520Y-1651D01*
X21711D01*
X21901Y-1842D01*
Y-2413D01*
X21139Y-1651D02*X21330Y-1842D01*
X22549Y-2413D02*X23120D01*
X22358Y-2222D02*X22549Y-2413D01*
X22358Y-1842D02*Y-2222D01*
Y-1842D02*X22549Y-1651D01*
X22930D01*
X23120Y-1842D01*
X22358Y-2032D02*X23120D01*
Y-1842D02*Y-2032D01*
G54D109*X24263Y-1270D02*Y-1308D01*
G54D107*Y-1842D02*Y-2413D01*
X24835D02*X25406D01*
X25597Y-2222D01*
X25406Y-2032D02*X25597Y-2222D01*
X24835Y-2032D02*X25406D01*
X24644Y-1842D02*X24835Y-2032D01*
X24644Y-1842D02*X24835Y-1651D01*
X25406D01*
X25597Y-1842D01*
X24644Y-2222D02*X24835Y-2413D01*
X26930Y-889D02*Y-2222D01*
X27121Y-2413D01*
X26740Y-1460D02*X27121D01*
X27502Y-889D02*Y-2413D01*
Y-1842D02*X27692Y-1651D01*
X28073D01*
X28264Y-1842D01*
Y-2413D01*
X28912D02*X29483D01*
X28721Y-2222D02*X28912Y-2413D01*
X28721Y-1842D02*Y-2222D01*
Y-1842D02*X28912Y-1651D01*
X29293D01*
X29483Y-1842D01*
X28721Y-2032D02*X29483D01*
Y-1842D02*Y-2032D01*
X30817Y-1651D02*X31388D01*
X30626Y-1842D02*X30817Y-1651D01*
X30626Y-1842D02*Y-2222D01*
X30817Y-2413D01*
X31388D01*
X32036D02*X32607D01*
X31845Y-2222D02*X32036Y-2413D01*
X31845Y-1842D02*Y-2222D01*
Y-1842D02*X32036Y-1651D01*
X32417D01*
X32607Y-1842D01*
X31845Y-2032D02*X32607D01*
Y-1842D02*Y-2032D01*
X33255Y-1842D02*Y-2413D01*
Y-1842D02*X33445Y-1651D01*
X33636D01*
X33826Y-1842D01*
Y-2413D01*
X33064Y-1651D02*X33255Y-1842D01*
X34474Y-889D02*Y-2222D01*
X34665Y-2413D01*
X34284Y-1460D02*X34665D01*
X35236Y-2413D02*X35808D01*
X35046Y-2222D02*X35236Y-2413D01*
X35046Y-1842D02*Y-2222D01*
Y-1842D02*X35236Y-1651D01*
X35617D01*
X35808Y-1842D01*
X35046Y-2032D02*X35808D01*
Y-1842D02*Y-2032D01*
X36455Y-1842D02*Y-2413D01*
Y-1842D02*X36646Y-1651D01*
X37027D01*
X36265D02*X36455Y-1842D01*
X37484Y-889D02*Y-2222D01*
X37675Y-2413D01*
G54D109*X38056Y-1270D02*Y-1308D01*
G54D107*Y-1842D02*Y-2413D01*
X38627Y-1842D02*Y-2413D01*
Y-1842D02*X38818Y-1651D01*
X39008D01*
X39199Y-1842D01*
Y-2413D01*
X38437Y-1651D02*X38627Y-1842D01*
X39846Y-2413D02*X40418D01*
X39656Y-2222D02*X39846Y-2413D01*
X39656Y-1842D02*Y-2222D01*
Y-1842D02*X39846Y-1651D01*
X40227D01*
X40418Y-1842D01*
X39656Y-2032D02*X40418D01*
Y-1842D02*Y-2032D01*
X41561Y-1842D02*Y-2222D01*
Y-1842D02*X41751Y-1651D01*
X42132D01*
X42323Y-1842D01*
Y-2222D01*
X42132Y-2413D02*X42323Y-2222D01*
X41751Y-2413D02*X42132D01*
X41561Y-2222D02*X41751Y-2413D01*
X42970Y-1080D02*Y-2413D01*
Y-1080D02*X43161Y-889D01*
X43351D01*
X42780Y-1651D02*X43161D01*
X44609Y-889D02*Y-2222D01*
X44799Y-2413D01*
X44418Y-1460D02*X44799D01*
X45180Y-889D02*Y-2413D01*
Y-1842D02*X45371Y-1651D01*
X45752D01*
X45942Y-1842D01*
Y-2413D01*
G54D109*X46399Y-1270D02*Y-1308D01*
G54D107*Y-1842D02*Y-2413D01*
X46971D02*X47542D01*
X47733Y-2222D01*
X47542Y-2032D02*X47733Y-2222D01*
X46971Y-2032D02*X47542D01*
X46780Y-1842D02*X46971Y-2032D01*
X46780Y-1842D02*X46971Y-1651D01*
X47542D01*
X47733Y-1842D01*
X46780Y-2222D02*X46971Y-2413D01*
X49066Y-1842D02*Y-2984D01*
X48876Y-1651D02*X49066Y-1842D01*
X49257Y-1651D01*
X49638D01*
X49828Y-1842D01*
Y-2222D01*
X49638Y-2413D02*X49828Y-2222D01*
X49257Y-2413D02*X49638D01*
X49066Y-2222D02*X49257Y-2413D01*
X50857Y-1651D02*X51048Y-1842D01*
X50476Y-1651D02*X50857D01*
X50286Y-1842D02*X50476Y-1651D01*
X50286Y-1842D02*Y-2222D01*
X50476Y-2413D01*
X51048Y-1651D02*Y-2222D01*
X51238Y-2413D01*
X50476D02*X50857D01*
X51048Y-2222D01*
X51886Y-889D02*Y-2222D01*
X52076Y-2413D01*
X51695Y-1460D02*X52076D01*
X52457Y-889D02*Y-2413D01*
Y-1842D02*X52648Y-1651D01*
X53029D01*
X53219Y-1842D01*
Y-2413D01*
X50990Y70739D02*Y69215D01*
X51486Y70739D02*X51752Y70472D01*
Y69482D01*
X51486Y69215D02*X51752Y69482D01*
X50800Y69215D02*X51486D01*
X50800Y70739D02*X51486D01*
X52781Y69977D02*X52972Y69786D01*
X52400Y69977D02*X52781D01*
X52210Y69786D02*X52400Y69977D01*
X52210Y69786D02*Y69406D01*
X52400Y69215D01*
X52972Y69977D02*Y69406D01*
X53162Y69215D01*
X52400D02*X52781D01*
X52972Y69406D01*
X53810Y70739D02*Y69406D01*
X54000Y69215D01*
X53619Y70168D02*X54000D01*
X54572Y69215D02*X55143D01*
X54381Y69406D02*X54572Y69215D01*
X54381Y69786D02*Y69406D01*
Y69786D02*X54572Y69977D01*
X54953D01*
X55143Y69786D01*
X54381Y69596D02*X55143D01*
Y69786D02*Y69596D01*
X55601Y70168D02*X55791D01*
X55601Y69786D02*X55791D01*
X56934Y70739D02*Y69215D01*
Y70739D02*X57506Y69977D01*
X58077Y70739D01*
Y69215D01*
X58534Y69786D02*Y69406D01*
Y69786D02*X58725Y69977D01*
X59106D01*
X59296Y69786D01*
Y69406D01*
X59106Y69215D02*X59296Y69406D01*
X58725Y69215D02*X59106D01*
X58534Y69406D02*X58725Y69215D01*
X59944Y69786D02*Y69215D01*
Y69786D02*X60135Y69977D01*
X60325D01*
X60516Y69786D01*
Y69215D01*
X59754Y69977D02*X59944Y69786D01*
X61849Y70739D02*Y69215D01*
X62344Y70739D02*X62611Y70472D01*
Y69482D01*
X62344Y69215D02*X62611Y69482D01*
X61659Y69215D02*X62344D01*
X61659Y70739D02*X62344D01*
X63259Y69215D02*X63830D01*
X63068Y69406D02*X63259Y69215D01*
X63068Y69786D02*Y69406D01*
Y69786D02*X63259Y69977D01*
X63640D01*
X63830Y69786D01*
X63068Y69596D02*X63830D01*
Y69786D02*Y69596D01*
X64478Y69977D02*X65049D01*
X64287Y69786D02*X64478Y69977D01*
X64287Y69786D02*Y69406D01*
X64478Y69215D01*
X65049D01*
X66878Y69786D02*X67640Y70739D01*
X66878Y69786D02*X67831D01*
X67640Y70739D02*Y69215D01*
X68974Y69406D02*X69164Y69215D01*
X68974Y70548D02*Y69406D01*
Y70548D02*X69164Y70739D01*
X69545D01*
X69736Y70548D01*
Y69406D01*
X69545Y69215D02*X69736Y69406D01*
X69164Y69215D02*X69545D01*
X68974Y69596D02*X69736Y70358D01*
X70383Y69215D02*X70955Y69977D01*
Y70548D02*Y69977D01*
X70764Y70739D02*X70955Y70548D01*
X70383Y70739D02*X70764D01*
X70193Y70548D02*X70383Y70739D01*
X70193Y70548D02*Y70168D01*
X70383Y69977D01*
X70955D01*
X71412Y70168D02*X71603D01*
X71412Y69786D02*X71603D01*
X72060Y70548D02*X72250Y70739D01*
X72631D01*
X72822Y70548D01*
X72631Y69215D02*X72822Y69406D01*
X72250Y69215D02*X72631D01*
X72060Y69406D02*X72250Y69215D01*
Y70053D02*X72631D01*
X72822Y70548D02*Y70244D01*
Y69863D02*Y69406D01*
Y69863D02*X72631Y70053D01*
X72822Y70244D02*X72631Y70053D01*
X73279Y70548D02*X73470Y70739D01*
X73851D01*
X74041Y70548D01*
X73851Y69215D02*X74041Y69406D01*
X73470Y69215D02*X73851D01*
X73279Y69406D02*X73470Y69215D01*
Y70053D02*X73851D01*
X74041Y70548D02*Y70244D01*
Y69863D02*Y69406D01*
Y69863D02*X73851Y70053D01*
X74041Y70244D02*X73851Y70053D01*
X74498Y70168D02*X74689D01*
X74498Y69786D02*X74689D01*
X75146Y69406D02*X75336Y69215D01*
X75146Y70548D02*Y69406D01*
Y70548D02*X75336Y70739D01*
X75717D01*
X75908Y70548D01*
Y69406D01*
X75717Y69215D02*X75908Y69406D01*
X75336Y69215D02*X75717D01*
X75146Y69596D02*X75908Y70358D01*
X76365Y70739D02*X77127D01*
X76365D02*Y69977D01*
X76556Y70168D01*
X76937D01*
X77127Y69977D01*
Y69406D01*
X76937Y69215D02*X77127Y69406D01*
X76556Y69215D02*X76937D01*
X76365Y69406D02*X76556Y69215D01*
X78270Y70548D02*X78461Y70739D01*
X79032D01*
X79223Y70548D01*
Y70168D01*
X78270Y69215D02*X79223Y70168D01*
X78270Y69215D02*X79223D01*
X79680Y69406D02*X79870Y69215D01*
X79680Y70548D02*Y69406D01*
Y70548D02*X79870Y70739D01*
X80251D01*
X80442Y70548D01*
Y69406D01*
X80251Y69215D02*X80442Y69406D01*
X79870Y69215D02*X80251D01*
X79680Y69596D02*X80442Y70358D01*
X80899Y70434D02*X81204Y70739D01*
Y69215D01*
X80899D02*X81471D01*
X82118D02*X82880Y70739D01*
X81928D02*X82880D01*
X84023D02*Y69406D01*
X84214Y69215D01*
X84595D01*
X84785Y69406D01*
Y70739D02*Y69406D01*
X85242Y70739D02*X86004D01*
X85623D02*Y69215D01*
X86728D02*X87224D01*
X86462Y69482D02*X86728Y69215D01*
X86462Y70472D02*Y69482D01*
Y70472D02*X86728Y70739D01*
X87224D01*
X50800Y74168D02*Y73025D01*
Y74168D02*X51067Y74549D01*
X51486D01*
X51752Y74168D01*
Y73025D01*
X50800Y73787D02*X51752D01*
X52210D02*Y73216D01*
X52400Y73025D01*
X52781D01*
X52972Y73216D01*
Y73787D02*Y73216D01*
X53619Y74549D02*Y73216D01*
X53810Y73025D01*
X53429Y73978D02*X53810D01*
X54191Y74549D02*Y73025D01*
Y73596D02*X54381Y73787D01*
X54762D01*
X54953Y73596D01*
Y73025D01*
X55410Y73596D02*Y73216D01*
Y73596D02*X55601Y73787D01*
X55982D01*
X56172Y73596D01*
Y73216D01*
X55982Y73025D02*X56172Y73216D01*
X55601Y73025D02*X55982D01*
X55410Y73216D02*X55601Y73025D01*
X56820Y73596D02*Y73025D01*
Y73596D02*X57010Y73787D01*
X57391D01*
X56629D02*X56820Y73596D01*
X57849Y73978D02*X58039D01*
X57849Y73596D02*X58039D01*
G54D109*X59373Y74168D02*Y74130D01*
G54D107*Y73596D02*Y72644D01*
X59182Y72454D02*X59373Y72644D01*
X60325Y73787D02*X60516Y73596D01*
X59944Y73787D02*X60325D01*
X59754Y73596D02*X59944Y73787D01*
X59754Y73596D02*Y73216D01*
X59944Y73025D01*
X60516Y73787D02*Y73216D01*
X60706Y73025D01*
X59944D02*X60325D01*
X60516Y73216D01*
X61354Y73596D02*Y73025D01*
Y73596D02*X61544Y73787D01*
X61735D01*
X61925Y73596D01*
Y73025D01*
X61163Y73787D02*X61354Y73596D01*
X63259D02*Y73025D01*
Y73596D02*X63449Y73787D01*
X63640D01*
X63830Y73596D01*
Y73025D01*
Y73596D02*X64021Y73787D01*
X64211D01*
X64402Y73596D01*
Y73025D01*
X63068Y73787D02*X63259Y73596D01*
G54D109*X64859Y74168D02*Y74130D01*
G54D107*Y73596D02*Y73025D01*
X65240Y74549D02*Y73025D01*
Y73596D02*X65811Y73025D01*
X65240Y73596D02*X65621Y73978D01*
X66269Y74549D02*Y73216D01*
X66459Y73025D01*
X67412Y73787D02*X67602Y73596D01*
X67031Y73787D02*X67412D01*
X66840Y73596D02*X67031Y73787D01*
X66840Y73596D02*Y73216D01*
X67031Y73025D01*
X67602Y73787D02*Y73216D01*
X67793Y73025D01*
X67031D02*X67412D01*
X67602Y73216D01*
X68440Y73025D02*X69012D01*
X69202Y73216D01*
X69012Y73406D02*X69202Y73216D01*
X68440Y73406D02*X69012D01*
X68250Y73596D02*X68440Y73406D01*
X68250Y73596D02*X68440Y73787D01*
X69012D01*
X69202Y73596D01*
X68250Y73216D02*X68440Y73025D01*
X50800Y78359D02*X51562D01*
X51181D02*Y76835D01*
G54D109*X52019Y77978D02*Y77940D01*
G54D107*Y77406D02*Y76835D01*
X52591Y78359D02*Y77026D01*
X52781Y76835D01*
X52400Y77788D02*X52781D01*
X53162Y78359D02*Y77026D01*
X53353Y76835D01*
X53924D02*X54496D01*
X53734Y77026D02*X53924Y76835D01*
X53734Y77406D02*Y77026D01*
Y77406D02*X53924Y77597D01*
X54305D01*
X54496Y77406D01*
X53734Y77216D02*X54496D01*
Y77406D02*Y77216D01*
X54953Y77788D02*X55143D01*
X54953Y77406D02*X55143D01*
X56286Y77026D02*X56477Y76835D01*
X56286Y78168D02*X56477Y78359D01*
X56286Y78168D02*Y77026D01*
X56934Y77597D02*Y77026D01*
X57125Y76835D01*
X57506D01*
X57696Y77026D01*
Y77597D02*Y77026D01*
X58344Y77406D02*Y76835D01*
Y77406D02*X58534Y77597D01*
X58725D01*
X58915Y77406D01*
Y76835D01*
X58153Y77597D02*X58344Y77406D01*
X59373Y78359D02*Y76835D01*
Y77406D02*X59944Y76835D01*
X59373Y77406D02*X59754Y77788D01*
X60592Y77406D02*Y76835D01*
Y77406D02*X60782Y77597D01*
X60973D01*
X61163Y77406D01*
Y76835D01*
X60401Y77597D02*X60592Y77406D01*
X61620D02*Y77026D01*
Y77406D02*X61811Y77597D01*
X62192D01*
X62382Y77406D01*
Y77026D01*
X62192Y76835D02*X62382Y77026D01*
X61811Y76835D02*X62192D01*
X61620Y77026D02*X61811Y76835D01*
X62840Y77597D02*Y77026D01*
X63030Y76835D01*
X63221D01*
X63411Y77026D01*
Y77597D02*Y77026D01*
X63602Y76835D01*
X63792D01*
X63983Y77026D01*
Y77597D02*Y77026D01*
X64630Y77406D02*Y76835D01*
Y77406D02*X64821Y77597D01*
X65011D01*
X65202Y77406D01*
Y76835D01*
X64440Y77597D02*X64630Y77406D01*
X65659Y78359D02*X65850Y78168D01*
Y77026D01*
X65659Y76835D02*X65850Y77026D01*
X66993Y77597D02*X67755D01*
X68898Y78359D02*Y76835D01*
Y78359D02*X69660D01*
X68898Y77673D02*X69469D01*
X70688Y77597D02*X70879Y77406D01*
X70307Y77597D02*X70688D01*
X70117Y77406D02*X70307Y77597D01*
X70117Y77406D02*Y77026D01*
X70307Y76835D01*
X70879Y77597D02*Y77026D01*
X71069Y76835D01*
X70307D02*X70688D01*
X70879Y77026D01*
X71526Y78359D02*Y76835D01*
Y77026D02*X71717Y76835D01*
X72098D01*
X72288Y77026D01*
Y77406D02*Y77026D01*
X72098Y77597D02*X72288Y77406D01*
X71717Y77597D02*X72098D01*
X71526Y77406D02*X71717Y77597D01*
X72936Y77406D02*Y76835D01*
Y77406D02*X73127Y77597D01*
X73508D01*
X72746D02*X72936Y77406D01*
G54D109*X73965Y77978D02*Y77940D01*
G54D107*Y77406D02*Y76835D01*
X74536Y77597D02*X75108D01*
X74346Y77406D02*X74536Y77597D01*
X74346Y77406D02*Y77026D01*
X74536Y76835D01*
X75108D01*
X76137Y77597D02*X76327Y77406D01*
X75756Y77597D02*X76137D01*
X75565Y77406D02*X75756Y77597D01*
X75565Y77406D02*Y77026D01*
X75756Y76835D01*
X76327Y77597D02*Y77026D01*
X76518Y76835D01*
X75756D02*X76137D01*
X76327Y77026D01*
X77165Y78359D02*Y77026D01*
X77356Y76835D01*
X76975Y77788D02*X77356D01*
G54D109*X77737Y77978D02*Y77940D01*
G54D107*Y77406D02*Y76835D01*
X78118Y77406D02*Y77026D01*
Y77406D02*X78308Y77597D01*
X78689D01*
X78880Y77406D01*
Y77026D01*
X78689Y76835D02*X78880Y77026D01*
X78308Y76835D02*X78689D01*
X78118Y77026D02*X78308Y76835D01*
X79527Y77406D02*Y76835D01*
Y77406D02*X79718Y77597D01*
X79908D01*
X80099Y77406D01*
Y76835D01*
X79337Y77597D02*X79527Y77406D01*
X81432Y78359D02*Y76835D01*
X81928Y78359D02*X82194Y78092D01*
Y77102D01*
X81928Y76835D02*X82194Y77102D01*
X81242Y76835D02*X81928D01*
X81242Y78359D02*X81928D01*
X82842Y77406D02*Y76835D01*
Y77406D02*X83033Y77597D01*
X83414D01*
X82652D02*X82842Y77406D01*
X84442Y77597D02*X84633Y77406D01*
X84061Y77597D02*X84442D01*
X83871Y77406D02*X84061Y77597D01*
X83871Y77406D02*Y77026D01*
X84061Y76835D01*
X84633Y77597D02*Y77026D01*
X84823Y76835D01*
X84061D02*X84442D01*
X84633Y77026D01*
X85281Y77597D02*Y77026D01*
X85471Y76835D01*
X85662D01*
X85852Y77026D01*
Y77597D02*Y77026D01*
X86043Y76835D01*
X86233D01*
X86424Y77026D01*
Y77597D02*Y77026D01*
G54D109*X86881Y77978D02*Y77940D01*
G54D107*Y77406D02*Y76835D01*
X87452Y77406D02*Y76835D01*
Y77406D02*X87643Y77597D01*
X87833D01*
X88024Y77406D01*
Y76835D01*
X87262Y77597D02*X87452Y77406D01*
X89052Y77597D02*X89243Y77406D01*
X88671Y77597D02*X89052D01*
X88481Y77406D02*X88671Y77597D01*
X88481Y77406D02*Y77026D01*
X88671Y76835D01*
X89052D01*
X89243Y77026D01*
X88481Y76454D02*X88671Y76264D01*
X89052D01*
X89243Y76454D01*
Y77597D02*Y76454D01*
M02*
