G04 start of page 9 for group -4079 idx -4079 *
G04 Title: (unknown), topsilk *
G04 Creator: pcb 4.0.2 *
G04 CreationDate: Mon Dec  4 09:33:05 2017 UTC *
G04 For: janik *
G04 Format: Gerber/RS-274X *
G04 PCB-Dimensions (mm): 63.50 63.50 *
G04 PCB-Coordinate-Origin: lower left *
%MOMM*%
%FSLAX43Y43*%
%LNGTO*%
%ADD105C,0.254*%
%ADD104C,0.152*%
G54D104*X0Y63500D02*Y0D01*
X63500D01*
Y63500D01*
X0D01*
Y0D01*
X63500D01*
Y63500D01*
X0D01*
G54D105*X16637Y63246D02*G75*G03X16637Y63246I0J-7620D01*G01*
X11049Y43815D02*X11176D01*
X11049D02*Y38735D01*
X11176D01*
X13462D02*X13589D01*
Y43815D02*Y38735D01*
X13462Y43815D02*X13589D01*
X19558Y46990D02*X20574D01*
X19558Y48006D02*Y45974D01*
X16510D02*X19558D01*
X16510Y48006D02*Y45974D01*
Y48006D02*X19558D01*
X15494Y46990D02*X16510D01*
X7493Y49022D02*Y46482D01*
X12573D01*
Y49022D02*Y46482D01*
X7493Y49022D02*X12573D01*
X7493Y46482D02*X10033D01*
Y49022D02*Y46482D01*
X8001Y39878D02*Y38862D01*
X6985Y39878D02*X9017D01*
X6985Y42926D02*Y39878D01*
Y42926D02*X9017D01*
Y39878D01*
X8001Y43942D02*Y42926D01*
X10033Y43942D02*Y42926D01*
X9017D02*X11049D01*
Y39878D01*
X9017D02*X11049D01*
X9017Y42926D02*Y39878D01*
X10033D02*Y38862D01*
G54D104*X5969Y36322D02*X13589D01*
X5969Y28702D02*Y36322D01*
X13589Y28702D02*X5969D01*
X13589Y36322D02*Y28702D01*
G54D105*X11049Y33782D02*X13589D01*
X11049Y36322D02*Y33782D01*
X13589Y36322D02*Y31242D01*
X11049D02*X13589D01*
X11049Y36322D02*Y31242D01*
Y36322D02*X13589D01*
X15113Y35052D02*X32893D01*
Y45212D02*Y35052D01*
X15113Y45212D02*X32893D01*
X15113Y38862D02*Y35052D01*
Y45212D02*Y41402D01*
Y38862D02*G75*G03X15113Y41402I0J1270D01*G01*
X33020Y42672D02*X33147D01*
X33020D02*Y37592D01*
X33147D01*
X35433D02*X35560D01*
Y42672D02*Y37592D01*
X35433Y42672D02*X35560D01*
X29718Y48133D02*Y48260D01*
X24638D01*
Y48133D01*
Y45847D02*Y45720D01*
X29718D01*
Y45847D01*
X27559Y32385D02*Y32258D01*
X32639D01*
Y32385D02*Y32258D01*
Y34798D02*Y34671D01*
X27559Y34798D02*X32639D01*
X27559D02*Y34671D01*
X19558Y33528D02*X20574D01*
Y34544D02*Y32512D01*
Y34544D02*X23622D01*
Y32512D01*
X20574D02*X23622D01*
Y33528D02*X24638D01*
X21209Y30099D02*X22225D01*
Y31115D02*Y29083D01*
Y31115D02*X25273D01*
Y29083D01*
X22225D02*X25273D01*
Y30099D02*X26924D01*
X25273Y48768D02*X43053D01*
Y58928D02*Y48768D01*
X25273Y58928D02*X43053D01*
X25273Y52578D02*Y48768D01*
Y58928D02*Y55118D01*
Y52578D02*G75*G03X25273Y55118I0J1270D01*G01*
X53467Y51308D02*X56007D01*
X53467D02*Y46228D01*
X56007D01*
Y51308D02*Y46228D01*
X53467Y51308D02*Y48768D01*
X56007D01*
X47879Y48260D02*X51435D01*
X51453Y48242D02*G75*G03X47861Y48242I-1796J1796D01*G01*
X47879Y53340D02*X51435D01*
X51453Y53322D02*G75*G03X47861Y53322I-1796J1796D01*G01*
X38227Y37211D02*X38354D01*
X38227D02*Y32131D01*
X38354D01*
X40640D02*X40767D01*
Y37211D02*Y32131D01*
X40640Y37211D02*X40767D01*
X43307Y55118D02*X43434D01*
X43307D02*Y50038D01*
X43434D01*
X45720D02*X45847D01*
Y55118D02*Y50038D01*
X45720Y55118D02*X45847D01*
X56134Y28067D02*Y27051D01*
X55118D02*X57150D01*
Y24003D01*
X55118D02*X57150D01*
X55118Y27051D02*Y24003D01*
X56134D02*Y22987D01*
X53467Y30988D02*X53594D01*
Y36068D02*Y30988D01*
X53467Y36068D02*X53594D01*
X51054D02*X51181D01*
X51054D02*Y30988D01*
X51181D01*
X39497Y28956D02*Y27940D01*
X38481D02*X40513D01*
Y24892D01*
X38481D02*X40513D01*
X38481Y27940D02*Y24892D01*
X39497D02*Y23876D01*
X13843Y22352D02*X13970D01*
Y27432D02*Y22352D01*
X13843Y27432D02*X13970D01*
X11430D02*X11557D01*
X11430D02*Y22352D01*
X11557D01*
X15367Y28702D02*X33147D01*
X15367D02*Y18542D01*
X33147D01*
Y28702D02*Y24892D01*
Y22352D02*Y18542D01*
Y24892D02*G75*G03X33147Y22352I0J-1270D01*G01*
X37719Y19304D02*Y16764D01*
Y24384D02*Y21844D01*
Y19304D02*X36449Y21844D01*
X38989D01*
X37719Y19304D01*
X36449D02*X38989D01*
X44704Y21209D02*X44831D01*
X44704D02*Y16129D01*
X44831D01*
X47117D02*X47244D01*
Y21209D02*Y16129D01*
X47117Y21209D02*X47244D01*
X50673Y44958D02*Y45085D01*
X45593D01*
Y44958D01*
Y42672D02*Y42545D01*
X50673D01*
Y42672D01*
X41021Y24638D02*Y42418D01*
X51181Y24638D02*X41021D01*
X51181D02*Y42418D01*
X44831D02*X41021D01*
X51181D02*X47371D01*
X44831D02*G75*G03X47371Y42418I1270J0D01*G01*
X34671Y19050D02*Y18034D01*
X33655Y19050D02*X35687D01*
X33655Y22098D02*Y19050D01*
Y22098D02*X35687D01*
Y19050D01*
X34671Y23114D02*Y22098D01*
X23114Y11938D02*Y10922D01*
X22098D02*X24130D01*
Y7874D01*
X22098D02*X24130D01*
X22098Y10922D02*Y7874D01*
X23114D02*Y6858D01*
X22225Y16129D02*Y16002D01*
X27305D01*
Y16129D02*Y16002D01*
Y18542D02*Y18415D01*
X22225Y18542D02*X27305D01*
X22225D02*Y18415D01*
X30099Y29083D02*Y28956D01*
X35179D01*
Y29083D02*Y28956D01*
Y31496D02*Y31369D01*
X30099Y31496D02*X35179D01*
X30099D02*Y31369D01*
X14859Y39370D02*X15748D01*
X15875Y39497D01*
Y39751D02*Y39497D01*
Y39751D02*X15748Y39878D01*
X14859D02*X15748D01*
X15494Y40183D02*X14859Y40691D01*
X15494Y40818D02*Y40183D01*
X14859Y40691D02*X15875D01*
X13843Y48844D02*Y48641D01*
X12954D02*X13843D01*
X12827Y48768D02*X12954Y48641D01*
X12827Y48895D02*Y48768D01*
X12954Y49022D02*X12827Y48895D01*
X12954Y49022D02*X13081D01*
X13640Y48336D02*X13843Y48133D01*
X12827D02*X13843D01*
X12827Y48336D02*Y47955D01*
X7493Y41148D02*Y40640D01*
Y41148D02*X7620Y41275D01*
X7874D01*
X8001Y41148D02*X7874Y41275D01*
X8001Y41148D02*Y40767D01*
X7493D02*X8509D01*
X8001Y40970D02*X8509Y41275D01*
X7493Y41961D02*X7620Y42088D01*
X7493Y41961D02*Y41707D01*
X7620Y41580D02*X7493Y41707D01*
X7620Y41580D02*X8382D01*
X8509Y41707D01*
X7950Y41961D02*X8077Y42088D01*
X7950Y41961D02*Y41580D01*
X8509Y41961D02*Y41707D01*
Y41961D02*X8382Y42088D01*
X8077D02*X8382D01*
X9525Y40894D02*Y40386D01*
Y40894D02*X9652Y41021D01*
X9906D01*
X10033Y40894D02*X9906Y41021D01*
X10033Y40894D02*Y40513D01*
X9525D02*X10541D01*
X10033Y40716D02*X10541Y41021D01*
Y41453D02*X9525Y41961D01*
Y41326D01*
X16129Y55702D02*Y55372D01*
X16307Y55880D02*X16129Y55702D01*
X16307Y55880D02*X16967D01*
X17145Y55702D01*
Y55372D01*
Y55067D02*Y54559D01*
X16637Y55067D02*X17145D01*
X16637D02*X16764Y54940D01*
Y54686D01*
X16637Y54559D01*
X16256D02*X16637D01*
X16129Y54686D02*X16256Y54559D01*
X16129Y54940D02*Y54686D01*
X16256Y55067D02*X16129Y54940D01*
X12954Y40513D02*Y40018D01*
X12687Y39751D02*X12954Y40018D01*
X11697Y39751D02*X12687D01*
X11697D02*X11430Y40018D01*
Y40513D02*Y40018D01*
X11735Y40970D02*X11430Y41275D01*
X12954D01*
Y41542D02*Y40970D01*
X12764Y41999D02*X12954Y42189D01*
X11620Y41999D02*X12764D01*
X11620D02*X11430Y42189D01*
Y42570D02*Y42189D01*
Y42570D02*X11620Y42761D01*
X12764D01*
X12954Y42570D02*X12764Y42761D01*
X12954Y42570D02*Y42189D01*
X12573Y41999D02*X11811Y42761D01*
X36703Y22479D02*X37719D01*
X36703Y22809D02*X36881Y22987D01*
X37541D01*
X37719Y22809D02*X37541Y22987D01*
X37719Y22809D02*Y22352D01*
X36703Y22809D02*Y22352D01*
X36906Y23292D02*X36703Y23495D01*
X37719D01*
Y23673D02*Y23292D01*
X34163Y20320D02*Y19812D01*
Y20320D02*X34290Y20447D01*
X34544D01*
X34671Y20320D02*X34544Y20447D01*
X34671Y20320D02*Y19939D01*
X34163D02*X35179D01*
X34671Y20142D02*X35179Y20447D01*
X35052Y20752D02*X35179Y20879D01*
X34849Y20752D02*X35052D01*
X34849D02*X34671Y20930D01*
Y21082D02*Y20930D01*
Y21082D02*X34849Y21260D01*
X35052D01*
X35179Y21133D02*X35052Y21260D01*
X35179Y21133D02*Y20879D01*
X34493Y20752D02*X34671Y20930D01*
X34290Y20752D02*X34493D01*
X34290D02*X34163Y20879D01*
Y21133D02*Y20879D01*
Y21133D02*X34290Y21260D01*
X34493D01*
X34671Y21082D02*X34493Y21260D01*
X35052Y39243D02*Y38748D01*
X34785Y38481D02*X35052Y38748D01*
X33795Y38481D02*X34785D01*
X33795D02*X33528Y38748D01*
Y39243D02*Y38748D01*
X34480Y39700D02*X33528Y40462D01*
X34480Y40653D02*Y39700D01*
X33528Y40462D02*X35052D01*
X36195Y4572D02*X36703D01*
X36195D02*X36068Y4699D01*
Y4953D02*Y4699D01*
X36195Y5080D02*X36068Y4953D01*
X36195Y5080D02*X36576D01*
Y5588D02*Y4572D01*
X36373Y5080D02*X36068Y5588D01*
X35763Y5080D02*X35509Y5588D01*
X35255Y5080D02*X35509Y5588D01*
X34950Y4699D02*X34823Y4572D01*
X34442D02*X34823D01*
X34442D02*X34315Y4699D01*
Y4953D02*Y4699D01*
X34950Y5588D02*X34315Y4953D01*
Y5588D02*X34950D01*
X32766Y24130D02*X33655D01*
X32766D02*X32639Y24003D01*
Y23749D01*
X32766Y23622D01*
X33655D01*
X33452Y23317D02*X33655Y23114D01*
X32639D02*X33655D01*
X32639Y23317D02*Y22936D01*
X32893Y31115D02*X33388D01*
X33655Y30848D02*X33388Y31115D01*
X33655Y30848D02*Y29858D01*
X33388Y29591D01*
X32893D02*X33388D01*
X32436Y30924D02*X32245Y31115D01*
X32436Y30924D02*Y30620D01*
X32169Y30353D01*
X31940D02*X32169D01*
X31940D02*X31674Y30620D01*
Y30924D02*Y30620D01*
X31864Y31115D02*X31674Y30924D01*
X31864Y31115D02*X32245D01*
X32436Y30086D02*X32169Y30353D01*
X32436Y30086D02*Y29782D01*
X32245Y29591D01*
X31864D02*X32245D01*
X31864D02*X31674Y29782D01*
Y30086D02*Y29782D01*
X31940Y30353D02*X31674Y30086D01*
X11938Y26276D02*Y25781D01*
X12205Y26543D02*X11938Y26276D01*
X12205Y26543D02*X13195D01*
X13462Y26276D01*
Y25781D01*
X13157Y25324D02*X13462Y25019D01*
X11938D02*X13462D01*
X11938Y25324D02*Y24752D01*
X13157Y24295D02*X13462Y23990D01*
X11938D02*X13462D01*
X11938Y24295D02*Y23724D01*
X19431Y4572D02*X19939D01*
X19431D02*X19304Y4699D01*
Y4953D02*Y4699D01*
X19431Y5080D02*X19304Y4953D01*
X19431Y5080D02*X19812D01*
Y5588D02*Y4572D01*
X19609Y5080D02*X19304Y5588D01*
X18999Y5080D02*X18745Y5588D01*
X18491Y5080D02*X18745Y5588D01*
X18186Y4775D02*X17983Y4572D01*
Y5588D02*Y4572D01*
X17805Y5588D02*X18186D01*
X7747Y37846D02*X7874Y37719D01*
X7366Y37846D02*X7747D01*
X7239Y37719D02*X7366Y37846D01*
X7239Y37719D02*Y37465D01*
X7366Y37338D01*
X7747D01*
X7874Y37211D01*
Y36957D01*
X7747Y36830D02*X7874Y36957D01*
X7366Y36830D02*X7747D01*
X7239Y36957D02*X7366Y36830D01*
X8179Y37643D02*X8382Y37846D01*
Y36830D01*
X8179D02*X8560D01*
X30099Y34417D02*X30594D01*
X30861Y34150D02*X30594Y34417D01*
X30861Y34150D02*Y33160D01*
X30594Y32893D01*
X30099D02*X30594D01*
X29451Y34417D02*X28880Y33655D01*
Y33084D01*
X29070Y32893D02*X28880Y33084D01*
X29070Y32893D02*X29451D01*
X29642Y33084D02*X29451Y32893D01*
X29642Y33464D02*Y33084D01*
Y33464D02*X29451Y33655D01*
X28880D02*X29451D01*
X22327Y33071D02*X22835D01*
X22327D02*X22200Y33198D01*
Y33452D02*Y33198D01*
X22327Y33579D02*X22200Y33452D01*
X22327Y33579D02*X22708D01*
Y34087D02*Y33071D01*
X22504Y33579D02*X22200Y34087D01*
X21387Y33071D02*X21895D01*
Y33579D02*Y33071D01*
Y33579D02*X21768Y33452D01*
X21514D02*X21768D01*
X21514D02*X21387Y33579D01*
Y33960D02*Y33579D01*
X21514Y34087D02*X21387Y33960D01*
X21514Y34087D02*X21768D01*
X21895Y33960D02*X21768Y34087D01*
X22479Y9398D02*Y8890D01*
Y9398D02*X22606Y9525D01*
X22860D01*
X22987Y9398D02*X22860Y9525D01*
X22987Y9398D02*Y9017D01*
X22479D02*X23495D01*
X22987Y9220D02*X23495Y9525D01*
X22682Y9830D02*X22479Y10033D01*
X23495D01*
Y10211D02*Y9830D01*
X24270Y16383D02*X24765D01*
X24003Y16650D02*X24270Y16383D01*
X24003Y17640D02*Y16650D01*
Y17640D02*X24270Y17907D01*
X24765D01*
X25222Y17602D02*X25527Y17907D01*
Y16383D01*
X25222D02*X25794D01*
X22860Y30607D02*X23368D01*
X23495Y30480D01*
Y30226D01*
X23368Y30099D02*X23495Y30226D01*
X22987Y30099D02*X23368D01*
X22987Y30607D02*Y29591D01*
X23190Y30099D02*X23495Y29591D01*
X23800Y29972D02*X24308Y30607D01*
X23800Y29972D02*X24435D01*
X24308Y30607D02*Y29591D01*
X17272Y47498D02*X17780D01*
X17907Y47371D01*
Y47117D01*
X17780Y46990D02*X17907Y47117D01*
X17399Y46990D02*X17780D01*
X17399Y47498D02*Y46482D01*
X17602Y46990D02*X17907Y46482D01*
X18339D02*X18720Y46990D01*
Y47371D02*Y46990D01*
X18593Y47498D02*X18720Y47371D01*
X18339Y47498D02*X18593D01*
X18212Y47371D02*X18339Y47498D01*
X18212Y47371D02*Y47117D01*
X18339Y46990D01*
X18720D01*
X26302Y46101D02*X26797D01*
X26035Y46368D02*X26302Y46101D01*
X26035Y47358D02*Y46368D01*
Y47358D02*X26302Y47625D01*
X26797D01*
X27826D02*X28016Y47434D01*
X27445Y47625D02*X27826D01*
X27254Y47434D02*X27445Y47625D01*
X27254Y47434D02*Y46292D01*
X27445Y46101D01*
X27826Y46939D02*X28016Y46749D01*
X27254Y46939D02*X27826D01*
X27445Y46101D02*X27826D01*
X28016Y46292D01*
Y46749D02*Y46292D01*
X25019Y53086D02*X25908D01*
X26035Y53213D01*
Y53467D02*Y53213D01*
Y53467D02*X25908Y53594D01*
X25019D02*X25908D01*
X25146Y53899D02*X25019Y54026D01*
Y54280D02*Y54026D01*
Y54280D02*X25146Y54407D01*
X26035Y54280D02*X25908Y54407D01*
X26035Y54280D02*Y54026D01*
X25908Y53899D02*X26035Y54026D01*
X25476Y54280D02*Y54026D01*
X25146Y54407D02*X25349D01*
X25603D02*X25908D01*
X25603D02*X25476Y54280D01*
X25349Y54407D02*X25476Y54280D01*
X55626Y44958D02*X55829D01*
X55626Y45847D02*Y44958D01*
X55753Y45974D02*X55626Y45847D01*
X55753Y45974D02*X55880D01*
X56007Y45847D02*X55880Y45974D01*
X56007Y45847D02*Y45720D01*
X55321Y45085D02*X55194Y44958D01*
X54813D02*X55194D01*
X54813D02*X54686Y45085D01*
Y45339D02*Y45085D01*
X55321Y45974D02*X54686Y45339D01*
Y45974D02*X55321D01*
X49149Y51943D02*Y51181D01*
Y51943D02*X49276Y52070D01*
X49530D01*
X49657Y51943D01*
Y51308D01*
X49403Y51054D02*X49657Y51308D01*
X49276Y51054D02*X49403D01*
X49149Y51181D02*X49276Y51054D01*
X49403Y51435D02*X49657Y51054D01*
X49962Y51867D02*X50165Y52070D01*
Y51054D01*
X49962D02*X50343D01*
X48895Y57023D02*Y56261D01*
Y57023D02*X49022Y57150D01*
X49276D01*
X49403Y57023D01*
Y56388D01*
X49149Y56134D02*X49403Y56388D01*
X49022Y56134D02*X49149D01*
X48895Y56261D02*X49022Y56134D01*
X49149Y56515D02*X49403Y56134D01*
X49708Y57023D02*X49835Y57150D01*
X50216D01*
X50343Y57023D01*
Y56769D01*
X49708Y56134D02*X50343Y56769D01*
X49708Y56134D02*X50343D01*
X40005Y27178D02*Y26670D01*
X39878Y26543D01*
X39624D02*X39878D01*
X39497Y26670D02*X39624Y26543D01*
X39497Y27051D02*Y26670D01*
X38989Y27051D02*X40005D01*
X39497Y26848D02*X38989Y26543D01*
X39878Y26238D02*X40005Y26111D01*
Y25730D01*
X39878Y25603D01*
X39624D02*X39878D01*
X38989Y26238D02*X39624Y25603D01*
X38989Y26238D02*Y25603D01*
X46609Y18415D02*Y17920D01*
X46342Y17653D02*X46609Y17920D01*
X45352Y17653D02*X46342D01*
X45352D02*X45085Y17920D01*
Y18415D02*Y17920D01*
X46609Y19063D02*X45085Y19825D01*
Y18872D01*
X56642Y26289D02*Y25781D01*
X56515Y25654D01*
X56261D02*X56515D01*
X56134Y25781D02*X56261Y25654D01*
X56134Y26162D02*Y25781D01*
X55626Y26162D02*X56642D01*
X56134Y25959D02*X55626Y25654D01*
X56515Y25349D02*X56642Y25222D01*
Y24968D01*
X56515Y24841D01*
X55626Y24968D02*X55753Y24841D01*
X55626Y25222D02*Y24968D01*
X55753Y25349D02*X55626Y25222D01*
X56185D02*Y24968D01*
X56312Y24841D02*X56515D01*
X55753D02*X56058D01*
X56185Y24968D01*
X56312Y24841D02*X56185Y24968D01*
X52959Y33274D02*Y32779D01*
X52692Y32512D02*X52959Y32779D01*
X51702Y32512D02*X52692D01*
X51702D02*X51435Y32779D01*
Y33274D02*Y32779D01*
X51626Y33731D02*X51435Y33922D01*
Y34303D02*Y33922D01*
Y34303D02*X51626Y34493D01*
X52959Y34303D02*X52768Y34493D01*
X52959Y34303D02*Y33922D01*
X52768Y33731D02*X52959Y33922D01*
X52121Y34303D02*Y33922D01*
X51626Y34493D02*X51930D01*
X52311D02*X52768D01*
X52311D02*X52121Y34303D01*
X51930Y34493D02*X52121Y34303D01*
X52959Y4572D02*X53467D01*
X52959D02*X52832Y4699D01*
Y4953D02*Y4699D01*
X52959Y5080D02*X52832Y4953D01*
X52959Y5080D02*X53340D01*
Y5588D02*Y4572D01*
X53137Y5080D02*X52832Y5588D01*
X52527Y5080D02*X52273Y5588D01*
X52019Y5080D02*X52273Y5588D01*
X51714Y4699D02*X51587Y4572D01*
X51333D02*X51587D01*
X51333D02*X51206Y4699D01*
X51333Y5588D02*X51206Y5461D01*
X51333Y5588D02*X51587D01*
X51714Y5461D02*X51587Y5588D01*
X51333Y5029D02*X51587D01*
X51206Y4902D02*Y4699D01*
Y5461D02*Y5156D01*
X51333Y5029D01*
X51206Y4902D02*X51333Y5029D01*
X40132Y34417D02*Y33922D01*
X39865Y33655D02*X40132Y33922D01*
X38875Y33655D02*X39865D01*
X38875D02*X38608Y33922D01*
Y34417D02*Y33922D01*
X38798Y34874D02*X38608Y35065D01*
Y35636D02*Y35065D01*
Y35636D02*X38798Y35827D01*
X39180D01*
X40132Y34874D02*X39180Y35827D01*
X40132D02*Y34874D01*
X45339Y51689D02*Y51194D01*
X45072Y50927D02*X45339Y51194D01*
X44082Y50927D02*X45072D01*
X44082D02*X43815Y51194D01*
Y51689D02*Y51194D01*
X44120Y52146D02*X43815Y52451D01*
X45339D01*
Y52718D02*Y52146D01*
X44006Y53175D02*X43815Y53365D01*
Y53746D02*Y53365D01*
Y53746D02*X44006Y53937D01*
X45339Y53746D02*X45148Y53937D01*
X45339Y53746D02*Y53365D01*
X45148Y53175D02*X45339Y53365D01*
X44501Y53746D02*Y53365D01*
X44006Y53937D02*X44310D01*
X44691D02*X45148D01*
X44691D02*X44501Y53746D01*
X44310Y53937D02*X44501Y53746D01*
X45390Y42545D02*X45720D01*
X45212Y42723D02*X45390Y42545D01*
X45212Y43383D02*Y42723D01*
Y43383D02*X45390Y43561D01*
X45720D01*
X46025Y43358D02*X46228Y43561D01*
Y42545D01*
X46025D02*X46406D01*
X46711Y43434D02*X46838Y43561D01*
X47219D01*
X47346Y43434D01*
Y43180D01*
X46711Y42545D02*X47346Y43180D01*
X46711Y42545D02*X47346D01*
X45339Y42672D02*Y41783D01*
X45466Y41656D01*
X45720D01*
X45847Y41783D01*
Y42672D02*Y41783D01*
X46152Y42545D02*X46279Y42672D01*
X46660D01*
X46787Y42545D01*
Y42291D01*
X46152Y41656D02*X46787Y42291D01*
X46152Y41656D02*X46787D01*
M02*
