<svg xmlns="http://www.w3.org/2000/svg" width="525" height="80"><g><path fill="#ea0029" d="M66.94 29.5H53.07a6 6 0 0 0-6.18 5.77v31.38h-9.3l-.02-45.4H12.87v-9H37.6v9h29.34v8.25zM80 0H0v80h80z"/><path fill="#003da6" d="M242.67 23.5h-12.53v37.36h-7.52V23.5h-12.54V17h32.6zM189.34 35.5l16.5 25.38h-9.1L184.4 41.8l-4.83 6.2v12.85h-7.52V16.98h7.52v20.06h.3l15.68-20.06h8.2zm-27.5 25.38h-27.6V17h26.96v6.5h-19.42v12.04h18.17v6.5h-18.17v12.3h20.05zM125.16 23.5H107v12.04h16.92v6.5H107v18.8h-7.53V17h25.7v6.53zM258.47 0H82v80h176.48z"/><path fill="none" stroke="#003da6" stroke-width="1.951" d="M257.68 52.68h143.4v26.34H257.7z"/><path fill="none" stroke="#003da6" stroke-width="1.951" d="M257.68 26.34h265.36v26.34H257.68z"/><path fill="none" stroke="#003da6" stroke-width="1.951" d="M257.68.98h67.3v25.36h-67.3z"/><path fill="#003da6" d="M270.9 59.9h-2.16l-4.24 12.3h2l1.04-3.1h4.38l1.03 3.1h2.2zm.42 7.36h-3.18l1.56-4.65h.07zm18.05-7.36h-7.55v12.3h7.72v-1.83h-5.62v-3.44h5.1V65.1h-5.1v-3.37h5.45zm9.84 10.47h-5.1V59.9H292v12.3h7.2zm9.75-10.47h-7.55v12.3h7.73v-1.83h-5.62v-3.44h5.1V65.1h-5.1v-3.37h5.45zm7.54 5.18l4.02-5.18h-2.3l-4.4 5.62h-.07V59.9h-2.1v12.3h2.1v-3.6l1.35-1.74 3.45 5.34h2.55zm8.96 7.12h2.1V61.73h3.52V59.9h-9.13v1.83h3.5zm14.2 0h2.3l-2.52-4.83a2.82 2.82 0 0 0 2.18-2.9V62.9a2.84 2.84 0 0 0-3-3h-5.6v12.3h2.1v-4.75h2.05zm-4.54-10.47h3.34a1 1 0 0 1 1.05 1.05v1.8a1 1 0 0 1-1.04 1.05h-3.34zM350.4 72.2a2.84 2.84 0 0 0 2.98-3v-6.3a2.84 2.84 0 0 0-2.98-3h-3.16a2.84 2.84 0 0 0-3 3v6.3a2.84 2.84 0 0 0 3 3zm-.18-1.83h-2.8a1 1 0 0 1-1.06-1.05v-6.54a1 1 0 0 1 1.05-1.06h2.82a1 1 0 0 1 1.05 1.06v6.54a1 1 0 0 1-1.05 1.05zm8.25 1.83v-8.42h.07l4.85 8.42h2.1V59.9h-2.1v8.4h-.08l-4.85-8.4h-2.1v12.3zm12.12-12.3h-2.12v12.3h2.1zm7.88 5.18l4.03-5.18h-2.3l-4.38 5.62h-.1V59.9h-2.1v12.3h2.1v-3.6l1.37-1.74 3.45 5.34h2.54zm9.9-.14l-2.72-5.04h-2.42l3.98 7.08v5.22h2.1v-5.22l4.2-7.08h-2.2l-2.87 5.04z"/><path fill="#003da6" d="M268.47 45.85h2.18l3.97-12.3h-2l-2.93 9.4h-.08l-2.92-9.4h-2.2zm12-7.25l-2.72-5.04h-2.43l4 7.08v5.2h2.1v-5.2l4.18-7.08h-2.2l-2.86 5.04zm.7-5.62l2.15-2.32h-2.3l-1.48 2.32zm11.08 5.76l4.04-5.18H294l-4.4 5.62h-.1v-5.62h-2.1v12.3h2.1v-3.6l1.36-1.74 3.46 5.33h2.55zm11.96 7.1a2.84 2.84 0 0 0 3-2.97v-6.32a2.84 2.84 0 0 0-3-3h-3.15a2.84 2.84 0 0 0-2.98 3v6.32a2.84 2.84 0 0 0 2.98 2.98zm-.16-1.8h-2.8a1 1 0 0 1-1.07-1.07v-6.53a1 1 0 0 1 1.06-1.06h2.8a1 1 0 0 1 1.06 1.06v6.53a1 1 0 0 1-1.07 1.06zm8.25 1.8v-8.4h.06l4.85 8.4h2.1V33.57h-2.1v8.4h-.06l-4.85-8.4h-2.12v12.3zm16.14 0a2.84 2.84 0 0 0 3-2.97v-6.32a2.84 2.84 0 0 0-3-3h-3.15a2.84 2.84 0 0 0-3 3v6.32a2.84 2.84 0 0 0 3 2.98zm-.17-1.8h-2.8a1 1 0 0 1-1.06-1.07v-6.53a1 1 0 0 1 1.06-1.06h2.8a1 1 0 0 1 1.06 1.06v6.53a1 1 0 0 1-1.05 1.06zm8.7 1.8h2.2l3.96-12.28h-2l-2.94 9.38h-.08l-2.9-9.38H333zm15.64-12.28h-7.54v12.3h7.72v-1.83h-5.62V40.6h5.1v-1.84h-5.1V35.4h5.45zm-3.56-.58l2.15-2.32h-2.3l-1.5 2.32zm18.5.58h-7.56v12.3h7.73v-1.83h-5.6V40.6h5.08v-1.84h-5.1V35.4h5.46zm9.83 10.47h-5.1V33.56h-2.1v12.3h7.2zm9.75-10.47h-7.56v12.3h7.73v-1.83h-5.62V40.6h5.1v-1.84h-5.1V35.4h5.44zm7.53 5.18l4.04-5.18h-2.3l-4.4 5.62h-.1v-5.62h-2.1v12.3h2.1v-3.6l1.36-1.74 3.46 5.33h2.55zm8.98 7.1h2.1V35.4h3.52v-1.84h-9.14v1.83h3.53zm14.18 0h2.33l-2.53-4.82a2.82 2.82 0 0 0 2.18-2.9v-1.57a2.84 2.84 0 0 0-3-3h-5.6v12.3h2.1V41.1h2.05zm-4.5-10.45h3.32a1 1 0 0 1 1.06 1.04v1.8a1 1 0 0 1-1.06 1.05h-3.33zm15.26 10.45a2.84 2.84 0 0 0 2.98-2.98v-6.32a2.84 2.84 0 0 0-2.98-3h-3.16a2.84 2.84 0 0 0-3 3v6.32a2.84 2.84 0 0 0 3 2.98zm-.18-1.82h-2.8a1 1 0 0 1-1.06-1.06v-6.53a1 1 0 0 1 1.06-1.06h2.8a1 1 0 0 1 1.06 1.06v6.53a1 1 0 0 1-1.06 1.06zm8.6 1.82h2.12V35.4h3.5v-1.84h-9.12v1.83h3.5zm15.12-12.3h-7.56v12.3h7.73v-1.82h-5.62V40.6h5.1v-1.84h-5.1V35.4h5.45zm9.3 8.56v.87a1 1 0 0 1-1.05 1.06h-2.46a1 1 0 0 1-1.06-1.06v-6.53a1 1 0 0 1 1.05-1.06h2.45a1 1 0 0 1 1.05 1.06v.86h2.1v-.75a2.84 2.84 0 0 0-2.98-3h-2.8a2.84 2.84 0 0 0-3 3v6.32a2.84 2.84 0 0 0 3 2.98h2.8a2.84 2.84 0 0 0 3-2.98v-.76zm6.85 3.75V40.6h4.9v5.25h2.12v-12.3h-2.1v5.2h-4.92v-5.2h-2.1v12.3zm12.1 0v-8.4h.08l4.86 8.4h2.1v-12.3h-2.1v8.42h-.08l-4.86-8.4h-2.1v12.28zm12.13-12.3h-2.1v12.3h2.1zm7.9 5.2l4.03-5.2h-2.3l-4.4 5.63h-.07v-5.62h-2.1v12.3h2.1v-3.6l1.35-1.74 3.46 5.33h2.54zm9.9-.15l-2.73-5.04h-2.42l3.98 7.08v5.2h2.12v-5.2l4.18-7.08h-2.2l-2.86 5.04z"/><path fill="#003da6" d="M272.58 17.6a1 1 0 0 1-1.05 1.06h-2.8a1 1 0 0 1-1.06-1.05V8.2h-2.1v9.3a2.84 2.84 0 0 0 2.97 3h3.16a2.84 2.84 0 0 0 3-3V8.2h-2.12zm-2.07-9.98l2.16-2.32h-2.3l-1.48 2.32zm12.62 7.6a1 1 0 0 1 1.05 1.05v1.34a1 1 0 0 1-1.05 1.06h-2.46a1 1 0 0 1-1.05-1.05v-.85h-2.1v.75a2.84 2.84 0 0 0 3 3h2.8a2.84 2.84 0 0 0 2.98-3v-1.12a2.84 2.84 0 0 0-2.98-3h-2.46a1 1 0 0 1-1.06-1.04v-1.27a1 1 0 0 1 1.06-1.05h2.2a1 1 0 0 1 1.05 1.05v.86h2.1v-.75a2.84 2.84 0 0 0-3-2.98h-2.54a2.84 2.84 0 0 0-2.98 2.98v1.05a2.84 2.84 0 0 0 2.98 3zm8.43 5.27h2.1V10h3.52V8.2h-9.13v1.82h3.5zm11.5-12.3h-2.18l-4.23 12.3h2l1.04-3.12h4.37l1.04 3.1h2.2zm.4 7.35h-3.17l1.56-4.65h.07zm7.63 4.94h2.17l3.97-12.3h-2l-2.93 9.37h-.08L309.3 8.2h-2.2z"/></g></svg>