G04 start of page 9 for group 7 idx 7 *
G04 Title: (unknown), spare *
G04 Creator: pcb-gtk 20140316 *
G04 CreationDate: Tue 27 Oct 2015 07:07:31 AM GMT UTC *
G04 For: janik *
G04 Format: Gerber/RS-274X *
G04 PCB-Dimensions (mm): 45.72 38.10 *
G04 PCB-Coordinate-Origin: lower left *
%MOMM*%
%FSLAX43Y43*%
%LNG7*%
%ADD144C,0.762*%
%ADD143C,1.194*%
%ADD142C,1.397*%
%ADD141C,0.889*%
%ADD140C,0.711*%
%ADD139C,1.016*%
%ADD138C,1.067*%
%ADD137C,0.965*%
%ADD136C,1.270*%
%ADD135C,1.143*%
%ADD134C,2.540*%
%ADD133C,1.651*%
%ADD132C,2.032*%
%ADD131C,2.413*%
%ADD130C,2.286*%
%ADD129C,1.829*%
%ADD128C,1.524*%
%ADD127C,0.002*%
G54D127*G36*
X16256Y29210D02*Y27686D01*
X17780D01*
Y29210D01*
X16256D01*
G37*
G54D128*X17018Y30988D03*
G54D127*G36*
X10389Y32156D02*Y30328D01*
X12217D01*
Y32156D01*
X10389D01*
G37*
G54D129*X11303Y28702D03*
Y26162D03*
G54D130*X19939Y31115D03*
G54D127*G36*
X23942Y34080D02*Y31667D01*
X26355D01*
Y34080D01*
X23942D01*
G37*
G54D131*X17964Y25690D03*
G54D130*X42545Y12827D03*
Y20955D03*
G54D128*X34925Y18542D03*
X42545D03*
X34925Y15875D03*
X42545D03*
G54D130*Y35560D03*
G54D127*G36*
X39243Y23241D02*Y21717D01*
X40767D01*
Y23241D01*
X39243D01*
G37*
G54D128*X37465Y22479D03*
G54D127*G36*
X28321Y27813D02*Y25781D01*
X30353D01*
Y27813D01*
X28321D01*
G37*
G54D132*X29337Y20447D03*
G54D130*X39370Y10668D03*
G54D127*G36*
X31496Y11684D02*Y9652D01*
X33528D01*
Y11684D01*
X31496D01*
G37*
G36*
X19558Y5334D02*Y3302D01*
X21590D01*
Y5334D01*
X19558D01*
G37*
G54D130*X18034Y4318D03*
X15494D03*
X25146Y2159D03*
G54D132*X26162Y10668D03*
X10287Y9398D03*
X2667D03*
G54D130*X21336Y11303D03*
G54D127*G36*
X14605Y23749D02*Y21971D01*
X16383D01*
Y23749D01*
X14605D01*
G37*
G54D129*X16764Y17907D03*
X14224D03*
G54D132*X17780Y22860D03*
X20066D03*
X10287Y17018D03*
X7747D03*
X5207D03*
X2667D03*
G54D127*G36*
X15875Y14859D02*Y13081D01*
X17653D01*
Y14859D01*
X15875D01*
G37*
G54D132*X19050Y13970D03*
X21336D03*
G54D127*G36*
X18390Y18821D02*Y16993D01*
X20218D01*
Y18821D01*
X18390D01*
G37*
G36*
X11366Y21018D02*Y19622D01*
X12764D01*
Y21018D01*
X11366D01*
G37*
G54D133*X22225Y20320D03*
G54D134*X7620Y35560D03*
X33401D03*
G54D135*G54D136*G54D137*G54D138*G54D139*G54D135*G54D139*G54D140*G54D139*G54D137*G54D141*G54D139*G54D141*G54D142*G54D136*G54D139*G54D141*G54D139*G54D143*G54D138*G54D139*G54D143*G54D138*G54D144*M02*
