G04 start of page 11 for group -4063 idx -4063 *
G04 Title: (unknown), componentmask *
G04 Creator: pcb-gtk 20140316 *
G04 CreationDate: Tue 27 Oct 2015 07:07:31 AM GMT UTC *
G04 For: janik *
G04 Format: Gerber/RS-274X *
G04 PCB-Dimensions (mm): 45.72 38.10 *
G04 PCB-Coordinate-Origin: lower left *
%MOMM*%
%FSLAX43Y43*%
%LNGTS*%
%ADD163C,2.692*%
%ADD162C,1.803*%
%ADD161C,2.184*%
%ADD160C,1.524*%
%ADD159C,2.565*%
%ADD158C,2.438*%
%ADD157C,1.981*%
%ADD156C,1.676*%
%ADD155C,0.002*%
G54D155*G36*
X16180Y29286D02*Y27610D01*
X17856D01*
Y29286D01*
X16180D01*
G37*
G54D156*X17018Y30988D03*
G54D155*G36*
X10312Y32233D02*Y30251D01*
X12294D01*
Y32233D01*
X10312D01*
G37*
G54D157*X11303Y28702D03*
Y26162D03*
G54D158*X19939Y31115D03*
G54D155*G36*
X23866Y34157D02*Y31591D01*
X26431D01*
Y34157D01*
X23866D01*
G37*
G54D159*X17964Y25690D03*
G54D158*X42545Y12827D03*
Y20955D03*
G54D160*X34925Y18542D03*
X42545D03*
X34925Y15875D03*
X42545D03*
G54D158*Y35560D03*
G54D155*G36*
X39167Y23317D02*Y21641D01*
X40843D01*
Y23317D01*
X39167D01*
G37*
G54D156*X37465Y22479D03*
G54D155*G36*
X28245Y27889D02*Y25705D01*
X30429D01*
Y27889D01*
X28245D01*
G37*
G54D161*X29337Y20447D03*
G54D158*X39370Y10668D03*
G54D155*G36*
X31420Y11760D02*Y9576D01*
X33604D01*
Y11760D01*
X31420D01*
G37*
G36*
X19482Y5410D02*Y3226D01*
X21666D01*
Y5410D01*
X19482D01*
G37*
G54D158*X18034Y4318D03*
X15494D03*
X25146Y2159D03*
G54D161*X26162Y10668D03*
X10287Y9398D03*
X2667D03*
G54D158*X21336Y11303D03*
G54D155*G36*
X14529Y23825D02*Y21895D01*
X16459D01*
Y23825D01*
X14529D01*
G37*
G54D157*X16764Y17907D03*
X14224D03*
G54D161*X17780Y22860D03*
X20066D03*
X10287Y17018D03*
X7747D03*
X5207D03*
X2667D03*
G54D155*G36*
X15799Y14935D02*Y13005D01*
X17729D01*
Y14935D01*
X15799D01*
G37*
G54D161*X19050Y13970D03*
X21336D03*
G54D155*G36*
X18313Y18898D02*Y16916D01*
X20295D01*
Y18898D01*
X18313D01*
G37*
G36*
X11290Y21095D02*Y19545D01*
X12840D01*
Y21095D01*
X11290D01*
G37*
G54D162*X22225Y20320D03*
G54D163*X7620Y35560D03*
X33401D03*
M02*
