G04 start of page 12 for group -4062 idx -4062 *
G04 Title: (unknown), soldermask *
G04 Creator: pcb-gtk 20140316 *
G04 CreationDate: Tue 27 Oct 2015 07:07:31 AM GMT UTC *
G04 For: janik *
G04 Format: Gerber/RS-274X *
G04 PCB-Dimensions (mm): 45.72 38.10 *
G04 PCB-Coordinate-Origin: lower left *
%MOMM*%
%FSLAX43Y43*%
%LNGBS*%
%ADD177R,1.816X1.816*%
%ADD176R,1.676X1.676*%
%ADD175R,1.422X1.422*%
%ADD174R,1.452X1.452*%
%ADD173R,1.198X1.198*%
%ADD172C,2.692*%
%ADD171C,1.803*%
%ADD170C,2.184*%
%ADD169C,1.524*%
%ADD168C,2.565*%
%ADD167C,2.438*%
%ADD166C,1.981*%
%ADD165C,1.676*%
%ADD164C,0.002*%
G54D164*G36*
X16180Y29286D02*Y27610D01*
X17856D01*
Y29286D01*
X16180D01*
G37*
G54D165*X17018Y30988D03*
G54D164*G36*
X10312Y32233D02*Y30251D01*
X12294D01*
Y32233D01*
X10312D01*
G37*
G54D166*X11303Y28702D03*
Y26162D03*
G54D167*X19939Y31115D03*
G54D164*G36*
X23866Y34157D02*Y31591D01*
X26431D01*
Y34157D01*
X23866D01*
G37*
G54D168*X17964Y25690D03*
G54D167*X42545Y12827D03*
Y20955D03*
G54D169*X34925Y18542D03*
X42545D03*
X34925Y15875D03*
X42545D03*
G54D167*Y35560D03*
G54D164*G36*
X39167Y23317D02*Y21641D01*
X40843D01*
Y23317D01*
X39167D01*
G37*
G54D165*X37465Y22479D03*
G54D164*G36*
X28245Y27889D02*Y25705D01*
X30429D01*
Y27889D01*
X28245D01*
G37*
G54D170*X29337Y20447D03*
G54D167*X39370Y10668D03*
G54D164*G36*
X31420Y11760D02*Y9576D01*
X33604D01*
Y11760D01*
X31420D01*
G37*
G36*
X19482Y5410D02*Y3226D01*
X21666D01*
Y5410D01*
X19482D01*
G37*
G54D167*X18034Y4318D03*
X15494D03*
X25146Y2159D03*
G54D170*X26162Y10668D03*
X10287Y9398D03*
X2667D03*
G54D167*X21336Y11303D03*
G54D164*G36*
X14529Y23825D02*Y21895D01*
X16459D01*
Y23825D01*
X14529D01*
G37*
G54D166*X16764Y17907D03*
X14224D03*
G54D170*X17780Y22860D03*
X20066D03*
X10287Y17018D03*
X7747D03*
X5207D03*
X2667D03*
G54D164*G36*
X15799Y14935D02*Y13005D01*
X17729D01*
Y14935D01*
X15799D01*
G37*
G54D170*X19050Y13970D03*
X21336D03*
G54D164*G36*
X18313Y18898D02*Y16916D01*
X20295D01*
Y18898D01*
X18313D01*
G37*
G36*
X11290Y21095D02*Y19545D01*
X12840D01*
Y21095D01*
X11290D01*
G37*
G54D171*X22225Y20320D03*
G54D172*X7620Y35560D03*
X33401D03*
G54D173*X7112Y20493D02*Y19893D01*
X4112Y20493D02*Y19893D01*
G54D174*X9168Y22271D02*Y21671D01*
G54D175*X9017Y24511D02*Y24257D01*
G54D174*X12168Y22271D02*Y21671D01*
G54D173*X7193Y27305D02*X7793D01*
G54D174*X14051Y27178D02*X14651D01*
G54D173*X7193Y30305D02*X7793D01*
G54D174*X14051Y30178D02*X14651D01*
X4145Y29718D02*X4745D01*
X4145Y26718D02*X4745D01*
G54D176*X1651Y24511D02*X1905D01*
X1651Y27559D02*X1905D01*
G54D175*X5969Y24511D02*Y24257D01*
G54D174*X23322Y4366D02*X23922D01*
X23322Y7366D02*X23922D01*
G54D177*X30734Y3352D02*Y1552D01*
X7874Y3339D02*Y1539D01*
Y8139D02*Y6339D01*
G54D174*X15034Y2205D02*Y1605D01*
X16431Y11476D02*Y10876D01*
X19431Y11476D02*Y10876D01*
X18034Y2205D02*Y1605D01*
G54D173*X24465Y24003D02*X25065D01*
X24465Y21003D02*X25065D01*
X26751Y24003D02*X27351D01*
X26751Y21003D02*X27351D01*
G54D174*X39451Y17629D02*X40051D01*
X39451Y14629D02*X40051D01*
X29162Y13508D02*Y12908D01*
X26162Y13508D02*Y12908D01*
G54D177*X30734Y8152D02*Y6352D01*
M02*
