G04 start of page 11 for group -3984 idx -3984 *
G04 Title: (unknown), fab *
G04 Creator: pcb 4.0.2 *
G04 CreationDate: Mon Dec  4 09:25:57 2017 UTC *
G04 For: janik *
G04 Format: Gerber/RS-274X *
G04 PCB-Dimensions (mil): 2500.00 2500.00 *
G04 PCB-Coordinate-Origin: lower left *
%MOIN*%
%FSLAX25Y25*%
%LNFAB*%
%ADD110C,0.0100*%
%ADD109C,0.0075*%
%ADD108C,0.0080*%
%ADD107C,0.0060*%
G54D107*X0Y250000D02*Y0D01*
X250000D01*
Y250000D01*
X0D01*
G54D108*X17600Y22400D02*X22400Y17600D01*
X17600D02*X22400Y22400D01*
X18400Y21600D02*X21600D01*
X18400D02*Y18400D01*
X21600D01*
Y21600D02*Y18400D01*
X17600Y232400D02*X22400Y227600D01*
X17600D02*X22400Y232400D01*
X18400Y231600D02*X21600D01*
X18400D02*Y228400D01*
X21600D01*
Y231600D02*Y228400D01*
X227600Y232400D02*X232400Y227600D01*
X227600D02*X232400Y232400D01*
X228400Y231600D02*X231600D01*
X228400D02*Y228400D01*
X231600D01*
Y231600D02*Y228400D01*
X227600Y22400D02*X232400Y17600D01*
X227600D02*X232400Y22400D01*
X228400Y21600D02*X231600D01*
X228400D02*Y18400D01*
X231600D01*
Y21600D02*Y18400D01*
X12600Y263650D02*X17400Y258850D01*
X12600D02*X17400Y263650D01*
X13400Y262850D02*X16600D01*
X13400D02*Y259650D01*
X16600D01*
Y262850D02*Y259650D01*
G54D107*X135000Y263500D02*X136500Y260500D01*
X138000Y263500D01*
X136500Y260500D02*Y257500D01*
X139800Y260800D02*X142050D01*
X139800Y257500D02*X142800D01*
X139800Y263500D02*Y257500D01*
Y263500D02*X142800D01*
X147600D02*X148350Y262750D01*
X145350Y263500D02*X147600D01*
X144600Y262750D02*X145350Y263500D01*
X144600Y262750D02*Y261250D01*
X145350Y260500D01*
X147600D01*
X148350Y259750D01*
Y258250D01*
X147600Y257500D02*X148350Y258250D01*
X145350Y257500D02*X147600D01*
X144600Y258250D02*X145350Y257500D01*
X98000Y259750D02*X101000Y263500D01*
X98000Y259750D02*X101750D01*
X101000Y263500D02*Y257500D01*
X45000Y258250D02*X45750Y257500D01*
X45000Y262750D02*Y258250D01*
Y262750D02*X45750Y263500D01*
X47250D01*
X48000Y262750D01*
Y258250D01*
X47250Y257500D02*X48000Y258250D01*
X45750Y257500D02*X47250D01*
X45000Y259000D02*X48000Y262000D01*
X49800Y257500D02*X50550D01*
X52350Y262300D02*X53550Y263500D01*
Y257500D01*
X52350D02*X54600D01*
X56400Y262300D02*X57600Y263500D01*
Y257500D01*
X56400D02*X58650D01*
X60450Y258250D02*X61200Y257500D01*
X60450Y259450D02*Y258250D01*
Y259450D02*X61500Y260500D01*
X62400D01*
X63450Y259450D01*
Y258250D01*
X62700Y257500D02*X63450Y258250D01*
X61200Y257500D02*X62700D01*
X60450Y261550D02*X61500Y260500D01*
X60450Y262750D02*Y261550D01*
Y262750D02*X61200Y263500D01*
X62700D01*
X63450Y262750D01*
Y261550D01*
X62400Y260500D02*X63450Y261550D01*
X144500Y20200D02*Y13800D01*
X141300Y17000D02*X147700D01*
X142900Y18600D02*X146100D01*
X142900D02*Y15400D01*
X146100D01*
Y18600D02*Y15400D01*
X124500Y20200D02*Y13800D01*
X121300Y17000D02*X127700D01*
X122900Y18600D02*X126100D01*
X122900D02*Y15400D01*
X126100D01*
Y18600D02*Y15400D01*
X104500Y20200D02*Y13800D01*
X101300Y17000D02*X107700D01*
X102900Y18600D02*X106100D01*
X102900D02*Y15400D01*
X106100D01*
Y18600D02*Y15400D01*
X144500Y60200D02*Y53800D01*
X141300Y57000D02*X147700D01*
X142900Y58600D02*X146100D01*
X142900D02*Y55400D01*
X146100D01*
Y58600D02*Y55400D01*
X104500Y60200D02*Y53800D01*
X101300Y57000D02*X107700D01*
X102900Y58600D02*X106100D01*
X102900D02*Y55400D01*
X106100D01*
Y58600D02*Y55400D01*
X78500Y20200D02*Y13800D01*
X75300Y17000D02*X81700D01*
X76900Y18600D02*X80100D01*
X76900D02*Y15400D01*
X80100D01*
Y18600D02*Y15400D01*
X58500Y20200D02*Y13800D01*
X55300Y17000D02*X61700D01*
X56900Y18600D02*X60100D01*
X56900D02*Y15400D01*
X60100D01*
Y18600D02*Y15400D01*
X38500Y20200D02*Y13800D01*
X35300Y17000D02*X41700D01*
X36900Y18600D02*X40100D01*
X36900D02*Y15400D01*
X40100D01*
Y18600D02*Y15400D01*
X78500Y60200D02*Y53800D01*
X75300Y57000D02*X81700D01*
X76900Y58600D02*X80100D01*
X76900D02*Y55400D01*
X80100D01*
Y58600D02*Y55400D01*
X38500Y60200D02*Y53800D01*
X35300Y57000D02*X41700D01*
X36900Y58600D02*X40100D01*
X36900D02*Y55400D01*
X40100D01*
Y58600D02*Y55400D01*
X210500Y20200D02*Y13800D01*
X207300Y17000D02*X213700D01*
X208900Y18600D02*X212100D01*
X208900D02*Y15400D01*
X212100D01*
Y18600D02*Y15400D01*
X190500Y20200D02*Y13800D01*
X187300Y17000D02*X193700D01*
X188900Y18600D02*X192100D01*
X188900D02*Y15400D01*
X192100D01*
Y18600D02*Y15400D01*
X170500Y20200D02*Y13800D01*
X167300Y17000D02*X173700D01*
X168900Y18600D02*X172100D01*
X168900D02*Y15400D01*
X172100D01*
Y18600D02*Y15400D01*
X210500Y60200D02*Y53800D01*
X207300Y57000D02*X213700D01*
X208900Y58600D02*X212100D01*
X208900D02*Y55400D01*
X212100D01*
Y58600D02*Y55400D01*
X170500Y60200D02*Y53800D01*
X167300Y57000D02*X173700D01*
X168900Y58600D02*X172100D01*
X168900D02*Y55400D01*
X172100D01*
Y58600D02*Y55400D01*
X15000Y279450D02*Y273050D01*
X11800Y276250D02*X18200D01*
X13400Y277850D02*X16600D01*
X13400D02*Y274650D01*
X16600D01*
Y277850D02*Y274650D01*
X135000Y278500D02*X136500Y275500D01*
X138000Y278500D01*
X136500Y275500D02*Y272500D01*
X139800Y275800D02*X142050D01*
X139800Y272500D02*X142800D01*
X139800Y278500D02*Y272500D01*
Y278500D02*X142800D01*
X147600D02*X148350Y277750D01*
X145350Y278500D02*X147600D01*
X144600Y277750D02*X145350Y278500D01*
X144600Y277750D02*Y276250D01*
X145350Y275500D01*
X147600D01*
X148350Y274750D01*
Y273250D01*
X147600Y272500D02*X148350Y273250D01*
X145350Y272500D02*X147600D01*
X144600Y273250D02*X145350Y272500D01*
X98000Y277300D02*X99200Y278500D01*
Y272500D01*
X98000D02*X100250D01*
X102050Y278500D02*X105050D01*
X102050D02*Y275500D01*
X102800Y276250D01*
X104300D01*
X105050Y275500D01*
Y273250D01*
X104300Y272500D02*X105050Y273250D01*
X102800Y272500D02*X104300D01*
X102050Y273250D02*X102800Y272500D01*
X45000Y273250D02*X45750Y272500D01*
X45000Y277750D02*Y273250D01*
Y277750D02*X45750Y278500D01*
X47250D01*
X48000Y277750D01*
Y273250D01*
X47250Y272500D02*X48000Y273250D01*
X45750Y272500D02*X47250D01*
X45000Y274000D02*X48000Y277000D01*
X49800Y272500D02*X50550D01*
X52350Y273250D02*X53100Y272500D01*
X52350Y277750D02*Y273250D01*
Y277750D02*X53100Y278500D01*
X54600D01*
X55350Y277750D01*
Y273250D01*
X54600Y272500D02*X55350Y273250D01*
X53100Y272500D02*X54600D01*
X52350Y274000D02*X55350Y277000D01*
X57150Y278500D02*X60150D01*
X57150D02*Y275500D01*
X57900Y276250D01*
X59400D01*
X60150Y275500D01*
Y273250D01*
X59400Y272500D02*X60150Y273250D01*
X57900Y272500D02*X59400D01*
X57150Y273250D02*X57900Y272500D01*
X61950Y278500D02*X64950D01*
X61950D02*Y275500D01*
X62700Y276250D01*
X64200D01*
X64950Y275500D01*
Y273250D01*
X64200Y272500D02*X64950Y273250D01*
X62700Y272500D02*X64200D01*
X61950Y273250D02*X62700Y272500D01*
X65500Y234000D02*Y230800D01*
Y234000D02*X68273Y235600D01*
X65500Y234000D02*X62727Y235600D01*
X63900Y234000D02*G75*G03X67100Y234000I1600J0D01*G01*
G75*G03X63900Y234000I-1600J0D01*G01*
X65500Y204000D02*Y200800D01*
Y204000D02*X68273Y205600D01*
X65500Y204000D02*X62727Y205600D01*
X63900Y204000D02*G75*G03X67100Y204000I1600J0D01*G01*
G75*G03X63900Y204000I-1600J0D01*G01*
X15000Y291250D02*Y288050D01*
Y291250D02*X17773Y292850D01*
X15000Y291250D02*X12227Y292850D01*
X13400Y291250D02*G75*G03X16600Y291250I1600J0D01*G01*
G75*G03X13400Y291250I-1600J0D01*G01*
X135000Y293500D02*X136500Y290500D01*
X138000Y293500D01*
X136500Y290500D02*Y287500D01*
X139800Y290800D02*X142050D01*
X139800Y287500D02*X142800D01*
X139800Y293500D02*Y287500D01*
Y293500D02*X142800D01*
X147600D02*X148350Y292750D01*
X145350Y293500D02*X147600D01*
X144600Y292750D02*X145350Y293500D01*
X144600Y292750D02*Y291250D01*
X145350Y290500D01*
X147600D01*
X148350Y289750D01*
Y288250D01*
X147600Y287500D02*X148350Y288250D01*
X145350Y287500D02*X147600D01*
X144600Y288250D02*X145350Y287500D01*
X98000Y292750D02*X98750Y293500D01*
X101000D01*
X101750Y292750D01*
Y291250D01*
X98000Y287500D02*X101750Y291250D01*
X98000Y287500D02*X101750D01*
X45000Y288250D02*X45750Y287500D01*
X45000Y292750D02*Y288250D01*
Y292750D02*X45750Y293500D01*
X47250D01*
X48000Y292750D01*
Y288250D01*
X47250Y287500D02*X48000Y288250D01*
X45750Y287500D02*X47250D01*
X45000Y289000D02*X48000Y292000D01*
X49800Y287500D02*X50550D01*
X52350Y288250D02*X53100Y287500D01*
X52350Y292750D02*Y288250D01*
Y292750D02*X53100Y293500D01*
X54600D01*
X55350Y292750D01*
Y288250D01*
X54600Y287500D02*X55350Y288250D01*
X53100Y287500D02*X54600D01*
X52350Y289000D02*X55350Y292000D01*
X57150Y293500D02*X60150D01*
X57150D02*Y290500D01*
X57900Y291250D01*
X59400D01*
X60150Y290500D01*
Y288250D01*
X59400Y287500D02*X60150Y288250D01*
X57900Y287500D02*X59400D01*
X57150Y288250D02*X57900Y287500D01*
X61950Y288250D02*X62700Y287500D01*
X61950Y292750D02*Y288250D01*
Y292750D02*X62700Y293500D01*
X64200D01*
X64950Y292750D01*
Y288250D01*
X64200Y287500D02*X64950Y288250D01*
X62700Y287500D02*X64200D01*
X61950Y289000D02*X64950Y292000D01*
X183900Y198600D02*X187100D01*
X183900D02*Y195400D01*
X187100D01*
Y198600D02*Y195400D01*
X193900Y198600D02*X197100D01*
X193900D02*Y195400D01*
X197100D01*
Y198600D02*Y195400D01*
X203900Y198600D02*X207100D01*
X203900D02*Y195400D01*
X207100D01*
Y198600D02*Y195400D01*
X183900Y218600D02*X187100D01*
X183900D02*Y215400D01*
X187100D01*
Y218600D02*Y215400D01*
X193900Y218600D02*X197100D01*
X193900D02*Y215400D01*
X197100D01*
Y218600D02*Y215400D01*
X203900Y218600D02*X207100D01*
X203900D02*Y215400D01*
X207100D01*
Y218600D02*Y215400D01*
X13400Y307850D02*X16600D01*
X13400D02*Y304650D01*
X16600D01*
Y307850D02*Y304650D01*
X135000Y308500D02*X136500Y305500D01*
X138000Y308500D01*
X136500Y305500D02*Y302500D01*
X139800Y305800D02*X142050D01*
X139800Y302500D02*X142800D01*
X139800Y308500D02*Y302500D01*
Y308500D02*X142800D01*
X147600D02*X148350Y307750D01*
X145350Y308500D02*X147600D01*
X144600Y307750D02*X145350Y308500D01*
X144600Y307750D02*Y306250D01*
X145350Y305500D01*
X147600D01*
X148350Y304750D01*
Y303250D01*
X147600Y302500D02*X148350Y303250D01*
X145350Y302500D02*X147600D01*
X144600Y303250D02*X145350Y302500D01*
X100250Y308500D02*X101000Y307750D01*
X98750Y308500D02*X100250D01*
X98000Y307750D02*X98750Y308500D01*
X98000Y307750D02*Y303250D01*
X98750Y302500D01*
X100250Y305800D02*X101000Y305050D01*
X98000Y305800D02*X100250D01*
X98750Y302500D02*X100250D01*
X101000Y303250D01*
Y305050D02*Y303250D01*
X45000D02*X45750Y302500D01*
X45000Y307750D02*Y303250D01*
Y307750D02*X45750Y308500D01*
X47250D01*
X48000Y307750D01*
Y303250D01*
X47250Y302500D02*X48000Y303250D01*
X45750Y302500D02*X47250D01*
X45000Y304000D02*X48000Y307000D01*
X49800Y302500D02*X50550D01*
X52350Y303250D02*X53100Y302500D01*
X52350Y307750D02*Y303250D01*
Y307750D02*X53100Y308500D01*
X54600D01*
X55350Y307750D01*
Y303250D01*
X54600Y302500D02*X55350Y303250D01*
X53100Y302500D02*X54600D01*
X52350Y304000D02*X55350Y307000D01*
X57150Y304750D02*X60150Y308500D01*
X57150Y304750D02*X60900D01*
X60150Y308500D02*Y302500D01*
X62700Y307750D02*X63450Y308500D01*
X65700D01*
X66450Y307750D01*
Y306250D01*
X62700Y302500D02*X66450Y306250D01*
X62700Y302500D02*X66450D01*
X33700Y188000D02*G75*G03X35300Y188000I800J0D01*G01*
G75*G03X33700Y188000I-800J0D01*G01*
X43700D02*G75*G03X45300Y188000I800J0D01*G01*
G75*G03X43700Y188000I-800J0D01*G01*
X214700Y197000D02*G75*G03X216300Y197000I800J0D01*G01*
G75*G03X214700Y197000I-800J0D01*G01*
Y187000D02*G75*G03X216300Y187000I800J0D01*G01*
G75*G03X214700Y187000I-800J0D01*G01*
X47700Y128000D02*G75*G03X49300Y128000I800J0D01*G01*
G75*G03X47700Y128000I-800J0D01*G01*
Y138000D02*G75*G03X49300Y138000I800J0D01*G01*
G75*G03X47700Y138000I-800J0D01*G01*
X14200Y321250D02*G75*G03X15800Y321250I800J0D01*G01*
G75*G03X14200Y321250I-800J0D01*G01*
X135000Y323500D02*X136500Y320500D01*
X138000Y323500D01*
X136500Y320500D02*Y317500D01*
X139800Y320800D02*X142050D01*
X139800Y317500D02*X142800D01*
X139800Y323500D02*Y317500D01*
Y323500D02*X142800D01*
X147600D02*X148350Y322750D01*
X145350Y323500D02*X147600D01*
X144600Y322750D02*X145350Y323500D01*
X144600Y322750D02*Y321250D01*
X145350Y320500D01*
X147600D01*
X148350Y319750D01*
Y318250D01*
X147600Y317500D02*X148350Y318250D01*
X145350Y317500D02*X147600D01*
X144600Y318250D02*X145350Y317500D01*
X100250Y323500D02*X101000Y322750D01*
X98750Y323500D02*X100250D01*
X98000Y322750D02*X98750Y323500D01*
X98000Y322750D02*Y318250D01*
X98750Y317500D01*
X100250Y320800D02*X101000Y320050D01*
X98000Y320800D02*X100250D01*
X98750Y317500D02*X100250D01*
X101000Y318250D01*
Y320050D02*Y318250D01*
X45000D02*X45750Y317500D01*
X45000Y322750D02*Y318250D01*
Y322750D02*X45750Y323500D01*
X47250D01*
X48000Y322750D01*
Y318250D01*
X47250Y317500D02*X48000Y318250D01*
X45750Y317500D02*X47250D01*
X45000Y319000D02*X48000Y322000D01*
X49800Y317500D02*X50550D01*
X52350Y318250D02*X53100Y317500D01*
X52350Y322750D02*Y318250D01*
Y322750D02*X53100Y323500D01*
X54600D01*
X55350Y322750D01*
Y318250D01*
X54600Y317500D02*X55350Y318250D01*
X53100Y317500D02*X54600D01*
X52350Y319000D02*X55350Y322000D01*
X57150Y322750D02*X57900Y323500D01*
X59400D01*
X60150Y322750D01*
X59400Y317500D02*X60150Y318250D01*
X57900Y317500D02*X59400D01*
X57150Y318250D02*X57900Y317500D01*
Y320800D02*X59400D01*
X60150Y322750D02*Y321550D01*
Y320050D02*Y318250D01*
Y320050D02*X59400Y320800D01*
X60150Y321550D02*X59400Y320800D01*
X61950Y318250D02*X62700Y317500D01*
X61950Y319450D02*Y318250D01*
Y319450D02*X63000Y320500D01*
X63900D01*
X64950Y319450D01*
Y318250D01*
X64200Y317500D02*X64950Y318250D01*
X62700Y317500D02*X64200D01*
X61950Y321550D02*X63000Y320500D01*
X61950Y322750D02*Y321550D01*
Y322750D02*X62700Y323500D01*
X64200D01*
X64950Y322750D01*
Y321550D01*
X63900Y320500D02*X64950Y321550D01*
X154300Y147700D02*X156700Y145300D01*
X154300D02*X156700Y147700D01*
X154300Y127700D02*X156700Y125300D01*
X154300D02*X156700Y127700D01*
X204800Y123200D02*X207200Y120800D01*
X204800D02*X207200Y123200D01*
X204800Y143200D02*X207200Y140800D01*
X204800D02*X207200Y143200D01*
X133800Y169200D02*X136200Y166800D01*
X133800D02*X136200Y169200D01*
X133800Y149200D02*X136200Y146800D01*
X133800D02*X136200Y149200D01*
X174300Y218200D02*X176700Y215800D01*
X174300D02*X176700Y218200D01*
X174300Y198200D02*X176700Y195800D01*
X174300D02*X176700Y198200D01*
X179800Y84700D02*X182200Y82300D01*
X179800D02*X182200Y84700D01*
X179800Y64700D02*X182200Y62300D01*
X179800D02*X182200Y64700D01*
X48800Y89200D02*X51200Y86800D01*
X48800D02*X51200Y89200D01*
X48800Y109200D02*X51200Y106800D01*
X48800D02*X51200Y109200D01*
X27300Y139200D02*X29700Y136800D01*
X27300D02*X29700Y139200D01*
X27300Y129200D02*X29700Y126800D01*
X27300D02*X29700Y129200D01*
X27300Y119200D02*X29700Y116800D01*
X27300D02*X29700Y119200D01*
X47300D02*X49700Y116800D01*
X47300D02*X49700Y119200D01*
X198300Y173700D02*X200700Y171300D01*
X198300D02*X200700Y173700D01*
X176800D02*X179200Y171300D01*
X176800D02*X179200Y173700D01*
X47300D02*X49700Y171300D01*
X47300D02*X49700Y173700D01*
X47300Y153700D02*X49700Y151300D01*
X47300D02*X49700Y153700D01*
X115800Y186200D02*X118200Y183800D01*
X115800D02*X118200Y186200D01*
X95800D02*X98200Y183800D01*
X95800D02*X98200Y186200D01*
X86300Y69200D02*X88700Y66800D01*
X86300D02*X88700Y69200D01*
X106300D02*X108700Y66800D01*
X106300D02*X108700Y69200D01*
X107300Y133200D02*X109700Y130800D01*
X107300D02*X109700Y133200D01*
X127300D02*X129700Y130800D01*
X127300D02*X129700Y133200D01*
X117300Y120200D02*X119700Y117800D01*
X117300D02*X119700Y120200D01*
X137300D02*X139700Y117800D01*
X137300D02*X139700Y120200D01*
X140800Y172200D02*X143200Y169800D01*
X140800D02*X143200Y172200D01*
X44300Y180200D02*X46700Y177800D01*
X44300D02*X46700Y180200D01*
X54800Y182200D02*X57200Y179800D01*
X54800D02*X57200Y182200D01*
X172300Y94700D02*X174700Y92300D01*
X172300D02*X174700Y94700D01*
X138800Y110200D02*X141200Y107800D01*
X138800D02*X141200Y110200D01*
X44300Y81700D02*X46700Y79300D01*
X44300D02*X46700Y81700D01*
X124300Y69200D02*X126700Y66800D01*
X124300D02*X126700Y69200D01*
X167800Y173200D02*X170200Y170800D01*
X167800D02*X170200Y173200D01*
X197300Y184700D02*X199700Y182300D01*
X197300D02*X199700Y184700D01*
X113300Y238700D02*X115700Y236300D01*
X113300D02*X115700Y238700D01*
X89300Y196700D02*X91700Y194300D01*
X89300D02*X91700Y196700D01*
X140800Y145200D02*X143200Y142800D01*
X140800D02*X143200Y145200D01*
X62800Y126700D02*X65200Y124300D01*
X62800D02*X65200Y126700D01*
X59300Y133700D02*X61700Y131300D01*
X59300D02*X61700Y133700D01*
X13800Y337450D02*X16200Y335050D01*
X13800D02*X16200Y337450D01*
X135000Y338500D02*X136500Y335500D01*
X138000Y338500D01*
X136500Y335500D02*Y332500D01*
X139800Y335800D02*X142050D01*
X139800Y332500D02*X142800D01*
X139800Y338500D02*Y332500D01*
Y338500D02*X142800D01*
X147600D02*X148350Y337750D01*
X145350Y338500D02*X147600D01*
X144600Y337750D02*X145350Y338500D01*
X144600Y337750D02*Y336250D01*
X145350Y335500D01*
X147600D01*
X148350Y334750D01*
Y333250D01*
X147600Y332500D02*X148350Y333250D01*
X145350Y332500D02*X147600D01*
X144600Y333250D02*X145350Y332500D01*
X98000Y334750D02*X101000Y338500D01*
X98000Y334750D02*X101750D01*
X101000Y338500D02*Y332500D01*
X103550Y337750D02*X104300Y338500D01*
X106550D01*
X107300Y337750D01*
Y336250D01*
X103550Y332500D02*X107300Y336250D01*
X103550Y332500D02*X107300D01*
X45000Y333250D02*X45750Y332500D01*
X45000Y337750D02*Y333250D01*
Y337750D02*X45750Y338500D01*
X47250D01*
X48000Y337750D01*
Y333250D01*
X47250Y332500D02*X48000Y333250D01*
X45750Y332500D02*X47250D01*
X45000Y334000D02*X48000Y337000D01*
X49800Y332500D02*X50550D01*
X52350Y333250D02*X53100Y332500D01*
X52350Y337750D02*Y333250D01*
Y337750D02*X53100Y338500D01*
X54600D01*
X55350Y337750D01*
Y333250D01*
X54600Y332500D02*X55350Y333250D01*
X53100Y332500D02*X54600D01*
X52350Y334000D02*X55350Y337000D01*
X57150Y337750D02*X57900Y338500D01*
X59400D01*
X60150Y337750D01*
X59400Y332500D02*X60150Y333250D01*
X57900Y332500D02*X59400D01*
X57150Y333250D02*X57900Y332500D01*
Y335800D02*X59400D01*
X60150Y337750D02*Y336550D01*
Y335050D02*Y333250D01*
Y335050D02*X59400Y335800D01*
X60150Y336550D02*X59400Y335800D01*
X61950Y338500D02*X64950D01*
X61950D02*Y335500D01*
X62700Y336250D01*
X64200D01*
X64950Y335500D01*
Y333250D01*
X64200Y332500D02*X64950Y333250D01*
X62700Y332500D02*X64200D01*
X61950Y333250D02*X62700Y332500D01*
X64500Y144600D02*Y141400D01*
X62900Y143000D02*X66100D01*
X74500Y144600D02*Y141400D01*
X72900Y143000D02*X76100D01*
X84500Y144600D02*Y141400D01*
X82900Y143000D02*X86100D01*
X94500Y144600D02*Y141400D01*
X92900Y143000D02*X96100D01*
X104500Y144600D02*Y141400D01*
X102900Y143000D02*X106100D01*
X114500Y144600D02*Y141400D01*
X112900Y143000D02*X116100D01*
X124500Y144600D02*Y141400D01*
X122900Y143000D02*X126100D01*
X124500Y174600D02*Y171400D01*
X122900Y173000D02*X126100D01*
X114500Y174600D02*Y171400D01*
X112900Y173000D02*X116100D01*
X104500Y174600D02*Y171400D01*
X102900Y173000D02*X106100D01*
X94500Y174600D02*Y171400D01*
X92900Y173000D02*X96100D01*
X84500Y174600D02*Y171400D01*
X82900Y173000D02*X86100D01*
X74500Y174600D02*Y171400D01*
X72900Y173000D02*X76100D01*
X64500Y174600D02*Y171400D01*
X62900Y173000D02*X66100D01*
X31500Y149600D02*Y146400D01*
X29900Y148000D02*X33100D01*
X31500Y179600D02*Y176400D01*
X29900Y178000D02*X33100D01*
X155500Y120600D02*Y117400D01*
X153900Y119000D02*X157100D01*
X155500Y90600D02*Y87400D01*
X153900Y89000D02*X157100D01*
X221000Y117100D02*Y113900D01*
X219400Y115500D02*X222600D01*
X221000Y87100D02*Y83900D01*
X219400Y85500D02*X222600D01*
X136500Y67600D02*Y64400D01*
X134900Y66000D02*X138100D01*
X136500Y97600D02*Y94400D01*
X134900Y96000D02*X138100D01*
X39500Y179600D02*Y176400D01*
X37900Y178000D02*X41100D01*
X39500Y149600D02*Y146400D01*
X37900Y148000D02*X41100D01*
X91000Y53600D02*Y50400D01*
X89400Y52000D02*X92600D01*
X91000Y23600D02*Y20400D01*
X89400Y22000D02*X92600D01*
X86000Y186600D02*Y183400D01*
X84400Y185000D02*X87600D01*
X56000Y186600D02*Y183400D01*
X54400Y185000D02*X57600D01*
X166500Y163600D02*Y160400D01*
X164900Y162000D02*X168100D01*
X166500Y153600D02*Y150400D01*
X164900Y152000D02*X168100D01*
X166500Y143600D02*Y140400D01*
X164900Y142000D02*X168100D01*
X166500Y133600D02*Y130400D01*
X164900Y132000D02*X168100D01*
X166500Y123600D02*Y120400D01*
X164900Y122000D02*X168100D01*
X166500Y113600D02*Y110400D01*
X164900Y112000D02*X168100D01*
X166500Y103600D02*Y100400D01*
X164900Y102000D02*X168100D01*
X196500Y103600D02*Y100400D01*
X194900Y102000D02*X198100D01*
X196500Y113600D02*Y110400D01*
X194900Y112000D02*X198100D01*
X196500Y123600D02*Y120400D01*
X194900Y122000D02*X198100D01*
X196500Y133600D02*Y130400D01*
X194900Y132000D02*X198100D01*
X196500Y143600D02*Y140400D01*
X194900Y142000D02*X198100D01*
X196500Y153600D02*Y150400D01*
X194900Y152000D02*X198100D01*
X196500Y163600D02*Y160400D01*
X194900Y162000D02*X198100D01*
X125500Y109600D02*Y106400D01*
X123900Y108000D02*X127100D01*
X115500Y109600D02*Y106400D01*
X113900Y108000D02*X117100D01*
X105500Y109600D02*Y106400D01*
X103900Y108000D02*X107100D01*
X95500Y109600D02*Y106400D01*
X93900Y108000D02*X97100D01*
X85500Y109600D02*Y106400D01*
X83900Y108000D02*X87100D01*
X75500Y109600D02*Y106400D01*
X73900Y108000D02*X77100D01*
X65500Y109600D02*Y106400D01*
X63900Y108000D02*X67100D01*
X65500Y79600D02*Y76400D01*
X63900Y78000D02*X67100D01*
X75500Y79600D02*Y76400D01*
X73900Y78000D02*X77100D01*
X85500Y79600D02*Y76400D01*
X83900Y78000D02*X87100D01*
X95500Y79600D02*Y76400D01*
X93900Y78000D02*X97100D01*
X105500Y79600D02*Y76400D01*
X103900Y78000D02*X107100D01*
X115500Y79600D02*Y76400D01*
X113900Y78000D02*X117100D01*
X125500Y79600D02*Y76400D01*
X123900Y78000D02*X127100D01*
X72000Y133600D02*Y130400D01*
X70400Y132000D02*X73600D01*
X102000Y133600D02*Y130400D01*
X100400Y132000D02*X103600D01*
X78500Y120100D02*Y116900D01*
X76900Y118500D02*X80100D01*
X111000Y120100D02*Y116900D01*
X109400Y118500D02*X112600D01*
X104500Y198600D02*Y195400D01*
X102900Y197000D02*X106100D01*
X114500Y198600D02*Y195400D01*
X112900Y197000D02*X116100D01*
X124500Y198600D02*Y195400D01*
X122900Y197000D02*X126100D01*
X134500Y198600D02*Y195400D01*
X132900Y197000D02*X136100D01*
X144500Y198600D02*Y195400D01*
X142900Y197000D02*X146100D01*
X154500Y198600D02*Y195400D01*
X152900Y197000D02*X156100D01*
X164500Y198600D02*Y195400D01*
X162900Y197000D02*X166100D01*
X164500Y228600D02*Y225400D01*
X162900Y227000D02*X166100D01*
X154500Y228600D02*Y225400D01*
X152900Y227000D02*X156100D01*
X144500Y228600D02*Y225400D01*
X142900Y227000D02*X146100D01*
X134500Y228600D02*Y225400D01*
X132900Y227000D02*X136100D01*
X124500Y228600D02*Y225400D01*
X122900Y227000D02*X126100D01*
X114500Y228600D02*Y225400D01*
X112900Y227000D02*X116100D01*
X104500Y228600D02*Y225400D01*
X102900Y227000D02*X106100D01*
X15000Y352850D02*Y349650D01*
X13400Y351250D02*X16600D01*
X135000Y353500D02*X136500Y350500D01*
X138000Y353500D01*
X136500Y350500D02*Y347500D01*
X139800Y350800D02*X142050D01*
X139800Y347500D02*X142800D01*
X139800Y353500D02*Y347500D01*
Y353500D02*X142800D01*
X147600D02*X148350Y352750D01*
X145350Y353500D02*X147600D01*
X144600Y352750D02*X145350Y353500D01*
X144600Y352750D02*Y351250D01*
X145350Y350500D01*
X147600D01*
X148350Y349750D01*
Y348250D01*
X147600Y347500D02*X148350Y348250D01*
X145350Y347500D02*X147600D01*
X144600Y348250D02*X145350Y347500D01*
X98750D02*X101750Y353500D01*
X98000D02*X101750D01*
X103550Y349750D02*X106550Y353500D01*
X103550Y349750D02*X107300D01*
X106550Y353500D02*Y347500D01*
X45000Y348250D02*X45750Y347500D01*
X45000Y352750D02*Y348250D01*
Y352750D02*X45750Y353500D01*
X47250D01*
X48000Y352750D01*
Y348250D01*
X47250Y347500D02*X48000Y348250D01*
X45750Y347500D02*X47250D01*
X45000Y349000D02*X48000Y352000D01*
X49800Y347500D02*X50550D01*
X52350Y348250D02*X53100Y347500D01*
X52350Y352750D02*Y348250D01*
Y352750D02*X53100Y353500D01*
X54600D01*
X55350Y352750D01*
Y348250D01*
X54600Y347500D02*X55350Y348250D01*
X53100Y347500D02*X54600D01*
X52350Y349000D02*X55350Y352000D01*
X57150Y352750D02*X57900Y353500D01*
X60150D01*
X60900Y352750D01*
Y351250D01*
X57150Y347500D02*X60900Y351250D01*
X57150Y347500D02*X60900D01*
X62700Y348250D02*X63450Y347500D01*
X62700Y349450D02*Y348250D01*
Y349450D02*X63750Y350500D01*
X64650D01*
X65700Y349450D01*
Y348250D01*
X64950Y347500D02*X65700Y348250D01*
X63450Y347500D02*X64950D01*
X62700Y351550D02*X63750Y350500D01*
X62700Y352750D02*Y351550D01*
Y352750D02*X63450Y353500D01*
X64950D01*
X65700Y352750D01*
Y351550D01*
X64650Y350500D02*X65700Y351550D01*
X148500Y66000D02*Y64400D01*
Y66000D02*X149887Y66800D01*
X148500Y66000D02*X147113Y66800D01*
X148500Y96000D02*Y94400D01*
Y96000D02*X149887Y96800D01*
X148500Y96000D02*X147113Y96800D01*
X15000Y366250D02*Y364650D01*
Y366250D02*X16387Y367050D01*
X15000Y366250D02*X13613Y367050D01*
X135000Y368500D02*X136500Y365500D01*
X138000Y368500D01*
X136500Y365500D02*Y362500D01*
X139800Y365800D02*X142050D01*
X139800Y362500D02*X142800D01*
X139800Y368500D02*Y362500D01*
Y368500D02*X142800D01*
X147600D02*X148350Y367750D01*
X145350Y368500D02*X147600D01*
X144600Y367750D02*X145350Y368500D01*
X144600Y367750D02*Y366250D01*
X145350Y365500D01*
X147600D01*
X148350Y364750D01*
Y363250D01*
X147600Y362500D02*X148350Y363250D01*
X145350Y362500D02*X147600D01*
X144600Y363250D02*X145350Y362500D01*
X98000Y367750D02*X98750Y368500D01*
X101000D01*
X101750Y367750D01*
Y366250D01*
X98000Y362500D02*X101750Y366250D01*
X98000Y362500D02*X101750D01*
X45000Y363250D02*X45750Y362500D01*
X45000Y367750D02*Y363250D01*
Y367750D02*X45750Y368500D01*
X47250D01*
X48000Y367750D01*
Y363250D01*
X47250Y362500D02*X48000Y363250D01*
X45750Y362500D02*X47250D01*
X45000Y364000D02*X48000Y367000D01*
X49800Y362500D02*X50550D01*
X52350Y363250D02*X53100Y362500D01*
X52350Y367750D02*Y363250D01*
Y367750D02*X53100Y368500D01*
X54600D01*
X55350Y367750D01*
Y363250D01*
X54600Y362500D02*X55350Y363250D01*
X53100Y362500D02*X54600D01*
X52350Y364000D02*X55350Y367000D01*
X57150Y367750D02*X57900Y368500D01*
X60150D01*
X60900Y367750D01*
Y366250D01*
X57150Y362500D02*X60900Y366250D01*
X57150Y362500D02*X60900D01*
X62700Y363250D02*X63450Y362500D01*
X62700Y367750D02*Y363250D01*
Y367750D02*X63450Y368500D01*
X64950D01*
X65700Y367750D01*
Y363250D01*
X64950Y362500D02*X65700Y363250D01*
X63450Y362500D02*X64950D01*
X62700Y364000D02*X65700Y367000D01*
X3000Y383500D02*X3750Y382750D01*
X750Y383500D02*X3000D01*
X0Y382750D02*X750Y383500D01*
X0Y382750D02*Y381250D01*
X750Y380500D01*
X3000D01*
X3750Y379750D01*
Y378250D01*
X3000Y377500D02*X3750Y378250D01*
X750Y377500D02*X3000D01*
X0Y378250D02*X750Y377500D01*
X5550Y380500D02*Y378250D01*
X6300Y377500D01*
X8550Y380500D02*Y376000D01*
X7800Y375250D02*X8550Y376000D01*
X6300Y375250D02*X7800D01*
X5550Y376000D02*X6300Y375250D01*
Y377500D02*X7800D01*
X8550Y378250D01*
X11100Y379750D02*Y377500D01*
Y379750D02*X11850Y380500D01*
X12600D01*
X13350Y379750D01*
Y377500D01*
Y379750D02*X14100Y380500D01*
X14850D01*
X15600Y379750D01*
Y377500D01*
X10350Y380500D02*X11100Y379750D01*
X17400Y383500D02*Y377500D01*
Y378250D02*X18150Y377500D01*
X19650D01*
X20400Y378250D01*
Y379750D02*Y378250D01*
X19650Y380500D02*X20400Y379750D01*
X18150Y380500D02*X19650D01*
X17400Y379750D02*X18150Y380500D01*
X22200Y379750D02*Y378250D01*
Y379750D02*X22950Y380500D01*
X24450D01*
X25200Y379750D01*
Y378250D01*
X24450Y377500D02*X25200Y378250D01*
X22950Y377500D02*X24450D01*
X22200Y378250D02*X22950Y377500D01*
X27000Y383500D02*Y378250D01*
X27750Y377500D01*
X0Y374250D02*X29250D01*
X41750Y383500D02*Y377500D01*
X43700Y383500D02*X44750Y382450D01*
Y378550D01*
X43700Y377500D02*X44750Y378550D01*
X41000Y377500D02*X43700D01*
X41000Y383500D02*X43700D01*
G54D109*X46550Y382000D02*Y381850D01*
G54D107*Y379750D02*Y377500D01*
X50300Y380500D02*X51050Y379750D01*
X48800Y380500D02*X50300D01*
X48050Y379750D02*X48800Y380500D01*
X48050Y379750D02*Y378250D01*
X48800Y377500D01*
X51050Y380500D02*Y378250D01*
X51800Y377500D01*
X48800D02*X50300D01*
X51050Y378250D01*
X54350Y379750D02*Y377500D01*
Y379750D02*X55100Y380500D01*
X55850D01*
X56600Y379750D01*
Y377500D01*
Y379750D02*X57350Y380500D01*
X58100D01*
X58850Y379750D01*
Y377500D01*
X53600Y380500D02*X54350Y379750D01*
X60650Y377500D02*X61400D01*
X65900Y378250D02*X66650Y377500D01*
X65900Y382750D02*X66650Y383500D01*
X65900Y382750D02*Y378250D01*
X68450Y383500D02*X69950D01*
X69200D02*Y377500D01*
X68450D02*X69950D01*
X72500Y379750D02*Y377500D01*
Y379750D02*X73250Y380500D01*
X74000D01*
X74750Y379750D01*
Y377500D01*
X71750Y380500D02*X72500Y379750D01*
X77300Y380500D02*X79550D01*
X76550Y379750D02*X77300Y380500D01*
X76550Y379750D02*Y378250D01*
X77300Y377500D01*
X79550D01*
X81350Y383500D02*Y377500D01*
Y379750D02*X82100Y380500D01*
X83600D01*
X84350Y379750D01*
Y377500D01*
X86150Y383500D02*X86900Y382750D01*
Y378250D01*
X86150Y377500D02*X86900Y378250D01*
X41000Y374250D02*X88700D01*
X96050Y377500D02*X98000D01*
X95000Y378550D02*X96050Y377500D01*
X95000Y382450D02*Y378550D01*
Y382450D02*X96050Y383500D01*
X98000D01*
X99800Y379750D02*Y378250D01*
Y379750D02*X100550Y380500D01*
X102050D01*
X102800Y379750D01*
Y378250D01*
X102050Y377500D02*X102800Y378250D01*
X100550Y377500D02*X102050D01*
X99800Y378250D02*X100550Y377500D01*
X104600Y380500D02*Y378250D01*
X105350Y377500D01*
X106850D01*
X107600Y378250D01*
Y380500D02*Y378250D01*
X110150Y379750D02*Y377500D01*
Y379750D02*X110900Y380500D01*
X111650D01*
X112400Y379750D01*
Y377500D01*
X109400Y380500D02*X110150Y379750D01*
X114950Y383500D02*Y378250D01*
X115700Y377500D01*
X114200Y381250D02*X115700D01*
X95000Y374250D02*X117200D01*
X130750Y383500D02*Y377500D01*
X130000Y383500D02*X133000D01*
X133750Y382750D01*
Y381250D01*
X133000Y380500D02*X133750Y381250D01*
X130750Y380500D02*X133000D01*
X135550Y383500D02*Y378250D01*
X136300Y377500D01*
X140050Y380500D02*X140800Y379750D01*
X138550Y380500D02*X140050D01*
X137800Y379750D02*X138550Y380500D01*
X137800Y379750D02*Y378250D01*
X138550Y377500D01*
X140800Y380500D02*Y378250D01*
X141550Y377500D01*
X138550D02*X140050D01*
X140800Y378250D01*
X144100Y383500D02*Y378250D01*
X144850Y377500D01*
X143350Y381250D02*X144850D01*
X147100Y377500D02*X149350D01*
X146350Y378250D02*X147100Y377500D01*
X146350Y379750D02*Y378250D01*
Y379750D02*X147100Y380500D01*
X148600D01*
X149350Y379750D01*
X146350Y379000D02*X149350D01*
Y379750D02*Y379000D01*
X154150Y383500D02*Y377500D01*
X153400D02*X154150Y378250D01*
X151900Y377500D02*X153400D01*
X151150Y378250D02*X151900Y377500D01*
X151150Y379750D02*Y378250D01*
Y379750D02*X151900Y380500D01*
X153400D01*
X154150Y379750D01*
X157450Y380500D02*Y379750D01*
Y378250D02*Y377500D01*
X155950Y382750D02*Y382000D01*
Y382750D02*X156700Y383500D01*
X158200D01*
X158950Y382750D01*
Y382000D01*
X157450Y380500D02*X158950Y382000D01*
X130000Y374250D02*X160750D01*
X0Y398500D02*X3000D01*
X1500D02*Y392500D01*
X4800Y398500D02*Y392500D01*
Y394750D02*X5550Y395500D01*
X7050D01*
X7800Y394750D01*
Y392500D01*
X10350D02*X12600D01*
X9600Y393250D02*X10350Y392500D01*
X9600Y394750D02*Y393250D01*
Y394750D02*X10350Y395500D01*
X11850D01*
X12600Y394750D01*
X9600Y394000D02*X12600D01*
Y394750D02*Y394000D01*
X15150Y394750D02*Y392500D01*
Y394750D02*X15900Y395500D01*
X17400D01*
X14400D02*X15150Y394750D01*
X19950Y392500D02*X22200D01*
X19200Y393250D02*X19950Y392500D01*
X19200Y394750D02*Y393250D01*
Y394750D02*X19950Y395500D01*
X21450D01*
X22200Y394750D01*
X19200Y394000D02*X22200D01*
Y394750D02*Y394000D01*
X28950Y395500D02*X29700Y394750D01*
X27450Y395500D02*X28950D01*
X26700Y394750D02*X27450Y395500D01*
X26700Y394750D02*Y393250D01*
X27450Y392500D01*
X29700Y395500D02*Y393250D01*
X30450Y392500D01*
X27450D02*X28950D01*
X29700Y393250D01*
X33000Y394750D02*Y392500D01*
Y394750D02*X33750Y395500D01*
X35250D01*
X32250D02*X33000Y394750D01*
X37800Y392500D02*X40050D01*
X37050Y393250D02*X37800Y392500D01*
X37050Y394750D02*Y393250D01*
Y394750D02*X37800Y395500D01*
X39300D01*
X40050Y394750D01*
X37050Y394000D02*X40050D01*
Y394750D02*Y394000D01*
X44550Y393250D02*X45300Y392500D01*
X44550Y394450D02*Y393250D01*
Y394450D02*X45600Y395500D01*
X46500D01*
X47550Y394450D01*
Y393250D01*
X46800Y392500D02*X47550Y393250D01*
X45300Y392500D02*X46800D01*
X44550Y396550D02*X45600Y395500D01*
X44550Y397750D02*Y396550D01*
Y397750D02*X45300Y398500D01*
X46800D01*
X47550Y397750D01*
Y396550D01*
X46500Y395500D02*X47550Y396550D01*
X55050Y398500D02*Y392500D01*
X54300D02*X55050Y393250D01*
X52800Y392500D02*X54300D01*
X52050Y393250D02*X52800Y392500D01*
X52050Y394750D02*Y393250D01*
Y394750D02*X52800Y395500D01*
X54300D01*
X55050Y394750D01*
G54D109*X56850Y397000D02*Y396850D01*
G54D107*Y394750D02*Y392500D01*
X59100Y397750D02*Y392500D01*
Y397750D02*X59850Y398500D01*
X60600D01*
X58350Y395500D02*X59850D01*
X62850Y397750D02*Y392500D01*
Y397750D02*X63600Y398500D01*
X64350D01*
X62100Y395500D02*X63600D01*
X66600Y392500D02*X68850D01*
X65850Y393250D02*X66600Y392500D01*
X65850Y394750D02*Y393250D01*
Y394750D02*X66600Y395500D01*
X68100D01*
X68850Y394750D01*
X65850Y394000D02*X68850D01*
Y394750D02*Y394000D01*
X71400Y394750D02*Y392500D01*
Y394750D02*X72150Y395500D01*
X73650D01*
X70650D02*X71400Y394750D01*
X76200Y392500D02*X78450D01*
X75450Y393250D02*X76200Y392500D01*
X75450Y394750D02*Y393250D01*
Y394750D02*X76200Y395500D01*
X77700D01*
X78450Y394750D01*
X75450Y394000D02*X78450D01*
Y394750D02*Y394000D01*
X81000Y394750D02*Y392500D01*
Y394750D02*X81750Y395500D01*
X82500D01*
X83250Y394750D01*
Y392500D01*
X80250Y395500D02*X81000Y394750D01*
X85800Y398500D02*Y393250D01*
X86550Y392500D01*
X85050Y396250D02*X86550D01*
X93750Y398500D02*Y392500D01*
X93000D02*X93750Y393250D01*
X91500Y392500D02*X93000D01*
X90750Y393250D02*X91500Y392500D01*
X90750Y394750D02*Y393250D01*
Y394750D02*X91500Y395500D01*
X93000D01*
X93750Y394750D01*
X96300D02*Y392500D01*
Y394750D02*X97050Y395500D01*
X98550D01*
X95550D02*X96300Y394750D01*
G54D109*X100350Y397000D02*Y396850D01*
G54D107*Y394750D02*Y392500D01*
X101850Y398500D02*Y393250D01*
X102600Y392500D01*
X104100Y398500D02*Y393250D01*
X104850Y392500D01*
X109800D02*X112050D01*
X112800Y393250D01*
X112050Y394000D02*X112800Y393250D01*
X109800Y394000D02*X112050D01*
X109050Y394750D02*X109800Y394000D01*
X109050Y394750D02*X109800Y395500D01*
X112050D01*
X112800Y394750D01*
X109050Y393250D02*X109800Y392500D01*
G54D109*X114600Y397000D02*Y396850D01*
G54D107*Y394750D02*Y392500D01*
X116100Y395500D02*X119100D01*
X116100Y392500D02*X119100Y395500D01*
X116100Y392500D02*X119100D01*
X121650D02*X123900D01*
X120900Y393250D02*X121650Y392500D01*
X120900Y394750D02*Y393250D01*
Y394750D02*X121650Y395500D01*
X123150D01*
X123900Y394750D01*
X120900Y394000D02*X123900D01*
Y394750D02*Y394000D01*
X126450Y392500D02*X128700D01*
X129450Y393250D01*
X128700Y394000D02*X129450Y393250D01*
X126450Y394000D02*X128700D01*
X125700Y394750D02*X126450Y394000D01*
X125700Y394750D02*X126450Y395500D01*
X128700D01*
X129450Y394750D01*
X125700Y393250D02*X126450Y392500D01*
X133950Y395500D02*Y393250D01*
X134700Y392500D01*
X136200D01*
X136950Y393250D01*
Y395500D02*Y393250D01*
X139500Y392500D02*X141750D01*
X142500Y393250D01*
X141750Y394000D02*X142500Y393250D01*
X139500Y394000D02*X141750D01*
X138750Y394750D02*X139500Y394000D01*
X138750Y394750D02*X139500Y395500D01*
X141750D01*
X142500Y394750D01*
X138750Y393250D02*X139500Y392500D01*
X145050D02*X147300D01*
X144300Y393250D02*X145050Y392500D01*
X144300Y394750D02*Y393250D01*
Y394750D02*X145050Y395500D01*
X146550D01*
X147300Y394750D01*
X144300Y394000D02*X147300D01*
Y394750D02*Y394000D01*
X152100Y398500D02*Y392500D01*
X151350D02*X152100Y393250D01*
X149850Y392500D02*X151350D01*
X149100Y393250D02*X149850Y392500D01*
X149100Y394750D02*Y393250D01*
Y394750D02*X149850Y395500D01*
X151350D01*
X152100Y394750D01*
G54D109*X156600Y397000D02*Y396850D01*
G54D107*Y394750D02*Y392500D01*
X158850Y394750D02*Y392500D01*
Y394750D02*X159600Y395500D01*
X160350D01*
X161100Y394750D01*
Y392500D01*
X158100Y395500D02*X158850Y394750D01*
X166350Y398500D02*Y393250D01*
X167100Y392500D01*
X165600Y396250D02*X167100D01*
X168600Y398500D02*Y392500D01*
Y394750D02*X169350Y395500D01*
X170850D01*
X171600Y394750D01*
Y392500D01*
G54D109*X173400Y397000D02*Y396850D01*
G54D107*Y394750D02*Y392500D01*
X175650D02*X177900D01*
X178650Y393250D01*
X177900Y394000D02*X178650Y393250D01*
X175650Y394000D02*X177900D01*
X174900Y394750D02*X175650Y394000D01*
X174900Y394750D02*X175650Y395500D01*
X177900D01*
X178650Y394750D01*
X174900Y393250D02*X175650Y392500D01*
X183150Y398500D02*Y393250D01*
X183900Y392500D01*
X187650Y395500D02*X188400Y394750D01*
X186150Y395500D02*X187650D01*
X185400Y394750D02*X186150Y395500D01*
X185400Y394750D02*Y393250D01*
X186150Y392500D01*
X188400Y395500D02*Y393250D01*
X189150Y392500D01*
X186150D02*X187650D01*
X188400Y393250D01*
X190950Y395500D02*Y393250D01*
X191700Y392500D01*
X193950Y395500D02*Y391000D01*
X193200Y390250D02*X193950Y391000D01*
X191700Y390250D02*X193200D01*
X190950Y391000D02*X191700Y390250D01*
Y392500D02*X193200D01*
X193950Y393250D01*
X195750Y394750D02*Y393250D01*
Y394750D02*X196500Y395500D01*
X198000D01*
X198750Y394750D01*
Y393250D01*
X198000Y392500D02*X198750Y393250D01*
X196500Y392500D02*X198000D01*
X195750Y393250D02*X196500Y392500D01*
X200550Y395500D02*Y393250D01*
X201300Y392500D01*
X202800D01*
X203550Y393250D01*
Y395500D02*Y393250D01*
X206100Y398500D02*Y393250D01*
X206850Y392500D01*
X205350Y396250D02*X206850D01*
X208350Y391000D02*X209850Y392500D01*
X214350Y397300D02*X215550Y398500D01*
Y392500D01*
X214350D02*X216600D01*
X218400Y398500D02*X221400D01*
X218400D02*Y395500D01*
X219150Y396250D01*
X220650D01*
X221400Y395500D01*
Y393250D01*
X220650Y392500D02*X221400Y393250D01*
X219150Y392500D02*X220650D01*
X218400Y393250D02*X219150Y392500D01*
X223200Y397300D02*X224400Y398500D01*
Y392500D01*
X223200D02*X225450D01*
X229950Y398500D02*Y392500D01*
Y394750D02*X230700Y395500D01*
X232200D01*
X232950Y394750D01*
Y392500D01*
X234750Y394750D02*Y393250D01*
Y394750D02*X235500Y395500D01*
X237000D01*
X237750Y394750D01*
Y393250D01*
X237000Y392500D02*X237750Y393250D01*
X235500Y392500D02*X237000D01*
X234750Y393250D02*X235500Y392500D01*
X239550Y398500D02*Y393250D01*
X240300Y392500D01*
X242550D02*X244800D01*
X241800Y393250D02*X242550Y392500D01*
X241800Y394750D02*Y393250D01*
Y394750D02*X242550Y395500D01*
X244050D01*
X244800Y394750D01*
X241800Y394000D02*X244800D01*
Y394750D02*Y394000D01*
X247350Y392500D02*X249600D01*
X250350Y393250D01*
X249600Y394000D02*X250350Y393250D01*
X247350Y394000D02*X249600D01*
X246600Y394750D02*X247350Y394000D01*
X246600Y394750D02*X247350Y395500D01*
X249600D01*
X250350Y394750D01*
X246600Y393250D02*X247350Y392500D01*
X255600Y398500D02*Y393250D01*
X256350Y392500D01*
X254850Y396250D02*X256350D01*
X257850Y394750D02*Y393250D01*
Y394750D02*X258600Y395500D01*
X260100D01*
X260850Y394750D01*
Y393250D01*
X260100Y392500D02*X260850Y393250D01*
X258600Y392500D02*X260100D01*
X257850Y393250D02*X258600Y392500D01*
X263400Y398500D02*Y393250D01*
X264150Y392500D01*
X262650Y396250D02*X264150D01*
X267900Y395500D02*X268650Y394750D01*
X266400Y395500D02*X267900D01*
X265650Y394750D02*X266400Y395500D01*
X265650Y394750D02*Y393250D01*
X266400Y392500D01*
X268650Y395500D02*Y393250D01*
X269400Y392500D01*
X266400D02*X267900D01*
X268650Y393250D01*
X271200Y398500D02*Y393250D01*
X271950Y392500D01*
G54D110*X0Y250000D02*Y0D01*
X250000D01*
Y250000D01*
X0D01*
G54D107*X38675Y-9500D02*X41675D01*
X42425Y-8750D01*
Y-6950D02*Y-8750D01*
X41675Y-6200D02*X42425Y-6950D01*
X39425Y-6200D02*X41675D01*
X39425Y-3500D02*Y-9500D01*
X38675Y-3500D02*X41675D01*
X42425Y-4250D01*
Y-5450D01*
X41675Y-6200D02*X42425Y-5450D01*
X44225Y-7250D02*Y-8750D01*
Y-7250D02*X44975Y-6500D01*
X46475D01*
X47225Y-7250D01*
Y-8750D01*
X46475Y-9500D02*X47225Y-8750D01*
X44975Y-9500D02*X46475D01*
X44225Y-8750D02*X44975Y-9500D01*
X51275Y-6500D02*X52025Y-7250D01*
X49775Y-6500D02*X51275D01*
X49025Y-7250D02*X49775Y-6500D01*
X49025Y-7250D02*Y-8750D01*
X49775Y-9500D01*
X52025Y-6500D02*Y-8750D01*
X52775Y-9500D01*
X49775D02*X51275D01*
X52025Y-8750D01*
X55325Y-7250D02*Y-9500D01*
Y-7250D02*X56075Y-6500D01*
X57575D01*
X54575D02*X55325Y-7250D01*
X62375Y-3500D02*Y-9500D01*
X61625D02*X62375Y-8750D01*
X60125Y-9500D02*X61625D01*
X59375Y-8750D02*X60125Y-9500D01*
X59375Y-7250D02*Y-8750D01*
Y-7250D02*X60125Y-6500D01*
X61625D01*
X62375Y-7250D01*
X66875D02*Y-8750D01*
Y-7250D02*X67625Y-6500D01*
X69125D01*
X69875Y-7250D01*
Y-8750D01*
X69125Y-9500D02*X69875Y-8750D01*
X67625Y-9500D02*X69125D01*
X66875Y-8750D02*X67625Y-9500D01*
X71675Y-6500D02*Y-8750D01*
X72425Y-9500D01*
X73925D01*
X74675Y-8750D01*
Y-6500D02*Y-8750D01*
X77225Y-3500D02*Y-8750D01*
X77975Y-9500D01*
X76475Y-5750D02*X77975D01*
X79475Y-3500D02*Y-8750D01*
X80225Y-9500D01*
G54D109*X81725Y-5000D02*Y-5150D01*
G54D107*Y-7250D02*Y-9500D01*
X83975Y-7250D02*Y-9500D01*
Y-7250D02*X84725Y-6500D01*
X85475D01*
X86225Y-7250D01*
Y-9500D01*
X83225Y-6500D02*X83975Y-7250D01*
X88775Y-9500D02*X91025D01*
X88025Y-8750D02*X88775Y-9500D01*
X88025Y-7250D02*Y-8750D01*
Y-7250D02*X88775Y-6500D01*
X90275D01*
X91025Y-7250D01*
X88025Y-8000D02*X91025D01*
Y-7250D02*Y-8000D01*
G54D109*X95525Y-5000D02*Y-5150D01*
G54D107*Y-7250D02*Y-9500D01*
X97775D02*X100025D01*
X100775Y-8750D01*
X100025Y-8000D02*X100775Y-8750D01*
X97775Y-8000D02*X100025D01*
X97025Y-7250D02*X97775Y-8000D01*
X97025Y-7250D02*X97775Y-6500D01*
X100025D01*
X100775Y-7250D01*
X97025Y-8750D02*X97775Y-9500D01*
X106025Y-3500D02*Y-8750D01*
X106775Y-9500D01*
X105275Y-5750D02*X106775D01*
X108275Y-3500D02*Y-9500D01*
Y-7250D02*X109025Y-6500D01*
X110525D01*
X111275Y-7250D01*
Y-9500D01*
X113825D02*X116075D01*
X113075Y-8750D02*X113825Y-9500D01*
X113075Y-7250D02*Y-8750D01*
Y-7250D02*X113825Y-6500D01*
X115325D01*
X116075Y-7250D01*
X113075Y-8000D02*X116075D01*
Y-7250D02*Y-8000D01*
X121325Y-6500D02*X123575D01*
X120575Y-7250D02*X121325Y-6500D01*
X120575Y-7250D02*Y-8750D01*
X121325Y-9500D01*
X123575D01*
X126125D02*X128375D01*
X125375Y-8750D02*X126125Y-9500D01*
X125375Y-7250D02*Y-8750D01*
Y-7250D02*X126125Y-6500D01*
X127625D01*
X128375Y-7250D01*
X125375Y-8000D02*X128375D01*
Y-7250D02*Y-8000D01*
X130925Y-7250D02*Y-9500D01*
Y-7250D02*X131675Y-6500D01*
X132425D01*
X133175Y-7250D01*
Y-9500D01*
X130175Y-6500D02*X130925Y-7250D01*
X135725Y-3500D02*Y-8750D01*
X136475Y-9500D01*
X134975Y-5750D02*X136475D01*
X138725Y-9500D02*X140975D01*
X137975Y-8750D02*X138725Y-9500D01*
X137975Y-7250D02*Y-8750D01*
Y-7250D02*X138725Y-6500D01*
X140225D01*
X140975Y-7250D01*
X137975Y-8000D02*X140975D01*
Y-7250D02*Y-8000D01*
X143525Y-7250D02*Y-9500D01*
Y-7250D02*X144275Y-6500D01*
X145775D01*
X142775D02*X143525Y-7250D01*
X147575Y-3500D02*Y-8750D01*
X148325Y-9500D01*
G54D109*X149825Y-5000D02*Y-5150D01*
G54D107*Y-7250D02*Y-9500D01*
X152075Y-7250D02*Y-9500D01*
Y-7250D02*X152825Y-6500D01*
X153575D01*
X154325Y-7250D01*
Y-9500D01*
X151325Y-6500D02*X152075Y-7250D01*
X156875Y-9500D02*X159125D01*
X156125Y-8750D02*X156875Y-9500D01*
X156125Y-7250D02*Y-8750D01*
Y-7250D02*X156875Y-6500D01*
X158375D01*
X159125Y-7250D01*
X156125Y-8000D02*X159125D01*
Y-7250D02*Y-8000D01*
X163625Y-7250D02*Y-8750D01*
Y-7250D02*X164375Y-6500D01*
X165875D01*
X166625Y-7250D01*
Y-8750D01*
X165875Y-9500D02*X166625Y-8750D01*
X164375Y-9500D02*X165875D01*
X163625Y-8750D02*X164375Y-9500D01*
X169175Y-4250D02*Y-9500D01*
Y-4250D02*X169925Y-3500D01*
X170675D01*
X168425Y-6500D02*X169925D01*
X175625Y-3500D02*Y-8750D01*
X176375Y-9500D01*
X174875Y-5750D02*X176375D01*
X177875Y-3500D02*Y-9500D01*
Y-7250D02*X178625Y-6500D01*
X180125D01*
X180875Y-7250D01*
Y-9500D01*
G54D109*X182675Y-5000D02*Y-5150D01*
G54D107*Y-7250D02*Y-9500D01*
X184925D02*X187175D01*
X187925Y-8750D01*
X187175Y-8000D02*X187925Y-8750D01*
X184925Y-8000D02*X187175D01*
X184175Y-7250D02*X184925Y-8000D01*
X184175Y-7250D02*X184925Y-6500D01*
X187175D01*
X187925Y-7250D01*
X184175Y-8750D02*X184925Y-9500D01*
X193175Y-7250D02*Y-11750D01*
X192425Y-6500D02*X193175Y-7250D01*
X193925Y-6500D01*
X195425D01*
X196175Y-7250D01*
Y-8750D01*
X195425Y-9500D02*X196175Y-8750D01*
X193925Y-9500D02*X195425D01*
X193175Y-8750D02*X193925Y-9500D01*
X200225Y-6500D02*X200975Y-7250D01*
X198725Y-6500D02*X200225D01*
X197975Y-7250D02*X198725Y-6500D01*
X197975Y-7250D02*Y-8750D01*
X198725Y-9500D01*
X200975Y-6500D02*Y-8750D01*
X201725Y-9500D01*
X198725D02*X200225D01*
X200975Y-8750D01*
X204275Y-3500D02*Y-8750D01*
X205025Y-9500D01*
X203525Y-5750D02*X205025D01*
X206525Y-3500D02*Y-9500D01*
Y-7250D02*X207275Y-6500D01*
X208775D01*
X209525Y-7250D01*
Y-9500D01*
X200750Y278500D02*Y272500D01*
X202700Y278500D02*X203750Y277450D01*
Y273550D01*
X202700Y272500D02*X203750Y273550D01*
X200000Y272500D02*X202700D01*
X200000Y278500D02*X202700D01*
X207800Y275500D02*X208550Y274750D01*
X206300Y275500D02*X207800D01*
X205550Y274750D02*X206300Y275500D01*
X205550Y274750D02*Y273250D01*
X206300Y272500D01*
X208550Y275500D02*Y273250D01*
X209300Y272500D01*
X206300D02*X207800D01*
X208550Y273250D01*
X211850Y278500D02*Y273250D01*
X212600Y272500D01*
X211100Y276250D02*X212600D01*
X214850Y272500D02*X217100D01*
X214100Y273250D02*X214850Y272500D01*
X214100Y274750D02*Y273250D01*
Y274750D02*X214850Y275500D01*
X216350D01*
X217100Y274750D01*
X214100Y274000D02*X217100D01*
Y274750D02*Y274000D01*
X218900Y276250D02*X219650D01*
X218900Y274750D02*X219650D01*
X224150Y278500D02*Y272500D01*
Y278500D02*X226400Y275500D01*
X228650Y278500D01*
Y272500D01*
X230450Y274750D02*Y273250D01*
Y274750D02*X231200Y275500D01*
X232700D01*
X233450Y274750D01*
Y273250D01*
X232700Y272500D02*X233450Y273250D01*
X231200Y272500D02*X232700D01*
X230450Y273250D02*X231200Y272500D01*
X236000Y274750D02*Y272500D01*
Y274750D02*X236750Y275500D01*
X237500D01*
X238250Y274750D01*
Y272500D01*
X235250Y275500D02*X236000Y274750D01*
X243500Y278500D02*Y272500D01*
X245450Y278500D02*X246500Y277450D01*
Y273550D01*
X245450Y272500D02*X246500Y273550D01*
X242750Y272500D02*X245450D01*
X242750Y278500D02*X245450D01*
X249050Y272500D02*X251300D01*
X248300Y273250D02*X249050Y272500D01*
X248300Y274750D02*Y273250D01*
Y274750D02*X249050Y275500D01*
X250550D01*
X251300Y274750D01*
X248300Y274000D02*X251300D01*
Y274750D02*Y274000D01*
X253850Y275500D02*X256100D01*
X253100Y274750D02*X253850Y275500D01*
X253100Y274750D02*Y273250D01*
X253850Y272500D01*
X256100D01*
X263300Y274750D02*X266300Y278500D01*
X263300Y274750D02*X267050D01*
X266300Y278500D02*Y272500D01*
X271550Y273250D02*X272300Y272500D01*
X271550Y277750D02*Y273250D01*
Y277750D02*X272300Y278500D01*
X273800D01*
X274550Y277750D01*
Y273250D01*
X273800Y272500D02*X274550Y273250D01*
X272300Y272500D02*X273800D01*
X271550Y274000D02*X274550Y277000D01*
X277100Y272500D02*X279350Y275500D01*
Y277750D02*Y275500D01*
X278600Y278500D02*X279350Y277750D01*
X277100Y278500D02*X278600D01*
X276350Y277750D02*X277100Y278500D01*
X276350Y277750D02*Y276250D01*
X277100Y275500D01*
X279350D01*
X281150Y276250D02*X281900D01*
X281150Y274750D02*X281900D01*
X283700Y277750D02*X284450Y278500D01*
X286700D01*
X287450Y277750D01*
Y276250D01*
X283700Y272500D02*X287450Y276250D01*
X283700Y272500D02*X287450D01*
X289250Y278500D02*X292250D01*
X289250D02*Y275500D01*
X290000Y276250D01*
X291500D01*
X292250Y275500D01*
Y273250D01*
X291500Y272500D02*X292250Y273250D01*
X290000Y272500D02*X291500D01*
X289250Y273250D02*X290000Y272500D01*
X294050Y276250D02*X294800D01*
X294050Y274750D02*X294800D01*
X296600Y278500D02*X299600D01*
X296600D02*Y275500D01*
X297350Y276250D01*
X298850D01*
X299600Y275500D01*
Y273250D01*
X298850Y272500D02*X299600Y273250D01*
X297350Y272500D02*X298850D01*
X296600Y273250D02*X297350Y272500D01*
X302150D02*X305150Y278500D01*
X301400D02*X305150D01*
X309650Y277750D02*X310400Y278500D01*
X312650D01*
X313400Y277750D01*
Y276250D01*
X309650Y272500D02*X313400Y276250D01*
X309650Y272500D02*X313400D01*
X315200Y273250D02*X315950Y272500D01*
X315200Y277750D02*Y273250D01*
Y277750D02*X315950Y278500D01*
X317450D01*
X318200Y277750D01*
Y273250D01*
X317450Y272500D02*X318200Y273250D01*
X315950Y272500D02*X317450D01*
X315200Y274000D02*X318200Y277000D01*
X320000Y277300D02*X321200Y278500D01*
Y272500D01*
X320000D02*X322250D01*
X324800D02*X327800Y278500D01*
X324050D02*X327800D01*
X332300D02*Y273250D01*
X333050Y272500D01*
X334550D01*
X335300Y273250D01*
Y278500D02*Y273250D01*
X337100Y278500D02*X340100D01*
X338600D02*Y272500D01*
X342950D02*X344900D01*
X341900Y273550D02*X342950Y272500D01*
X341900Y277450D02*Y273550D01*
Y277450D02*X342950Y278500D01*
X344900D01*
X200000Y292000D02*Y287500D01*
Y292000D02*X201050Y293500D01*
X202700D01*
X203750Y292000D01*
Y287500D01*
X200000Y290500D02*X203750D01*
X205550D02*Y288250D01*
X206300Y287500D01*
X207800D01*
X208550Y288250D01*
Y290500D02*Y288250D01*
X211100Y293500D02*Y288250D01*
X211850Y287500D01*
X210350Y291250D02*X211850D01*
X213350Y293500D02*Y287500D01*
Y289750D02*X214100Y290500D01*
X215600D01*
X216350Y289750D01*
Y287500D01*
X218150Y289750D02*Y288250D01*
Y289750D02*X218900Y290500D01*
X220400D01*
X221150Y289750D01*
Y288250D01*
X220400Y287500D02*X221150Y288250D01*
X218900Y287500D02*X220400D01*
X218150Y288250D02*X218900Y287500D01*
X223700Y289750D02*Y287500D01*
Y289750D02*X224450Y290500D01*
X225950D01*
X222950D02*X223700Y289750D01*
X227750Y291250D02*X228500D01*
X227750Y289750D02*X228500D01*
G54D109*X233750Y292000D02*Y291850D01*
G54D107*Y289750D02*Y286000D01*
X233000Y285250D02*X233750Y286000D01*
X237500Y290500D02*X238250Y289750D01*
X236000Y290500D02*X237500D01*
X235250Y289750D02*X236000Y290500D01*
X235250Y289750D02*Y288250D01*
X236000Y287500D01*
X238250Y290500D02*Y288250D01*
X239000Y287500D01*
X236000D02*X237500D01*
X238250Y288250D01*
X241550Y289750D02*Y287500D01*
Y289750D02*X242300Y290500D01*
X243050D01*
X243800Y289750D01*
Y287500D01*
X240800Y290500D02*X241550Y289750D01*
X249050D02*Y287500D01*
Y289750D02*X249800Y290500D01*
X250550D01*
X251300Y289750D01*
Y287500D01*
Y289750D02*X252050Y290500D01*
X252800D01*
X253550Y289750D01*
Y287500D01*
X248300Y290500D02*X249050Y289750D01*
G54D109*X255350Y292000D02*Y291850D01*
G54D107*Y289750D02*Y287500D01*
X256850Y293500D02*Y287500D01*
Y289750D02*X259100Y287500D01*
X256850Y289750D02*X258350Y291250D01*
X260900Y293500D02*Y288250D01*
X261650Y287500D01*
X265400Y290500D02*X266150Y289750D01*
X263900Y290500D02*X265400D01*
X263150Y289750D02*X263900Y290500D01*
X263150Y289750D02*Y288250D01*
X263900Y287500D01*
X266150Y290500D02*Y288250D01*
X266900Y287500D01*
X263900D02*X265400D01*
X266150Y288250D01*
X269450Y287500D02*X271700D01*
X272450Y288250D01*
X271700Y289000D02*X272450Y288250D01*
X269450Y289000D02*X271700D01*
X268700Y289750D02*X269450Y289000D01*
X268700Y289750D02*X269450Y290500D01*
X271700D01*
X272450Y289750D01*
X268700Y288250D02*X269450Y287500D01*
X200000Y308500D02*X203000D01*
X201500D02*Y302500D01*
G54D109*X204800Y307000D02*Y306850D01*
G54D107*Y304750D02*Y302500D01*
X207050Y308500D02*Y303250D01*
X207800Y302500D01*
X206300Y306250D02*X207800D01*
X209300Y308500D02*Y303250D01*
X210050Y302500D01*
X212300D02*X214550D01*
X211550Y303250D02*X212300Y302500D01*
X211550Y304750D02*Y303250D01*
Y304750D02*X212300Y305500D01*
X213800D01*
X214550Y304750D01*
X211550Y304000D02*X214550D01*
Y304750D02*Y304000D01*
X216350Y306250D02*X217100D01*
X216350Y304750D02*X217100D01*
X221600Y303250D02*X222350Y302500D01*
X221600Y307750D02*X222350Y308500D01*
X221600Y307750D02*Y303250D01*
X224150Y305500D02*Y303250D01*
X224900Y302500D01*
X226400D01*
X227150Y303250D01*
Y305500D02*Y303250D01*
X229700Y304750D02*Y302500D01*
Y304750D02*X230450Y305500D01*
X231200D01*
X231950Y304750D01*
Y302500D01*
X228950Y305500D02*X229700Y304750D01*
X233750Y308500D02*Y302500D01*
Y304750D02*X236000Y302500D01*
X233750Y304750D02*X235250Y306250D01*
X238550Y304750D02*Y302500D01*
Y304750D02*X239300Y305500D01*
X240050D01*
X240800Y304750D01*
Y302500D01*
X237800Y305500D02*X238550Y304750D01*
X242600D02*Y303250D01*
Y304750D02*X243350Y305500D01*
X244850D01*
X245600Y304750D01*
Y303250D01*
X244850Y302500D02*X245600Y303250D01*
X243350Y302500D02*X244850D01*
X242600Y303250D02*X243350Y302500D01*
X247400Y305500D02*Y303250D01*
X248150Y302500D01*
X248900D01*
X249650Y303250D01*
Y305500D02*Y303250D01*
X250400Y302500D01*
X251150D01*
X251900Y303250D01*
Y305500D02*Y303250D01*
X254450Y304750D02*Y302500D01*
Y304750D02*X255200Y305500D01*
X255950D01*
X256700Y304750D01*
Y302500D01*
X253700Y305500D02*X254450Y304750D01*
X258500Y308500D02*X259250Y307750D01*
Y303250D01*
X258500Y302500D02*X259250Y303250D01*
X263750Y305500D02*X266750D01*
X271250Y308500D02*Y302500D01*
Y308500D02*X274250D01*
X271250Y305800D02*X273500D01*
X278300Y305500D02*X279050Y304750D01*
X276800Y305500D02*X278300D01*
X276050Y304750D02*X276800Y305500D01*
X276050Y304750D02*Y303250D01*
X276800Y302500D01*
X279050Y305500D02*Y303250D01*
X279800Y302500D01*
X276800D02*X278300D01*
X279050Y303250D01*
X281600Y308500D02*Y302500D01*
Y303250D02*X282350Y302500D01*
X283850D01*
X284600Y303250D01*
Y304750D02*Y303250D01*
X283850Y305500D02*X284600Y304750D01*
X282350Y305500D02*X283850D01*
X281600Y304750D02*X282350Y305500D01*
X287150Y304750D02*Y302500D01*
Y304750D02*X287900Y305500D01*
X289400D01*
X286400D02*X287150Y304750D01*
G54D109*X291200Y307000D02*Y306850D01*
G54D107*Y304750D02*Y302500D01*
X293450Y305500D02*X295700D01*
X292700Y304750D02*X293450Y305500D01*
X292700Y304750D02*Y303250D01*
X293450Y302500D01*
X295700D01*
X299750Y305500D02*X300500Y304750D01*
X298250Y305500D02*X299750D01*
X297500Y304750D02*X298250Y305500D01*
X297500Y304750D02*Y303250D01*
X298250Y302500D01*
X300500Y305500D02*Y303250D01*
X301250Y302500D01*
X298250D02*X299750D01*
X300500Y303250D01*
X303800Y308500D02*Y303250D01*
X304550Y302500D01*
X303050Y306250D02*X304550D01*
G54D109*X306050Y307000D02*Y306850D01*
G54D107*Y304750D02*Y302500D01*
X307550Y304750D02*Y303250D01*
Y304750D02*X308300Y305500D01*
X309800D01*
X310550Y304750D01*
Y303250D01*
X309800Y302500D02*X310550Y303250D01*
X308300Y302500D02*X309800D01*
X307550Y303250D02*X308300Y302500D01*
X313100Y304750D02*Y302500D01*
Y304750D02*X313850Y305500D01*
X314600D01*
X315350Y304750D01*
Y302500D01*
X312350Y305500D02*X313100Y304750D01*
X320600Y308500D02*Y302500D01*
X322550Y308500D02*X323600Y307450D01*
Y303550D01*
X322550Y302500D02*X323600Y303550D01*
X319850Y302500D02*X322550D01*
X319850Y308500D02*X322550D01*
X326150Y304750D02*Y302500D01*
Y304750D02*X326900Y305500D01*
X328400D01*
X325400D02*X326150Y304750D01*
X332450Y305500D02*X333200Y304750D01*
X330950Y305500D02*X332450D01*
X330200Y304750D02*X330950Y305500D01*
X330200Y304750D02*Y303250D01*
X330950Y302500D01*
X333200Y305500D02*Y303250D01*
X333950Y302500D01*
X330950D02*X332450D01*
X333200Y303250D01*
X335750Y305500D02*Y303250D01*
X336500Y302500D01*
X337250D01*
X338000Y303250D01*
Y305500D02*Y303250D01*
X338750Y302500D01*
X339500D01*
X340250Y303250D01*
Y305500D02*Y303250D01*
G54D109*X342050Y307000D02*Y306850D01*
G54D107*Y304750D02*Y302500D01*
X344300Y304750D02*Y302500D01*
Y304750D02*X345050Y305500D01*
X345800D01*
X346550Y304750D01*
Y302500D01*
X343550Y305500D02*X344300Y304750D01*
X350600Y305500D02*X351350Y304750D01*
X349100Y305500D02*X350600D01*
X348350Y304750D02*X349100Y305500D01*
X348350Y304750D02*Y303250D01*
X349100Y302500D01*
X350600D01*
X351350Y303250D01*
X348350Y301000D02*X349100Y300250D01*
X350600D01*
X351350Y301000D01*
Y305500D02*Y301000D01*
M02*
