M48
INCH
T79C0.118
T78C0.050
T77C0.042
T76C0.038
T75C0.055
T74C0.020
T73C0.028
T72C0.035
%
T74
X014850Y009600
X014850Y006600
T73
X003150Y017800
X003150Y014800
X003950Y017800
X003950Y014800
X005600Y018500
X006450Y017300
X006450Y014300
X006550Y010800
X006550Y007800
X007200Y013200
X007450Y017300
X007450Y014300
X007550Y010800
X007550Y007800
X007850Y011850
X008450Y017300
X008450Y014300
X008550Y010800
X008550Y007800
X008600Y018500
X009100Y005200
X009100Y002200
X009450Y017300
X009450Y014300
X009550Y010800
X009550Y007800
X010200Y013200
X010450Y022700
X010450Y019700
X010450Y017300
X010450Y014300
X010550Y010800
X010550Y007800
X011100Y011850
X011450Y022700
X011450Y019700
X011450Y017300
X011450Y014300
X011550Y010800
X011550Y007800
X012450Y022700
X012450Y019700
X012450Y017300
X012450Y014300
X012550Y010800
X012550Y007800
X013450Y022700
X013450Y019700
X013650Y009600
X013650Y006600
X014450Y022700
X014450Y019700
X015450Y022700
X015450Y019700
X015550Y011900
X015550Y008900
X016450Y022700
X016450Y019700
X016650Y016200
X016650Y015200
X016650Y014200
X016650Y013200
X016650Y012200
X016650Y011200
X016650Y010200
X019650Y016200
X019650Y015200
X019650Y014200
X019650Y013200
X019650Y012200
X019650Y011200
X019650Y010200
X022100Y011550
X022100Y008550
T72
X002850Y013800
X002850Y012800
X002850Y011800
X004550Y017900
X004550Y008050
X004850Y017250
X004850Y015250
X004850Y011800
X005000Y010800
X005000Y008800
X005600Y018100
X006050Y013250
X006400Y012550
X008750Y006800
X009050Y019550
X009700Y018500
X010750Y006800
X010850Y013200
X011450Y023750
X011700Y018500
X011850Y011900
X012550Y006800
X012850Y013200
X013500Y016800
X013500Y014800
X013850Y011900
X014000Y010900
X014200Y017100
X014200Y014400
X015550Y014650
X015550Y012650
X016900Y017200
X017350Y009350
X017550Y021700
X017550Y019700
X017800Y017250
X018100Y008350
X018100Y006350
X019850Y018350
X019950Y017250
X020600Y014200
X020600Y012200
T76
X003450Y018800
X004450Y018800
X004850Y013800
X004850Y012800
X021550Y019700
X021550Y018700
T77
X018550Y021700
X018550Y019700
X019550Y021700
X019550Y019700
X020550Y021700
X020550Y019700
T78
X006550Y023400
X006550Y020400
T75
X003850Y005700
X003850Y001700
X005850Y001700
X007850Y005700
X007850Y001700
X010450Y005700
X010450Y001700
X012450Y001700
X014450Y005700
X014450Y001700
X017050Y005700
X017050Y001700
X019050Y001700
X021050Y005700
X021050Y001700
T79
X002000Y023000
X002000Y002000
X023000Y023000
X023000Y002000
M30
