G04 start of page 3 for group 3 idx 3 *
G04 Title: (unknown), signal3 *
G04 Creator: pcb 4.0.2 *
G04 CreationDate: Mon Dec  4 09:25:57 2017 UTC *
G04 For: janik *
G04 Format: Gerber/RS-274X *
G04 PCB-Dimensions (mil): 2500.00 2500.00 *
G04 PCB-Coordinate-Origin: lower left *
%MOIN*%
%FSLAX25Y25*%
%LNLY3*%
%ADD50C,0.0500*%
%ADD49C,0.0420*%
%ADD48C,0.0380*%
%ADD47C,0.0550*%
%ADD46C,0.0200*%
%ADD45C,0.0280*%
%ADD44C,0.0350*%
%ADD43C,0.1181*%
%ADD42C,0.0900*%
%ADD41C,0.1969*%
%ADD40C,0.1000*%
%ADD39C,0.0820*%
%ADD38C,0.1100*%
%ADD37C,0.1300*%
%ADD36C,0.0700*%
%ADD35C,0.0600*%
%ADD34C,0.0001*%
%ADD33C,0.0800*%
%ADD32C,0.0250*%
%ADD31C,0.0060*%
G54D31*X0Y250000D02*Y0D01*
X250000D01*
Y250000D01*
X0D01*
G54D32*X45500Y72000D02*Y80500D01*
X56500Y139500D02*Y158500D01*
X50000Y162000D01*
X133500Y162500D02*X61000D01*
Y163500D01*
X45500Y179000D01*
X50000Y162000D02*X35500D01*
X22500Y175000D01*
Y189000D01*
X34000Y200500D01*
X47500D01*
X56000Y192000D01*
Y181000D01*
X64000Y125500D02*X134500D01*
X142000Y133000D01*
Y144000D01*
X60500Y132500D02*Y135500D01*
X56500Y139500D01*
X125500Y68000D02*Y60000D01*
X109500Y44000D01*
X73500D01*
X45500Y72000D01*
X173500Y93500D02*X163500D01*
X148000Y109000D01*
X140000D01*
X169000Y172000D02*Y177500D01*
X142000Y171000D02*X133500Y162500D01*
X169000Y177500D02*X175000Y183500D01*
X114500Y237500D02*X96000D01*
X90500Y232000D01*
Y195500D01*
X175000Y183500D02*X198500D01*
G54D33*X206000Y122000D03*
Y142000D03*
X196500Y122000D03*
Y132000D03*
Y142000D03*
Y152000D03*
X199500Y172500D03*
X196500Y162000D03*
X178000Y172500D03*
G54D34*G36*
X163000Y165500D02*Y158500D01*
X170000D01*
Y165500D01*
X163000D01*
G37*
G54D33*X166500Y152000D03*
Y142000D03*
Y132000D03*
Y122000D03*
X155500Y146500D03*
G54D35*Y89000D03*
X148500Y96000D03*
X136500D03*
G54D34*G36*
X122500Y111000D02*Y105000D01*
X128500D01*
Y111000D01*
X122500D01*
G37*
G54D36*X128500Y132000D03*
G54D33*X138500Y119000D03*
G54D34*G36*
X101000Y200500D02*Y193500D01*
X108000D01*
Y200500D01*
X101000D01*
G37*
G54D33*X114500Y197000D03*
X124500D03*
X134500D03*
X144500D03*
X154500D03*
G54D35*X221000Y115500D03*
Y85500D03*
G54D33*X181000Y83500D03*
Y63500D03*
G54D37*X210500Y17000D03*
X190500D03*
X170500D03*
X210500Y57000D03*
G54D38*X170500D03*
G54D33*X166500Y112000D03*
Y102000D03*
X196500D03*
Y112000D03*
G54D34*G36*
X212000Y200500D02*Y193500D01*
X219000D01*
Y200500D01*
X212000D01*
G37*
G54D39*X195500Y197000D03*
X205500D03*
G54D36*X215500Y187000D03*
G54D34*G36*
X181900Y220600D02*Y213400D01*
X189100D01*
Y220600D01*
X181900D01*
G37*
G54D39*X195500Y217000D03*
X205500D03*
G54D34*G36*
X181400Y201100D02*Y192900D01*
X189600D01*
Y201100D01*
X181400D01*
G37*
G54D33*X175500Y217000D03*
Y197000D03*
X164500D03*
Y227000D03*
X154500D03*
X144500D03*
X134500D03*
X124500D03*
X114500D03*
X104500D03*
X94500Y173000D03*
X84500D03*
X74500D03*
X64500D03*
G54D34*G36*
X31500Y191000D02*Y185000D01*
X37500D01*
Y191000D01*
X31500D01*
G37*
G54D35*X44500Y188000D03*
X31500Y178000D03*
X39500D03*
X56000Y185000D03*
G54D34*G36*
X60500Y239000D02*Y229000D01*
X70500D01*
Y239000D01*
X60500D01*
G37*
G54D38*X65500Y204000D03*
G54D33*X48500Y172500D03*
G54D35*X86000Y185000D03*
X94500Y143000D03*
X104500D03*
G54D36*X114500D03*
G54D33*X124500D03*
Y173000D03*
G54D35*X114500D03*
G54D33*X117000Y185000D03*
G54D35*X104500Y173000D03*
G54D33*X97000Y185000D03*
X135000Y168000D03*
Y148000D03*
G54D34*G36*
X61000Y146500D02*Y139500D01*
X68000D01*
Y146500D01*
X61000D01*
G37*
G54D33*X74500Y143000D03*
X84500D03*
X50000Y88000D03*
Y108000D03*
X48500Y128000D03*
Y138000D03*
G54D35*X31500Y148000D03*
X39500D03*
G54D33*X28500Y138000D03*
Y128000D03*
Y118000D03*
X48500Y152500D03*
G54D34*G36*
X146000Y68500D02*Y63500D01*
X151000D01*
Y68500D01*
X146000D01*
G37*
G54D35*X136500Y66000D03*
G54D40*X144500Y57000D03*
G54D37*Y17000D03*
X124500D03*
X78500D03*
X58500D03*
X38500D03*
X104500D03*
G54D38*Y57000D03*
G54D40*X78500D03*
G54D37*X38500D03*
G54D35*X91000Y52000D03*
Y22000D03*
G54D33*X87500Y68000D03*
X107500D03*
X155500Y126500D03*
G54D35*Y119000D03*
G54D33*X118500D03*
X115500Y108000D03*
G54D35*X95500Y78000D03*
X105500D03*
G54D33*X115500D03*
X125500D03*
G54D35*X111000Y118500D03*
X105500Y108000D03*
G54D36*X108500Y132000D03*
G54D35*X95500Y108000D03*
X85500D03*
X75500D03*
X65500D03*
G54D33*Y78000D03*
X75500D03*
X85500D03*
X48500Y118000D03*
G54D35*X72000Y132000D03*
X102000D03*
X78500Y118500D03*
G54D41*X20000Y20000D03*
X230000D03*
G54D42*X173500Y93500D03*
X140000Y109000D03*
X142000Y144000D03*
X64000Y125500D03*
X60500Y132500D03*
X125500Y68000D03*
G54D41*X230000Y230000D03*
G54D42*X142000Y171000D03*
X169000Y172000D03*
X198500Y183500D03*
X114500Y237500D03*
X90500Y195500D03*
G54D41*X20000Y230000D03*
G54D36*X45500Y179000D03*
X56000Y181000D03*
G54D42*X45500Y80500D03*
G54D43*G54D44*G54D43*G54D44*G54D43*G54D44*G54D45*G54D44*G54D45*G54D44*G54D45*G54D44*G54D45*G54D46*G54D45*G54D44*G54D45*G54D44*G54D47*G54D45*G54D48*G54D49*G54D48*G54D49*G54D44*G54D45*G54D48*G54D45*G54D50*G54D44*G54D45*G54D44*G54D45*G54D44*G54D45*G54D44*G54D48*G54D45*G54D44*G54D46*G54D45*G54D47*G54D45*G54D44*G54D45*G54D44*G54D45*G54D44*G54D45*G54D44*G54D45*M02*
