G04 start of page 7 for group -4063 idx -4063 *
G04 Title: (unknown), componentmask *
G04 Creator: pcb 4.0.2 *
G04 CreationDate: Mon Dec  4 09:25:57 2017 UTC *
G04 For: janik *
G04 Format: Gerber/RS-274X *
G04 PCB-Dimensions (mil): 2500.00 2500.00 *
G04 PCB-Coordinate-Origin: lower left *
%MOIN*%
%FSLAX25Y25*%
%LNSTC*%
%ADD91C,0.1060*%
%ADD90C,0.0760*%
%ADD89C,0.0880*%
%ADD88C,0.1160*%
%ADD87C,0.1360*%
%ADD86C,0.1000*%
%ADD85C,0.0660*%
%ADD84C,0.0600*%
%ADD83C,0.0001*%
%ADD82C,0.0860*%
%ADD81C,0.1100*%
%ADD80C,0.0060*%
G54D80*X0Y250000D02*Y0D01*
X250000D01*
Y250000D01*
X0D01*
G54D81*X206000Y122000D03*
Y142000D03*
G54D82*X196500Y122000D03*
Y132000D03*
Y142000D03*
Y152000D03*
G54D81*X199500Y172500D03*
G54D82*X196500Y162000D03*
G54D81*X178000Y172500D03*
G54D83*G36*
X162700Y165800D02*Y158200D01*
X170300D01*
Y165800D01*
X162700D01*
G37*
G54D82*X166500Y152000D03*
Y142000D03*
Y132000D03*
Y122000D03*
G54D81*X155500Y146500D03*
G54D84*Y89000D03*
G54D85*X148500Y96000D03*
G54D84*X136500D03*
G54D83*G36*
X122200Y111300D02*Y104700D01*
X128800D01*
Y111300D01*
X122200D01*
G37*
G54D86*X128500Y132000D03*
G54D81*X138500Y119000D03*
G54D83*G36*
X100700Y200800D02*Y193200D01*
X108300D01*
Y200800D01*
X100700D01*
G37*
G54D82*X114500Y197000D03*
X124500D03*
X134500D03*
X144500D03*
X154500D03*
G54D84*X221000Y115500D03*
Y85500D03*
G54D81*X181000Y83500D03*
Y63500D03*
G54D87*X210500Y17000D03*
X190500D03*
X170500D03*
X210500Y57000D03*
G54D88*X170500D03*
G54D82*X166500Y112000D03*
Y102000D03*
X196500D03*
Y112000D03*
G54D83*G36*
X211700Y200800D02*Y193200D01*
X219300D01*
Y200800D01*
X211700D01*
G37*
G54D89*X195500Y197000D03*
X205500D03*
G54D90*X215500Y187000D03*
G54D83*G36*
X181600Y220900D02*Y213100D01*
X189400D01*
Y220900D01*
X181600D01*
G37*
G54D89*X195500Y217000D03*
X205500D03*
G54D83*G36*
X181100Y201400D02*Y192600D01*
X189900D01*
Y201400D01*
X181100D01*
G37*
G54D81*X175500Y217000D03*
Y197000D03*
G54D82*X164500D03*
Y227000D03*
X154500D03*
X144500D03*
X134500D03*
X124500D03*
X114500D03*
X104500D03*
X94500Y173000D03*
X84500D03*
X74500D03*
X64500D03*
G54D83*G36*
X31200Y191300D02*Y184700D01*
X37800D01*
Y191300D01*
X31200D01*
G37*
G54D85*X44500Y188000D03*
G54D84*X31500Y178000D03*
X39500D03*
X56000Y185000D03*
G54D83*G36*
X60200Y239300D02*Y228700D01*
X70800D01*
Y239300D01*
X60200D01*
G37*
G54D88*X65500Y204000D03*
G54D81*X48500Y172500D03*
G54D84*X86000Y185000D03*
G54D85*X94500Y143000D03*
X104500D03*
G54D90*X114500D03*
G54D82*X124500D03*
Y173000D03*
G54D85*X114500D03*
G54D81*X117000Y185000D03*
G54D85*X104500Y173000D03*
G54D81*X97000Y185000D03*
X135000Y168000D03*
Y148000D03*
G54D83*G36*
X60700Y146800D02*Y139200D01*
X68300D01*
Y146800D01*
X60700D01*
G37*
G54D82*X74500Y143000D03*
X84500D03*
G54D81*X50000Y88000D03*
Y108000D03*
G54D82*X48500Y128000D03*
Y138000D03*
G54D84*X31500Y148000D03*
X39500D03*
G54D82*X28500Y138000D03*
Y128000D03*
Y118000D03*
G54D81*X48500Y152500D03*
G54D83*G36*
X145700Y68800D02*Y63200D01*
X151300D01*
Y68800D01*
X145700D01*
G37*
G54D84*X136500Y66000D03*
G54D91*X144500Y57000D03*
G54D87*Y17000D03*
X124500D03*
X78500D03*
X58500D03*
X38500D03*
X104500D03*
G54D88*Y57000D03*
G54D91*X78500D03*
G54D87*X38500D03*
G54D84*X91000Y52000D03*
Y22000D03*
G54D81*X87500Y68000D03*
X107500D03*
X155500Y126500D03*
G54D84*Y119000D03*
G54D81*X118500D03*
G54D82*X115500Y108000D03*
G54D85*X95500Y78000D03*
X105500D03*
G54D82*X115500D03*
X125500D03*
G54D84*X111000Y118500D03*
G54D85*X105500Y108000D03*
G54D86*X108500Y132000D03*
G54D85*X95500Y108000D03*
X85500D03*
X75500D03*
X65500D03*
G54D82*Y78000D03*
X75500D03*
X85500D03*
X48500Y118000D03*
G54D84*X72000Y132000D03*
X102000D03*
X78500Y118500D03*
M02*
