G04 start of page 4 for group 5 idx 5 *
G04 Title: (unknown), bottom *
G04 Creator: pcb 4.0.2 *
G04 CreationDate: Mon Dec  4 09:25:57 2017 UTC *
G04 For: janik *
G04 Format: Gerber/RS-274X *
G04 PCB-Dimensions (mil): 2500.00 2500.00 *
G04 PCB-Coordinate-Origin: lower left *
%MOIN*%
%FSLAX25Y25*%
%LNSOL*%
%ADD70C,0.0420*%
%ADD69C,0.0380*%
%ADD68C,0.0550*%
%ADD67C,0.0200*%
%ADD66C,0.0280*%
%ADD65C,0.0350*%
%ADD64C,0.1181*%
%ADD63C,0.0900*%
%ADD62C,0.1969*%
%ADD61C,0.1000*%
%ADD60C,0.0820*%
%ADD59C,0.1100*%
%ADD58C,0.1300*%
%ADD57C,0.0700*%
%ADD56C,0.0600*%
%ADD55C,0.0800*%
%ADD54C,0.0500*%
%ADD53C,0.0250*%
%ADD52C,0.0001*%
%ADD51C,0.0060*%
G54D51*X0Y250000D02*Y0D01*
X250000D01*
Y250000D01*
X0D01*
G54D52*G36*
X124000Y80000D02*X137000D01*
X148500Y68500D01*
Y65500D01*
X124000D01*
Y80000D01*
G37*
G36*
X124500Y146500D02*X128500Y150500D01*
X138500D01*
X142500Y146500D01*
Y108500D01*
X137500D01*
X127500Y118500D01*
Y135500D01*
X122000Y141000D01*
Y144500D01*
X124000Y146500D01*
X124500D01*
G37*
G36*
X177301Y47500D02*X178500D01*
Y66000D01*
X190500Y57500D01*
Y17000D01*
X177301Y3801D01*
Y12482D01*
X177301Y12482D01*
X177396Y12576D01*
X177473Y12685D01*
X177849Y13343D01*
X178155Y14036D01*
X178396Y14755D01*
X178569Y15492D01*
X178674Y16243D01*
X178709Y17000D01*
X178674Y17757D01*
X178569Y18508D01*
X178396Y19245D01*
X178155Y19964D01*
X177849Y20657D01*
X177480Y21319D01*
X177401Y21429D01*
X177306Y21523D01*
X177301Y21527D01*
Y47500D01*
G37*
G36*
X170503D02*X177301D01*
Y21527D01*
X177196Y21602D01*
X177076Y21663D01*
X176947Y21704D01*
X176814Y21725D01*
X176679Y21724D01*
X176546Y21702D01*
X176418Y21660D01*
X176298Y21598D01*
X176189Y21519D01*
X176094Y21423D01*
X176015Y21313D01*
X175955Y21193D01*
X175914Y21064D01*
X175893Y20931D01*
X175894Y20796D01*
X175915Y20663D01*
X175958Y20535D01*
X176022Y20417D01*
X176319Y19896D01*
X176562Y19347D01*
X176752Y18778D01*
X176889Y18194D01*
X176972Y17599D01*
X177000Y17000D01*
X176972Y16401D01*
X176889Y15806D01*
X176752Y15222D01*
X176562Y14653D01*
X176319Y14104D01*
X176027Y13580D01*
X175964Y13462D01*
X175922Y13335D01*
X175901Y13203D01*
X175900Y13069D01*
X175920Y12937D01*
X175961Y12810D01*
X176021Y12690D01*
X176100Y12582D01*
X176194Y12487D01*
X176302Y12408D01*
X176421Y12346D01*
X176548Y12304D01*
X176680Y12283D01*
X176813Y12282D01*
X176946Y12303D01*
X177073Y12343D01*
X177193Y12404D01*
X177301Y12482D01*
Y3801D01*
X177000Y3500D01*
X170503D01*
Y8791D01*
X171257Y8826D01*
X172008Y8931D01*
X172745Y9104D01*
X173464Y9345D01*
X174157Y9651D01*
X174819Y10020D01*
X174929Y10099D01*
X175023Y10194D01*
X175102Y10304D01*
X175163Y10424D01*
X175204Y10553D01*
X175225Y10686D01*
X175224Y10821D01*
X175202Y10954D01*
X175160Y11082D01*
X175098Y11202D01*
X175019Y11311D01*
X174923Y11406D01*
X174813Y11485D01*
X174693Y11545D01*
X174564Y11586D01*
X174431Y11607D01*
X174296Y11606D01*
X174163Y11585D01*
X174035Y11542D01*
X173917Y11478D01*
X173396Y11181D01*
X172847Y10938D01*
X172278Y10748D01*
X171694Y10611D01*
X171099Y10528D01*
X170503Y10500D01*
Y23500D01*
X171099Y23472D01*
X171694Y23389D01*
X172278Y23252D01*
X172847Y23062D01*
X173396Y22819D01*
X173920Y22527D01*
X174038Y22464D01*
X174165Y22422D01*
X174297Y22401D01*
X174431Y22400D01*
X174563Y22420D01*
X174690Y22461D01*
X174810Y22521D01*
X174918Y22600D01*
X175013Y22694D01*
X175092Y22802D01*
X175154Y22921D01*
X175196Y23048D01*
X175217Y23180D01*
X175218Y23313D01*
X175197Y23446D01*
X175157Y23573D01*
X175096Y23693D01*
X175018Y23801D01*
X174924Y23896D01*
X174815Y23973D01*
X174157Y24349D01*
X173464Y24655D01*
X172745Y24896D01*
X172008Y25069D01*
X171257Y25174D01*
X170503Y25209D01*
Y47500D01*
G37*
G36*
X163699D02*X170503D01*
Y25209D01*
X170500Y25209D01*
X169743Y25174D01*
X168992Y25069D01*
X168255Y24896D01*
X167536Y24655D01*
X166843Y24349D01*
X166181Y23980D01*
X166071Y23901D01*
X165977Y23806D01*
X165898Y23696D01*
X165837Y23576D01*
X165796Y23447D01*
X165775Y23314D01*
X165776Y23179D01*
X165798Y23046D01*
X165840Y22918D01*
X165902Y22798D01*
X165981Y22689D01*
X166077Y22594D01*
X166187Y22515D01*
X166307Y22455D01*
X166436Y22414D01*
X166569Y22393D01*
X166704Y22394D01*
X166837Y22415D01*
X166965Y22458D01*
X167083Y22522D01*
X167604Y22819D01*
X168153Y23062D01*
X168722Y23252D01*
X169306Y23389D01*
X169901Y23472D01*
X170500Y23500D01*
X170503Y23500D01*
Y10500D01*
X170500Y10500D01*
X169901Y10528D01*
X169306Y10611D01*
X168722Y10748D01*
X168153Y10938D01*
X167604Y11181D01*
X167080Y11473D01*
X166962Y11536D01*
X166835Y11578D01*
X166703Y11599D01*
X166569Y11600D01*
X166437Y11580D01*
X166310Y11539D01*
X166190Y11479D01*
X166082Y11400D01*
X165987Y11306D01*
X165908Y11198D01*
X165846Y11079D01*
X165804Y10952D01*
X165783Y10820D01*
X165782Y10687D01*
X165803Y10554D01*
X165843Y10427D01*
X165904Y10307D01*
X165982Y10199D01*
X166076Y10104D01*
X166185Y10027D01*
X166843Y9651D01*
X167536Y9345D01*
X168255Y9104D01*
X168992Y8931D01*
X169743Y8826D01*
X170500Y8791D01*
X170503Y8791D01*
Y3500D01*
X163699D01*
Y12473D01*
X163804Y12398D01*
X163924Y12337D01*
X164053Y12296D01*
X164186Y12275D01*
X164321Y12276D01*
X164454Y12298D01*
X164582Y12340D01*
X164702Y12402D01*
X164811Y12481D01*
X164906Y12577D01*
X164985Y12687D01*
X165045Y12807D01*
X165086Y12936D01*
X165107Y13069D01*
X165106Y13204D01*
X165085Y13337D01*
X165042Y13465D01*
X164978Y13583D01*
X164681Y14104D01*
X164438Y14653D01*
X164248Y15222D01*
X164111Y15806D01*
X164028Y16401D01*
X164000Y17000D01*
X164028Y17599D01*
X164111Y18194D01*
X164248Y18778D01*
X164438Y19347D01*
X164681Y19896D01*
X164973Y20420D01*
X165036Y20538D01*
X165078Y20665D01*
X165099Y20797D01*
X165100Y20931D01*
X165080Y21063D01*
X165039Y21190D01*
X164979Y21310D01*
X164900Y21418D01*
X164806Y21513D01*
X164698Y21592D01*
X164579Y21654D01*
X164452Y21696D01*
X164320Y21717D01*
X164187Y21718D01*
X164054Y21697D01*
X163927Y21657D01*
X163807Y21596D01*
X163699Y21518D01*
Y47500D01*
G37*
G36*
X131370D02*X153250D01*
Y30346D01*
X147756Y24852D01*
X147135Y25109D01*
X145834Y25421D01*
X144500Y25526D01*
X143166Y25421D01*
X141865Y25109D01*
X140629Y24597D01*
X139488Y23898D01*
X138471Y23029D01*
X137602Y22012D01*
X136903Y20871D01*
X136391Y19635D01*
X136079Y18334D01*
X135974Y17000D01*
X136079Y15666D01*
X136391Y14365D01*
X136903Y13129D01*
X137602Y11988D01*
X138471Y10971D01*
X139488Y10102D01*
X140629Y9403D01*
X141865Y8891D01*
X143166Y8579D01*
X144500Y8474D01*
X145834Y8579D01*
X147135Y8891D01*
X148371Y9403D01*
X149512Y10102D01*
X150529Y10971D01*
X151398Y11988D01*
X152097Y13129D01*
X152609Y14365D01*
X152921Y15666D01*
X153000Y17000D01*
X152921Y18334D01*
X152609Y19635D01*
X152352Y20256D01*
X158708Y26612D01*
X158805Y26695D01*
X159137Y27084D01*
X159137Y27084D01*
X159405Y27520D01*
X159600Y27993D01*
X159720Y28490D01*
X159760Y29000D01*
X159750Y29127D01*
Y47500D01*
X163699D01*
Y21518D01*
X163699Y21518D01*
X163604Y21424D01*
X163527Y21315D01*
X163151Y20657D01*
X162845Y19964D01*
X162604Y19245D01*
X162431Y18508D01*
X162326Y17757D01*
X162291Y17000D01*
X162326Y16243D01*
X162431Y15492D01*
X162604Y14755D01*
X162845Y14036D01*
X163151Y13343D01*
X163520Y12681D01*
X163599Y12571D01*
X163694Y12477D01*
X163699Y12473D01*
Y3500D01*
X131370D01*
Y12455D01*
X131430Y12500D01*
X131530Y12601D01*
X131610Y12717D01*
X131975Y13373D01*
X132272Y14062D01*
X132505Y14775D01*
X132673Y15507D01*
X132775Y16250D01*
X132808Y17000D01*
X132775Y17750D01*
X132673Y18493D01*
X132505Y19225D01*
X132272Y19938D01*
X131975Y20627D01*
X131617Y21287D01*
X131535Y21404D01*
X131435Y21505D01*
X131370Y21553D01*
Y47500D01*
G37*
G36*
X124503D02*X131370D01*
Y21553D01*
X131320Y21590D01*
X131193Y21656D01*
X131058Y21701D01*
X130917Y21724D01*
X130774Y21725D01*
X130633Y21704D01*
X130497Y21661D01*
X130370Y21597D01*
X130253Y21514D01*
X130152Y21414D01*
X130067Y21299D01*
X130001Y21173D01*
X129956Y21037D01*
X129933Y20897D01*
X129932Y20754D01*
X129953Y20613D01*
X129996Y20477D01*
X130062Y20350D01*
X130348Y19838D01*
X130580Y19299D01*
X130763Y18741D01*
X130894Y18168D01*
X130973Y17587D01*
X131000Y17000D01*
X130973Y16413D01*
X130894Y15832D01*
X130763Y15260D01*
X130580Y14701D01*
X130348Y14162D01*
X130068Y13646D01*
X130002Y13521D01*
X129959Y13386D01*
X129938Y13246D01*
X129939Y13104D01*
X129963Y12964D01*
X130007Y12830D01*
X130073Y12704D01*
X130157Y12590D01*
X130258Y12491D01*
X130373Y12408D01*
X130500Y12345D01*
X130635Y12302D01*
X130775Y12281D01*
X130917Y12282D01*
X131056Y12306D01*
X131191Y12350D01*
X131316Y12416D01*
X131370Y12455D01*
Y3500D01*
X124503D01*
Y8692D01*
X125250Y8725D01*
X125993Y8827D01*
X126725Y8995D01*
X127438Y9228D01*
X128127Y9525D01*
X128787Y9883D01*
X128904Y9965D01*
X129005Y10065D01*
X129090Y10180D01*
X129156Y10307D01*
X129201Y10442D01*
X129224Y10583D01*
X129225Y10726D01*
X129204Y10867D01*
X129161Y11003D01*
X129097Y11130D01*
X129014Y11247D01*
X128914Y11348D01*
X128799Y11433D01*
X128673Y11499D01*
X128537Y11544D01*
X128397Y11567D01*
X128254Y11568D01*
X128113Y11547D01*
X127977Y11504D01*
X127850Y11438D01*
X127338Y11152D01*
X126799Y10920D01*
X126240Y10737D01*
X125668Y10606D01*
X125087Y10527D01*
X124503Y10500D01*
Y23500D01*
X125087Y23473D01*
X125668Y23394D01*
X126240Y23263D01*
X126799Y23080D01*
X127338Y22848D01*
X127854Y22568D01*
X127979Y22502D01*
X128114Y22459D01*
X128254Y22438D01*
X128396Y22439D01*
X128536Y22463D01*
X128670Y22507D01*
X128796Y22573D01*
X128910Y22657D01*
X129009Y22758D01*
X129092Y22873D01*
X129155Y23000D01*
X129198Y23135D01*
X129219Y23275D01*
X129218Y23417D01*
X129194Y23556D01*
X129150Y23691D01*
X129084Y23816D01*
X129000Y23930D01*
X128899Y24030D01*
X128783Y24110D01*
X128127Y24475D01*
X127438Y24772D01*
X126725Y25005D01*
X125993Y25173D01*
X125250Y25275D01*
X124503Y25308D01*
Y47500D01*
G37*
G36*
X117630D02*X124503D01*
Y25308D01*
X124500Y25308D01*
X123750Y25275D01*
X123007Y25173D01*
X122275Y25005D01*
X121562Y24772D01*
X120873Y24475D01*
X120213Y24117D01*
X120096Y24035D01*
X119995Y23935D01*
X119910Y23820D01*
X119844Y23693D01*
X119799Y23558D01*
X119776Y23417D01*
X119775Y23274D01*
X119796Y23133D01*
X119839Y22997D01*
X119903Y22870D01*
X119986Y22753D01*
X120086Y22652D01*
X120201Y22567D01*
X120327Y22501D01*
X120463Y22456D01*
X120603Y22433D01*
X120746Y22432D01*
X120887Y22453D01*
X121023Y22496D01*
X121150Y22562D01*
X121662Y22848D01*
X122201Y23080D01*
X122759Y23263D01*
X123332Y23394D01*
X123913Y23473D01*
X124500Y23500D01*
X124503Y23500D01*
Y10500D01*
X124500Y10500D01*
X123913Y10527D01*
X123332Y10606D01*
X122759Y10737D01*
X122201Y10920D01*
X121662Y11152D01*
X121146Y11432D01*
X121021Y11498D01*
X120886Y11541D01*
X120746Y11562D01*
X120604Y11561D01*
X120464Y11537D01*
X120330Y11493D01*
X120204Y11427D01*
X120090Y11343D01*
X119991Y11242D01*
X119908Y11127D01*
X119845Y11000D01*
X119802Y10865D01*
X119781Y10725D01*
X119782Y10583D01*
X119806Y10444D01*
X119850Y10309D01*
X119916Y10184D01*
X120000Y10070D01*
X120101Y9970D01*
X120217Y9890D01*
X120873Y9525D01*
X121562Y9228D01*
X122275Y8995D01*
X123007Y8827D01*
X123750Y8725D01*
X124500Y8692D01*
X124503Y8692D01*
Y3500D01*
X117630D01*
Y12447D01*
X117680Y12410D01*
X117807Y12344D01*
X117942Y12299D01*
X118083Y12276D01*
X118226Y12275D01*
X118367Y12296D01*
X118503Y12339D01*
X118630Y12403D01*
X118747Y12486D01*
X118848Y12586D01*
X118933Y12701D01*
X118999Y12827D01*
X119044Y12963D01*
X119067Y13103D01*
X119068Y13246D01*
X119047Y13387D01*
X119004Y13523D01*
X118938Y13650D01*
X118652Y14162D01*
X118420Y14701D01*
X118237Y15260D01*
X118106Y15832D01*
X118027Y16413D01*
X118000Y17000D01*
X118027Y17587D01*
X118106Y18168D01*
X118237Y18741D01*
X118420Y19299D01*
X118652Y19838D01*
X118932Y20354D01*
X118998Y20479D01*
X119041Y20614D01*
X119062Y20754D01*
X119061Y20896D01*
X119037Y21036D01*
X118993Y21170D01*
X118927Y21296D01*
X118843Y21410D01*
X118742Y21509D01*
X118627Y21592D01*
X118500Y21655D01*
X118365Y21698D01*
X118225Y21719D01*
X118083Y21718D01*
X117944Y21694D01*
X117809Y21650D01*
X117684Y21584D01*
X117630Y21545D01*
Y47500D01*
G37*
G36*
X111370D02*X117630D01*
Y21545D01*
X117570Y21500D01*
X117470Y21399D01*
X117390Y21283D01*
X117025Y20627D01*
X116728Y19938D01*
X116495Y19225D01*
X116327Y18493D01*
X116225Y17750D01*
X116192Y17000D01*
X116225Y16250D01*
X116327Y15507D01*
X116495Y14775D01*
X116728Y14062D01*
X117025Y13373D01*
X117383Y12713D01*
X117465Y12596D01*
X117565Y12495D01*
X117630Y12447D01*
Y3500D01*
X111370D01*
Y12455D01*
X111430Y12500D01*
X111530Y12601D01*
X111610Y12717D01*
X111975Y13373D01*
X112272Y14062D01*
X112505Y14775D01*
X112673Y15507D01*
X112775Y16250D01*
X112808Y17000D01*
X112775Y17750D01*
X112673Y18493D01*
X112505Y19225D01*
X112272Y19938D01*
X111975Y20627D01*
X111617Y21287D01*
X111535Y21404D01*
X111435Y21505D01*
X111370Y21553D01*
Y47500D01*
G37*
G36*
X104503D02*X111370D01*
Y21553D01*
X111320Y21590D01*
X111193Y21656D01*
X111058Y21701D01*
X110917Y21724D01*
X110774Y21725D01*
X110633Y21704D01*
X110497Y21661D01*
X110370Y21597D01*
X110253Y21514D01*
X110152Y21414D01*
X110067Y21299D01*
X110001Y21173D01*
X109956Y21037D01*
X109933Y20897D01*
X109932Y20754D01*
X109953Y20613D01*
X109996Y20477D01*
X110062Y20350D01*
X110348Y19838D01*
X110580Y19299D01*
X110763Y18741D01*
X110894Y18168D01*
X110973Y17587D01*
X111000Y17000D01*
X110973Y16413D01*
X110894Y15832D01*
X110763Y15260D01*
X110580Y14701D01*
X110348Y14162D01*
X110068Y13646D01*
X110002Y13521D01*
X109959Y13386D01*
X109938Y13246D01*
X109939Y13104D01*
X109963Y12964D01*
X110007Y12830D01*
X110073Y12704D01*
X110157Y12590D01*
X110258Y12491D01*
X110373Y12408D01*
X110500Y12345D01*
X110635Y12302D01*
X110775Y12281D01*
X110917Y12282D01*
X111056Y12306D01*
X111191Y12350D01*
X111316Y12416D01*
X111370Y12455D01*
Y3500D01*
X104503D01*
Y8692D01*
X105250Y8725D01*
X105993Y8827D01*
X106725Y8995D01*
X107438Y9228D01*
X108127Y9525D01*
X108787Y9883D01*
X108904Y9965D01*
X109005Y10065D01*
X109090Y10180D01*
X109156Y10307D01*
X109201Y10442D01*
X109224Y10583D01*
X109225Y10726D01*
X109204Y10867D01*
X109161Y11003D01*
X109097Y11130D01*
X109014Y11247D01*
X108914Y11348D01*
X108799Y11433D01*
X108673Y11499D01*
X108537Y11544D01*
X108397Y11567D01*
X108254Y11568D01*
X108113Y11547D01*
X107977Y11504D01*
X107850Y11438D01*
X107338Y11152D01*
X106799Y10920D01*
X106240Y10737D01*
X105668Y10606D01*
X105087Y10527D01*
X104503Y10500D01*
Y23500D01*
X105087Y23473D01*
X105668Y23394D01*
X106240Y23263D01*
X106799Y23080D01*
X107338Y22848D01*
X107854Y22568D01*
X107979Y22502D01*
X108114Y22459D01*
X108254Y22438D01*
X108396Y22439D01*
X108536Y22463D01*
X108670Y22507D01*
X108796Y22573D01*
X108910Y22657D01*
X109009Y22758D01*
X109092Y22873D01*
X109155Y23000D01*
X109198Y23135D01*
X109219Y23275D01*
X109218Y23417D01*
X109194Y23556D01*
X109150Y23691D01*
X109084Y23816D01*
X109000Y23930D01*
X108899Y24030D01*
X108783Y24110D01*
X108127Y24475D01*
X107438Y24772D01*
X106725Y25005D01*
X105993Y25173D01*
X105250Y25275D01*
X104503Y25308D01*
Y47500D01*
G37*
G36*
X97630D02*X104503D01*
Y25308D01*
X104500Y25308D01*
X103750Y25275D01*
X103007Y25173D01*
X102275Y25005D01*
X101562Y24772D01*
X100873Y24475D01*
X100213Y24117D01*
X100096Y24035D01*
X99995Y23935D01*
X99910Y23820D01*
X99844Y23693D01*
X99799Y23558D01*
X99776Y23417D01*
X99775Y23274D01*
X99796Y23133D01*
X99839Y22997D01*
X99903Y22870D01*
X99986Y22753D01*
X100086Y22652D01*
X100201Y22567D01*
X100327Y22501D01*
X100463Y22456D01*
X100603Y22433D01*
X100746Y22432D01*
X100887Y22453D01*
X101023Y22496D01*
X101150Y22562D01*
X101662Y22848D01*
X102201Y23080D01*
X102759Y23263D01*
X103332Y23394D01*
X103913Y23473D01*
X104500Y23500D01*
X104503Y23500D01*
Y10500D01*
X104500Y10500D01*
X103913Y10527D01*
X103332Y10606D01*
X102759Y10737D01*
X102201Y10920D01*
X101662Y11152D01*
X101146Y11432D01*
X101021Y11498D01*
X100886Y11541D01*
X100746Y11562D01*
X100604Y11561D01*
X100464Y11537D01*
X100330Y11493D01*
X100204Y11427D01*
X100090Y11343D01*
X99991Y11242D01*
X99908Y11127D01*
X99845Y11000D01*
X99802Y10865D01*
X99781Y10725D01*
X99782Y10583D01*
X99806Y10444D01*
X99850Y10309D01*
X99916Y10184D01*
X100000Y10070D01*
X100101Y9970D01*
X100217Y9890D01*
X100873Y9525D01*
X101562Y9228D01*
X102275Y8995D01*
X103007Y8827D01*
X103750Y8725D01*
X104500Y8692D01*
X104503Y8692D01*
Y3500D01*
X97630D01*
Y12447D01*
X97680Y12410D01*
X97807Y12344D01*
X97942Y12299D01*
X98083Y12276D01*
X98226Y12275D01*
X98367Y12296D01*
X98503Y12339D01*
X98630Y12403D01*
X98747Y12486D01*
X98848Y12586D01*
X98933Y12701D01*
X98999Y12827D01*
X99044Y12963D01*
X99067Y13103D01*
X99068Y13246D01*
X99047Y13387D01*
X99004Y13523D01*
X98938Y13650D01*
X98652Y14162D01*
X98420Y14701D01*
X98237Y15260D01*
X98106Y15832D01*
X98027Y16413D01*
X98000Y17000D01*
X98027Y17587D01*
X98106Y18168D01*
X98237Y18741D01*
X98420Y19299D01*
X98652Y19838D01*
X98932Y20354D01*
X98998Y20479D01*
X99041Y20614D01*
X99062Y20754D01*
X99061Y20896D01*
X99037Y21036D01*
X98993Y21170D01*
X98927Y21296D01*
X98843Y21410D01*
X98742Y21509D01*
X98627Y21592D01*
X98500Y21655D01*
X98365Y21698D01*
X98225Y21719D01*
X98083Y21718D01*
X97944Y21694D01*
X97809Y21650D01*
X97684Y21584D01*
X97630Y21545D01*
Y47500D01*
G37*
G36*
X83238D02*X90824D01*
X91000Y47486D01*
X91176Y47500D01*
X97630D01*
Y21545D01*
X97570Y21500D01*
X97470Y21399D01*
X97390Y21283D01*
X97025Y20627D01*
X96728Y19938D01*
X96495Y19225D01*
X96327Y18493D01*
X96225Y17750D01*
X96192Y17000D01*
X96225Y16250D01*
X96327Y15507D01*
X96495Y14775D01*
X96728Y14062D01*
X97025Y13373D01*
X97383Y12713D01*
X97465Y12596D01*
X97565Y12495D01*
X97630Y12447D01*
Y3500D01*
X83238D01*
Y10526D01*
X84174Y11326D01*
X84992Y12283D01*
X85650Y13357D01*
X85815Y13755D01*
X86000Y13740D01*
X86510Y13780D01*
X87007Y13900D01*
X87480Y14095D01*
X87916Y14363D01*
X88298Y14702D01*
X90611Y17015D01*
X91000Y16985D01*
X91785Y17046D01*
X92550Y17230D01*
X93277Y17531D01*
X93948Y17942D01*
X94546Y18454D01*
X95058Y19052D01*
X95469Y19723D01*
X95770Y20450D01*
X95954Y21215D01*
X96000Y22000D01*
X95954Y22785D01*
X95770Y23550D01*
X95469Y24277D01*
X95058Y24948D01*
X94546Y25546D01*
X93948Y26058D01*
X93277Y26469D01*
X92550Y26770D01*
X91785Y26954D01*
X91000Y27015D01*
X90215Y26954D01*
X89450Y26770D01*
X88723Y26469D01*
X88052Y26058D01*
X87454Y25546D01*
X86942Y24948D01*
X86531Y24277D01*
X86230Y23550D01*
X86046Y22785D01*
X85985Y22000D01*
X86015Y21611D01*
X85421Y21017D01*
X84992Y21717D01*
X84174Y22674D01*
X83238Y23474D01*
Y47500D01*
G37*
G36*
X65439Y72187D02*X65500Y72182D01*
Y59500D01*
X77500Y47500D01*
X83238D01*
Y23474D01*
X83217Y23492D01*
X82143Y24150D01*
X80980Y24632D01*
X79755Y24926D01*
X78500Y25025D01*
X77245Y24926D01*
X76020Y24632D01*
X74857Y24150D01*
X73783Y23492D01*
X72826Y22674D01*
X72008Y21717D01*
X71350Y20643D01*
X70868Y19480D01*
X70574Y18255D01*
X70475Y17000D01*
X70574Y15745D01*
X70868Y14520D01*
X71350Y13357D01*
X72008Y12283D01*
X72826Y11326D01*
X73783Y10508D01*
X74857Y9850D01*
X76020Y9368D01*
X77245Y9074D01*
X78500Y8975D01*
X79755Y9074D01*
X80980Y9368D01*
X82143Y9850D01*
X83217Y10508D01*
X83238Y10526D01*
Y3500D01*
X65439D01*
Y12428D01*
X65440Y12429D01*
X65559Y12519D01*
X65663Y12627D01*
X65746Y12751D01*
X66100Y13404D01*
X66388Y14089D01*
X66614Y14796D01*
X66777Y15521D01*
X66875Y16258D01*
X66908Y17000D01*
X66875Y17742D01*
X66777Y18479D01*
X66614Y19204D01*
X66388Y19911D01*
X66100Y20596D01*
X65753Y21253D01*
X65668Y21377D01*
X65564Y21486D01*
X65444Y21577D01*
X65439Y21579D01*
Y72187D01*
G37*
G36*
Y125561D02*X65500Y125500D01*
Y86955D01*
X65439Y86893D01*
Y125561D01*
G37*
G36*
X58503Y128000D02*X63000D01*
X65439Y125561D01*
Y86893D01*
X63273Y84727D01*
X62944Y84357D01*
X62685Y83934D01*
X62495Y83476D01*
X62379Y82994D01*
X62371Y82885D01*
X62080Y82707D01*
X61386Y82114D01*
X60793Y81420D01*
X60316Y80641D01*
X59967Y79798D01*
X59754Y78910D01*
X59682Y78000D01*
X59754Y77090D01*
X59967Y76202D01*
X60316Y75359D01*
X60793Y74580D01*
X61386Y73886D01*
X62080Y73293D01*
X62859Y72816D01*
X63702Y72467D01*
X64590Y72254D01*
X65439Y72187D01*
Y21579D01*
X65311Y21648D01*
X65169Y21697D01*
X65020Y21723D01*
X64870Y21726D01*
X64721Y21706D01*
X64577Y21662D01*
X64441Y21596D01*
X64318Y21510D01*
X64209Y21406D01*
X64118Y21286D01*
X64048Y21153D01*
X63998Y21011D01*
X63972Y20862D01*
X63969Y20712D01*
X63990Y20563D01*
X64033Y20419D01*
X64102Y20285D01*
X64375Y19780D01*
X64598Y19251D01*
X64773Y18704D01*
X64899Y18143D01*
X64975Y17574D01*
X65000Y17000D01*
X64975Y16426D01*
X64899Y15857D01*
X64773Y15296D01*
X64598Y14749D01*
X64375Y14220D01*
X64107Y13712D01*
X64039Y13579D01*
X63996Y13436D01*
X63975Y13288D01*
X63978Y13138D01*
X64004Y12991D01*
X64053Y12850D01*
X64124Y12718D01*
X64214Y12599D01*
X64322Y12495D01*
X64445Y12409D01*
X64579Y12344D01*
X64722Y12301D01*
X64870Y12280D01*
X65020Y12283D01*
X65167Y12309D01*
X65308Y12358D01*
X65439Y12428D01*
Y3500D01*
X58503D01*
Y8592D01*
X59242Y8625D01*
X59979Y8723D01*
X60704Y8886D01*
X61411Y9112D01*
X62096Y9400D01*
X62753Y9747D01*
X62877Y9832D01*
X62986Y9936D01*
X63077Y10056D01*
X63148Y10189D01*
X63197Y10331D01*
X63223Y10480D01*
X63226Y10630D01*
X63206Y10779D01*
X63162Y10923D01*
X63096Y11059D01*
X63010Y11182D01*
X62906Y11291D01*
X62786Y11382D01*
X62653Y11452D01*
X62511Y11502D01*
X62362Y11528D01*
X62212Y11531D01*
X62063Y11510D01*
X61919Y11467D01*
X61785Y11398D01*
X61280Y11125D01*
X60751Y10902D01*
X60204Y10727D01*
X59643Y10601D01*
X59074Y10525D01*
X58503Y10500D01*
Y23500D01*
X59074Y23475D01*
X59643Y23399D01*
X60204Y23273D01*
X60751Y23098D01*
X61280Y22875D01*
X61788Y22607D01*
X61921Y22539D01*
X62064Y22496D01*
X62212Y22475D01*
X62362Y22478D01*
X62509Y22504D01*
X62650Y22553D01*
X62782Y22624D01*
X62901Y22714D01*
X63005Y22822D01*
X63091Y22945D01*
X63156Y23079D01*
X63199Y23222D01*
X63220Y23370D01*
X63217Y23520D01*
X63191Y23667D01*
X63142Y23808D01*
X63071Y23940D01*
X62981Y24059D01*
X62873Y24163D01*
X62749Y24246D01*
X62096Y24600D01*
X61411Y24888D01*
X60704Y25114D01*
X59979Y25277D01*
X59242Y25375D01*
X58503Y25408D01*
Y128000D01*
G37*
G36*
X51561Y73561D02*X56000Y78000D01*
Y91500D01*
X51561Y95939D01*
Y113660D01*
X51625Y113699D01*
X52259Y114241D01*
X52801Y114875D01*
X53237Y115586D01*
X53556Y116357D01*
X53751Y117168D01*
X53800Y118000D01*
X53751Y118832D01*
X53556Y119643D01*
X53237Y120414D01*
X52801Y121125D01*
X52259Y121759D01*
X51625Y122301D01*
X51561Y122340D01*
Y128000D01*
X58503D01*
Y25408D01*
X58500Y25408D01*
X57758Y25375D01*
X57021Y25277D01*
X56296Y25114D01*
X55589Y24888D01*
X54904Y24600D01*
X54247Y24253D01*
X54123Y24168D01*
X54014Y24064D01*
X53923Y23944D01*
X53852Y23811D01*
X53803Y23669D01*
X53777Y23520D01*
X53774Y23370D01*
X53794Y23221D01*
X53838Y23077D01*
X53904Y22941D01*
X53990Y22818D01*
X54094Y22709D01*
X54214Y22618D01*
X54347Y22548D01*
X54489Y22498D01*
X54638Y22472D01*
X54788Y22469D01*
X54937Y22490D01*
X55081Y22533D01*
X55215Y22602D01*
X55720Y22875D01*
X56249Y23098D01*
X56796Y23273D01*
X57357Y23399D01*
X57926Y23475D01*
X58500Y23500D01*
X58503Y23500D01*
Y10500D01*
X58500Y10500D01*
X57926Y10525D01*
X57357Y10601D01*
X56796Y10727D01*
X56249Y10902D01*
X55720Y11125D01*
X55212Y11393D01*
X55079Y11461D01*
X54936Y11504D01*
X54788Y11525D01*
X54638Y11522D01*
X54491Y11496D01*
X54350Y11447D01*
X54218Y11376D01*
X54099Y11286D01*
X53995Y11178D01*
X53909Y11056D01*
X53844Y10921D01*
X53801Y10778D01*
X53780Y10630D01*
X53783Y10480D01*
X53809Y10333D01*
X53858Y10192D01*
X53929Y10060D01*
X54019Y9941D01*
X54127Y9837D01*
X54251Y9754D01*
X54904Y9400D01*
X55589Y9112D01*
X56296Y8886D01*
X57021Y8723D01*
X57758Y8625D01*
X58500Y8592D01*
X58503Y8592D01*
Y3500D01*
X52000D01*
X51561Y3939D01*
Y12421D01*
X51689Y12352D01*
X51831Y12303D01*
X51980Y12277D01*
X52130Y12274D01*
X52279Y12294D01*
X52423Y12338D01*
X52559Y12404D01*
X52682Y12490D01*
X52791Y12594D01*
X52882Y12714D01*
X52952Y12847D01*
X53002Y12989D01*
X53028Y13138D01*
X53031Y13288D01*
X53010Y13437D01*
X52967Y13581D01*
X52898Y13715D01*
X52625Y14220D01*
X52402Y14749D01*
X52227Y15296D01*
X52101Y15857D01*
X52025Y16426D01*
X52000Y17000D01*
X52025Y17574D01*
X52101Y18143D01*
X52227Y18704D01*
X52402Y19251D01*
X52625Y19780D01*
X52893Y20288D01*
X52961Y20421D01*
X53004Y20564D01*
X53025Y20712D01*
X53022Y20862D01*
X52996Y21009D01*
X52947Y21150D01*
X52876Y21282D01*
X52786Y21401D01*
X52678Y21505D01*
X52555Y21591D01*
X52421Y21656D01*
X52278Y21699D01*
X52130Y21720D01*
X51980Y21717D01*
X51833Y21691D01*
X51692Y21642D01*
X51561Y21572D01*
Y73561D01*
G37*
G36*
Y122340D02*X50914Y122737D01*
X50143Y123056D01*
X49332Y123251D01*
X48500Y123316D01*
Y128000D01*
X51561D01*
Y122340D01*
G37*
G36*
Y95939D02*X48500Y99000D01*
Y112684D01*
X49332Y112749D01*
X50143Y112944D01*
X50914Y113263D01*
X51561Y113660D01*
Y95939D01*
G37*
G36*
X38500Y17000D02*Y48173D01*
X39881Y48282D01*
X41228Y48605D01*
X42507Y49135D01*
X43688Y49859D01*
X44742Y50758D01*
X45641Y51812D01*
X46365Y52993D01*
X46895Y54272D01*
X47218Y55619D01*
X47300Y57000D01*
X47218Y58381D01*
X46895Y59728D01*
X46365Y61007D01*
X45641Y62188D01*
X44742Y63242D01*
X43688Y64141D01*
X42729Y64729D01*
X51561Y73561D01*
Y21572D01*
X51560Y21571D01*
X51441Y21481D01*
X51337Y21373D01*
X51254Y21249D01*
X50900Y20596D01*
X50612Y19911D01*
X50386Y19204D01*
X50223Y18479D01*
X50125Y17742D01*
X50092Y17000D01*
X50125Y16258D01*
X50223Y15521D01*
X50386Y14796D01*
X50612Y14089D01*
X50900Y13404D01*
X51247Y12747D01*
X51332Y12623D01*
X51436Y12514D01*
X51556Y12423D01*
X51561Y12421D01*
Y3939D01*
X38500Y17000D01*
G37*
G36*
X48500Y128000D02*Y130500D01*
X62500D01*
Y128000D01*
X48500D01*
G37*
G36*
X56000Y85500D02*Y78000D01*
X52500Y74500D01*
Y81000D01*
X56000Y84500D01*
Y85500D01*
G37*
G36*
X57500Y194000D02*X87500D01*
Y189249D01*
X87395Y189293D01*
X86706Y189458D01*
X86000Y189514D01*
X85294Y189458D01*
X84605Y189293D01*
X83951Y189022D01*
X83347Y188652D01*
X82808Y188192D01*
X82348Y187653D01*
X81978Y187049D01*
X81707Y186395D01*
X81542Y185706D01*
X81486Y185000D01*
X81542Y184294D01*
X81707Y183605D01*
X81978Y182951D01*
X82348Y182347D01*
X82808Y181808D01*
X83347Y181348D01*
X83951Y180978D01*
X84605Y180707D01*
X85294Y180542D01*
X86000Y180486D01*
X86706Y180542D01*
X87395Y180707D01*
X87500Y180751D01*
Y180000D01*
X57500D01*
Y180751D01*
X58049Y180978D01*
X58653Y181348D01*
X59192Y181808D01*
X59652Y182347D01*
X60022Y182951D01*
X60293Y183605D01*
X60458Y184294D01*
X60500Y185000D01*
X60458Y185706D01*
X60293Y186395D01*
X60022Y187049D01*
X59652Y187653D01*
X59192Y188192D01*
X58653Y188652D01*
X58049Y189022D01*
X57500Y189249D01*
Y194000D01*
G37*
G36*
X65500Y204000D02*X84500D01*
X90500Y198000D01*
X65500D01*
Y204000D01*
G37*
G36*
X60500Y234000D02*Y211000D01*
X37000Y187500D01*
X36947D01*
X36564Y187840D01*
X36094Y188128D01*
X35585Y188339D01*
X35049Y188468D01*
X34500Y188511D01*
X33951Y188468D01*
X33415Y188339D01*
X32906Y188128D01*
X32436Y187840D01*
X32038Y187500D01*
X29500D01*
X21000Y179000D01*
Y114000D01*
X44912Y90088D01*
X44753Y89705D01*
X44551Y88863D01*
X44483Y88000D01*
X44551Y87137D01*
X44753Y86295D01*
X45084Y85495D01*
X45500Y84817D01*
Y80500D01*
X26500D01*
X9000Y98000D01*
Y182500D01*
X60500Y234000D01*
G37*
G36*
X66000Y223500D02*X59000D01*
Y230000D01*
X66000D01*
Y223500D01*
G37*
G36*
X210700Y202283D02*Y213620D01*
X211041Y214177D01*
X211415Y215078D01*
X211643Y216027D01*
X211700Y217000D01*
X211643Y217973D01*
X211415Y218922D01*
X211041Y219823D01*
X210531Y220656D01*
X209898Y221398D01*
X209156Y222031D01*
X208323Y222541D01*
X207422Y222915D01*
X206473Y223143D01*
X205500Y223219D01*
X204527Y223143D01*
X203856Y222981D01*
Y229500D01*
X209000D01*
X227500Y211000D01*
Y170500D01*
X215500Y158500D01*
X203856D01*
Y169663D01*
X203932Y169707D01*
X204013Y169770D01*
X204082Y169846D01*
X204136Y169932D01*
X204358Y170366D01*
X204533Y170822D01*
X204666Y171291D01*
X204755Y171770D01*
X204800Y172256D01*
Y172744D01*
X204755Y173230D01*
X204666Y173709D01*
X204533Y174178D01*
X204358Y174634D01*
X204141Y175071D01*
X204085Y175157D01*
X204015Y175233D01*
X203935Y175297D01*
X203856Y175342D01*
Y179991D01*
X204220Y180586D01*
X204606Y181516D01*
X204841Y182496D01*
X204841Y182500D01*
X211838D01*
X212080Y182293D01*
X212859Y181816D01*
X213702Y181467D01*
X214590Y181254D01*
X215500Y181182D01*
X216410Y181254D01*
X217298Y181467D01*
X218141Y181816D01*
X218920Y182293D01*
X219614Y182886D01*
X220207Y183580D01*
X220684Y184359D01*
X221033Y185202D01*
X221246Y186090D01*
X221300Y187000D01*
X221246Y187910D01*
X221033Y188798D01*
X220684Y189641D01*
X220207Y190420D01*
X219614Y191114D01*
X219366Y191325D01*
X219682Y191401D01*
X220002Y191534D01*
X220297Y191715D01*
X220560Y191940D01*
X220785Y192203D01*
X220966Y192498D01*
X221099Y192818D01*
X221180Y193155D01*
X221200Y193500D01*
X221180Y200845D01*
X221099Y201182D01*
X220966Y201502D01*
X220785Y201797D01*
X220560Y202060D01*
X220297Y202285D01*
X220002Y202466D01*
X219682Y202599D01*
X219345Y202680D01*
X219000Y202700D01*
X211655Y202680D01*
X211318Y202599D01*
X210998Y202466D01*
X210703Y202285D01*
X210700Y202283D01*
G37*
G36*
X203856Y158500D02*X200856D01*
Y159163D01*
X200932Y159207D01*
X201013Y159270D01*
X201082Y159346D01*
X201136Y159432D01*
X201358Y159866D01*
X201533Y160322D01*
X201666Y160791D01*
X201755Y161270D01*
X201800Y161756D01*
Y162244D01*
X201755Y162730D01*
X201666Y163209D01*
X201533Y163678D01*
X201358Y164134D01*
X201141Y164571D01*
X201085Y164657D01*
X201015Y164733D01*
X200935Y164797D01*
X200856Y164842D01*
Y167376D01*
X201178Y167467D01*
X201634Y167642D01*
X202071Y167859D01*
X202157Y167915D01*
X202233Y167985D01*
X202297Y168065D01*
X202348Y168155D01*
X202384Y168251D01*
X202404Y168352D01*
X202409Y168455D01*
X202397Y168557D01*
X202370Y168657D01*
X202327Y168750D01*
X202270Y168836D01*
X202201Y168912D01*
X202120Y168976D01*
X202031Y169027D01*
X201934Y169063D01*
X201833Y169084D01*
X201730Y169088D01*
X201628Y169077D01*
X201529Y169049D01*
X201436Y169005D01*
X201109Y168838D01*
X200856Y168740D01*
Y176260D01*
X201109Y176162D01*
X201438Y175999D01*
X201530Y175955D01*
X201629Y175928D01*
X201731Y175916D01*
X201833Y175921D01*
X201933Y175941D01*
X202029Y175977D01*
X202118Y176027D01*
X202198Y176091D01*
X202267Y176166D01*
X202323Y176252D01*
X202366Y176345D01*
X202393Y176443D01*
X202405Y176545D01*
X202400Y176647D01*
X202380Y176748D01*
X202344Y176843D01*
X202293Y176932D01*
X202230Y177013D01*
X202154Y177082D01*
X202068Y177136D01*
X201634Y177358D01*
X201178Y177533D01*
X200965Y177594D01*
X201414Y177780D01*
X202273Y178306D01*
X203039Y178961D01*
X203694Y179727D01*
X203856Y179991D01*
Y175342D01*
X203845Y175348D01*
X203749Y175384D01*
X203648Y175404D01*
X203545Y175409D01*
X203443Y175397D01*
X203343Y175370D01*
X203250Y175327D01*
X203164Y175270D01*
X203088Y175201D01*
X203024Y175120D01*
X202973Y175031D01*
X202937Y174934D01*
X202916Y174833D01*
X202912Y174730D01*
X202923Y174628D01*
X202951Y174529D01*
X202995Y174436D01*
X203162Y174109D01*
X203295Y173765D01*
X203395Y173412D01*
X203462Y173050D01*
X203496Y172684D01*
Y172316D01*
X203462Y171950D01*
X203395Y171588D01*
X203295Y171235D01*
X203162Y170891D01*
X202999Y170562D01*
X202955Y170470D01*
X202928Y170371D01*
X202916Y170269D01*
X202921Y170167D01*
X202941Y170067D01*
X202977Y169971D01*
X203027Y169882D01*
X203091Y169802D01*
X203166Y169733D01*
X203252Y169677D01*
X203345Y169634D01*
X203443Y169607D01*
X203545Y169595D01*
X203647Y169600D01*
X203748Y169620D01*
X203843Y169656D01*
X203856Y169663D01*
Y158500D01*
G37*
G36*
X200856Y168740D02*X200765Y168705D01*
X200412Y168605D01*
X200050Y168538D01*
X199684Y168504D01*
X199316D01*
X198950Y168538D01*
X198588Y168605D01*
X198235Y168705D01*
X197891Y168838D01*
X197562Y169001D01*
X197470Y169045D01*
X197371Y169072D01*
X197269Y169084D01*
X197167Y169079D01*
X197067Y169059D01*
X196971Y169023D01*
X196900Y168983D01*
X196833Y176061D01*
X196880Y176024D01*
X196969Y175973D01*
X197066Y175937D01*
X197167Y175916D01*
X197270Y175912D01*
X197372Y175923D01*
X197471Y175951D01*
X197564Y175995D01*
X197891Y176162D01*
X198235Y176295D01*
X198588Y176395D01*
X198950Y176462D01*
X199316Y176496D01*
X199684D01*
X200050Y176462D01*
X200412Y176395D01*
X200765Y176295D01*
X200856Y176260D01*
Y168740D01*
G37*
G36*
Y158500D02*X199078D01*
X199031Y158527D01*
X198934Y158563D01*
X198833Y158584D01*
X198730Y158588D01*
X198628Y158577D01*
X198529Y158549D01*
X198436Y158505D01*
X198427Y158500D01*
X197000D01*
X196929Y165973D01*
X197050Y165962D01*
X197412Y165895D01*
X197765Y165795D01*
X198109Y165662D01*
X198438Y165499D01*
X198530Y165455D01*
X198629Y165428D01*
X198731Y165416D01*
X198833Y165421D01*
X198933Y165441D01*
X199029Y165477D01*
X199118Y165527D01*
X199198Y165591D01*
X199267Y165666D01*
X199323Y165752D01*
X199366Y165845D01*
X199393Y165943D01*
X199405Y166045D01*
X199400Y166147D01*
X199380Y166248D01*
X199344Y166343D01*
X199293Y166432D01*
X199230Y166513D01*
X199154Y166582D01*
X199068Y166636D01*
X198634Y166858D01*
X198178Y167033D01*
X197709Y167166D01*
X197230Y167255D01*
X196916Y167284D01*
X196911Y167877D01*
X196932Y167864D01*
X197366Y167642D01*
X197822Y167467D01*
X198291Y167334D01*
X198770Y167245D01*
X199256Y167200D01*
X199744D01*
X200230Y167245D01*
X200709Y167334D01*
X200856Y167376D01*
Y164842D01*
X200845Y164848D01*
X200749Y164884D01*
X200648Y164904D01*
X200545Y164909D01*
X200443Y164897D01*
X200343Y164870D01*
X200250Y164827D01*
X200164Y164770D01*
X200088Y164701D01*
X200024Y164620D01*
X199973Y164531D01*
X199937Y164434D01*
X199916Y164333D01*
X199912Y164230D01*
X199923Y164128D01*
X199951Y164029D01*
X199995Y163936D01*
X200162Y163609D01*
X200295Y163265D01*
X200395Y162912D01*
X200462Y162550D01*
X200496Y162184D01*
Y161816D01*
X200462Y161450D01*
X200395Y161088D01*
X200295Y160735D01*
X200162Y160391D01*
X199999Y160062D01*
X199955Y159970D01*
X199928Y159871D01*
X199916Y159769D01*
X199921Y159667D01*
X199941Y159567D01*
X199977Y159471D01*
X200027Y159382D01*
X200091Y159302D01*
X200166Y159233D01*
X200252Y159177D01*
X200345Y159134D01*
X200443Y159107D01*
X200545Y159095D01*
X200647Y159100D01*
X200748Y159120D01*
X200843Y159156D01*
X200856Y159163D01*
Y158500D01*
G37*
G36*
X203856Y222981D02*X203578Y222915D01*
X202677Y222541D01*
X201844Y222031D01*
X201102Y221398D01*
X200500Y220692D01*
X199898Y221398D01*
X199156Y222031D01*
X198323Y222541D01*
X197422Y222915D01*
X196473Y223143D01*
X195500Y223219D01*
X194527Y223143D01*
X193578Y222915D01*
X192677Y222541D01*
X191844Y222031D01*
X191102Y221398D01*
X190469Y220656D01*
X189970Y219842D01*
X189968Y219843D01*
X189850Y219852D01*
X189732Y219843D01*
X189618Y219815D01*
X189508Y219770D01*
X189408Y219709D01*
X189318Y219632D01*
X189241Y219542D01*
X189180Y219442D01*
X189135Y219332D01*
X189107Y219218D01*
X189100Y219100D01*
Y214900D01*
X189107Y214782D01*
X189135Y214668D01*
X189180Y214558D01*
X189241Y214458D01*
X189318Y214368D01*
X189408Y214291D01*
X189508Y214230D01*
X189618Y214185D01*
X189732Y214157D01*
X189850Y214148D01*
X189968Y214157D01*
X189970Y214158D01*
X190469Y213344D01*
X191102Y212602D01*
X191844Y211969D01*
X192250Y211720D01*
Y211000D01*
X185500D01*
Y211900D01*
X187600D01*
X187718Y211907D01*
X187832Y211935D01*
X187942Y211980D01*
X188042Y212041D01*
X188132Y212118D01*
X188209Y212208D01*
X188270Y212308D01*
X188315Y212418D01*
X188343Y212532D01*
X188352Y212650D01*
X188343Y212768D01*
X188315Y212882D01*
X188270Y212992D01*
X188209Y213092D01*
X188132Y213182D01*
X188042Y213259D01*
X187942Y213320D01*
X187832Y213365D01*
X187718Y213393D01*
X187600Y213400D01*
X185500D01*
Y220600D01*
X187600D01*
X187718Y220607D01*
X187832Y220635D01*
X187942Y220680D01*
X188042Y220741D01*
X188132Y220818D01*
X188209Y220908D01*
X188270Y221008D01*
X188315Y221118D01*
X188343Y221232D01*
X188352Y221350D01*
X188343Y221468D01*
X188315Y221582D01*
X188270Y221692D01*
X188209Y221792D01*
X188132Y221882D01*
X188042Y221959D01*
X187942Y222020D01*
X187832Y222065D01*
X187718Y222093D01*
X187600Y222100D01*
X185500D01*
Y229500D01*
X203856D01*
Y222981D01*
G37*
G36*
X185500Y211000D02*X180440D01*
Y214586D01*
X180455Y214619D01*
X180480Y214558D01*
X180541Y214458D01*
X180618Y214368D01*
X180708Y214291D01*
X180808Y214230D01*
X180918Y214185D01*
X181032Y214157D01*
X181150Y214148D01*
X181268Y214157D01*
X181382Y214185D01*
X181492Y214230D01*
X181592Y214291D01*
X181682Y214368D01*
X181759Y214458D01*
X181820Y214558D01*
X181865Y214668D01*
X181893Y214782D01*
X181900Y214900D01*
Y219100D01*
X181893Y219218D01*
X181865Y219332D01*
X181820Y219442D01*
X181759Y219542D01*
X181682Y219632D01*
X181592Y219709D01*
X181492Y219770D01*
X181382Y219815D01*
X181268Y219843D01*
X181150Y219852D01*
X181032Y219843D01*
X180918Y219815D01*
X180808Y219770D01*
X180708Y219709D01*
X180618Y219632D01*
X180541Y219542D01*
X180480Y219442D01*
X180457Y219387D01*
X180440Y219426D01*
Y229500D01*
X185500D01*
Y222100D01*
X183400D01*
X183282Y222093D01*
X183168Y222065D01*
X183058Y222020D01*
X182958Y221959D01*
X182868Y221882D01*
X182791Y221792D01*
X182730Y221692D01*
X182685Y221582D01*
X182657Y221468D01*
X182648Y221350D01*
X182657Y221232D01*
X182685Y221118D01*
X182730Y221008D01*
X182791Y220908D01*
X182868Y220818D01*
X182958Y220741D01*
X183058Y220680D01*
X183168Y220635D01*
X183282Y220607D01*
X183400Y220600D01*
X185500D01*
Y213400D01*
X183400D01*
X183282Y213393D01*
X183168Y213365D01*
X183058Y213320D01*
X182958Y213259D01*
X182868Y213182D01*
X182791Y213092D01*
X182730Y212992D01*
X182685Y212882D01*
X182657Y212768D01*
X182648Y212650D01*
X182657Y212532D01*
X182685Y212418D01*
X182730Y212308D01*
X182791Y212208D01*
X182868Y212118D01*
X182958Y212041D01*
X183058Y211980D01*
X183168Y211935D01*
X183282Y211907D01*
X183400Y211900D01*
X185500D01*
Y211000D01*
G37*
G36*
X180440D02*X175502D01*
Y211494D01*
X176016Y211518D01*
X176528Y211591D01*
X177031Y211711D01*
X177520Y211878D01*
X177992Y212090D01*
X178093Y212151D01*
X178184Y212228D01*
X178261Y212318D01*
X178323Y212420D01*
X178369Y212529D01*
X178397Y212645D01*
X178406Y212763D01*
X178397Y212881D01*
X178370Y212997D01*
X178324Y213107D01*
X178262Y213208D01*
X178186Y213298D01*
X178095Y213376D01*
X177994Y213438D01*
X177885Y213484D01*
X177769Y213511D01*
X177651Y213521D01*
X177532Y213512D01*
X177417Y213484D01*
X177308Y213437D01*
X176968Y213279D01*
X176612Y213158D01*
X176247Y213070D01*
X175875Y213018D01*
X175502Y213000D01*
Y221000D01*
X175875Y220982D01*
X176247Y220930D01*
X176612Y220842D01*
X176968Y220721D01*
X177310Y220567D01*
X177418Y220520D01*
X177533Y220493D01*
X177651Y220483D01*
X177768Y220493D01*
X177883Y220521D01*
X177992Y220566D01*
X178093Y220628D01*
X178182Y220705D01*
X178259Y220795D01*
X178320Y220895D01*
X178365Y221004D01*
X178393Y221119D01*
X178402Y221237D01*
X178392Y221355D01*
X178365Y221469D01*
X178319Y221578D01*
X178257Y221679D01*
X178181Y221769D01*
X178091Y221845D01*
X177989Y221905D01*
X177520Y222122D01*
X177031Y222289D01*
X176528Y222409D01*
X176016Y222482D01*
X175502Y222506D01*
Y229500D01*
X180440D01*
Y219426D01*
X180410Y219492D01*
X180349Y219593D01*
X180272Y219684D01*
X180182Y219761D01*
X180080Y219823D01*
X179971Y219869D01*
X179855Y219897D01*
X179737Y219906D01*
X179619Y219897D01*
X179503Y219870D01*
X179393Y219824D01*
X179292Y219762D01*
X179202Y219686D01*
X179124Y219595D01*
X179062Y219494D01*
X179016Y219385D01*
X178989Y219269D01*
X178979Y219151D01*
X178988Y219032D01*
X179016Y218917D01*
X179063Y218808D01*
X179221Y218468D01*
X179342Y218112D01*
X179430Y217747D01*
X179482Y217375D01*
X179500Y217000D01*
X179482Y216625D01*
X179430Y216253D01*
X179342Y215888D01*
X179221Y215532D01*
X179067Y215190D01*
X179020Y215082D01*
X178993Y214967D01*
X178983Y214849D01*
X178993Y214732D01*
X179021Y214617D01*
X179066Y214508D01*
X179128Y214407D01*
X179205Y214318D01*
X179295Y214241D01*
X179395Y214180D01*
X179504Y214135D01*
X179619Y214107D01*
X179737Y214098D01*
X179855Y214108D01*
X179969Y214135D01*
X180078Y214181D01*
X180179Y214243D01*
X180269Y214319D01*
X180345Y214409D01*
X180405Y214511D01*
X180440Y214586D01*
Y211000D01*
G37*
G36*
X175502D02*X171007D01*
Y214140D01*
X171029Y214131D01*
X171145Y214103D01*
X171263Y214094D01*
X171381Y214103D01*
X171497Y214130D01*
X171607Y214176D01*
X171708Y214238D01*
X171798Y214314D01*
X171876Y214405D01*
X171938Y214506D01*
X171984Y214615D01*
X172011Y214731D01*
X172021Y214849D01*
X172012Y214968D01*
X171984Y215083D01*
X171937Y215192D01*
X171779Y215532D01*
X171658Y215888D01*
X171570Y216253D01*
X171518Y216625D01*
X171500Y217000D01*
X171518Y217375D01*
X171570Y217747D01*
X171658Y218112D01*
X171779Y218468D01*
X171933Y218810D01*
X171980Y218918D01*
X172007Y219033D01*
X172017Y219151D01*
X172007Y219268D01*
X171979Y219383D01*
X171934Y219492D01*
X171872Y219593D01*
X171795Y219682D01*
X171705Y219759D01*
X171605Y219820D01*
X171496Y219865D01*
X171381Y219893D01*
X171263Y219902D01*
X171145Y219892D01*
X171031Y219865D01*
X171007Y219855D01*
Y229500D01*
X175502D01*
Y222506D01*
X175500Y222506D01*
X174984Y222482D01*
X174472Y222409D01*
X173969Y222289D01*
X173480Y222122D01*
X173008Y221910D01*
X172907Y221849D01*
X172816Y221772D01*
X172739Y221682D01*
X172677Y221580D01*
X172631Y221471D01*
X172603Y221355D01*
X172594Y221237D01*
X172603Y221119D01*
X172630Y221003D01*
X172676Y220893D01*
X172738Y220792D01*
X172814Y220702D01*
X172905Y220624D01*
X173006Y220562D01*
X173115Y220516D01*
X173231Y220489D01*
X173349Y220479D01*
X173468Y220488D01*
X173583Y220516D01*
X173692Y220563D01*
X174032Y220721D01*
X174388Y220842D01*
X174753Y220930D01*
X175125Y220982D01*
X175500Y221000D01*
X175502Y221000D01*
Y213000D01*
X175500Y213000D01*
X175125Y213018D01*
X174753Y213070D01*
X174388Y213158D01*
X174032Y213279D01*
X173690Y213433D01*
X173582Y213480D01*
X173467Y213507D01*
X173349Y213517D01*
X173232Y213507D01*
X173117Y213479D01*
X173008Y213434D01*
X172907Y213372D01*
X172818Y213295D01*
X172741Y213205D01*
X172680Y213105D01*
X172635Y212996D01*
X172607Y212881D01*
X172598Y212763D01*
X172608Y212645D01*
X172635Y212531D01*
X172681Y212422D01*
X172743Y212321D01*
X172819Y212231D01*
X172909Y212155D01*
X173011Y212095D01*
X173480Y211878D01*
X173969Y211711D01*
X174472Y211591D01*
X174984Y211518D01*
X175500Y211494D01*
X175502Y211494D01*
Y211000D01*
G37*
G36*
X171007D02*X50500D01*
Y214000D01*
X61500Y225000D01*
X64500D01*
X69000Y229500D01*
X108933D01*
X108681Y228891D01*
X108457Y227957D01*
X108381Y227000D01*
X108457Y226043D01*
X108681Y225109D01*
X109048Y224222D01*
X109550Y223403D01*
X110173Y222673D01*
X110903Y222050D01*
X111722Y221548D01*
X112609Y221181D01*
X113543Y220957D01*
X114500Y220881D01*
X115457Y220957D01*
X116391Y221181D01*
X117278Y221548D01*
X118097Y222050D01*
X118827Y222673D01*
X118935Y222800D01*
X120065D01*
X120173Y222673D01*
X120903Y222050D01*
X121722Y221548D01*
X122609Y221181D01*
X123543Y220957D01*
X124500Y220881D01*
X125457Y220957D01*
X126391Y221181D01*
X127278Y221548D01*
X128097Y222050D01*
X128827Y222673D01*
X129450Y223403D01*
X129500Y223485D01*
X129550Y223403D01*
X130173Y222673D01*
X130903Y222050D01*
X131722Y221548D01*
X132609Y221181D01*
X133543Y220957D01*
X134500Y220881D01*
X135457Y220957D01*
X136391Y221181D01*
X137278Y221548D01*
X138097Y222050D01*
X138827Y222673D01*
X139450Y223403D01*
X139500Y223485D01*
X139550Y223403D01*
X140173Y222673D01*
X140903Y222050D01*
X141722Y221548D01*
X142609Y221181D01*
X143543Y220957D01*
X144500Y220881D01*
X145457Y220957D01*
X146391Y221181D01*
X147278Y221548D01*
X148097Y222050D01*
X148827Y222673D01*
X149450Y223403D01*
X149500Y223485D01*
X149550Y223403D01*
X150173Y222673D01*
X150903Y222050D01*
X151722Y221548D01*
X152609Y221181D01*
X153543Y220957D01*
X154500Y220881D01*
X155457Y220957D01*
X156391Y221181D01*
X157278Y221548D01*
X158097Y222050D01*
X158827Y222673D01*
X158849Y222700D01*
X160151D01*
X160173Y222673D01*
X160903Y222050D01*
X161722Y221548D01*
X162609Y221181D01*
X163543Y220957D01*
X164500Y220881D01*
X165457Y220957D01*
X166391Y221181D01*
X167278Y221548D01*
X168097Y222050D01*
X168827Y222673D01*
X169450Y223403D01*
X169952Y224222D01*
X170319Y225109D01*
X170543Y226043D01*
X170600Y227000D01*
X170543Y227957D01*
X170319Y228891D01*
X170067Y229500D01*
X171007D01*
Y219855D01*
X170922Y219819D01*
X170821Y219757D01*
X170731Y219681D01*
X170655Y219591D01*
X170595Y219489D01*
X170378Y219020D01*
X170211Y218531D01*
X170091Y218028D01*
X170018Y217516D01*
X169994Y217000D01*
X170018Y216484D01*
X170091Y215972D01*
X170211Y215469D01*
X170378Y214980D01*
X170590Y214508D01*
X170651Y214407D01*
X170728Y214316D01*
X170818Y214239D01*
X170920Y214177D01*
X171007Y214140D01*
Y211000D01*
G37*
G54D53*X77000Y108000D02*X96500Y127500D01*
X95500Y108000D02*Y104500D01*
X79500Y119000D02*X80000D01*
X102000Y124500D02*X85500Y108000D01*
X90500Y130500D02*X78500Y118500D01*
G54D54*X44000Y88000D02*X20000Y112000D01*
X50000Y88000D02*X44000D01*
X65500Y108000D02*X50000D01*
X60000Y122500D02*Y108000D01*
X45500Y80500D02*Y86500D01*
G54D53*X100500Y97500D02*Y116500D01*
X110000Y126000D01*
X102000Y132000D02*X108500D01*
X102000D02*Y124500D01*
X111500Y119000D02*X111000Y118500D01*
X110000Y126000D02*X113000D01*
G54D54*X48500Y128000D02*X54500D01*
X60000Y122500D01*
G54D53*X95500Y104500D02*X92000Y101000D01*
X74000D01*
X70500Y104000D01*
Y119500D01*
X95500Y87000D02*X70000D01*
G54D54*X69500Y6000D02*X93500D01*
G54D53*X91000Y22000D02*X86000Y17000D01*
X78500D01*
X87500Y68000D02*X85500Y74000D01*
Y78000D01*
X75500D02*Y70500D01*
X85000Y61000D01*
X65500Y78000D02*Y82500D01*
X70000Y87000D01*
X90000Y61000D02*X100500Y71500D01*
Y86500D01*
X105500Y78000D02*Y75500D01*
X107500Y73500D01*
Y68000D01*
X104000D01*
X100500Y86500D02*X105500Y91500D01*
Y108000D02*Y91500D01*
X95500Y78000D02*Y92500D01*
X100500Y97500D01*
X104000Y68000D02*X91000Y55000D01*
X91500Y52000D02*X91000D01*
X85000Y61000D02*X90000D01*
X91000Y55000D02*Y52000D01*
X180500Y181000D02*X185500Y176000D01*
G54D54*X179500Y171500D02*X178000Y173000D01*
Y172500D02*X169500D01*
X169000Y172000D01*
G54D53*X104500Y148500D02*Y143000D01*
X119500Y162000D02*X170500D01*
X124500Y173000D02*X132500Y181000D01*
X180500D02*X132500D01*
X162500Y152000D02*X159000Y155500D01*
X122500D01*
X114500Y147500D01*
Y143000D01*
X170500Y162000D02*X173500Y159000D01*
X154500Y197000D02*Y192000D01*
X158500Y188000D01*
X183000D02*X158500D01*
X195500Y207000D02*X138000D01*
G54D54*X164500Y197000D02*X185500D01*
X154500Y227000D02*X164500D01*
G54D53*X127500Y233500D02*X152000D01*
X154500Y231000D01*
Y227000D01*
G54D54*X179500Y172500D02*Y110000D01*
G54D53*X185500Y176000D02*Y117000D01*
X190000Y134000D02*Y181000D01*
X173500Y135500D02*Y159000D01*
X221000Y115500D02*Y133000D01*
X212000Y142000D01*
X228000Y139000D02*X215000Y152000D01*
X212000Y142000D02*X196500D01*
X215000Y152000D02*X196500D01*
X192000Y132000D02*X190000Y134000D01*
X228000Y109000D02*Y139000D01*
X155500Y146500D02*X160000Y142000D01*
X166500D01*
X170000Y132000D02*X173500Y135500D01*
X166500Y152000D02*X162500D01*
X116500Y185000D02*X120500D01*
X124500Y189000D01*
Y197000D01*
X132000Y188500D02*X122000Y178500D01*
X114500Y194500D02*X109500Y189500D01*
X134500Y197000D02*Y203500D01*
X138000Y207000D01*
X144500Y197000D02*Y191500D01*
X141500Y188500D01*
X132000D01*
X104500Y197000D02*Y170500D01*
X109500Y153500D02*X104500Y148500D01*
X114500Y173000D02*Y167000D01*
X119500Y162000D01*
X122000Y178500D02*X109500D01*
G54D54*X225000Y184500D02*X213500Y173000D01*
G54D53*X195500Y217000D02*Y197000D01*
G54D54*X205500Y217000D02*Y197000D01*
X215500D01*
G54D53*X190000Y181000D02*X183000Y188000D01*
G54D54*X185500Y197000D02*Y194500D01*
X193000Y187000D01*
X215500D01*
X189500Y227000D02*X209500D01*
X225000Y211500D02*Y184500D01*
X209500Y227000D02*X225000Y211500D01*
G54D53*X96500Y135000D02*Y127500D01*
X99500Y165500D02*Y138000D01*
X96500Y135000D01*
G54D54*X124500Y143000D02*X134500D01*
X135000Y148000D02*Y132500D01*
G54D53*X94500Y142000D02*X94000D01*
X90500Y138500D01*
X109000D02*X104500Y143000D01*
X110500Y138500D02*X109000D01*
X90500D02*Y130500D01*
G54D54*X128500Y132000D02*X135000D01*
Y133000D02*Y122500D01*
G54D53*X115500Y128500D02*Y133500D01*
X110500Y138500D01*
X64500Y143000D02*X58500Y149000D01*
X51500D01*
X48500Y138000D02*X44000D01*
G54D54*X20000Y112000D02*Y180500D01*
X27500Y188000D01*
X34500Y185000D02*Y196000D01*
X27500Y188000D02*X34500D01*
G54D53*X51500Y149000D02*X31500Y169000D01*
Y178000D01*
X44000Y138000D02*X39500Y142500D01*
Y148000D01*
X31500D01*
G54D54*X46500Y173000D02*X34500Y185000D01*
X64500Y173000D02*X46500D01*
X56000Y190000D02*Y185000D01*
G54D53*X74500Y180500D02*X70000Y185000D01*
X56000D01*
G54D54*X74500Y173000D02*Y184000D01*
G54D53*X70500Y119500D02*X84500Y133500D01*
Y143000D01*
X74500D02*Y134500D01*
X72000Y132000D01*
G54D54*X44500Y188000D02*X53500D01*
X65500Y204000D02*Y200000D01*
X53500Y188000D01*
X34500Y196000D02*X65500Y227000D01*
X104500D01*
X65500Y234000D02*Y227000D01*
G54D53*X86000Y185000D02*X97000D01*
G54D54*X104500Y227000D02*Y221000D01*
X108500Y217000D01*
X90500Y195500D02*X61000D01*
G54D53*X97000Y179000D02*Y185000D01*
X3000Y247000D02*X9000D01*
X6000D02*Y241000D01*
G54D54*X114500Y227000D02*X124500D01*
G54D53*X125000D02*Y231000D01*
X127500Y233500D01*
G54D54*X114500Y237500D02*Y227000D01*
G54D53*X94500Y173000D02*Y176500D01*
X97000Y179000D01*
X104500Y170500D02*X99500Y165500D01*
X109500Y189500D02*Y153500D01*
X166500Y122000D02*Y121000D01*
G54D54*Y102000D02*X171500D01*
X179500Y110000D01*
G54D53*X196500Y112000D02*X190500D01*
X185500Y117000D01*
X209000Y132000D02*X192000D01*
X166500D02*X170000D01*
X113000Y126000D02*X115500Y128500D01*
X166500Y112000D02*X161000D01*
X159000Y110000D01*
Y96000D01*
X155500Y126500D02*Y119000D01*
X166500Y122000D02*X155500D01*
X118500Y119000D02*X111500D01*
G54D54*X140000Y109000D02*Y117500D01*
X135000Y122500D02*X140000Y117500D01*
X173500Y93500D02*Y104000D01*
X136500Y74000D02*Y66000D01*
X148500D01*
G54D53*X156500Y29000D02*X144500Y17000D01*
X156500Y29000D02*Y88000D01*
X221000Y85500D02*Y42000D01*
X210500Y31500D01*
Y17000D01*
X159000Y96000D02*X171500Y83500D01*
X181000D01*
X181500D02*X202500D01*
G54D54*X125500Y78000D02*X132500D01*
X136500Y74000D01*
G54D53*X155500Y89000D02*X156500Y88000D01*
X116000Y96000D02*X159000D01*
X115500Y78000D02*Y108000D01*
X116000Y96000D02*X115500Y95500D01*
X125500Y108000D02*Y112000D01*
X118500Y119000D01*
G54D54*X125500Y78000D02*Y68000D01*
G54D53*X196500Y102000D02*X204500D01*
X214000Y111500D01*
X209000Y132000D02*X214000Y127000D01*
Y111500D01*
X213750Y111250D01*
X196500Y122000D02*X206000D01*
X228000Y109000D02*X202500Y83500D01*
G54D55*X206000Y122000D03*
Y142000D03*
X196500Y122000D03*
Y132000D03*
Y142000D03*
Y152000D03*
X199500Y172500D03*
X196500Y162000D03*
X178000Y172500D03*
G54D52*G36*
X163000Y165500D02*Y158500D01*
X170000D01*
Y165500D01*
X163000D01*
G37*
G54D55*X166500Y152000D03*
Y142000D03*
Y132000D03*
Y122000D03*
X155500Y146500D03*
G54D56*Y89000D03*
X148500Y96000D03*
X136500D03*
G54D52*G36*
X122500Y111000D02*Y105000D01*
X128500D01*
Y111000D01*
X122500D01*
G37*
G54D57*X128500Y132000D03*
G54D55*X138500Y119000D03*
G54D52*G36*
X101000Y200500D02*Y193500D01*
X108000D01*
Y200500D01*
X101000D01*
G37*
G54D55*X114500Y197000D03*
X124500D03*
X134500D03*
X144500D03*
X154500D03*
G54D56*X221000Y115500D03*
Y85500D03*
G54D55*X181000Y83500D03*
Y63500D03*
G54D58*X210500Y17000D03*
X190500D03*
X170500D03*
X210500Y57000D03*
G54D59*X170500D03*
G54D55*X166500Y112000D03*
Y102000D03*
X196500D03*
Y112000D03*
G54D52*G36*
X212000Y200500D02*Y193500D01*
X219000D01*
Y200500D01*
X212000D01*
G37*
G54D60*X195500Y197000D03*
X205500D03*
G54D57*X215500Y187000D03*
G54D52*G36*
X181900Y220600D02*Y213400D01*
X189100D01*
Y220600D01*
X181900D01*
G37*
G54D60*X195500Y217000D03*
X205500D03*
G54D52*G36*
X181400Y201100D02*Y192900D01*
X189600D01*
Y201100D01*
X181400D01*
G37*
G54D55*X175500Y217000D03*
Y197000D03*
X164500D03*
Y227000D03*
X154500D03*
X144500D03*
X134500D03*
X124500D03*
X114500D03*
X104500D03*
X94500Y173000D03*
X84500D03*
X74500D03*
X64500D03*
G54D52*G36*
X31500Y191000D02*Y185000D01*
X37500D01*
Y191000D01*
X31500D01*
G37*
G54D56*X44500Y188000D03*
X31500Y178000D03*
X39500D03*
X56000Y185000D03*
G54D52*G36*
X60500Y239000D02*Y229000D01*
X70500D01*
Y239000D01*
X60500D01*
G37*
G54D59*X65500Y204000D03*
G54D55*X48500Y172500D03*
G54D56*X86000Y185000D03*
X94500Y143000D03*
X104500D03*
G54D57*X114500D03*
G54D55*X124500D03*
Y173000D03*
G54D56*X114500D03*
G54D55*X117000Y185000D03*
G54D56*X104500Y173000D03*
G54D55*X97000Y185000D03*
X135000Y168000D03*
Y148000D03*
G54D52*G36*
X61000Y146500D02*Y139500D01*
X68000D01*
Y146500D01*
X61000D01*
G37*
G54D55*X74500Y143000D03*
X84500D03*
X50000Y88000D03*
Y108000D03*
X48500Y128000D03*
Y138000D03*
G54D56*X31500Y148000D03*
X39500D03*
G54D55*X28500Y138000D03*
Y128000D03*
Y118000D03*
X48500Y152500D03*
G54D52*G36*
X146000Y68500D02*Y63500D01*
X151000D01*
Y68500D01*
X146000D01*
G37*
G54D56*X136500Y66000D03*
G54D61*X144500Y57000D03*
G54D58*Y17000D03*
X124500D03*
X78500D03*
X58500D03*
X38500D03*
X104500D03*
G54D59*Y57000D03*
G54D61*X78500D03*
G54D58*X38500D03*
G54D56*X91000Y52000D03*
Y22000D03*
G54D55*X87500Y68000D03*
X107500D03*
X155500Y126500D03*
G54D56*Y119000D03*
G54D55*X118500D03*
X115500Y108000D03*
G54D56*X95500Y78000D03*
X105500D03*
G54D55*X115500D03*
X125500D03*
G54D56*X111000Y118500D03*
X105500Y108000D03*
G54D57*X108500Y132000D03*
G54D56*X95500Y108000D03*
X85500D03*
X75500D03*
X65500D03*
G54D55*Y78000D03*
X75500D03*
X85500D03*
X48500Y118000D03*
G54D56*X72000Y132000D03*
X102000D03*
X78500Y118500D03*
G54D62*X20000Y20000D03*
X230000D03*
G54D63*X173500Y93500D03*
X140000Y109000D03*
X142000Y144000D03*
X64000Y125500D03*
X60500Y132500D03*
X125500Y68000D03*
G54D62*X230000Y230000D03*
G54D63*X142000Y171000D03*
X169000Y172000D03*
X198500Y183500D03*
X114500Y237500D03*
X90500Y195500D03*
G54D62*X20000Y230000D03*
G54D57*X45500Y179000D03*
X56000Y181000D03*
G54D63*X45500Y80500D03*
G54D64*G54D65*G54D64*G54D65*G54D64*G54D65*G54D66*G54D65*G54D66*G54D65*G54D66*G54D65*G54D66*G54D67*G54D66*G54D65*G54D66*G54D65*G54D68*G54D66*G54D69*G54D70*G54D69*G54D70*G54D65*G54D66*G54D69*G54D66*G54D54*G54D65*G54D66*G54D65*G54D66*G54D65*G54D66*G54D65*G54D69*G54D66*G54D65*G54D67*G54D66*G54D68*G54D66*G54D65*G54D66*G54D65*G54D66*G54D65*G54D66*G54D65*G54D66*M02*
