G04 start of page 9 for group -4079 idx -4079 *
G04 Title: (unknown), topsilk *
G04 Creator: pcb 4.0.2 *
G04 CreationDate: Mon Dec  4 09:25:57 2017 UTC *
G04 For: janik *
G04 Format: Gerber/RS-274X *
G04 PCB-Dimensions (mil): 2500.00 2500.00 *
G04 PCB-Coordinate-Origin: lower left *
%MOIN*%
%FSLAX25Y25*%
%LNPLC*%
%ADD105C,0.0100*%
%ADD104C,0.0060*%
G54D104*X0Y250000D02*Y0D01*
X250000D01*
Y250000D01*
X0D01*
Y0D01*
X250000D01*
Y250000D01*
X0D01*
G54D105*X65500Y249000D02*G75*G03X65500Y249000I0J-30000D01*G01*
X43500Y172500D02*X44000D01*
X43500D02*Y152500D01*
X44000D01*
X53000D02*X53500D01*
Y172500D02*Y152500D01*
X53000Y172500D02*X53500D01*
X77000Y185000D02*X81000D01*
X77000Y189000D02*Y181000D01*
X65000D02*X77000D01*
X65000Y189000D02*Y181000D01*
Y189000D02*X77000D01*
X61000Y185000D02*X65000D01*
X29500Y193000D02*Y183000D01*
X49500D01*
Y193000D02*Y183000D01*
X29500Y193000D02*X49500D01*
X29500Y183000D02*X39500D01*
Y193000D02*Y183000D01*
X31500Y157000D02*Y153000D01*
X27500Y157000D02*X35500D01*
X27500Y169000D02*Y157000D01*
Y169000D02*X35500D01*
Y157000D01*
X31500Y173000D02*Y169000D01*
X39500Y173000D02*Y169000D01*
X35500D02*X43500D01*
Y157000D01*
X35500D02*X43500D01*
X35500Y169000D02*Y157000D01*
X39500D02*Y153000D01*
G54D104*X23500Y143000D02*X53500D01*
X23500Y113000D02*Y143000D01*
X53500Y113000D02*X23500D01*
X53500Y143000D02*Y113000D01*
G54D105*X43500Y133000D02*X53500D01*
X43500Y143000D02*Y133000D01*
X53500Y143000D02*Y123000D01*
X43500D02*X53500D01*
X43500Y143000D02*Y123000D01*
Y143000D02*X53500D01*
X59500Y138000D02*X129500D01*
Y178000D02*Y138000D01*
X59500Y178000D02*X129500D01*
X59500Y153000D02*Y138000D01*
Y178000D02*Y163000D01*
Y153000D02*G75*G03X59500Y163000I0J5000D01*G01*
X130000Y168000D02*X130500D01*
X130000D02*Y148000D01*
X130500D01*
X139500D02*X140000D01*
Y168000D02*Y148000D01*
X139500Y168000D02*X140000D01*
X117000Y189500D02*Y190000D01*
X97000D01*
Y189500D01*
Y180500D02*Y180000D01*
X117000D01*
Y180500D01*
X108500Y127500D02*Y127000D01*
X128500D01*
Y127500D02*Y127000D01*
Y137000D02*Y136500D01*
X108500Y137000D02*X128500D01*
X108500D02*Y136500D01*
X77000Y132000D02*X81000D01*
Y136000D02*Y128000D01*
Y136000D02*X93000D01*
Y128000D01*
X81000D02*X93000D01*
Y132000D02*X97000D01*
X83500Y118500D02*X87500D01*
Y122500D02*Y114500D01*
Y122500D02*X99500D01*
Y114500D01*
X87500D02*X99500D01*
Y118500D02*X106000D01*
X99500Y192000D02*X169500D01*
Y232000D02*Y192000D01*
X99500Y232000D02*X169500D01*
X99500Y207000D02*Y192000D01*
Y232000D02*Y217000D01*
Y207000D02*G75*G03X99500Y217000I0J5000D01*G01*
X210500Y202000D02*X220500D01*
X210500D02*Y182000D01*
X220500D01*
Y202000D02*Y182000D01*
X210500Y202000D02*Y192000D01*
X220500D01*
X188500Y190000D02*X202500D01*
X202571Y189929D02*G75*G03X188429Y189929I-7071J7071D01*G01*
X188500Y210000D02*X202500D01*
X202571Y209929D02*G75*G03X188429Y209929I-7071J7071D01*G01*
X150500Y146500D02*X151000D01*
X150500D02*Y126500D01*
X151000D01*
X160000D02*X160500D01*
Y146500D02*Y126500D01*
X160000Y146500D02*X160500D01*
X170500Y217000D02*X171000D01*
X170500D02*Y197000D01*
X171000D01*
X180000D02*X180500D01*
Y217000D02*Y197000D01*
X180000Y217000D02*X180500D01*
X221000Y110500D02*Y106500D01*
X217000D02*X225000D01*
Y94500D01*
X217000D02*X225000D01*
X217000Y106500D02*Y94500D01*
X221000D02*Y90500D01*
X210500Y122000D02*X211000D01*
Y142000D02*Y122000D01*
X210500Y142000D02*X211000D01*
X201000D02*X201500D01*
X201000D02*Y122000D01*
X201500D01*
X155500Y114000D02*Y110000D01*
X151500D02*X159500D01*
Y98000D01*
X151500D02*X159500D01*
X151500Y110000D02*Y98000D01*
X155500D02*Y94000D01*
X54500Y88000D02*X55000D01*
Y108000D02*Y88000D01*
X54500Y108000D02*X55000D01*
X45000D02*X45500D01*
X45000D02*Y88000D01*
X45500D01*
X60500Y113000D02*X130500D01*
X60500D02*Y73000D01*
X130500D01*
Y113000D02*Y98000D01*
Y88000D02*Y73000D01*
Y98000D02*G75*G03X130500Y88000I0J-5000D01*G01*
X148500Y76000D02*Y66000D01*
Y96000D02*Y86000D01*
Y76000D02*X143500Y86000D01*
X153500D01*
X148500Y76000D01*
X143500D02*X153500D01*
X176000Y83500D02*X176500D01*
X176000D02*Y63500D01*
X176500D01*
X185500D02*X186000D01*
Y83500D02*Y63500D01*
X185500Y83500D02*X186000D01*
X199500Y177000D02*Y177500D01*
X179500D01*
Y177000D01*
Y168000D02*Y167500D01*
X199500D01*
Y168000D01*
X161500Y97000D02*Y167000D01*
X201500Y97000D02*X161500D01*
X201500D02*Y167000D01*
X176500D02*X161500D01*
X201500D02*X186500D01*
X176500D02*G75*G03X186500Y167000I5000J0D01*G01*
X136500Y75000D02*Y71000D01*
X132500Y75000D02*X140500D01*
X132500Y87000D02*Y75000D01*
Y87000D02*X140500D01*
Y75000D01*
X136500Y91000D02*Y87000D01*
X91000Y47000D02*Y43000D01*
X87000D02*X95000D01*
Y31000D01*
X87000D02*X95000D01*
X87000Y43000D02*Y31000D01*
X91000D02*Y27000D01*
X87500Y63500D02*Y63000D01*
X107500D01*
Y63500D02*Y63000D01*
Y73000D02*Y72500D01*
X87500Y73000D02*X107500D01*
X87500D02*Y72500D01*
X118500Y114500D02*Y114000D01*
X138500D01*
Y114500D02*Y114000D01*
Y124000D02*Y123500D01*
X118500Y124000D02*X138500D01*
X118500D02*Y123500D01*
X58500Y155000D02*X62000D01*
X62500Y155500D01*
Y156500D02*Y155500D01*
Y156500D02*X62000Y157000D01*
X58500D02*X62000D01*
X61000Y158200D02*X58500Y160200D01*
X61000Y160700D02*Y158200D01*
X58500Y160200D02*X62500D01*
X54500Y192300D02*Y191500D01*
X51000D02*X54500D01*
X50500Y192000D02*X51000Y191500D01*
X50500Y192500D02*Y192000D01*
X51000Y193000D02*X50500Y192500D01*
X51000Y193000D02*X51500D01*
X53700Y190300D02*X54500Y189500D01*
X50500D02*X54500D01*
X50500Y190300D02*Y188800D01*
X29500Y162000D02*Y160000D01*
Y162000D02*X30000Y162500D01*
X31000D01*
X31500Y162000D02*X31000Y162500D01*
X31500Y162000D02*Y160500D01*
X29500D02*X33500D01*
X31500Y161300D02*X33500Y162500D01*
X29500Y165200D02*X30000Y165700D01*
X29500Y165200D02*Y164200D01*
X30000Y163700D02*X29500Y164200D01*
X30000Y163700D02*X33000D01*
X33500Y164200D01*
X31300Y165200D02*X31800Y165700D01*
X31300Y165200D02*Y163700D01*
X33500Y165200D02*Y164200D01*
Y165200D02*X33000Y165700D01*
X31800D02*X33000D01*
X37500Y161000D02*Y159000D01*
Y161000D02*X38000Y161500D01*
X39000D01*
X39500Y161000D02*X39000Y161500D01*
X39500Y161000D02*Y159500D01*
X37500D02*X41500D01*
X39500Y160300D02*X41500Y161500D01*
Y163200D02*X37500Y165200D01*
Y162700D01*
X63500Y219300D02*Y218000D01*
X64200Y220000D02*X63500Y219300D01*
X64200Y220000D02*X66800D01*
X67500Y219300D01*
Y218000D01*
Y216800D02*Y214800D01*
X65500Y216800D02*X67500D01*
X65500D02*X66000Y216300D01*
Y215300D01*
X65500Y214800D01*
X64000D02*X65500D01*
X63500Y215300D02*X64000Y214800D01*
X63500Y216300D02*Y215300D01*
X64000Y216800D02*X63500Y216300D01*
X51000Y159500D02*Y157550D01*
X49950Y156500D02*X51000Y157550D01*
X46050Y156500D02*X49950D01*
X46050D02*X45000Y157550D01*
Y159500D02*Y157550D01*
X46200Y161300D02*X45000Y162500D01*
X51000D01*
Y163550D02*Y161300D01*
X50250Y165350D02*X51000Y166100D01*
X45750Y165350D02*X50250D01*
X45750D02*X45000Y166100D01*
Y167600D02*Y166100D01*
Y167600D02*X45750Y168350D01*
X50250D01*
X51000Y167600D02*X50250Y168350D01*
X51000Y167600D02*Y166100D01*
X49500Y165350D02*X46500Y168350D01*
X144500Y88500D02*X148500D01*
X144500Y89800D02*X145200Y90500D01*
X147800D01*
X148500Y89800D02*X147800Y90500D01*
X148500Y89800D02*Y88000D01*
X144500Y89800D02*Y88000D01*
X145300Y91700D02*X144500Y92500D01*
X148500D01*
Y93200D02*Y91700D01*
X134500Y80000D02*Y78000D01*
Y80000D02*X135000Y80500D01*
X136000D01*
X136500Y80000D02*X136000Y80500D01*
X136500Y80000D02*Y78500D01*
X134500D02*X138500D01*
X136500Y79300D02*X138500Y80500D01*
X138000Y81700D02*X138500Y82200D01*
X137200Y81700D02*X138000D01*
X137200D02*X136500Y82400D01*
Y83000D02*Y82400D01*
Y83000D02*X137200Y83700D01*
X138000D01*
X138500Y83200D02*X138000Y83700D01*
X138500Y83200D02*Y82200D01*
X135800Y81700D02*X136500Y82400D01*
X135000Y81700D02*X135800D01*
X135000D02*X134500Y82200D01*
Y83200D02*Y82200D01*
Y83200D02*X135000Y83700D01*
X135800D01*
X136500Y83000D02*X135800Y83700D01*
X138000Y154500D02*Y152550D01*
X136950Y151500D02*X138000Y152550D01*
X133050Y151500D02*X136950D01*
X133050D02*X132000Y152550D01*
Y154500D02*Y152550D01*
X135750Y156300D02*X132000Y159300D01*
X135750Y160050D02*Y156300D01*
X132000Y159300D02*X138000D01*
X142500Y18000D02*X144500D01*
X142500D02*X142000Y18500D01*
Y19500D02*Y18500D01*
X142500Y20000D02*X142000Y19500D01*
X142500Y20000D02*X144000D01*
Y22000D02*Y18000D01*
X143200Y20000D02*X142000Y22000D01*
X140800Y20000D02*X139800Y22000D01*
X138800Y20000D02*X139800Y22000D01*
X137600Y18500D02*X137100Y18000D01*
X135600D02*X137100D01*
X135600D02*X135100Y18500D01*
Y19500D02*Y18500D01*
X137600Y22000D02*X135100Y19500D01*
Y22000D02*X137600D01*
X129000Y95000D02*X132500D01*
X129000D02*X128500Y94500D01*
Y93500D01*
X129000Y93000D01*
X132500D01*
X131700Y91800D02*X132500Y91000D01*
X128500D02*X132500D01*
X128500Y91800D02*Y90300D01*
X129500Y122500D02*X131450D01*
X132500Y121450D02*X131450Y122500D01*
X132500Y121450D02*Y117550D01*
X131450Y116500D01*
X129500D02*X131450D01*
X127700Y121750D02*X126950Y122500D01*
X127700Y121750D02*Y120550D01*
X126650Y119500D01*
X125750D02*X126650D01*
X125750D02*X124700Y120550D01*
Y121750D02*Y120550D01*
X125450Y122500D02*X124700Y121750D01*
X125450Y122500D02*X126950D01*
X127700Y118450D02*X126650Y119500D01*
X127700Y118450D02*Y117250D01*
X126950Y116500D01*
X125450D02*X126950D01*
X125450D02*X124700Y117250D01*
Y118450D02*Y117250D01*
X125750Y119500D02*X124700Y118450D01*
X47000Y103450D02*Y101500D01*
X48050Y104500D02*X47000Y103450D01*
X48050Y104500D02*X51950D01*
X53000Y103450D01*
Y101500D01*
X51800Y99700D02*X53000Y98500D01*
X47000D02*X53000D01*
X47000Y99700D02*Y97450D01*
X51800Y95650D02*X53000Y94450D01*
X47000D02*X53000D01*
X47000Y95650D02*Y93400D01*
X76500Y18000D02*X78500D01*
X76500D02*X76000Y18500D01*
Y19500D02*Y18500D01*
X76500Y20000D02*X76000Y19500D01*
X76500Y20000D02*X78000D01*
Y22000D02*Y18000D01*
X77200Y20000D02*X76000Y22000D01*
X74800Y20000D02*X73800Y22000D01*
X72800Y20000D02*X73800Y22000D01*
X71600Y18800D02*X70800Y18000D01*
Y22000D02*Y18000D01*
X70100Y22000D02*X71600D01*
X30500Y149000D02*X31000Y148500D01*
X29000Y149000D02*X30500D01*
X28500Y148500D02*X29000Y149000D01*
X28500Y148500D02*Y147500D01*
X29000Y147000D01*
X30500D01*
X31000Y146500D01*
Y145500D01*
X30500Y145000D02*X31000Y145500D01*
X29000Y145000D02*X30500D01*
X28500Y145500D02*X29000Y145000D01*
X32200Y148200D02*X33000Y149000D01*
Y145000D01*
X32200D02*X33700D01*
X118500Y135500D02*X120450D01*
X121500Y134450D02*X120450Y135500D01*
X121500Y134450D02*Y130550D01*
X120450Y129500D01*
X118500D02*X120450D01*
X115950Y135500D02*X113700Y132500D01*
Y130250D01*
X114450Y129500D02*X113700Y130250D01*
X114450Y129500D02*X115950D01*
X116700Y130250D02*X115950Y129500D01*
X116700Y131750D02*Y130250D01*
Y131750D02*X115950Y132500D01*
X113700D02*X115950D01*
X87900Y130200D02*X89900D01*
X87900D02*X87400Y130700D01*
Y131700D02*Y130700D01*
X87900Y132200D02*X87400Y131700D01*
X87900Y132200D02*X89400D01*
Y134200D02*Y130200D01*
X88600Y132200D02*X87400Y134200D01*
X84200Y130200D02*X86200D01*
Y132200D02*Y130200D01*
Y132200D02*X85700Y131700D01*
X84700D02*X85700D01*
X84700D02*X84200Y132200D01*
Y133700D02*Y132200D01*
X84700Y134200D02*X84200Y133700D01*
X84700Y134200D02*X85700D01*
X86200Y133700D02*X85700Y134200D01*
X88500Y37000D02*Y35000D01*
Y37000D02*X89000Y37500D01*
X90000D01*
X90500Y37000D02*X90000Y37500D01*
X90500Y37000D02*Y35500D01*
X88500D02*X92500D01*
X90500Y36300D02*X92500Y37500D01*
X89300Y38700D02*X88500Y39500D01*
X92500D01*
Y40200D02*Y38700D01*
X95550Y64500D02*X97500D01*
X94500Y65550D02*X95550Y64500D01*
X94500Y69450D02*Y65550D01*
Y69450D02*X95550Y70500D01*
X97500D01*
X99300Y69300D02*X100500Y70500D01*
Y64500D01*
X99300D02*X101550D01*
X90000Y120500D02*X92000D01*
X92500Y120000D01*
Y119000D01*
X92000Y118500D02*X92500Y119000D01*
X90500Y118500D02*X92000D01*
X90500Y120500D02*Y116500D01*
X91300Y118500D02*X92500Y116500D01*
X93700Y118000D02*X95700Y120500D01*
X93700Y118000D02*X96200D01*
X95700Y120500D02*Y116500D01*
X68000Y187000D02*X70000D01*
X70500Y186500D01*
Y185500D01*
X70000Y185000D02*X70500Y185500D01*
X68500Y185000D02*X70000D01*
X68500Y187000D02*Y183000D01*
X69300Y185000D02*X70500Y183000D01*
X72200D02*X73700Y185000D01*
Y186500D02*Y185000D01*
X73200Y187000D02*X73700Y186500D01*
X72200Y187000D02*X73200D01*
X71700Y186500D02*X72200Y187000D01*
X71700Y186500D02*Y185500D01*
X72200Y185000D01*
X73700D01*
X103550Y181500D02*X105500D01*
X102500Y182550D02*X103550Y181500D01*
X102500Y186450D02*Y182550D01*
Y186450D02*X103550Y187500D01*
X105500D01*
X109550D02*X110300Y186750D01*
X108050Y187500D02*X109550D01*
X107300Y186750D02*X108050Y187500D01*
X107300Y186750D02*Y182250D01*
X108050Y181500D01*
X109550Y184800D02*X110300Y184050D01*
X107300Y184800D02*X109550D01*
X108050Y181500D02*X109550D01*
X110300Y182250D01*
Y184050D02*Y182250D01*
X98500Y209000D02*X102000D01*
X102500Y209500D01*
Y210500D02*Y209500D01*
Y210500D02*X102000Y211000D01*
X98500D02*X102000D01*
X99000Y212200D02*X98500Y212700D01*
Y213700D02*Y212700D01*
Y213700D02*X99000Y214200D01*
X102500Y213700D02*X102000Y214200D01*
X102500Y213700D02*Y212700D01*
X102000Y212200D02*X102500Y212700D01*
X100300Y213700D02*Y212700D01*
X99000Y214200D02*X99800D01*
X100800D02*X102000D01*
X100800D02*X100300Y213700D01*
X99800Y214200D02*X100300Y213700D01*
X219000Y177000D02*X219800D01*
X219000Y180500D02*Y177000D01*
X219500Y181000D02*X219000Y180500D01*
X219500Y181000D02*X220000D01*
X220500Y180500D02*X220000Y181000D01*
X220500Y180500D02*Y180000D01*
X217800Y177500D02*X217300Y177000D01*
X215800D02*X217300D01*
X215800D02*X215300Y177500D01*
Y178500D02*Y177500D01*
X217800Y181000D02*X215300Y178500D01*
Y181000D02*X217800D01*
X193500Y204500D02*Y201500D01*
Y204500D02*X194000Y205000D01*
X195000D01*
X195500Y204500D01*
Y202000D01*
X194500Y201000D02*X195500Y202000D01*
X194000Y201000D02*X194500D01*
X193500Y201500D02*X194000Y201000D01*
X194500Y202500D02*X195500Y201000D01*
X196700Y204200D02*X197500Y205000D01*
Y201000D01*
X196700D02*X198200D01*
X192500Y224500D02*Y221500D01*
Y224500D02*X193000Y225000D01*
X194000D01*
X194500Y224500D01*
Y222000D01*
X193500Y221000D02*X194500Y222000D01*
X193000Y221000D02*X193500D01*
X192500Y221500D02*X193000Y221000D01*
X193500Y222500D02*X194500Y221000D01*
X195700Y224500D02*X196200Y225000D01*
X197700D01*
X198200Y224500D01*
Y223500D01*
X195700Y221000D02*X198200Y223500D01*
X195700Y221000D02*X198200D01*
X157500Y107000D02*Y105000D01*
X157000Y104500D01*
X156000D02*X157000D01*
X155500Y105000D02*X156000Y104500D01*
X155500Y106500D02*Y105000D01*
X153500Y106500D02*X157500D01*
X155500Y105700D02*X153500Y104500D01*
X157000Y103300D02*X157500Y102800D01*
Y101300D01*
X157000Y100800D01*
X156000D02*X157000D01*
X153500Y103300D02*X156000Y100800D01*
X153500Y103300D02*Y100800D01*
X183500Y72500D02*Y70550D01*
X182450Y69500D02*X183500Y70550D01*
X178550Y69500D02*X182450D01*
X178550D02*X177500Y70550D01*
Y72500D02*Y70550D01*
X183500Y75050D02*X177500Y78050D01*
Y74300D01*
X223000Y103500D02*Y101500D01*
X222500Y101000D01*
X221500D02*X222500D01*
X221000Y101500D02*X221500Y101000D01*
X221000Y103000D02*Y101500D01*
X219000Y103000D02*X223000D01*
X221000Y102200D02*X219000Y101000D01*
X222500Y99800D02*X223000Y99300D01*
Y98300D01*
X222500Y97800D01*
X219000Y98300D02*X219500Y97800D01*
X219000Y99300D02*Y98300D01*
X219500Y99800D02*X219000Y99300D01*
X221200D02*Y98300D01*
X221700Y97800D02*X222500D01*
X219500D02*X220700D01*
X221200Y98300D01*
X221700Y97800D02*X221200Y98300D01*
X208500Y131000D02*Y129050D01*
X207450Y128000D02*X208500Y129050D01*
X203550Y128000D02*X207450D01*
X203550D02*X202500Y129050D01*
Y131000D02*Y129050D01*
X203250Y132800D02*X202500Y133550D01*
Y135050D02*Y133550D01*
Y135050D02*X203250Y135800D01*
X208500Y135050D02*X207750Y135800D01*
X208500Y135050D02*Y133550D01*
X207750Y132800D02*X208500Y133550D01*
X205200Y135050D02*Y133550D01*
X203250Y135800D02*X204450D01*
X205950D02*X207750D01*
X205950D02*X205200Y135050D01*
X204450Y135800D02*X205200Y135050D01*
X208500Y18000D02*X210500D01*
X208500D02*X208000Y18500D01*
Y19500D02*Y18500D01*
X208500Y20000D02*X208000Y19500D01*
X208500Y20000D02*X210000D01*
Y22000D02*Y18000D01*
X209200Y20000D02*X208000Y22000D01*
X206800Y20000D02*X205800Y22000D01*
X204800Y20000D02*X205800Y22000D01*
X203600Y18500D02*X203100Y18000D01*
X202100D02*X203100D01*
X202100D02*X201600Y18500D01*
X202100Y22000D02*X201600Y21500D01*
X202100Y22000D02*X203100D01*
X203600Y21500D02*X203100Y22000D01*
X202100Y19800D02*X203100D01*
X201600Y19300D02*Y18500D01*
Y21500D02*Y20300D01*
X202100Y19800D01*
X201600Y19300D02*X202100Y19800D01*
X158000Y135500D02*Y133550D01*
X156950Y132500D02*X158000Y133550D01*
X153050Y132500D02*X156950D01*
X153050D02*X152000Y133550D01*
Y135500D02*Y133550D01*
X152750Y137300D02*X152000Y138050D01*
Y140300D02*Y138050D01*
Y140300D02*X152750Y141050D01*
X154250D01*
X158000Y137300D02*X154250Y141050D01*
X158000D02*Y137300D01*
X178500Y203500D02*Y201550D01*
X177450Y200500D02*X178500Y201550D01*
X173550Y200500D02*X177450D01*
X173550D02*X172500Y201550D01*
Y203500D02*Y201550D01*
X173700Y205300D02*X172500Y206500D01*
X178500D01*
Y207550D02*Y205300D01*
X173250Y209350D02*X172500Y210100D01*
Y211600D02*Y210100D01*
Y211600D02*X173250Y212350D01*
X178500Y211600D02*X177750Y212350D01*
X178500Y211600D02*Y210100D01*
X177750Y209350D02*X178500Y210100D01*
X175200Y211600D02*Y210100D01*
X173250Y212350D02*X174450D01*
X175950D02*X177750D01*
X175950D02*X175200Y211600D01*
X174450Y212350D02*X175200Y211600D01*
X178700Y167500D02*X180000D01*
X178000Y168200D02*X178700Y167500D01*
X178000Y170800D02*Y168200D01*
Y170800D02*X178700Y171500D01*
X180000D01*
X181200Y170700D02*X182000Y171500D01*
Y167500D01*
X181200D02*X182700D01*
X183900Y171000D02*X184400Y171500D01*
X185900D01*
X186400Y171000D01*
Y170000D01*
X183900Y167500D02*X186400Y170000D01*
X183900Y167500D02*X186400D01*
X178500Y168000D02*Y164500D01*
X179000Y164000D01*
X180000D01*
X180500Y164500D01*
Y168000D02*Y164500D01*
X181700Y167500D02*X182200Y168000D01*
X183700D01*
X184200Y167500D01*
Y166500D01*
X181700Y164000D02*X184200Y166500D01*
X181700Y164000D02*X184200D01*
M02*
